<svg width="789" height="813" fill="none" xmlns="http://www.w3.org/2000/svg"><g opacity=".1"><path opacity=".3" d="M532.923 395.518L214.28 534.157c-8.34 3.632-18.69-1.163-23.821-11.037l-78.62-135.607c-5.766-11.108-2.662-24.156 6.735-28.246l351.615-153.01c9.398-4.09 21.052 2.522 25.249 14.335l45.649 149.959c3.72 10.474.176 21.335-8.164 24.967zm98.58 230.748L315.945 763.583c-10.402 4.532-22.498-.229-27.029-10.632l-81.689-187.709c-4.531-10.402.23-22.498 10.632-27.029l315.558-137.317c10.403-4.532 22.498.229 27.03 10.632l81.688 187.709c4.531 10.403-.229 22.498-10.632 27.029z" fill="#444"/></g><path opacity=".1" d="M643.387 601.828L561.698 414.12a19.716 19.716 0 00-.916-1.834l-.335-.758c-4.532-10.403-16.627-15.164-27.03-10.632l-26.624 11.584a11.467 11.467 0 00-.529-1.481l-.141-.318a13.24 13.24 0 00-1.658-2.768l30.08-13.083c8.428-3.667 12.043-14.546 8.323-25.019l-45.473-150.03c-.141-.405-.317-.793-.476-1.181l-2.186-7.212c-4.197-11.795-15.957-18.372-25.478-14.229L112.509 352.355c-9.521 4.144-12.748 17.226-6.965 28.335l3.791 6.506c.177.388.335.776.529 1.146l78.797 135.536c5.131 9.874 15.551 14.634 23.979 10.967l29.904-13.012c.176.74.406 1.463.723 2.186l.141.317c.335.776.758 1.517 1.217 2.187l-26.748 11.637c-10.403 4.531-15.163 16.627-10.632 27.029l81.688 187.709c.283.635.582 1.235.917 1.834l.335.758c4.532 10.403 16.627 15.164 27.03 10.632l315.557-137.317c10.368-4.461 15.146-16.574 10.615-26.977zM301.47 499.105l-.141-.317a13.1 13.1 0 00-1.111-2.01l182.26-79.308-35.898 15.621a13.07 13.07 0 00.899 3.086l.141.317c.212.494.459.953.723 1.411l-146.115 63.58a12.858 12.858 0 00-.758-2.38z" fill="#444"/><path opacity=".1" d="M252.788 612.901c.159-1.481.229-2.997.229-4.531 0-24.156-19.571-43.727-43.727-43.727a43.54 43.54 0 00-27.276 9.556 22.368 22.368 0 00-12.96-4.126c-10.261 0-18.901 6.877-21.599 16.275-.511-.018-1.005-.036-1.516-.036-15.163 0-27.629 11.532-29.128 26.29-14.758 3.667-25.69 16.997-25.69 32.883 0 18.707 15.164 33.888 33.889 33.888h118.557c18.707 0 33.888-15.163 33.888-33.888-.018-15.498-10.438-28.564-24.667-32.584zm190.706-477.753c-.546-14.775-7.458-29.18-20.135-38.825-12.66-9.645-28.405-12.466-42.775-9.063-11.108 2.645-21.423 8.992-28.863 18.778-14.846 19.501-13.506 46.231 1.78 64.145l-12.8 16.821-37.309 13.753c-3.985 1.463-6.013 5.889-4.549 9.856 1.463 3.985 5.889 6.012 9.856 4.549l23.027-8.481-4.937 6.471a6.992 6.992 0 001.322 9.785 6.991 6.991 0 009.786-1.322l3.879-5.096-1.869 22.393a7.672 7.672 0 007.018 8.287 7.673 7.673 0 008.287-7.018l3.385-40.447-.229-.018 12.448-16.362c21.334 9.962 47.447 4.126 62.293-15.375 7.423-9.786 10.791-21.405 10.385-32.831zm-267.828 13.524L50.286 260.74c15.375 17.191 76.117 85.162 93.625 104.733 0 0 103.746-92.743 125.381-112.068 0 0-76.117-85.162-93.626-104.733z" fill="#444"/><path d="M252.788 607.03c.159-1.481.229-2.997.229-4.531 0-24.156-19.571-43.728-43.727-43.728-10.314 0-19.8 3.58-27.276 9.557a22.368 22.368 0 00-12.96-4.126c-10.261 0-18.901 6.877-21.599 16.274-.511-.017-1.005-.035-1.516-.035-15.163 0-27.629 11.531-29.128 26.289-14.758 3.668-25.69 16.997-25.69 32.884 0 18.707 15.164 33.888 33.889 33.888h118.557c18.707 0 33.888-15.163 33.888-33.888-.018-15.499-10.438-28.582-24.667-32.584z" fill="#DAE1F9"/><path d="M163.888 148.619a2013371.01 2013371.01 0 0093.625 104.733 1031810.62 1031810.62 0 00-125.38 112.068c-17.508-19.589-78.25-87.542-93.625-104.733l125.38-112.068z" fill="#F0F0FC"/><path d="M164.399 153.503c16.592 18.566 88.759 99.303 88.759 99.303A3462692.721 3462692.721 0 01132.503 360.66a998807.907 998807.907 0 00-88.758-99.303l120.654-107.854z" fill="#fff"/><path d="M132.486 360.642c-23.556-26.342-46.584-52.12-46.584-52.12.917-.846 1.852-1.728 2.786-2.556 39.936-35.705 93.202-41.594 120.426-13.806l-76.628 68.482z" fill="#F6F9FD"/><path d="M179.21 185.311c7.318 8.199 6.63 20.77-1.569 28.105-8.181 7.317-20.77 6.612-28.088-1.587-7.317-8.199-6.629-20.77 1.57-28.087 8.199-7.335 20.77-6.63 28.087 1.569z" fill="#F2994A"/><path d="M149.959 345.038s-5.06-98.439 61.13-139.309l42.069 47.059-103.199 92.25z" fill="#F2F2F2"/><path d="M647.195 613.765L331.638 751.082c-10.403 4.532-22.498-.229-27.03-10.632L222.92 552.741c-4.532-10.402.229-22.498 10.632-27.029l315.557-137.317c10.403-4.532 22.498.229 27.03 10.632l81.688 187.709c4.549 10.385-.229 22.498-10.632 27.029z" fill="#B7B7CE"/><path opacity=".3" d="M547.381 380.408L228.756 519.065c-8.34 3.632-18.69-1.164-23.821-11.038l-78.62-135.607c-5.766-11.108-2.663-24.155 6.735-28.246l351.615-153.009c9.397-4.091 21.052 2.521 25.249 14.334l45.648 149.959c3.703 10.474.159 21.317-8.181 24.95zm98.58 230.748L330.404 748.473c-10.403 4.531-22.499-.229-27.03-10.632l-81.688-187.709c-4.532-10.403.229-22.498 10.632-27.03l315.557-137.317c10.403-4.531 22.498.23 27.03 10.632l81.688 187.709c4.532 10.403-.229 22.516-10.632 27.03z" fill="#000"/><path d="M546.218 371.362L222.92 512.047c-8.464 3.685-18.919-1.075-24.05-10.932l-78.868-135.518c-5.783-11.108-2.574-24.191 6.965-28.352l356.746-155.231c9.521-4.144 21.299 2.415 25.478 14.229l45.402 150.064c3.72 10.474.088 21.37-8.375 25.055z" fill="#B7B7CE"/><path d="M549.003 379.685L227.098 519.77c-8.428 3.667-18.848-1.093-23.979-10.967l-78.797-135.536c-5.783-11.108-2.592-24.191 6.894-28.317l355.23-154.579c9.485-4.126 21.228 2.451 25.407 14.247l45.473 150.029c3.738 10.491.105 21.37-8.323 25.038z" fill="#fff"/><path d="M220.345 506.105c-.546.229-3.103-.511-4.848-3.879l-.177-.335-78.814-135.43c-1.199-2.451-1.146-4.743-.688-6.101.194-.582.476-1.023.723-1.128l356.746-155.231c.247-.106.758-.018 1.322.247 1.305.581 3.015 2.115 3.985 4.654l45.384 149.995.124.352c1.269 3.562.07 5.96-.476 6.189L220.345 506.105z" fill="#4C59E0"/><path d="M645.961 611.156L330.404 748.473c-10.403 4.531-22.499-.229-27.03-10.632l-81.688-187.709c-4.532-10.403.229-22.498 10.632-27.03l315.557-137.317c10.403-4.531 22.498.23 27.03 10.632l81.688 187.709c4.532 10.403-.229 22.516-10.632 27.03z" fill="#fff"/><path d="M557.23 407.957L241.754 545.24l48.711 111.938 315.476-137.283-48.711-111.938z" fill="#E1E0FE"/><path d="M255.574 560.129l10.103-4.39a2.308 2.308 0 001.199-3.05l-4.39-10.103a2.308 2.308 0 00-3.051-1.199l-10.103 4.39a2.308 2.308 0 00-1.199 3.05l4.391 10.103a2.312 2.312 0 003.05 1.199zm8.904 20.471l10.085-4.39a2.314 2.314 0 001.199-3.051l-4.39-10.085a2.313 2.313 0 00-3.05-1.199l-10.086 4.39a2.314 2.314 0 00-1.199 3.05l4.391 10.086a2.314 2.314 0 003.05 1.199zm17.121-7.441l10.085-4.39a2.314 2.314 0 001.199-3.05l-4.39-10.086a2.315 2.315 0 00-3.051-1.199l-10.085 4.391a2.313 2.313 0 00-1.199 3.05l4.39 10.085a2.323 2.323 0 003.051 1.199zm27.47 6.524l-4.39-10.085a2.314 2.314 0 00-3.051-1.199l-10.085 4.39a2.314 2.314 0 00-1.199 3.05l4.39 10.086a2.315 2.315 0 003.051 1.199l10.085-4.391a2.308 2.308 0 001.199-3.05zm-36.904 18.584l18.637-8.111a2.307 2.307 0 001.199-3.05l-4.39-10.085a2.313 2.313 0 00-3.05-1.199l-18.637 8.11a2.314 2.314 0 00-1.199 3.051l4.39 10.085a2.314 2.314 0 003.05 1.199zm42.793-18.602l10.085-4.39a2.307 2.307 0 001.199-3.05l-4.39-10.086a2.314 2.314 0 00-3.05-1.199l-10.086 4.391a2.314 2.314 0 00-1.199 3.05l4.391 10.085a2.322 2.322 0 003.05 1.199zm28.458-14.916l-4.391-10.086a2.313 2.313 0 00-3.05-1.198l-10.085 4.39a2.312 2.312 0 00-1.199 3.05l4.39 10.086a2.308 2.308 0 003.05 1.199l10.086-4.391c1.164-.511 1.71-1.886 1.199-3.05zm5.871-.035l10.086-4.391a2.314 2.314 0 001.199-3.05l-4.391-10.085a2.312 2.312 0 00-3.05-1.199l-10.085 4.39a2.312 2.312 0 00-1.199 3.05l4.39 10.086a2.308 2.308 0 003.05 1.199zm17.174-7.476l10.085-4.391a2.308 2.308 0 001.199-3.05l-4.39-10.085a2.314 2.314 0 00-3.051-1.199l-10.085 4.39a2.314 2.314 0 00-1.199 3.05l4.39 10.086a2.31 2.31 0 003.051 1.199zm9.715-18.761l4.39 10.086a2.315 2.315 0 003.05 1.199l10.086-4.391a2.308 2.308 0 001.199-3.05l-4.39-10.085a2.314 2.314 0 00-3.051-1.199l-10.085 4.39c-1.164.511-1.71 1.887-1.199 3.05zm17.173-7.458l4.391 10.086a2.313 2.313 0 003.05 1.198l10.085-4.39a2.312 2.312 0 001.199-3.05l-4.39-10.086a2.314 2.314 0 00-3.05-1.199l-10.086 4.391a2.308 2.308 0 00-1.199 3.05zm17.174-7.476l4.39 10.086a2.314 2.314 0 003.05 1.199l10.086-4.391a2.314 2.314 0 001.199-3.05l-4.391-10.086a2.314 2.314 0 00-3.05-1.199l-10.085 4.391a2.307 2.307 0 00-1.199 3.05zm17.156-7.476l4.39 10.086a2.314 2.314 0 003.05 1.199l10.086-4.391a2.314 2.314 0 001.199-3.05l-4.391-10.085a2.307 2.307 0 00-3.05-1.199l-10.086 4.39c-1.163.511-1.71 1.887-1.198 3.05zm35.898-3.614l-4.39-10.086a2.315 2.315 0 00-3.051-1.199l-10.085 4.391a2.308 2.308 0 00-1.199 3.05l4.39 10.085a2.314 2.314 0 003.051 1.199l10.085-4.39a2.308 2.308 0 001.199-3.05zm5.889-.036l10.085-4.39a2.313 2.313 0 001.199-3.05l-4.39-10.086a2.314 2.314 0 00-3.05-1.199l-10.086 4.391a2.314 2.314 0 00-1.199 3.05l4.391 10.085a2.307 2.307 0 003.05 1.199zm28.458-14.898l-4.39-10.086a2.315 2.315 0 00-3.051-1.199l-10.085 4.391a2.313 2.313 0 00-1.199 3.05l4.39 10.085a2.313 2.313 0 003.05 1.199l10.086-4.39c1.164-.511 1.71-1.887 1.199-3.05zm-199.223 68.2l10.086-4.391a2.314 2.314 0 001.199-3.05l-4.39-10.086a2.308 2.308 0 00-3.051-1.198l-10.085 4.39a2.312 2.312 0 00-1.199 3.05l4.39 10.086c.511 1.163 1.887 1.692 3.05 1.199zm17.121-7.459l10.085-4.39a2.313 2.313 0 001.199-3.05l-4.39-10.086a2.308 2.308 0 00-3.05-1.199l-10.086 4.391a2.314 2.314 0 00-1.199 3.05l4.391 10.085a2.307 2.307 0 003.05 1.199zm17.103-7.44l10.085-4.391a2.312 2.312 0 001.199-3.05l-4.39-10.085a2.313 2.313 0 00-3.05-1.199l-10.086 4.39a2.314 2.314 0 00-1.199 3.05l4.391 10.086c.511 1.164 1.886 1.71 3.05 1.199zm17.12-7.441l10.086-4.39a2.315 2.315 0 001.199-3.051l-4.39-10.085a2.315 2.315 0 00-3.051-1.199l-10.085 4.39a2.308 2.308 0 00-1.199 3.051l4.39 10.085a2.323 2.323 0 003.05 1.199zm-60.248 1.869l10.103-4.39a2.308 2.308 0 001.199-3.051l-4.39-10.103a2.308 2.308 0 00-3.05-1.199l-10.103 4.391a2.307 2.307 0 00-1.199 3.05l4.39 10.103c.511 1.164 1.887 1.71 3.05 1.199zm17.121-7.458l10.103-4.391a2.308 2.308 0 001.199-3.05l-4.39-10.103a2.31 2.31 0 00-3.051-1.199l-10.103 4.39a2.31 2.31 0 00-1.199 3.051l4.391 10.103a2.308 2.308 0 003.05 1.199zm17.103-7.441l10.103-4.39a2.31 2.31 0 001.199-3.051l-4.391-10.103a2.308 2.308 0 00-3.05-1.199l-10.103 4.391a2.308 2.308 0 00-1.199 3.05l4.39 10.103a2.315 2.315 0 003.051 1.199zm17.12-7.441l10.103-4.39a2.307 2.307 0 001.199-3.05l-4.39-10.103a2.307 2.307 0 00-3.05-1.199l-10.103 4.39a2.307 2.307 0 00-1.199 3.05l4.39 10.103a2.322 2.322 0 003.05 1.199zm26.007 13.013l10.086-4.391a2.314 2.314 0 001.199-3.05l-4.391-10.085a2.307 2.307 0 00-3.05-1.199l-10.085 4.39a2.313 2.313 0 00-1.199 3.05l4.39 10.086a2.314 2.314 0 003.05 1.199zm20.965-26.184l-10.086 4.391a2.314 2.314 0 00-1.199 3.05l4.391 10.085a2.307 2.307 0 003.05 1.199l10.085-4.39a2.312 2.312 0 001.199-3.05l-4.39-10.086a2.324 2.324 0 00-3.05-1.199zm17.12-7.44l-10.085 4.39a2.313 2.313 0 00-1.199 3.05l4.39 10.086a2.314 2.314 0 003.05 1.199l10.086-4.39a2.315 2.315 0 001.199-3.051l-4.391-10.085c-.511-1.164-1.886-1.71-3.05-1.199zm17.103-7.441l-10.085 4.39a2.314 2.314 0 00-1.199 3.051l4.39 10.085a2.308 2.308 0 003.05 1.199l10.086-4.39a2.31 2.31 0 001.199-3.051l-4.391-10.085a2.308 2.308 0 00-3.05-1.199zm5.819 0l4.39 10.086a2.314 2.314 0 003.05 1.199l10.086-4.391a2.314 2.314 0 001.199-3.05l-4.391-10.086a2.313 2.313 0 00-3.05-1.198l-10.086 4.39a2.322 2.322 0 00-1.198 3.05zm24.561 3.844l10.085-4.39a2.314 2.314 0 001.199-3.051l-4.39-10.085a2.314 2.314 0 00-3.05-1.199l-10.086 4.39a2.314 2.314 0 00-1.199 3.05l4.39 10.086a2.324 2.324 0 003.051 1.199zm17.103-7.458l10.085-4.391a2.314 2.314 0 001.199-3.05l-4.39-10.086a2.314 2.314 0 00-3.051-1.198l-10.085 4.39a2.314 2.314 0 00-1.199 3.05l4.39 10.086a2.315 2.315 0 003.051 1.199zm17.12-7.441l10.086-4.39a2.315 2.315 0 001.199-3.051l-4.391-10.085a2.314 2.314 0 00-3.05-1.199l-10.085 4.39a2.314 2.314 0 00-1.199 3.051l4.39 10.085a2.308 2.308 0 003.05 1.199zm20.965-26.183l-10.086 4.39a2.314 2.314 0 00-1.199 3.05l4.391 10.086a2.314 2.314 0 003.05 1.199l10.085-4.391a2.312 2.312 0 001.199-3.05l-4.39-10.085c-.511-1.164-1.887-1.711-3.05-1.199zm19.289-8.393l-10.086 4.39a2.308 2.308 0 00-1.199 3.05l4.391 10.086a2.314 2.314 0 003.05 1.199l10.085-4.391a2.312 2.312 0 001.199-3.05l-4.39-10.085c-.511-1.164-1.886-1.711-3.05-1.199zm17.103-7.441l-10.086 4.391a2.308 2.308 0 00-1.199 3.05l4.391 10.085a2.307 2.307 0 003.05 1.199l10.085-4.39a2.307 2.307 0 001.199-3.05l-4.39-10.086a2.308 2.308 0 00-3.05-1.199zm17.12-7.441l-10.085 4.391a2.312 2.312 0 00-1.199 3.05l4.39 10.086a2.315 2.315 0 003.05 1.199l10.086-4.391a2.314 2.314 0 001.199-3.05l-4.39-10.086a2.315 2.315 0 00-3.051-1.199zm-26.536 32.549l-10.085 4.39a2.315 2.315 0 00-1.199 3.051l4.39 10.085a2.315 2.315 0 003.051 1.199l10.085-4.39a2.31 2.31 0 001.199-3.051l-4.39-10.085c-.512-1.164-1.887-1.71-3.051-1.199zm17.103-7.441l-10.085 4.391a2.313 2.313 0 00-1.199 3.05l4.39 10.085a2.313 2.313 0 003.05 1.199l10.086-4.39a2.308 2.308 0 001.199-3.05l-4.39-10.086a2.325 2.325 0 00-3.051-1.199zm17.121-7.44l-10.086 4.39a2.314 2.314 0 00-1.199 3.05l4.391 10.086a2.308 2.308 0 003.05 1.199l10.085-4.391a2.312 2.312 0 001.199-3.05l-4.39-10.085a2.313 2.313 0 00-3.05-1.199zm-26.536 32.566l-10.086 4.39a2.314 2.314 0 00-1.199 3.05l4.391 10.086a2.314 2.314 0 003.05 1.199l10.085-4.391a2.307 2.307 0 001.199-3.05l-4.39-10.085a2.307 2.307 0 00-3.05-1.199zm17.103-7.458l-10.086 4.39a2.314 2.314 0 00-1.199 3.05l4.391 10.086a2.314 2.314 0 003.05 1.199l10.085-4.391a2.307 2.307 0 001.199-3.05l-4.39-10.085c-.494-1.164-1.869-1.711-3.05-1.199zm17.12-7.441l-10.085 4.39a2.313 2.313 0 00-1.199 3.05l4.39 10.086a2.308 2.308 0 003.05 1.199l10.086-4.39a2.31 2.31 0 001.199-3.051l-4.391-10.085a2.308 2.308 0 00-3.05-1.199zm-18.848 50.233l-10.086 4.39a2.315 2.315 0 00-1.199 3.051l4.391 10.085a2.308 2.308 0 003.05 1.199l10.086-4.39a2.314 2.314 0 001.199-3.05l-4.391-10.086a2.308 2.308 0 00-3.05-1.199zm17.12-7.441l-10.085 4.391a2.314 2.314 0 00-1.199 3.05l4.39 10.085a2.314 2.314 0 003.051 1.199l10.085-4.39a2.314 2.314 0 001.199-3.05l-4.39-10.086a2.315 2.315 0 00-3.051-1.199zm17.103-7.458l-10.085 4.39a2.315 2.315 0 00-1.199 3.051l4.39 10.085a2.314 2.314 0 003.05 1.199l10.086-4.39a2.315 2.315 0 001.199-3.051l-4.39-10.085a2.324 2.324 0 00-3.051-1.199zm-226.111 7.053l10.103-4.391a2.308 2.308 0 001.199-3.05l-4.39-10.103a2.31 2.31 0 00-3.051-1.199l-10.103 4.39a2.31 2.31 0 00-1.199 3.051l4.391 10.103a2.308 2.308 0 003.05 1.199zm17.614-7.67l10.103-4.39a2.308 2.308 0 001.199-3.051l-4.39-10.103a2.308 2.308 0 00-3.05-1.199l-10.103 4.391a2.307 2.307 0 00-1.199 3.05l4.39 10.103a2.308 2.308 0 003.05 1.199zm17.615-7.652l10.103-4.391a2.308 2.308 0 001.199-3.05l-4.391-10.103a2.308 2.308 0 00-3.05-1.199l-10.103 4.39a2.31 2.31 0 00-1.199 3.051l4.39 10.103a2.325 2.325 0 003.051 1.199zm17.614-7.67l10.103-4.39a2.31 2.31 0 001.199-3.051l-4.39-10.103a2.31 2.31 0 00-3.051-1.199l-10.103 4.391a2.308 2.308 0 00-1.199 3.05l4.39 10.103a2.324 2.324 0 003.051 1.199zm24.914-10.844l10.103-4.39a2.308 2.308 0 001.199-3.05l-4.391-10.103a2.307 2.307 0 00-3.05-1.199l-10.103 4.39a2.308 2.308 0 00-1.199 3.05l4.39 10.103a2.323 2.323 0 003.051 1.199zm17.103-7.44l10.103-4.391a2.308 2.308 0 001.199-3.05l-4.391-10.103a2.308 2.308 0 00-3.05-1.199l-10.103 4.39a2.31 2.31 0 00-1.199 3.051l4.39 10.103c.512 1.163 1.887 1.71 3.051 1.199zm17.12-7.459l10.103-4.39a2.307 2.307 0 001.199-3.05l-4.39-10.103a2.307 2.307 0 00-3.05-1.199l-10.104 4.39a2.307 2.307 0 00-1.198 3.05l4.39 10.103a2.307 2.307 0 003.05 1.199zm20.964-26.183l-10.103 4.39a2.31 2.31 0 00-1.199 3.051l4.391 10.103a2.308 2.308 0 003.05 1.199l10.103-4.391a2.308 2.308 0 001.199-3.05l-4.39-10.103c-.512-1.164-1.887-1.71-3.051-1.199zm19.29-8.393l-10.103 4.391a2.307 2.307 0 00-1.199 3.05l4.39 10.103a2.308 2.308 0 003.05 1.199l10.103-4.39a2.308 2.308 0 001.199-3.051l-4.39-10.103c-.511-1.163-1.887-1.71-3.05-1.199zm17.103-7.44l-10.103 4.39a2.307 2.307 0 00-1.199 3.05l4.39 10.103a2.307 2.307 0 003.05 1.199l10.103-4.39a2.307 2.307 0 001.199-3.05l-4.39-10.103a2.307 2.307 0 00-3.05-1.199zm17.12-7.441l-10.103 4.39a2.31 2.31 0 00-1.199 3.051l4.39 10.103a2.31 2.31 0 003.051 1.199l10.103-4.391a2.308 2.308 0 001.199-3.05l-4.391-10.103a2.314 2.314 0 00-3.05-1.199zM310.48 602.622l10.085-4.39a2.315 2.315 0 001.199-3.051l-4.39-10.085a2.31 2.31 0 00-3.051-1.199l-10.085 4.39a2.315 2.315 0 00-1.199 3.051l4.39 10.085a2.324 2.324 0 003.051 1.199zm-30.609 13.33l23.591-10.262a2.314 2.314 0 001.199-3.05l-4.39-10.086a2.315 2.315 0 00-3.051-1.199l-23.591 10.262a2.314 2.314 0 00-1.199 3.05l4.39 10.086c.494 1.164 1.869 1.71 3.051 1.199zm59.066-28.246l-4.39-10.086a2.314 2.314 0 00-3.05-1.199l-10.086 4.39a2.315 2.315 0 00-1.199 3.051l4.391 10.085a2.313 2.313 0 003.05 1.199l10.085-4.39a2.307 2.307 0 001.199-3.05zm5.872-.018l10.085-4.39a2.315 2.315 0 001.199-3.051l-4.39-10.085a2.31 2.31 0 00-3.051-1.199l-10.085 4.39a2.315 2.315 0 00-1.199 3.051l4.39 10.085c.512 1.164 1.887 1.71 3.051 1.199zm28.458-14.917l-4.391-10.085a2.314 2.314 0 00-3.05-1.199l-10.085 4.39a2.314 2.314 0 00-1.199 3.051l4.39 10.085a2.314 2.314 0 003.05 1.199l10.086-4.39a2.315 2.315 0 001.199-3.051zm17.173-7.475l-4.39-10.086a2.31 2.31 0 00-3.051-1.199l-10.085 4.39a2.315 2.315 0 00-1.199 3.051l4.39 10.085a2.314 2.314 0 003.051 1.199l10.085-4.39a2.308 2.308 0 001.199-3.05zm17.173-7.476l-4.39-10.086a2.314 2.314 0 00-3.05-1.199l-10.086 4.39a2.315 2.315 0 00-1.199 3.051l4.391 10.085a2.312 2.312 0 003.05 1.199l10.085-4.39a2.322 2.322 0 001.199-3.05zm17.156-7.459l-4.39-10.085a2.314 2.314 0 00-3.05-1.199l-10.086 4.39a2.315 2.315 0 00-1.199 3.051l4.391 10.085a2.314 2.314 0 003.05 1.199l10.085-4.39a2.314 2.314 0 001.199-3.051zm17.174-7.476l-4.391-10.085a2.308 2.308 0 00-3.05-1.199l-10.085 4.39a2.314 2.314 0 00-1.199 3.051l4.39 10.085a2.314 2.314 0 003.05 1.199l10.086-4.39a2.31 2.31 0 001.199-3.051zm17.173-7.476l-4.39-10.085a2.315 2.315 0 00-3.051-1.199l-10.085 4.39a2.315 2.315 0 00-1.199 3.051l4.39 10.085a2.315 2.315 0 003.051 1.199l10.085-4.39a2.324 2.324 0 001.199-3.051zm5.872-.017l10.085-4.391a2.308 2.308 0 001.199-3.05l-4.39-10.085a2.314 2.314 0 00-3.051-1.199l-10.085 4.39a2.314 2.314 0 00-1.199 3.05l4.39 10.086a2.324 2.324 0 003.051 1.199zm28.457-14.917l-4.39-10.085a2.313 2.313 0 00-3.05-1.199l-10.086 4.39a2.314 2.314 0 00-1.199 3.05l4.391 10.086a2.314 2.314 0 003.05 1.199l10.085-4.391a2.306 2.306 0 001.199-3.05zm-168.084 96.676l10.085-4.391a2.312 2.312 0 001.199-3.05l-4.39-10.085a2.307 2.307 0 00-3.05-1.199l-10.086 4.39a2.314 2.314 0 00-1.199 3.05l4.39 10.086a2.315 2.315 0 003.051 1.199zm-37.803 16.468l30.768-13.383a2.314 2.314 0 001.199-3.05l-4.391-10.085a2.312 2.312 0 00-3.05-1.199l-30.768 13.382a2.315 2.315 0 00-1.199 3.051l4.391 10.085a2.323 2.323 0 003.05 1.199zm66.243-31.367l-4.39-10.086a2.315 2.315 0 00-3.051-1.199l-10.085 4.391a2.308 2.308 0 00-1.199 3.05l4.39 10.086a2.314 2.314 0 003.051 1.198l10.085-4.39a2.323 2.323 0 001.199-3.05zm-4.108 8.269l-15.058 6.542a2.314 2.314 0 00-1.199 3.05l4.391 10.085a2.312 2.312 0 003.05 1.199l15.057-6.541a2.313 2.313 0 001.199-3.05l-4.39-10.086a2.324 2.324 0 00-3.05-1.199zm101.983-44.362l-94.948 41.312a2.314 2.314 0 00-1.199 3.05l4.39 10.086a2.315 2.315 0 003.051 1.199l94.947-41.312a2.313 2.313 0 001.199-3.05l-4.39-10.086a2.314 2.314 0 00-3.05-1.199zm-92.021 36.075l10.085-4.39a2.314 2.314 0 001.199-3.05l-4.39-10.086a2.31 2.31 0 00-3.051-1.199l-10.085 4.391a2.308 2.308 0 00-1.199 3.05l4.39 10.085c.494 1.182 1.869 1.711 3.051 1.199zm17.138-7.458l10.085-4.39a2.308 2.308 0 001.199-3.051l-4.39-10.085a2.314 2.314 0 00-3.05-1.199l-10.086 4.39a2.315 2.315 0 00-1.199 3.051l4.391 10.085a2.308 2.308 0 003.05 1.199zm17.138-7.458l10.086-4.391a2.313 2.313 0 001.198-3.05l-4.39-10.085a2.312 2.312 0 00-3.05-1.199l-10.086 4.39a2.308 2.308 0 00-1.199 3.05l4.391 10.086a2.308 2.308 0 003.05 1.199zm17.138-7.459l10.086-4.39a2.314 2.314 0 001.199-3.05l-4.391-10.086a2.308 2.308 0 00-3.05-1.199l-10.085 4.391a2.307 2.307 0 00-1.199 3.05l4.39 10.085a2.307 2.307 0 003.05 1.199zm17.138-7.458l10.086-4.39a2.314 2.314 0 001.199-3.05l-4.39-10.086a2.315 2.315 0 00-3.051-1.199l-10.085 4.39a2.315 2.315 0 00-1.199 3.051l4.39 10.085a2.308 2.308 0 003.05 1.199zm17.139-7.458l10.085-4.391a2.314 2.314 0 001.199-3.05l-4.39-10.085a2.308 2.308 0 00-3.051-1.199l-10.085 4.39a2.308 2.308 0 00-1.199 3.05l4.39 10.086a2.31 2.31 0 003.051 1.199zm20.982-26.183l-10.086 4.39a2.314 2.314 0 00-1.199 3.05l4.39 10.086a2.31 2.31 0 003.051 1.199l10.085-4.391a2.312 2.312 0 001.199-3.05l-4.39-10.085a2.307 2.307 0 00-3.05-1.199zm6.647 18.125l-14.247 6.189a2.314 2.314 0 00-1.199 3.05l4.391 10.086a2.314 2.314 0 003.05 1.199l14.247-6.189a2.314 2.314 0 001.199-3.05l-4.391-10.086a2.323 2.323 0 00-3.05-1.199zm21.264-9.257l-14.247 6.189a2.315 2.315 0 00-1.199 3.051l4.391 10.085a2.314 2.314 0 003.05 1.199l14.246-6.189a2.314 2.314 0 001.2-3.05l-4.391-10.086a2.324 2.324 0 00-3.05-1.199zm-166.621 72.503l-14.247 6.188a2.315 2.315 0 00-1.199 3.051l4.391 10.085a2.314 2.314 0 003.05 1.199l14.246-6.189a2.312 2.312 0 001.199-3.05l-4.39-10.085a2.322 2.322 0 00-3.05-1.199zm-21.264 9.256l-17.368 7.547a2.314 2.314 0 00-1.199 3.05l4.391 10.085a2.307 2.307 0 003.05 1.199l17.367-7.546a2.313 2.313 0 001.199-3.05l-4.39-10.086c-.494-1.164-1.869-1.71-3.05-1.199zm209.114-90.998l-14.247 6.189a2.314 2.314 0 00-1.199 3.05l4.39 10.086a2.315 2.315 0 003.051 1.199l14.246-6.189a2.313 2.313 0 001.199-3.05l-4.39-10.086c-.494-1.163-1.869-1.71-3.05-1.199zm23.185-10.085l-16.15 7.035a2.307 2.307 0 00-1.199 3.05l4.39 10.086a2.314 2.314 0 003.05 1.199l16.151-7.035a2.31 2.31 0 001.199-3.051l-4.39-10.085a2.323 2.323 0 00-3.051-1.199zm-59.031 21.722l10.085-4.39a2.313 2.313 0 001.199-3.05l-4.39-10.086a2.314 2.314 0 00-3.05-1.199l-10.086 4.391a2.314 2.314 0 00-1.199 3.05l4.391 10.085a2.312 2.312 0 003.05 1.199zm87.754-55.24l-10.086 4.39a2.314 2.314 0 00-1.199 3.05l4.391 10.086a2.314 2.314 0 003.05 1.199l10.086-4.391a2.307 2.307 0 001.198-3.05l-4.39-10.085c-.511-1.164-1.886-1.711-3.05-1.199zm-36.41 15.851l-40.183 17.49a2.31 2.31 0 00-1.199 3.051l4.39 10.085a2.315 2.315 0 003.051 1.199l40.183-17.491a2.314 2.314 0 001.199-3.05l-4.391-10.085a2.307 2.307 0 00-3.05-1.199z" fill="#CACAED"/><path d="M515.644 475.267l-18.09 7.864c-1.147.494-1.675 1.834-1.164 2.962l5.448 12.536.406.935a2.324 2.324 0 01-1.199 3.05l-1.129.494-6.612 2.874a2.314 2.314 0 00-1.199 3.05l4.391 10.085a2.312 2.312 0 003.05 1.199l29.974-13.047a2.314 2.314 0 001.199-3.05l-12.113-27.824c-.494-1.093-1.816-1.622-2.962-1.128zm-199.716 8.728l-.141-.318a13.1 13.1 0 00-1.111-2.01l-57.674 25.09a12.7 12.7 0 00.723 2.187l.141.317c.335.776.758 1.517 1.217 2.187l57.621-25.073a14.442 14.442 0 00-.776-2.38zm146.009-62.928l.141.317c.212.494.459.952.723 1.411l58.468-25.443a11.619 11.619 0 00-.529-1.481l-.141-.318a13.215 13.215 0 00-1.658-2.768l-57.903 25.196a13.13 13.13 0 00.899 3.086z" fill="#CACAED"/><path d="M529.397 644.868l-94.683 41.206c-7.97 3.473-17.262-.177-20.735-8.164l-15.746-36.181c-3.473-7.969.177-17.261 8.164-20.735l94.683-41.205c7.987-3.474 17.262.176 20.735 8.163l15.745 36.181c3.474 7.987-.194 17.261-8.163 20.735z" fill="#E1E0FE"/><path opacity=".5" d="M312.349 282.727l4.214 181.502-77.916 33.907-4.214-181.503 77.916-33.906zm46.953-20.435l4.214 181.52-24.05 10.455-4.196-181.502 24.032-10.473zm118.081-51.38l4.196 181.521-77.915 33.906-4.196-181.52 77.915-33.907zm23.274 6.154l26.289 86.925 1.587 68.006-24.032 10.456-3.844-165.387z" fill="#627AF4"/><path opacity=".1" d="M672.092 237.642L612.09 218.67c-6.823-2.151-14.087 1.623-16.256 8.446L546.429 383.37c-2.151 6.823 1.622 14.105 8.446 16.256l60.001 18.972c6.824 2.151 14.106-1.622 16.257-8.446l49.404-156.253c2.169-6.841-1.622-14.106-8.445-16.257zM366.531 748.261c-.441-.229-.899-.388-1.357-.546l2.063-4.109c1.868-3.72.37-8.269-3.368-10.138l-71.057-35.687.283-.564-2.733-1.375-2.24 4.461-18.46-9.275c-1.217-.599-2.68-.123-3.28 1.093l-12.783 25.443c-.599 1.199-.123 2.68 1.093 3.28 0 0 8.587 4.319 18.461 9.274l-2.169 4.32 2.733 1.375.282-.564 71.057 35.687c3.72 1.869 8.269.37 10.138-3.368l2.063-4.108c.388.282.793.546 1.252.776 4.408 2.221 9.768.44 11.989-3.967a8.94 8.94 0 00-3.967-12.008zm.899 10.456a5.494 5.494 0 01-7.37 2.451 5.966 5.966 0 01-1.216-.829l4.76-9.468c.476.088.935.247 1.393.476 2.698 1.34 3.791 4.655 2.433 7.37zm291.878-291.226h-14.387c-5.889 0-11.232 2.257-15.252 5.942-5.713 4.108-9.433 10.791-9.433 18.373v55.152c0 12.519 10.138 22.657 22.657 22.657h14.37c5.889 0 11.231-2.257 15.252-5.942 5.712-4.108 9.433-10.791 9.433-18.372v-55.153c0-12.518-10.139-22.657-22.64-22.657z" fill="#444"/><path d="M326.313 209.872a6.991 6.991 0 009.786-1.322l22.339-29.357-11.108-8.446-22.339 29.357c-2.328 3.068-1.746 7.441 1.322 9.768z" fill="#B4B4DB"/><path d="M356.581 150.712l-23.075 30.322 17.315 13.176 23.075-30.322-17.315-13.176z" fill="#CACAED"/><path d="M431.293 154.914c-17.103 22.48-49.193 26.818-71.656 9.715-22.463-17.103-26.835-49.176-9.715-71.656 7.441-9.786 17.755-16.133 28.863-18.778 14.388-3.403 30.116-.582 42.775 9.063 12.678 9.644 19.589 24.067 20.136 38.825.423 11.426-2.945 23.045-10.403 32.831z" fill="#fff"/><path d="M417.734 144.599c-11.408 14.987-32.795 17.879-47.765 6.489-14.969-11.391-17.878-32.778-6.488-47.765 11.408-14.987 32.795-17.879 47.765-6.489 14.987 11.39 17.878 32.778 6.488 47.765z" fill="#4C59E0"/><path d="M411.069 139.521c-8.604 11.302-24.72 13.488-36.022 4.884s-13.488-24.72-4.884-36.022c8.605-11.302 24.72-13.488 36.022-4.884 11.285 8.604 13.471 24.72 4.884 36.022z" fill="#474E5D"/><path d="M405.639 135.395c-6.33 8.305-18.179 9.909-26.483 3.597-8.305-6.312-9.909-18.178-3.597-26.483 6.312-8.305 18.178-9.909 26.483-3.597 8.304 6.33 9.927 18.178 3.597 26.483z" fill="#CACAED"/><path d="M401.284 132.08c-4.479 5.889-12.907 7.035-18.796 2.557-5.889-4.479-7.035-12.907-2.539-18.796 4.496-5.889 12.907-7.035 18.796-2.556 5.871 4.478 7.017 12.889 2.539 18.795z" fill="#F0F0FC"/><path d="M395.465 127.655c-2.045 2.68-5.871 3.209-8.551 1.163a6.116 6.116 0 01-1.164-8.551c2.045-2.68 5.871-3.209 8.551-1.164 2.681 2.028 3.209 5.872 1.164 8.552z" fill="#474E5D"/><path d="M386.914 128.818a6.116 6.116 0 01-1.164-8.551c2.045-2.68 5.871-3.209 8.551-1.164 2.681 2.046 3.209 5.872 1.164 8.552a6.116 6.116 0 01-8.551 1.163z" fill="#8683E4"/><path d="M441.714 122.083c-6.048.635-11.32-18.884-26.519-30.45-15.181-11.549-35.405-11.443-36.41-17.438 14.388-3.403 30.116-.582 42.775 9.063 12.678 9.644 19.589 24.067 20.154 38.825z" fill="#F2994A"/><path opacity=".2" d="M390.211 123a1.872 1.872 0 01-2.61.353 1.853 1.853 0 01-.352-2.592 1.871 1.871 0 012.609-.353c.811.617.97 1.781.353 2.592z" fill="#fff"/><path d="M297.044 197.547c-1.463-3.984.564-8.392 4.549-9.856l38.085-14.035 5.307 14.406-38.085 14.035c-3.985 1.481-8.393-.565-9.856-4.55z" fill="#CACAED"/><path d="M345.126 234.134a7.672 7.672 0 008.287-7.018l3.385-40.447-15.304-1.27-3.385 40.448a7.671 7.671 0 007.017 8.287z" fill="#CACAED"/><path opacity=".1" d="M511.818 186.351c-3.368 1.852-4.584 6.083-2.733 9.451l2.468 4.461c1.852 3.367 6.083 4.584 9.451 2.733l4.955-2.733-9.187-16.645-4.954 2.733zm151.369-69.945l-2.257-4.109c-1.904-3.456-6.259-4.725-9.732-2.821l-4.778 2.645 8.674 15.728-16.221-29.41-1.728.952c-10.526-15.71-26.994-27.03-44.873-31.738-.247-3.385-2.962-6.118-6.436-6.277-14.881-.652-29.974 2.68-43.638 9.628-13.665 6.947-25.249 17.173-33.501 29.568-1.975 2.962-1.287 6.877 1.446 9.045-7.053 18.602-6.788 40.377 1.481 59.014l-2.363 1.305 24.262 44.009 9.909-5.466 2.292 4.161c1.816 3.28 5.942 4.479 9.221 2.663l14.265-7.864c3.279-1.816 4.478-5.942 2.662-9.222l-23.574-42.757.318-.176-.318.176-5.272-9.574c-1.816-3.279-5.942-4.478-9.221-2.662l-14.264 7.863c-3.28 1.817-4.479 5.942-2.663 9.222l5.272 9.574-2.98-5.413-1.587.882c-7.511-17.332-7.475-37.697-.528-54.8a6.742 6.742 0 002.962-2.451c6.964-10.456 16.768-19.095 28.352-24.984 11.584-5.89 24.349-8.71 36.903-8.164a6.743 6.743 0 003.368-.723 4.43 4.43 0 00.617-.37c16.644 4.038 32.108 14.405 41.964 28.828l-2.222 1.234-2.292-4.16c-1.816-3.28-5.942-4.48-9.221-2.663l-14.282 7.863c-3.28 1.817-4.479 5.942-2.663 9.222l28.864 52.331c1.816 3.28 5.942 4.479 9.221 2.663l14.282-7.864c3.28-1.816 4.479-5.942 2.662-9.222l-14.881-26.994 12.589 22.833 9.909-5.466-7.546-13.682 4.778-2.645c3.421-1.922 4.69-6.277 2.768-9.732zm-141.055 53.477l8.693 15.763-8.693-15.763zM171.646 461.532L71.374 398.269a5.882 5.882 0 00-8.11 1.833l-44.08 69.875a5.882 5.882 0 001.833 8.111l100.273 63.263a5.881 5.881 0 008.11-1.834l24.597-38.984 7.194-11.39 12.307-19.501c1.71-2.75.899-6.382-1.852-8.11z" fill="#444"/><path d="M622.176 544.86c0 12.518 10.138 22.657 22.657 22.657h14.387c12.519 0 22.657-10.139 22.657-22.657v-55.135c0-12.501-10.138-22.657-22.657-22.657h-14.387c-12.519 0-22.657 10.138-22.657 22.657v55.135z" fill="#B7B7CE"/><path d="M624.203 543.203c0 12.518 10.139 22.657 22.657 22.657h14.388c12.519 0 22.657-10.139 22.657-22.657V488.05c0-12.501-10.138-22.657-22.657-22.657H646.86c-12.518 0-22.657 10.138-22.657 22.657v55.153z" fill="#E1E1EF"/><path d="M647.46 489.707a6.595 6.595 0 1013.19 0 6.595 6.595 0 00-13.19 0z" fill="#4C59E0"/><path d="M293.253 698.98c-.176.018-.3.035-.3.035l-22.798-11.443c-1.216-.599-2.68-.123-3.279 1.094l-12.783 25.442a2.441 2.441 0 001.093 3.28s11.408 5.73 23.01 11.566l15.057-29.974z" fill="#CECDE8"/><path d="M259.687 707.607l-.894 1.78 23.239 11.675.895-1.781-23.24-11.674zm-1.671 3.333l-.894 1.78 23.24 11.675.894-1.781-23.24-11.674zm3.333-6.618l-.894 1.781 23.24 11.674.894-1.78-23.24-11.675zm1.638-3.278l-.894 1.78 23.24 11.675.894-1.781-23.24-11.674zm1.663-3.292l-.894 1.78 23.24 11.675.894-1.781-23.24-11.674zm1.646-3.295l-.894 1.78 23.24 11.675.894-1.78-23.24-11.675zm1.654-3.277l-.895 1.78 23.24 11.675.894-1.78-23.239-11.675z" fill="#4C59E0"/><path d="M367.007 744.788c-.44-.23-.899-.388-1.357-.547l2.063-4.108c1.869-3.72.37-8.269-3.368-10.138l-72.538-36.446L272.994 731l72.538 36.445c3.72 1.869 8.269.37 10.138-3.368l2.063-4.108c.388.282.793.546 1.252.776 4.408 2.221 9.768.44 11.99-3.968 2.221-4.408.44-9.768-3.968-11.989zm-6.471 12.889a5.966 5.966 0 01-1.216-.829l4.76-9.468a5.492 5.492 0 013.844 7.846 5.484 5.484 0 01-7.388 2.451z" fill="#F2994A"/><path d="M290.887 692.323l-19.383 38.586 2.725 1.37 19.384-38.586-2.726-1.37z" fill="#CECDE8"/><path d="M171.928 462.501l-44.079 69.876c-1.728 2.75-5.36 3.561-8.111 1.833L19.466 470.947c-2.751-1.728-3.562-5.36-1.834-8.111l44.08-69.875c1.727-2.75 5.36-3.561 8.11-1.833l100.273 63.263a5.893 5.893 0 011.833 8.11z" fill="#fff"/><path d="M23.785 464.353a1.907 1.907 0 01.6 2.609 1.908 1.908 0 01-2.61.6 1.908 1.908 0 01-.6-2.61c.547-.881 1.711-1.146 2.61-.599zm44.027-69.787a1.907 1.907 0 01.6 2.609 1.908 1.908 0 01-2.61.6 1.925 1.925 0 01-.6-2.627 1.9 1.9 0 012.61-.582zm55.435 132.556a1.908 1.908 0 01.599 2.61 1.907 1.907 0 01-2.609.599 1.907 1.907 0 01-.6-2.609 1.878 1.878 0 012.61-.6zm44.044-69.787a1.908 1.908 0 01.6 2.61 1.908 1.908 0 01-2.61.599 1.907 1.907 0 01-.599-2.609 1.87 1.87 0 012.609-.6z" fill="#4C59E0"/><path d="M154.416 478.736l-7.188 11.393 5.189 3.274 7.188-11.392-5.189-3.275z" fill="#CACAED"/><path d="M153.115 480.821l3.632 2.292.617-.97-3.632-2.292-.617.97zm2.345 4.32l.617-.97-3.632-2.292-.617.97 3.632 2.292zm-1.305 2.045l.618-.97-3.633-2.292-.617.97 3.632 2.292zm-1.287 2.045l.617-.969-3.632-2.292-.617.969 3.632 2.292zm-1.287 2.046l.617-.97-3.632-2.292-.617.97 3.632 2.292z" fill="#8683E4"/><path d="M105.421 420.397c19.342 12.201 25.143 37.802 12.924 57.145-12.201 19.359-37.803 25.143-57.145 12.924-19.342-12.202-25.143-37.785-12.924-57.145 12.219-19.342 37.803-25.126 57.145-12.924z" fill="#4C59E0"/><path d="M96.147 449.013c3.544 7.088.687 15.71-6.4 19.272-7.089 3.544-15.71.688-19.272-6.4-3.544-7.088-.688-15.71 6.4-19.272 7.106-3.562 15.728-.688 19.272 6.4z" fill="#E1E1EF"/><path d="M94.948 449.613c3.226 6.418.617 14.246-5.801 17.455-6.418 3.227-14.247.617-17.456-5.801-3.209-6.418-.617-14.246 5.801-17.455 6.418-3.227 14.247-.635 17.456 5.801z" fill="#8683E4"/><path d="M89.464 452.363a6.876 6.876 0 01-3.068 9.222c-3.385 1.692-7.511.317-9.221-3.068-1.693-3.385-.318-7.511 3.068-9.222 3.385-1.692 7.51-.317 9.221 3.068zm-14.034 7.035c.334.653.07 1.464-.6 1.799a1.334 1.334 0 01-1.799-.6 1.334 1.334 0 01.6-1.798 1.334 1.334 0 011.798.599zm18.16-9.115c.335.652.07 1.463-.6 1.798a1.334 1.334 0 01-1.798-.599 1.335 1.335 0 01.6-1.799c.67-.317 1.48-.053 1.798.6zm-6.312 13.047a1.335 1.335 0 011.798.6c.335.652.07 1.463-.6 1.798a1.334 1.334 0 01-1.798-.599 1.33 1.33 0 01.6-1.799zm-9.116-18.178a1.334 1.334 0 011.798.599 1.334 1.334 0 01-.599 1.799 1.334 1.334 0 01-1.798-.6 1.36 1.36 0 01.599-1.798z" fill="#E1E1EF"/><path d="M606.677 114.466l28.352-15.622-28.352 15.622zm-62.734-50.692L539.8 66.05c-33.607 18.531-43.428 65.414-24.879 99.02l34.276-18.901-28.334 15.622c-16.733-30.345-8.111-73.084 22.216-89.8l4.144-2.274c30.344-16.732 71.074-1.199 87.806 29.128l5.942-3.28c-18.548-33.606-63.422-50.32-97.028-31.79z" fill="#E1E0FE"/><path d="M519.747 155.351l-9.913 5.466 24.266 44.005 9.913-5.466-24.266-44.005z" fill="#DBDBE6"/><path d="M521.586 193.88l4.954-2.733-9.186-16.645-4.954 2.733c-3.368 1.852-4.585 6.083-2.733 9.451l2.468 4.461c1.852 3.368 6.083 4.602 9.451 2.733z" fill="#5468DA"/><path d="M572.454 189.102c1.816 3.279.617 7.405-2.663 9.221l-14.264 7.864c-3.279 1.816-7.423.617-9.221-2.663l-28.864-52.331c-1.816-3.279-.617-7.423 2.663-9.221l14.264-7.882c3.279-1.816 7.423-.617 9.221 2.663l28.864 52.349z" fill="#4C59E0"/><path d="M639.481 89.314l-9.913 5.467 24.267 44.004 9.912-5.466-24.266-44.004z" fill="#DBDBE6"/><path d="M660.966 117.023l-4.778 2.645-9.187-16.645 4.779-2.645c3.456-1.904 7.828-.652 9.732 2.821l2.257 4.109a7.123 7.123 0 01-2.803 9.715z" fill="#5468DA"/><path d="M629.951 157.4c1.816 3.279 5.942 4.478 9.222 2.662l14.282-7.864c3.279-1.816 4.478-5.942 2.662-9.221l-28.863-52.332c-1.816-3.28-5.942-4.478-9.222-2.662l-14.282 7.864c-3.279 1.816-4.478 5.942-2.662 9.221l28.863 52.332z" fill="#4C59E0"/><path d="M589.186 65.115a6.743 6.743 0 01-3.367.722c-12.554-.546-25.302 2.275-36.904 8.164-11.584 5.889-21.387 14.529-28.352 24.984a6.79 6.79 0 11-11.302-7.529c8.252-12.395 19.836-22.621 33.501-29.568 13.664-6.947 28.757-10.28 43.639-9.627 3.738.158 6.647 3.332 6.488 7.07-.088 2.557-1.587 4.708-3.703 5.784z" fill="#9696CC"/><path d="M629.528 403.012c-2.151 6.823-9.433 10.614-16.256 8.445l-60.002-18.972c-6.823-2.151-10.596-9.433-8.445-16.256l49.404-156.254c2.151-6.823 9.433-10.597 16.257-8.445l60.001 18.971c6.824 2.151 10.614 9.433 8.446 16.257l-49.405 156.254z" fill="#E1E1EF"/><path d="M595.65 232.175l-41.183 130.242 75.133 23.758 41.183-130.243-75.133-23.757z" fill="#fff"/><path d="M627.483 358.491c-.371 1.146-1.605 1.799-2.751 1.428l-53.178-16.82a2.193 2.193 0 011.323-4.179l53.178 16.821a2.213 2.213 0 011.428 2.75zm-2.486 7.829c-.37 1.146-1.605 1.798-2.751 1.428l-53.178-16.821a2.192 2.192 0 011.323-4.179l53.178 16.821a2.172 2.172 0 011.428 2.751zm5.078-16.045a2.215 2.215 0 01-2.751 1.428l-53.178-16.821a2.192 2.192 0 011.323-4.179l53.177 16.821a2.192 2.192 0 011.429 2.751z" fill="#F2994A"/><path d="M644.533 304.52c-.37 1.146-1.605 1.799-2.751 1.428l-53.177-16.82a2.192 2.192 0 011.322-4.179l53.178 16.821a2.185 2.185 0 011.428 2.75zm-2.469 7.829c-.37 1.146-1.604 1.798-2.75 1.428l-53.178-16.821a2.192 2.192 0 011.322-4.179l53.178 16.821a2.191 2.191 0 011.428 2.751zm5.078-16.045a2.213 2.213 0 01-2.75 1.428l-53.178-16.821a2.192 2.192 0 011.322-4.179l53.178 16.821a2.213 2.213 0 011.428 2.751z" fill="#F6F9FD"/><path d="M625.755 340.083l-43.604-13.788a5.07 5.07 0 01-3.297-6.365l4.003-12.659a5.069 5.069 0 016.365-3.298l43.603 13.789a5.067 5.067 0 013.297 6.365l-4.002 12.659a5.067 5.067 0 01-6.365 3.297zm-10.191-61.676l-17.809-5.624a3.805 3.805 0 01-2.486-4.779l5.625-17.808a3.803 3.803 0 014.778-2.486l17.808 5.625a3.802 3.802 0 012.486 4.778l-5.624 17.808c-.617 2.01-2.768 3.121-4.778 2.486zm28.193 8.922l-17.808-5.625a3.802 3.802 0 01-2.486-4.778l5.624-17.808a3.803 3.803 0 014.779-2.486l17.808 5.624a3.804 3.804 0 012.486 4.779l-5.625 17.808c-.635 1.992-2.768 3.121-4.778 2.486z" fill="#4C59E0"/><path d="M595.164 391.657a8.25 8.25 0 01-10.333 5.377 8.248 8.248 0 01-5.377-10.332c1.375-4.337 5.994-6.735 10.332-5.378a8.222 8.222 0 015.378 10.333z" fill="#CACAED"/><path d="M751.84 147.138c-3.191-1.34-4.725-5.043-3.385-8.234l16.204-38.861c1.34-3.191 5.042-4.725 8.234-3.385 3.191 1.34 4.725 5.043 3.385 8.234l-16.204 38.861c-1.34 3.191-5.042 4.707-8.234 3.385z" fill="#4C59E0"/><path d="M738.035 111.733c1.34-3.191 5.042-4.725 8.234-3.385l38.86 16.204c3.192 1.34 4.726 5.042 3.386 8.234-1.34 3.191-5.043 4.725-8.234 3.385l-38.861-16.186c-3.191-1.34-4.725-5.043-3.385-8.252zM39.99 812.3a4.753 4.753 0 01-2.558-6.206l12.202-29.252a4.753 4.753 0 016.206-2.556 4.753 4.753 0 012.557 6.206l-12.201 29.252a4.753 4.753 0 01-6.207 2.556z" fill="#4C59E0"/><path d="M29.604 785.658a4.753 4.753 0 016.206-2.556l29.252 12.201a4.753 4.753 0 012.556 6.207 4.753 4.753 0 01-6.206 2.556L32.16 791.865a4.753 4.753 0 01-2.557-6.207zm732.04-65.626a3.824 3.824 0 01-5.237-1.251l-13.294-21.67a3.824 3.824 0 011.251-5.237c1.781-1.093 4.144-.529 5.237 1.252l13.294 21.67a3.823 3.823 0 01-1.251 5.236z" fill="#4C59E0"/><path d="M739.445 714.267c-1.093-1.781-.529-4.144 1.252-5.237l21.67-13.294a3.823 3.823 0 015.236 1.252 3.823 3.823 0 01-1.252 5.236l-21.669 13.295c-1.799 1.093-4.144.529-5.237-1.252z" fill="#4C59E0"/><path d="M426.726 11.196s18.867 2.592 23.892 13.4c5.025 10.791 14.246 5.096 22.639 4.602 8.375-.511 15.922 13.013 15.922 21.758l-10.474 4.408s-1.675-15.322-12.995-13.876c-11.319 1.446-22.639 4.178-25.989-10.597-3.35-14.775-20.541-8.957-20.541-8.957l7.546-10.738z" fill="#F2994A"/><path d="M400.984 7.546l24.737 27.735L437.358 0l-36.374 7.546zm182.472 716.013s-11.372 15.269-23.256 14.476c-11.884-.794-11.338 10.032-14.935 17.614-3.596 7.582-19.077 7.687-26.747 3.456l1.181-11.302s14.229 5.924 18.426-4.69c4.196-10.615 7.246-21.846 21.81-17.65 14.564 4.179 17.738-13.682 17.738-13.682l5.783 11.778z" fill="#F2994A"/><path d="M599.06 702.771l-36.216 8.287 25.302 27.223 10.914-35.51zM10.015 392.821s-4.479-11.99.317-18.408c4.778-6.418-1.516-10.05-4.496-14.846-2.962-4.796 2.627-13.559 7.793-16.363L19.572 348s-8.533 5.872-4.073 12.113c4.461 6.242 9.68 12.061 2.01 18.743-7.67 6.7 1.252 15.005 1.252 15.005l-8.745-1.04z" fill="#F2994A"/><path d="M16.063 409.2l8.516-23.468L0 390.088 16.063 409.2z" fill="#F2994A"/><path d="M749.16 555.898c0 5.254-4.266 9.503-9.503 9.503-5.254 0-9.504-4.267-9.504-9.503 0-5.255 4.267-9.504 9.504-9.504a9.496 9.496 0 019.503 9.504zM110.305 144.476c0 5.254-4.267 9.503-9.504 9.503-5.254 0-9.503-4.267-9.503-9.503 0-5.255 4.267-9.504 9.503-9.504 5.237-.018 9.504 4.249 9.504 9.504zm580.106 60.812a4.763 4.763 0 01-4.761 4.761 4.763 4.763 0 01-4.76-4.761 4.763 4.763 0 014.76-4.761c2.628.018 4.761 2.134 4.761 4.761zm4.866-137.37a6.614 6.614 0 01-6.612 6.612 6.614 6.614 0 01-6.611-6.612 6.614 6.614 0 016.611-6.612 6.614 6.614 0 016.612 6.612zM449.736 756.319a10.083 10.083 0 01-10.085 10.085c-5.572 0-10.086-4.513-10.086-10.085a10.084 10.084 0 0110.086-10.086c5.571-.017 10.085 4.497 10.085 10.086z" fill="#F2F2F2"/></svg>