<svg width="2000" height="6180" fill="none" xmlns="http://www.w3.org/2000/svg"><mask id="a" maskUnits="userSpaceOnUse" x="0" y="0" width="2000" height="6180"><path fill="#C4C4C4" d="M0 0h2000v6180H0z"/></mask><g mask="url(#a)"><path opacity=".297" fill-rule="evenodd" clip-rule="evenodd" d="M1655.38-2284.49c33.18-50.5 103.23-60.26 148.95-20.75l1066.89 921.86c44.65 38.59 46.36 107.25 3.67 148L933.712 617.639a100.001 100.001 0 01-66.017 27.62l-968.437 29.375c-80.909 2.454-131.056-87.222-86.604-154.87L1655.38-2284.49z" fill="#91B7DC"/><g filter="url(#filter0_d)"><rect x="1884" y="2136.28" width="1413.86" height="1413.86" rx="100" transform="rotate(45 1884 2136.28)" fill="#F6F9FD"/></g><g filter="url(#filter1_d)"><rect x="328" y="3377" width="715" height="715" rx="100" transform="rotate(45 328 3377)" fill="#F6F9FD"/></g><g filter="url(#filter2_d)"><rect width="1117.94" height="1117.94" rx="100" transform="scale(-1 1) rotate(45 -6486.24 22.31)" fill="#F6F9FD"/></g><g filter="url(#filter3_d)"><path fill-rule="evenodd" clip-rule="evenodd" d="M596.403-1113.58c38.228-42.99 104.761-44.94 145.441-4.26l822.366 822.362c39.05 39.053 39.05 102.369 0 141.421L705.256 704.894a100 100 0 01-91.142 27.18L-615.968 475.331c-75.244-15.705-105.375-106.896-54.299-164.338L596.403-1113.58z" fill="#F6F9FD"/></g><g filter="url(#filter4_d)"><rect width="715" height="715" rx="100" transform="scale(-1 1) rotate(45 -2406.804 533.069)" fill="#F6F9FD"/></g></g><defs><filter id="filter0_d" x="893.671" y="2147.7" width="2006.66" height="2006.66" filterUnits="userSpaceOnUse" color-interpolation-filters="sRGB"><feFlood flood-opacity="0" result="BackgroundImageFix"/><feColorMatrix in="SourceAlpha" values="0 0 0 0 0 0 0 0 0 0 0 0 0 0 0 0 0 0 127 0"/><feOffset dx="13" dy="15"/><feGaussianBlur stdDeviation="22.5"/><feColorMatrix values="0 0 0 0 0.0901961 0 0 0 0 0.501961 0 0 0 0 0.878431 0 0 0 0.271031 0"/><feBlend in2="BackgroundImageFix" result="effect1_dropShadow"/><feBlend in="SourceGraphic" in2="effect1_dropShadow" result="shape"/></filter><filter id="filter1_d" x="-181.16" y="3388.42" width="1018.32" height="1018.32" filterUnits="userSpaceOnUse" color-interpolation-filters="sRGB"><feFlood flood-opacity="0" result="BackgroundImageFix"/><feColorMatrix in="SourceAlpha" values="0 0 0 0 0 0 0 0 0 0 0 0 0 0 0 0 0 0 127 0"/><feOffset dy="15"/><feGaussianBlur stdDeviation="22.5"/><feColorMatrix values="0 0 0 0 0.0901961 0 0 0 0 0.501961 0 0 0 0 0.878431 0 0 0 0.212891 0"/><feBlend in2="BackgroundImageFix" result="effect1_dropShadow"/><feBlend in="SourceGraphic" in2="effect1_dropShadow" result="shape"/></filter><filter id="filter2_d" x="1089.92" y="4604.42" width="1588.16" height="1588.16" filterUnits="userSpaceOnUse" color-interpolation-filters="sRGB"><feFlood flood-opacity="0" result="BackgroundImageFix"/><feColorMatrix in="SourceAlpha" values="0 0 0 0 0 0 0 0 0 0 0 0 0 0 0 0 0 0 127 0"/><feOffset dy="15"/><feGaussianBlur stdDeviation="22.5"/><feColorMatrix values="0 0 0 0 0.0901961 0 0 0 0 0.501961 0 0 0 0 0.878431 0 0 0 0.212891 0"/><feBlend in2="BackgroundImageFix" result="effect1_dropShadow"/><feBlend in="SourceGraphic" in2="effect1_dropShadow" result="shape"/></filter><filter id="filter3_d" x="-744.621" y="-1194.13" width="2387.12" height="1979.32" filterUnits="userSpaceOnUse" color-interpolation-filters="sRGB"><feFlood flood-opacity="0" result="BackgroundImageFix"/><feColorMatrix in="SourceAlpha" values="0 0 0 0 0 0 0 0 0 0 0 0 0 0 0 0 0 0 127 0"/><feOffset dy="2"/><feGaussianBlur stdDeviation="24.5"/><feColorMatrix values="0 0 0 0 0.0901961 0 0 0 0 0.501961 0 0 0 0 0.878431 0 0 0 0.271031 0"/><feBlend in2="BackgroundImageFix" result="effect1_dropShadow"/><feBlend in="SourceGraphic" in2="effect1_dropShadow" result="shape"/></filter><filter id="filter4_d" x="-168.16" y="1869.42" width="1018.32" height="1018.32" filterUnits="userSpaceOnUse" color-interpolation-filters="sRGB"><feFlood flood-opacity="0" result="BackgroundImageFix"/><feColorMatrix in="SourceAlpha" values="0 0 0 0 0 0 0 0 0 0 0 0 0 0 0 0 0 0 127 0"/><feOffset dx="13" dy="15"/><feGaussianBlur stdDeviation="22.5"/><feColorMatrix values="0 0 0 0 0.0901961 0 0 0 0 0.501961 0 0 0 0 0.878431 0 0 0 0.271031 0"/><feBlend in2="BackgroundImageFix" result="effect1_dropShadow"/><feBlend in="SourceGraphic" in2="effect1_dropShadow" result="shape"/></filter></defs></svg>