<svg width="360" height="6180" fill="none" xmlns="http://www.w3.org/2000/svg"><mask id="a" maskUnits="userSpaceOnUse" x="0" y="0" width="360" height="6180"><path fill="#C4C4C4" d="M0 0h360v6180H0z"/></mask><g mask="url(#a)"><path opacity=".297" fill-rule="evenodd" clip-rule="evenodd" d="M845.378-2284.49c33.184-50.5 103.23-60.26 148.952-20.75l1066.89 921.86c44.65 38.59 46.36 107.25 3.67 148L123.712 617.639a100 100 0 01-66.017 27.62l-968.437 29.375c-80.909 2.454-131.058-87.222-86.604-154.87L845.378-2284.49z" fill="#91B7DC"/><g filter="url(#filter0_d)"><path fill-rule="evenodd" clip-rule="evenodd" d="M-213.597-1113.58c38.228-42.99 104.761-44.94 145.441-4.26l822.363 822.362c39.052 39.052 39.052 102.369 0 141.421l-858.951 858.951a100 100 0 01-91.142 27.18L-1425.97 475.331c-75.24-15.705-105.37-106.896-54.3-164.338L-213.597-1113.58z" fill="#F6F9FD"/></g></g><defs><filter id="filter0_d" x="-1675.01" y="-1235.55" width="2548.92" height="2548.92" filterUnits="userSpaceOnUse" color-interpolation-filters="sRGB"><feFlood flood-opacity="0" result="BackgroundImageFix"/><feColorMatrix in="SourceAlpha" values="0 0 0 0 0 0 0 0 0 0 0 0 0 0 0 0 0 0 127 0"/><feOffset dy="2"/><feGaussianBlur stdDeviation="24.5"/><feColorMatrix values="0 0 0 0 0.0901961 0 0 0 0 0.501961 0 0 0 0 0.878431 0 0 0 0.271031 0"/><feBlend in2="BackgroundImageFix" result="effect1_dropShadow"/><feBlend in="SourceGraphic" in2="effect1_dropShadow" result="shape"/></filter></defs></svg>