<svg width="18" height="17" fill="none" xmlns="http://www.w3.org/2000/svg"><path d="M17.707 7.93l-7-7A1 1 0 009.21 2.25l.083.095 5.293 5.293H1a1 1 0 00-.993.883L0 8.638a1 1 0 00.883.993L1 9.638h13.586L9.293 14.93a1 1 0 00-.083 1.32l.083.094a1 1 0 001.32.083l.094-.083 7-7 .097-.112.071-.111.054-.113.035-.105.025-.118.007-.059L18 8.62l-.004-.07-.016-.112-.03-.111-.044-.111-.052-.098-.067-.096a1.003 1.003 0 00-.08-.09l-7-7 7 7z" fill="url(#paint0_linear)"/><defs><linearGradient id="paint0_linear" x1="9.246" y1="26.468" x2="24.744" y2="8.978" gradientUnits="userSpaceOnUse"><stop stop-color="#102397"/><stop offset=".553" stop-color="#187ADF"/><stop offset="1" stop-color="#00EAF8"/></linearGradient></defs></svg>