<svg width="643" height="612" fill="none" xmlns="http://www.w3.org/2000/svg"><path d="M630.577 179.37L323.363 1.927c-3.437-2.116-7.138-2.38-10.311-1.323l-.529.265h-.264l-11.104 4.23 10.047 4.761c0 .264 0 .264-.265.529l-49.968 227.688c-2.38 11.371 2.379 24.594 11.104 29.618l299.546 172.948-1.057 12.693 12.161-4.76c3.966-1.851 7.403-6.346 8.725-12.429l49.968-227.688c2.644-10.842-2.115-24.064-10.839-29.089z" fill="#CACAED"/><path d="M630.577 179.37L323.363 1.927c-3.437-2.116-7.138-2.38-10.311-1.323l-.528.265h-.265l-11.104 4.23 10.047 4.761c0 .264 0 .264-.265.529l-33.048 150.205 150.17 117.15 211.771-86.209c-1.586-5.289-5.023-9.785-9.253-12.165z" fill="#DBDAFA"/><path d="M618.942 214.277l23.266-10.049c.529-8.991-3.437-18.511-9.518-23.536l-37.013 15.603 23.265 17.982z" fill="#CACAED"/><path d="M560.251 452.543L253.302 275.1c-8.725-5.025-13.748-18.247-11.104-29.618l49.968-227.688c2.38-11.372 11.633-16.66 20.358-11.636l306.949 177.443c8.725 5.025 13.748 18.247 11.104 29.618l-49.968 227.689c-2.644 11.635-11.633 16.66-20.358 11.635z" fill="#fff"/><path d="M553.642 435.619L264.935 269.018c-7.931-4.496-12.426-16.661-10.311-27.238l45.739-208.384c2.379-10.314 10.575-15.073 18.507-10.578l288.706 166.601c7.932 4.496 12.426 16.66 10.311 27.238l-45.738 208.384c-2.38 10.578-10.575 15.073-18.507 10.578z" fill="#fff"/><path d="M553.642 435.619L264.935 269.018c-7.931-4.496-12.426-16.661-10.311-27.238l45.739-208.384c2.379-10.314 10.575-15.073 18.507-10.578l288.706 166.601c7.932 4.496 12.426 16.66 10.311 27.238l-45.738 208.384c-2.38 10.578-10.575 15.073-18.507 10.578z" fill="#0075C5"/><path d="M564.481 460.212l-42.037-5.554-270.993-156.552c-8.724-5.024-23.794-4.495-33.841 1.322L25.668 410.231l-25.38-3.437v14.28c-.265 3.438 1.85 6.611 5.816 8.991l306.949 177.443c8.724 5.025 23.794 4.496 33.841-1.322l209.127-120.587c5.552-3.174 8.46-7.405 8.196-11.372v-14.015h.264z" fill="#CACAED"/><path d="M360.906 361.309l-19.3-11.107H130.099L25.668 410.496l-25.38-3.438v14.28c-.265 3.438 1.85 6.611 5.816 8.991l306.949 177.444c4.494 2.644 11.104 3.702 17.449 3.173l30.404-249.637z" fill="#DBDAFA"/><path d="M11.39 408.645L.023 407.059v14.28c-.264 3.437 1.85 6.611 5.816 8.991l5.288 3.173v-24.858h.265z" fill="#E1E1EF"/><path d="M316.224 609.36c8.196 3.173 20.093 2.38 28.818-1.851v-31.998h-28.818v33.849z" fill="#CACAED"/><path d="M313.053 593.493L6.103 416.05c-8.724-5.025-7.667-13.751 2.38-19.569L217.61 275.893c10.047-5.818 25.117-6.346 33.841-1.322L558.4 452.015c8.725 5.024 7.668 13.751-2.379 19.569L346.894 592.171c-9.783 5.553-25.117 6.347-33.841 1.322z" fill="#fff"/><path d="M556.022 466.03L346.894 586.617c-10.046 5.818-25.116 6.347-33.841 1.322L6.103 410.76c-2.907-1.586-4.494-3.702-5.287-5.818-1.322 4.232.265 8.198 5.288 11.107l306.949 177.444c8.725 5.024 23.795 4.495 33.841-1.323l209.128-120.587c6.609-3.967 9.517-9.256 7.931-13.751-1.057 2.909-3.701 5.817-7.931 8.198z" fill="#fff"/><path d="M136.709 357.342l-14.013-7.933c-1.057-.529-1.057-1.851.265-2.645l16.392-9.52c1.322-.793 3.172-.793 4.23-.264l14.012 7.933c1.058.529 1.058 1.851-.264 2.645l-16.392 9.52c-1.058.793-3.173 1.058-4.23.264zm21.416 12.429l-14.013-7.933c-1.057-.529-1.057-1.852.265-2.645l16.392-9.52c1.322-.793 3.172-.793 4.23-.264l14.012 7.933c1.058.529 1.058 1.851-.264 2.644l-16.392 9.521c-1.058.793-3.173.793-4.23.264zm21.413 12.43l-14.013-7.934c-1.057-.529-1.057-1.851.265-2.644l16.391-9.52c1.322-.794 3.173-.794 4.231-.265l14.012 7.934c1.057.529 1.057 1.851-.264 2.644l-16.392 9.52c-1.058.794-3.173.794-4.23.265zm29.876-10.314l-14.012-7.933c-1.057-.529-1.057-1.851.265-2.644l13.747-7.934c1.322-.793 3.173-.793 4.231-.264l14.012 7.933c1.057.529 1.057 1.851-.264 2.645l-13.748 7.933c-1.322.793-3.173 1.058-4.231.264zm21.414 12.429l-14.013-7.933c-1.057-.529-1.057-1.851.265-2.645l13.748-7.933c1.321-.793 3.172-.793 4.23-.265l14.012 7.934c1.058.529 1.058 1.851-.264 2.644l-13.748 7.934c-1.322.793-3.173.793-4.23.264zm21.415 12.429l-14.012-7.934c-1.057-.528-1.057-1.851.265-2.644l13.747-7.933c1.322-.794 3.173-.794 4.231-.265l14.012 7.934c1.057.528 1.057 1.851-.264 2.644l-13.748 7.933c-1.322.794-3.173.794-4.231.265zm21.416 12.429l-14.012-7.934c-1.058-.529-1.058-1.851.264-2.644l13.748-7.934c1.322-.793 3.173-.793 4.23-.264l14.013 7.933c1.057.529 1.057 1.851-.265 2.645l-13.748 7.933c-1.057.793-3.172.793-4.23.265zm21.416 12.429l-14.012-7.933c-1.058-.529-1.057-1.851.264-2.645l13.748-7.933c1.322-.793 3.173-.793 4.231-.264l14.012 7.933c1.057.529 1.057 1.851-.265 2.644l-13.747 7.934c-1.058.793-3.173.793-4.231.264zm21.413 12.164l-14.012-7.933c-1.058-.529-1.058-1.851.264-2.645l13.748-7.933c1.322-.793 3.173-.793 4.23-.264l14.013 7.933c1.057.529 1.057 1.851-.265 2.645l-13.748 7.933c-1.057 1.058-3.172 1.058-4.23.264zm21.416 12.429l-14.012-7.933c-1.058-.529-1.058-1.851.264-2.645l13.748-7.933c1.322-.794 3.173-.794 4.23-.265l14.013 7.934c1.057.529 1.057 1.851-.265 2.644l-13.748 7.934c-1.057.793-2.908 1.057-4.23.264zm21.681 12.43l-14.012-7.934c-1.057-.529-1.058-1.851.264-2.644l13.748-7.933c1.322-.794 3.173-.794 4.23-.265l14.013 7.933c1.057.529 1.057 1.852-.265 2.645l-13.748 7.933c-1.321.794-3.172 1.058-4.23.265zm21.413 12.428l-14.012-7.933c-1.058-.529-1.058-1.851.264-2.644l13.748-7.934c1.322-.793 3.173-.793 4.23-.264l14.013 7.933c1.057.529 1.057 1.851-.265 2.645l-13.748 7.933c-1.322.793-3.172.793-4.23.264zm21.416 12.429l-14.012-7.933c-1.058-.529-1.058-1.851.264-2.645l13.748-7.933c1.322-.793 3.173-.793 4.23-.265l14.012 7.934c1.058.529 1.058 1.851-.264 2.644l-13.748 7.934c-1.322.793-3.172.793-4.23.264z" fill="#CACAED"/><path d="M240.876 366.069l-14.013-7.933c-1.057-.529-1.057-1.851.265-2.645l13.748-7.933c1.322-.793 3.172-.793 4.23-.265l14.012 7.934c1.058.529 1.058 1.851-.264 2.644l-13.748 7.934c-1.058.793-3.173.793-4.23.264zm-21.681-12.693l-14.012-7.934c-1.058-.529-1.058-1.851.264-2.644l13.748-7.933c1.322-.794 3.172-.794 4.23-.265l14.012 7.933c1.058.529 1.058 1.852-.264 2.645l-13.748 7.933c-1.322 1.058-3.173 1.058-4.23.265z" fill="#DBDAFA"/><path d="M197.253 340.947l-29.875-17.189c-1.058-.529-1.058-1.851.264-2.645l13.748-7.933c1.322-.793 3.173-.793 4.23-.265l29.876 17.19c1.057.528 1.057 1.851-.265 2.644l-13.748 7.933c-1.057.794-3.172.794-4.23.265zm15.334-15.339l-24.323-14.015c-1.058-.529-1.058-1.851.264-2.645l13.748-7.933c1.322-.793 3.173-.793 4.23-.265l24.323 14.016c1.058.529 1.058 1.851-.264 2.645l-13.748 7.933c-1.322.793-3.173.793-4.23.264z" fill="#CACAED"/><path d="M262.292 378.498l-14.013-7.934c-1.057-.528-1.057-1.851.265-2.644l13.748-7.933c1.322-.794 3.172-.794 4.23-.265l14.012 7.933c1.058.529 1.058 1.852-.264 2.645l-13.748 7.933c-1.058.794-3.173.794-4.23.265z" fill="#DBDAFA"/><path d="M283.705 390.927l-14.013-7.933c-1.057-.529-1.057-1.851.265-2.644l13.748-7.934c1.322-.793 3.172-.793 4.23-.264l14.012 7.933c1.058.529 1.058 1.851-.264 2.645l-13.748 7.933c-1.058.793-2.908.793-4.23.264zm21.681 12.429l-14.013-7.933c-1.057-.529-1.057-1.851.265-2.645l13.748-7.933c1.322-.793 3.172-.793 4.23-.264l14.012 7.933c1.058.529 1.058 1.851-.264 2.644l-13.748 7.934c-1.322.793-3.173.793-4.23.264zm21.416 12.164l-14.013-7.933c-1.057-.529-1.057-1.851.265-2.645l13.748-7.933c1.322-.793 3.172-.793 4.23-.264l14.012 7.933c1.058.529 1.058 1.851-.264 2.644l-13.748 7.934c-1.322 1.058-3.173 1.058-4.23.264zm21.413 12.43l-14.013-7.933c-1.057-.529-1.057-1.852.265-2.645l13.748-7.933c1.322-.794 3.172-.794 4.23-.265l14.012 7.934c1.058.529 1.058 1.851-.264 2.644l-13.748 7.934c-1.322.793-3.173 1.057-4.23.264zm21.416 12.429l-14.013-7.934c-1.057-.529-1.057-1.851.265-2.644l13.748-7.934c1.321-.793 3.172-.793 4.23-.264l14.012 7.933c1.058.529 1.058 1.852-.264 2.645l-13.748 7.933c-1.058.794-3.173 1.058-4.23.265zm21.412 12.428l-14.012-7.933c-1.057-.529-1.057-1.851.265-2.644l13.747-7.934c1.322-.793 3.173-.793 4.231-.264l14.012 7.933c1.057.529 1.057 1.851-.264 2.645l-13.748 7.933c-1.058.793-3.173.793-4.231.264zm21.42 12.429l-14.013-7.933c-1.057-.529-1.057-1.851.265-2.645l13.748-7.933c1.321-.793 3.172-.793 4.23-.265l14.012 7.934c1.058.529 1.058 1.851-.264 2.644l-13.748 7.934c-1.058.793-2.909.793-4.23.264zm21.412 12.43l-14.012-7.934c-1.058-.528-1.058-1.851.264-2.644l13.748-7.933c1.322-.794 3.173-.794 4.23-.265l14.013 7.933c1.057.529 1.057 1.852-.265 2.645l-13.748 7.933c-1.057.794-2.908.794-4.23.265zm38.335 21.949l-30.404-17.454c-1.057-.529-1.057-1.851.264-2.644l13.748-7.934c1.322-.793 3.173-.793 4.23-.264l30.405 17.453c1.057.529 1.057 1.851-.265 2.645l-13.748 7.933c-1.322.793-3.172.793-4.23.265zm41.775-24.065l-25.645-14.809c-1.058-.529-1.058-1.851.264-2.644l13.748-7.934c1.322-.793 3.173-.793 4.23-.264l25.646 14.809c1.057.529 1.057 1.851-.265 2.644l-13.748 7.934c-1.322.793-3.172.793-4.23.264zm-214.154-99.432l-14.012-7.933c-1.058-.529-1.058-1.852.264-2.645l13.748-7.933c1.322-.794 3.173-.794 4.23-.265l14.013 7.934c1.057.529 1.057 1.851-.265 2.644l-13.748 7.933c-1.057.794-2.908.794-4.23.265zm-21.94-12.693l-14.012-7.934c-1.057-.529-1.057-1.851.264-2.644l13.748-7.934c1.322-.793 3.173-.793 4.231-.264l14.012 7.933c1.057.529 1.057 1.851-.264 2.645l-13.748 7.933c-1.058.793-3.173.793-4.231.265z" fill="#CACAED"/><path d="M255.945 350.731l-14.012-7.933c-1.058-.529-1.057-1.851.264-2.645l13.748-7.933c1.322-.793 3.173-.793 4.23-.264l14.013 7.933c1.057.529 1.057 1.851-.265 2.644l-13.748 7.934c-1.057.793-3.172.793-4.23.264z" fill="#DBDAFA"/><path d="M234.002 338.038l-14.012-7.934c-1.058-.528-1.058-1.851.264-2.644l13.748-7.933c1.322-.794 3.173-.794 4.23-.265l14.013 7.934c1.057.528 1.057 1.851-.265 2.644l-13.748 7.933c-1.322.794-3.172.794-4.23.265zm87.51 50.509l-14.012-7.934c-1.057-.529-1.057-1.851.264-2.644l13.748-7.934c1.322-.793 3.173-.793 4.231-.264l14.012 7.933c1.057.529 1.057 1.851-.265 2.645l-13.747 7.933c-1.322.794-3.173.794-4.231.265zm21.416 12.165l-14.012-7.934c-1.057-.529-1.057-1.851.264-2.644l13.748-7.934c1.322-.793 3.173-.793 4.231-.264l14.012 7.933c1.057.529 1.057 1.852-.265 2.645l-13.747 7.933c-1.322.794-3.173 1.058-4.231.265zm21.413 12.428l-14.012-7.933c-1.058-.529-1.058-1.851.264-2.644l13.748-7.934c1.322-.793 3.173-.793 4.231-.264l14.012 7.933c1.057.529 1.057 1.851-.265 2.645l-13.747 7.933c-1.322.793-3.173 1.058-4.231.264zm21.416 12.429l-14.012-7.933c-1.058-.529-1.058-1.851.264-2.645l13.748-7.933c1.322-.793 3.173-.793 4.23-.265L404 414.727c1.057.529 1.057 1.851-.265 2.644l-13.748 7.934c-1.057.793-3.172 1.057-4.23.264zm21.416 12.43l-14.012-7.934c-1.057-.528-1.057-1.851.264-2.644l13.748-7.933c1.322-.794 3.173-.794 4.231-.265l14.012 7.933c1.057.529 1.057 1.852-.265 2.645l-13.747 7.933c-1.058.794-3.173.794-4.231.265zm21.416 12.428l-14.012-7.933c-1.058-.529-1.058-1.851.264-2.644l13.748-7.934c1.322-.793 3.173-.793 4.23-.264l14.013 7.933c1.057.529 1.057 1.851-.265 2.645l-13.748 7.933c-1.057.793-3.172.793-4.23.264zm21.413 12.429l-14.012-7.933c-1.058-.529-1.058-1.851.264-2.645l13.748-7.933c1.322-.793 3.173-.793 4.23-.264l14.013 7.933c1.057.529 1.057 1.851-.265 2.644l-13.748 7.934c-1.057.793-2.908.793-4.23.264zm21.681 12.165l-14.012-7.933c-1.058-.529-1.058-1.851.264-2.645l13.748-7.933c1.322-.793 3.173-.793 4.23-.264l14.013 7.933c1.057.529 1.057 1.851-.265 2.644l-13.748 7.934c-1.322 1.058-3.172 1.058-4.23.264zm21.416 12.429l-14.012-7.933c-1.058-.529-1.058-1.852.264-2.645l13.748-7.933c1.322-.794 3.173-.794 4.23-.265l14.013 7.934c1.057.529 1.057 1.851-.265 2.644l-13.748 7.933c-1.322.794-3.172 1.058-4.23.265zm-204.37-142.008l-14.012-7.933c-1.058-.529-1.058-1.851.264-2.645l13.748-7.933c1.322-.793 3.173-.793 4.23-.265l14.012 7.934c1.058.529 1.058 1.851-.264 2.644l-13.748 7.934c-1.322.793-3.173.793-4.23.264zm-21.413-12.429l-14.012-7.933c-1.058-.529-1.058-1.851.264-2.644l13.748-7.934c1.322-.793 3.172-.793 4.23-.264l14.012 7.933c1.058.529 1.058 1.851-.264 2.645l-13.748 7.933c-1.322.793-3.173 1.058-4.23.264zM245.9 320.848l-14.012-7.933c-1.058-.529-1.058-1.851.264-2.644l13.748-7.934c1.322-.793 3.173-.793 4.23-.264l14.013 7.933c1.057.529 1.057 1.851-.265 2.645l-13.748 7.933c-1.057.793-3.172.793-4.23.264zm-21.416-12.428l-14.012-7.934c-1.058-.529-1.058-1.851.264-2.644l13.748-7.934c1.322-.793 3.173-.793 4.23-.264l14.012 7.933c1.058.529 1.058 1.851-.264 2.645l-13.748 7.933c-1.057.794-2.908.794-4.23.265zm21.943-12.694l-14.012-7.933c-1.058-.529-1.058-1.851.264-2.644l4.495-2.645c1.322-.793 3.172-.793 4.23-.264l14.012 7.933c1.058.529 1.058 1.851-.264 2.645l-4.495 2.644c-1.057.793-2.908.793-4.23.264zm28.025 16.131l-14.013-7.933c-1.057-.529-1.057-1.851.265-2.645l4.494-2.644c1.322-.793 3.173-.793 4.23-.264l14.013 7.933c1.057.529 1.057 1.851-.265 2.644l-4.494 2.645c-1.322.793-3.173.793-4.23.264zm21.15 12.165l-14.012-7.933c-1.057-.529-1.057-1.851.265-2.645l4.494-2.644c1.322-.793 3.173-.793 4.23-.264l14.013 7.933c1.057.529 1.057 1.851-.265 2.644l-4.494 2.645c-1.058.793-3.173 1.058-4.231.264zm21.416 12.429l-14.012-7.933c-1.058-.529-1.057-1.851.264-2.645l4.495-2.644c1.322-.794 3.173-.794 4.23-.265l14.012 7.934c1.058.529 1.058 1.851-.264 2.644l-4.495 2.645c-1.321.793-3.172.793-4.23.264zm21.151 12.165l-14.012-7.933c-1.058-.529-1.058-1.851.264-2.645l4.495-2.644c1.322-.794 3.172-.794 4.23-.265l14.012 7.934c1.058.529 1.058 1.851-.264 2.644l-4.495 2.645c-1.057.793-3.172 1.057-4.23.264zm118.707 68.491l-14.013-7.933c-1.057-.529-1.057-1.851.265-2.645l4.494-2.644c1.322-.793 3.173-.793 4.23-.264l14.013 7.933c1.057.529 1.057 1.851-.265 2.644l-4.494 2.645c-1.058.793-3.173 1.058-4.23.264zm21.15 12.429l-14.012-7.933c-1.057-.529-1.057-1.851.264-2.645l4.495-2.644c1.322-.794 3.173-.794 4.23-.265l14.012 7.934c1.058.529 1.058 1.851-.264 2.644l-4.494 2.645c-1.058.793-2.909.793-4.231.264zm21.417 12.165l-14.013-7.933c-1.057-.529-1.057-1.851.265-2.645l4.494-2.644c1.322-.794 3.173-.794 4.23-.265l14.013 7.934c1.057.529 1.057 1.851-.265 2.644l-4.494 2.645c-1.322.793-3.173 1.057-4.23.264zm21.15 12.429l-14.012-7.934c-1.058-.529-1.058-1.851.264-2.644l4.495-2.645c1.322-.793 3.172-.793 4.23-.264l14.012 7.933c1.058.529 1.058 1.851-.264 2.645l-4.495 2.644c-1.057.794-3.172.794-4.23.265zm-210.448-96.259l-14.013-7.934c-1.057-.528-1.057-1.851.265-2.644l13.748-7.933c1.322-.794 3.172-.794 4.23-.265l14.012 7.934c1.058.528 1.058 1.851-.264 2.644l-13.748 7.933c-1.322.794-3.173.794-4.23.265zm21.413 12.165l-14.013-7.933c-1.057-.529-1.057-1.852.265-2.645l13.748-7.933c1.322-.794 3.172-.794 4.23-.265l14.012 7.934c1.058.528 1.058 1.851-.264 2.644l-13.748 7.933c-1.058 1.058-3.173 1.058-4.23.265zm21.419 12.429l-14.012-7.934c-1.058-.529-1.058-1.851.264-2.644l13.748-7.934c1.322-.793 3.172-.793 4.23-.264l14.012 7.933c1.058.529 1.058 1.851-.264 2.645l-13.748 7.933c-1.058.793-3.173 1.058-4.23.265zm21.413 12.429l-14.013-7.933c-1.057-.529-1.057-1.851.265-2.645l13.748-7.933c1.322-.793 3.172-.793 4.23-.264l14.012 7.933c1.058.529 1.058 1.851-.264 2.644l-13.748 7.934c-1.058.793-3.173 1.058-4.23.264zm21.415 12.429l-14.012-7.933c-1.057-.529-1.057-1.852.265-2.645l13.747-7.933c1.322-.794 3.173-.794 4.231-.265l14.012 7.934c1.057.529 1.057 1.851-.264 2.644l-13.748 7.934c-1.058.793-2.909.793-4.231.264zm21.679 12.429l-14.013-7.934c-1.057-.529-1.057-1.851.265-2.644l13.748-7.934c1.321-.793 3.172-.793 4.23-.264l14.012 7.933c1.058.529 1.058 1.852-.264 2.645l-13.748 7.933c-1.322.794-3.173.794-4.23.265zm21.415 12.428l-14.012-7.933c-1.057-.529-1.057-1.851.264-2.644l13.748-7.934c1.322-.793 3.173-.793 4.231-.264l14.012 7.933c1.057.529 1.057 1.851-.264 2.645l-13.748 7.933c-1.322.793-3.173.793-4.231.264zm21.416 12.43l-14.012-7.933c-1.057-.529-1.057-1.851.265-2.645l13.747-7.933c1.322-.793 3.173-.793 4.231-.265l14.012 7.934c1.057.529 1.058 1.851-.264 2.644l-13.748 7.934c-1.322.793-3.173.793-4.231.264zm21.413 12.164l-14.012-7.933c-1.058-.529-1.058-1.851.264-2.645l13.748-7.933c1.322-.793 3.173-.793 4.23-.265l14.013 7.934c1.057.529 1.057 1.851-.265 2.644l-13.748 7.934c-1.057 1.058-3.172 1.058-4.23.264zm-294.257-97.58l-40.979-23.536c-1.058-.529-1.058-1.851.264-2.644l13.748-7.934c1.322-.793 3.173-.793 4.23-.264l40.98 23.536c1.057.528 1.057 1.851-.264 2.644l-13.748 7.933c-1.322 1.058-3.173 1.058-4.231.265zm263.588 152.32l-40.979-23.536c-1.058-.528-1.058-1.851.264-2.644l13.748-7.933c1.322-.794 3.173-.794 4.23-.265l40.98 23.536c1.057.529 1.057 1.851-.265 2.644l-13.748 7.934c-1.322.793-3.172.793-4.23.264zm-85.922-22.213l-14.013-7.933c-1.057-.529-1.057-1.851.265-2.645l16.391-9.52c1.322-.793 3.173-.793 4.231-.264l14.012 7.933c1.057.529 1.057 1.851-.265 2.645l-16.391 9.52c-1.058.793-3.173 1.058-4.23.264zm-155.722-89.912l-22.209-12.958c-1.057-.528-1.057-1.851.265-2.644l16.392-9.52c1.321-.794 3.172-.793 4.23-.265l22.208 12.958c1.057.529 1.057 1.851-.265 2.645l-16.391 9.52c-1.058.793-3.173.793-4.23.264zm135.098 78.012l-22.209-12.958c-1.057-.529-1.057-1.851.265-2.644l16.392-9.52c1.322-.794 3.172-.794 4.23-.265l22.208 12.958c1.058.529 1.058 1.851-.264 2.644l-16.392 9.52c-1.058.794-3.173.794-4.23.265zm-104.167-60.294l-22.209-12.958c-1.057-.529-1.057-1.851.265-2.644l16.392-9.52c1.321-.794 3.172-.794 4.23-.265l22.208 12.958c1.057.529 1.057 1.851-.264 2.644l-16.392 9.521c-1.058 1.057-3.173 1.057-4.23.264z" fill="#CACAED"/><path d="M239.291 392.249l96.5 55.798c1.322.794 1.322 1.851 0 2.38l-16.656 9.785c-1.322.793-3.173.793-4.231 0l-96.5-55.798 20.887-12.165zm185.859 119.53l15.599 8.991c.793.529.793 1.322-.264 2.116l-6.61 3.966c-1.058.529-2.644.794-3.437.265l-15.599-8.992c-.793-.528-.793-1.322.265-2.115l6.609-3.967c1.058-.793 2.644-.793 3.437-.264zm-21.677-12.429l15.598 8.991c.793.529.793 1.322-.264 2.116l-6.61 3.966c-1.057.529-2.644.794-3.437.265l-15.598-8.991c-.794-.529-.794-1.323.264-2.116l6.61-3.967c1.057-.793 2.643-.793 3.437-.264zm-21.417-12.429l15.599 8.991c.793.529.793 1.323-.264 2.116l-6.61 3.967c-1.057.529-2.644.793-3.437.264l-15.599-8.991c-.793-.529-.793-1.322.265-2.116l6.609-3.966c1.058-.794 2.644-.794 3.437-.265zm33.314 5.553l15.599 8.991c.793.529.793 1.322-.265 2.116l-6.609 3.966c-1.058.529-2.644.794-3.437.265l-15.599-8.991c-.793-.529-.793-1.322.265-2.116l6.609-3.966c1.058-.794 2.644-.794 3.437-.265z" fill="#CACAED"/><path opacity=".07" d="M498.055 212.838c8.474-6.181 14.357-18.464 15.705-35.559 2.769-35.105-14.623-77.083-38.828-93.428-24.233-16.379-45.771-1.122-48.317 34.277-1.204 16.829 2.196 35.251 8.743 51.555 5.06 12.563 7.934 26.366 8.257 39.016.095 5.413 2.862 11.222 6.387 13.65l27.041 18.565c3.553 2.461 6.882.758 7.835-3.928 2.151-10.918 6.721-19.404 13.177-24.148z" fill="url(#paint0_linear)"/><path opacity=".07" d="M481.728 269.912l.592-7.51c.318-4.029-1.643-8.761-4.406-10.729l-30.359-20.886c-2.767-1.907-5.236-.198-5.554 3.832l-.592 7.509c-.477 6.044 2.168 13.011 6.059 16.635l26.398 18.146c3.968 1.88 7.39-1.014 7.862-6.997z" fill="url(#paint1_linear)"/><path opacity=".4" d="M481.803 223.782c8.474-6.182 14.357-18.465 15.705-35.559 2.769-35.105-14.623-77.084-38.828-93.429-24.264-16.38-45.77-1.122-48.317 34.277-1.204 16.83 2.196 35.251 8.743 51.555 5.06 12.563 7.934 26.366 8.257 39.016.095 5.413 2.862 11.222 6.388 13.65l27.04 18.566c3.553 2.461 6.882.758 7.835-3.928 2.182-10.917 6.754-19.433 13.177-24.148z" fill="url(#paint2_linear)"/><path opacity=".4" d="M465.507 280.857l.592-7.509c.318-4.03-1.643-8.761-4.406-10.73l-30.359-20.885c-2.768-1.908-5.237-.198-5.555 3.831l-.592 7.51c-.477 6.044 2.168 13.01 6.06 16.634l26.398 18.146c3.967 1.88 7.39-1.014 7.862-6.997z" fill="url(#paint3_linear)"/><path opacity=".3" d="M398.478 278.212l-86.709-59.608-3.704 47.348 79.047 54.335 7.092 12.508 4.274-54.583z" fill="url(#paint4_linear)"/><path d="M300.635 236.309l1.014-12.852 32.751 22.487-1.013 12.851-32.752-22.486z" fill="#F2994A"/><path opacity=".15" d="M375.28 274.417l-18.998-13.048-.327 4.152 18.997 13.047.328-4.151zm-.657 8.333l-36.626-25.157-.328 4.151 36.626 25.158.328-4.152zm-.655 8.304l-44.375-30.499-.328 4.151 44.375 30.499.328-4.151z" fill="#fff"/><path d="M379.629 281.978c-.308 3.907 1.658 8.577 4.367 10.449 2.709 1.873 5.173.224 5.481-3.683.308-3.907-1.658-8.578-4.367-10.45-2.739-1.875-5.173-.224-5.481 3.684z" fill="#F2994A"/><path opacity=".3" d="M407.807 250.29l86.679 59.606-3.704 47.349-79.047-54.336-8.205 1.995 4.277-54.614z" fill="url(#paint5_linear)"/><path d="M467.423 316.147l1.014-12.851 32.721 22.484-1.014 12.852-32.721-22.485z" fill="#F2C94C"/><path opacity=".15" d="M429.185 277.163l18.998 13.048-.328 4.151-18.997-13.047.327-4.152zm-.655 8.303l34.295 23.561-.328 4.151-34.297-23.53.33-4.182zm-.657 8.334l44.375 30.499-.328 4.151-44.375-30.499.328-4.151z" fill="#fff"/><path d="M424.152 278.271c-.308 3.908-2.772 5.556-5.481 3.684-2.709-1.873-4.675-6.543-4.367-10.45.308-3.907 2.772-5.556 5.481-3.684 2.74 1.875 4.675 6.543 4.367 10.45z" fill="#F2C94C"/><path opacity=".15" d="M509.466 254.314l1.89 5.248-19.646 2.966 17.852 29.513-2.479 2.231-21.926-36.285 24.309-3.673z" fill="#fff"/><path d="M515.398 260.495c-.31 3.938-2.777 5.617-5.488 3.776-2.709-1.873-4.673-6.574-4.36-10.542.311-3.938 2.778-5.617 5.489-3.775 2.709 1.872 4.67 6.604 4.359 10.541zm-2.758 34.983c-.311 3.938-2.778 5.617-5.489 3.775-2.709-1.872-4.673-6.573-4.36-10.541.311-3.938 2.778-5.617 5.489-3.776 2.706 1.903 4.67 6.604 4.36 10.542z" fill="#F2994A"/><path d="M493.047 263.094c-.31 3.938-2.777 5.617-5.488 3.775-2.709-1.872-4.673-6.573-4.36-10.541.31-3.938 2.777-5.617 5.489-3.775 2.709 1.872 4.67 6.603 4.359 10.541z" fill="#F2C94C"/><path opacity=".3" d="M357.362 147.19l48.834 33.554-7.475 94.784-48.834-33.554 7.475-94.784z" fill="url(#paint6_linear)"/><path opacity=".15" d="M357.962 203.848l39.218 26.959-.328 4.152-39.217-26.96.327-4.151zm2.099 9.995l33.711 23.177-.328 4.151-33.71-23.177.327-4.151z" fill="#fff"/><path d="M373.652 231.962l-33.973-23.352-.835 10.593 33.973 23.351.835-10.592zm12.182-45.022c-.361 4.579-3.188 6.537-6.305 4.387-3.115-2.181-5.356-7.641-4.993-12.25.361-4.579 3.188-6.537 6.305-4.387 3.115 2.181 5.354 7.672 4.993 12.25zm-6.627 8.078c-5.037-3.5-9.631-.944-10.917 5.62-.214 1.151.521 2.744 1.541 3.439l16.422 11.431c1.021.695 1.914.274 1.895-1.048-.135-7.628-3.903-15.942-8.941-19.442z" fill="#F2C94C"/><path opacity=".2" d="M417.326 345.738c-16.595-25.206-2.546-32.76 1.454-18.438 5.729-7.595 17.207 17.453-1.454 18.438z" fill="url(#paint7_linear)"/><defs><linearGradient id="paint0_linear" x1="507.916" y1="126.235" x2="407.784" y2="203.929" gradientUnits="userSpaceOnUse"><stop stop-color="#fff"/><stop offset="1" stop-color="#fff" stop-opacity="0"/></linearGradient><linearGradient id="paint1_linear" x1="552.076" y1="183.132" x2="451.944" y2="260.826" gradientUnits="userSpaceOnUse"><stop stop-color="#fff"/><stop offset="1" stop-color="#fff" stop-opacity="0"/></linearGradient><linearGradient id="paint2_linear" x1="491.689" y1="137.174" x2="391.557" y2="214.868" gradientUnits="userSpaceOnUse"><stop stop-color="#fff"/><stop offset="1" stop-color="#fff" stop-opacity="0"/></linearGradient><linearGradient id="paint3_linear" x1="535.849" y1="194.07" x2="435.717" y2="271.764" gradientUnits="userSpaceOnUse"><stop stop-color="#fff"/><stop offset="1" stop-color="#fff" stop-opacity="0"/></linearGradient><linearGradient id="paint4_linear" x1="380.165" y1="257.686" x2="330.366" y2="290.711" gradientUnits="userSpaceOnUse"><stop stop-color="#fff"/><stop offset="1" stop-color="#fff" stop-opacity="0"/></linearGradient><linearGradient id="paint5_linear" x1="446.694" y1="254.909" x2="450.925" y2="351.086" gradientUnits="userSpaceOnUse"><stop stop-color="#fff"/><stop offset="1" stop-color="#fff" stop-opacity="0"/></linearGradient><linearGradient id="paint6_linear" x1="413.336" y1="160.011" x2="361.718" y2="235.107" gradientUnits="userSpaceOnUse"><stop stop-color="#fff"/><stop offset="1" stop-color="#fff" stop-opacity="0"/></linearGradient><linearGradient id="paint7_linear" x1="422.607" y1="328.524" x2="408.012" y2="339.251" gradientUnits="userSpaceOnUse"><stop stop-color="#fff"/><stop offset="1" stop-color="#fff" stop-opacity="0"/></linearGradient></defs></svg>