<svg width="214" height="65" fill="none" xmlns="http://www.w3.org/2000/svg"><path d="M18.604 14.824c5.576 0 9.792 1.655 12.648 4.964 2.856 3.264 4.284 7.82 4.284 13.668 0 .907-.023 1.587-.068 2.04H7.044c.499 3.219 1.836 5.78 4.012 7.684 2.221 1.904 4.941 2.856 8.16 2.856 2.13 0 4.103-.385 5.916-1.156a14.213 14.213 0 004.828-3.264l3.468 3.604c-1.768 1.904-3.899 3.377-6.392 4.42-2.493 1.043-5.259 1.564-8.296 1.564-3.536 0-6.687-.748-9.452-2.244-2.72-1.541-4.85-3.695-6.392-6.46C1.4 39.735.652 36.584.652 33.048c0-3.536.748-6.664 2.244-9.384 1.541-2.765 3.672-4.919 6.392-6.46 2.72-1.587 5.825-2.38 9.316-2.38zM29.824 30.6c-.181-3.264-1.27-5.825-3.264-7.684-1.995-1.904-4.624-2.856-7.888-2.856-3.173 0-5.825.952-7.956 2.856-2.085 1.904-3.332 4.465-3.74 7.684h22.848zM66.129 51v-5.032c-2.675 3.536-6.868 5.304-12.58 5.304-2.494 0-4.692-.476-6.596-1.428-1.86-.952-3.31-2.267-4.352-3.944-.998-1.677-1.496-3.559-1.496-5.644 0-3.219 1.178-5.757 3.536-7.616 2.402-1.904 5.734-2.879 9.996-2.924H66.06v-1.7c0-2.539-.794-4.488-2.38-5.848-1.542-1.405-3.808-2.108-6.8-2.108-3.627 0-7.322 1.292-11.084 3.876l-2.652-4.352c2.584-1.677 4.964-2.879 7.14-3.604 2.22-.77 4.85-1.156 7.888-1.156 4.488 0 7.956 1.11 10.404 3.332 2.448 2.176 3.694 5.236 3.74 9.18L72.385 51h-6.256zM54.84 46.036c2.946 0 5.44-.703 7.48-2.108 2.085-1.45 3.332-3.355 3.74-5.712v-3.604H55.52c-2.856 0-4.987.43-6.392 1.292-1.36.861-2.04 2.221-2.04 4.08s.702 3.332 2.108 4.42c1.405 1.088 3.286 1.632 5.644 1.632zm48.487-23.052c-1.496-.907-3.15-1.632-4.964-2.176-1.768-.544-3.468-.816-5.1-.816-1.904 0-3.445.363-4.624 1.088-1.133.68-1.7 1.745-1.7 3.196 0 1.45.635 2.561 1.904 3.332 1.315.725 3.287 1.473 5.916 2.244 2.494.725 4.534 1.45 6.12 2.176a10.564 10.564 0 014.012 3.196c1.134 1.405 1.7 3.264 1.7 5.576 0 3.4-1.292 5.984-3.876 7.752-2.538 1.768-5.712 2.652-9.52 2.652-2.674 0-5.281-.43-7.82-1.292-2.493-.861-4.601-2.085-6.324-3.672l2.38-4.624c1.496 1.36 3.332 2.448 5.508 3.264 2.222.816 4.375 1.224 6.46 1.224 2.086 0 3.763-.385 5.032-1.156 1.27-.77 1.904-1.95 1.904-3.536 0-1.632-.68-2.856-2.04-3.672-1.314-.816-3.332-1.632-6.052-2.448-2.402-.68-4.374-1.36-5.916-2.04-1.496-.725-2.788-1.768-3.876-3.128-1.042-1.36-1.564-3.128-1.564-5.304 0-3.355 1.224-5.87 3.672-7.548 2.448-1.677 5.508-2.516 9.18-2.516 2.176 0 4.307.317 6.392.952 2.131.59 3.967 1.405 5.508 2.448l-2.312 4.828zm23.94 33.116c-1.133 2.765-2.652 4.85-4.556 6.256-1.859 1.405-4.057 2.108-6.596 2.108-1.541 0-2.947-.227-4.216-.68-1.269-.453-2.493-1.156-3.672-2.108l2.72-4.964c1.587 1.133 3.196 1.7 4.828 1.7 2.72 0 4.76-1.541 6.12-4.624l1.36-3.196-14.892-35.564h6.664l11.424 28.832 10.812-28.832h6.46L127.268 56.1zm20.446-28.016h16.252v4.556h-16.252v-4.556zm48.498-14.28c3.4 0 6.392.793 8.976 2.38 2.584 1.541 4.579 3.763 5.984 6.664 1.451 2.856 2.176 6.165 2.176 9.928 0 3.717-.703 6.981-2.108 9.792-1.36 2.81-3.332 4.987-5.916 6.528-2.539 1.541-5.485 2.312-8.84 2.312-2.312 0-4.42-.43-6.324-1.292-1.859-.907-3.445-2.199-4.76-3.876V51h-12.104V.544H185.4v18.428c2.675-3.445 6.279-5.168 10.812-5.168zm-2.992 27.812c2.357 0 4.261-.839 5.712-2.516 1.496-1.677 2.244-3.876 2.244-6.596s-.748-4.919-2.244-6.596c-1.451-1.723-3.355-2.584-5.712-2.584-2.312 0-4.193.861-5.644 2.584-1.451 1.677-2.176 3.876-2.176 6.596s.725 4.919 2.176 6.596c1.451 1.677 3.332 2.516 5.644 2.516z" fill="url(#paint0_linear)"/><defs><linearGradient id="paint0_linear" x1="109.467" y1="102.778" x2="147.234" y2="-18.121" gradientUnits="userSpaceOnUse"><stop stop-color="#102397"/><stop offset=".553" stop-color="#187ADF"/><stop offset="1" stop-color="#00EAF8"/></linearGradient></defs></svg>