<svg width="712" height="533" fill="none" xmlns="http://www.w3.org/2000/svg"><path fill="#E5E5E5" d="M0 0h712v533H0z"/><path fill="#fff" d="M-1152-333h2732v1733h-2732z"/><g filter="url(#filter0_d)"><rect x="156" y="191.483" width="472" height="312" rx="7" fill="#BAC5F4"/></g><g filter="url(#filter1_d)"><rect x="226" y="162.483" width="382" height="310" rx="5.88" fill="#4C59E0"/></g><g filter="url(#filter2_d)" clip-path="url(#clip0)"><rect x="240" y=".483" width="471.824" height="311.529" rx="5.88" fill="#E1E6FB"/></g><g filter="url(#filter3_d)"><rect x="23" y="71.483" width="563" height="371" rx="7" fill="url(#paint0_linear)"/></g><path d="M328.792 270.247c11.425 5.417 24.112 11.306 33.013 15.411 9.897-24.507-3.321-48.142-18.068-63.903-3.52 14.777-8.436 30.885-14.945 48.492z" fill="#F2C94C"/><path d="M259.179 221.222c-14.68 15.518-27.832 38.907-17.935 63.522 8.901-3.997 21.522-9.638 32.947-14.856-6.51-17.703-11.425-33.868-15.012-48.666z" fill="#F2994A"/><path opacity=".2" d="M290.796 310.333c-82.101-186.291-14.547-231.341 10.96-248.804 25.508 17.894 92.995 63.979 10.828 248.959l-21.788-.155z" fill="url(#paint1_linear)"/><path opacity=".1" d="M314.975 288.281c-82.101-186.245-14.613-231.315 10.96-248.804 25.508 17.894 92.995 63.979 10.828 248.959l-21.788-.155z" fill="url(#paint2_linear)"/><path opacity=".15" d="M312.584 310.488c82.168-184.98 14.68-231.065-10.828-248.959v248.878l10.828.081z" fill="url(#paint3_linear)"/><path opacity=".1" d="M326.202 128.87c0 13.304-11.293 23.995-25.242 23.895-13.949-.099-25.241-11-25.241-24.305s11.292-23.995 25.241-23.896c13.949.099 25.242 11.001 25.242 24.306z" fill="#fff"/><path opacity=".1" d="M335.766 356.071c-7.588-4.734-11.717-12.129-15.353-18.617-4.218-7.466-7.76-13.837-15.159-13.788-8.469.04-11.69 6.206-16.256 14.777-2.666 5.04-5.824 11.002-10.708 16.98-6.022-1.989-12.31-3.3-18.85-3.75-27.41-1.999-48.91 11.202-52.488 30.593-3.76-.64-7.508-1.143-11.319-1.442-43.97-3.187-77.09 21.502-74.013 55.246 10.308 113.048 367.128 80.603 359.22-8.155-3.578-39.245-48.135-74.134-99.478-77.888-16.975-1.225-32.481 1.025-45.596 6.044z" fill="url(#paint4_linear)"/><path opacity=".3" d="M387.578 179.791l179.812 1.429.067 64.933-163.937-1.303-15.876 9.818-.066-74.877z" fill="url(#paint5_linear)"/><path d="M515.114 213.142V195.51l67.886.535v17.632l-67.886-.535z" fill="#F2C94C"/><path opacity=".1" d="M433.81 195.955l39.39.295v5.709l-39.39-.295v-5.709zm.066 11.392l71.075.574v5.708l-71.075-.573v-5.709z" fill="#fff"/><path opacity=".15" d="M433.876 218.764l91.999.746v5.709l-91.999-.746v-5.709z" fill="#fff"/><path d="M424.112 201.831c0 5.34-4.584 9.67-10.23 9.629-5.646-.041-10.229-4.413-10.229-9.753s4.583-9.67 10.229-9.629c5.713.015 10.23 4.413 10.23 9.753z" fill="#F2C94C"/><path opacity=".3" d="M232.475 148.874l-179.812-1.383.066 64.932 163.937 1.257 15.875 10.071-.066-74.877z" fill="url(#paint6_linear)"/><path d="M33.466 180.341v-17.633l67.887.536v17.632l-67.887-.535z" fill="#F2994A"/><path opacity=".15" d="M186.244 164.337l-39.39-.295v5.709l39.39.294v-5.708zm0 11.417l-75.924-.605v5.709l75.924.605v-5.709zm0 11.418l-91.999-.746v5.709l91.999.745v-5.708z" fill="#fff"/><path d="M195.941 170.339c0 5.341 4.584 9.712 10.23 9.753 5.646.041 10.229-4.288 10.229-9.629 0-5.34-4.583-9.711-10.229-9.753-5.646.005-10.23 4.289-10.23 9.629z" fill="#F2994A"/><path opacity=".2" d="M208.562 227.586l-107.409-.825v38.764l107.409.824v-38.763z" fill="url(#paint7_linear)"/><path opacity=".15" d="M128.653 236.278l36.8.298v4.65l-36.8-.298v-4.65zm0 9.345l68.816.539v4.696l-68.816-.539v-4.696z" fill="#fff"/><path d="M123.007 239.874c0 3.176-2.724 5.764-6.111 5.757-3.388-.006-6.112-2.621-6.112-5.843 0-3.177 2.724-5.764 6.112-5.758 3.321.078 6.111 2.667 6.111 5.844z" fill="#F2994A"/><path opacity=".2" d="M527.535 131.756l-107.409-.824v38.763l107.409.87v-38.809z" fill="url(#paint8_linear)"/><path opacity=".15" d="M447.626 140.494l36.8.298v4.65l-36.8-.298v-4.65zm.066 9.32l68.817.538v4.696l-68.817-.538v-4.696z" fill="#fff"/><path d="M441.98 144.09c0 3.176-2.724 5.764-6.111 5.757-3.388-.006-6.111-2.621-6.111-5.843 0-3.177 2.723-5.764 6.111-5.758 3.387.052 6.111 2.667 6.111 5.844z" fill="#F2C94C"/><defs><linearGradient id="paint0_linear" x1="758.194" y1="331.698" x2="556.494" y2="18.197" gradientUnits="userSpaceOnUse"><stop stop-color="#187ADF"/><stop offset="1" stop-color="#4C59E0"/></linearGradient><linearGradient id="paint1_linear" x1="397.471" y1="31.734" x2="394.889" y2="362.251" gradientUnits="userSpaceOnUse"><stop stop-color="#fff"/><stop offset="1" stop-color="#fff" stop-opacity="0"/></linearGradient><linearGradient id="paint2_linear" x1="421.644" y1="9.688" x2="419.061" y2="340.205" gradientUnits="userSpaceOnUse"><stop stop-color="#fff"/><stop offset="1" stop-color="#fff" stop-opacity="0"/></linearGradient><linearGradient id="paint3_linear" x1="358.966" y1="100.901" x2="361.081" y2="361.442" gradientUnits="userSpaceOnUse"><stop stop-color="#fff" stop-opacity="0"/><stop offset="1" stop-color="#fff"/></linearGradient><linearGradient id="paint4_linear" x1="363.271" y1="348.72" x2="353.016" y2="489.201" gradientUnits="userSpaceOnUse"><stop stop-color="#fff"/><stop offset="1" stop-color="#fff" stop-opacity="0"/></linearGradient><linearGradient id="paint5_linear" x1="464.837" y1="151.591" x2="516.437" y2="259.614" gradientUnits="userSpaceOnUse"><stop stop-color="#fff"/><stop offset="1" stop-color="#fff" stop-opacity="0"/></linearGradient><linearGradient id="paint6_linear" x1="193.262" y1="138.243" x2="140.684" y2="244.9" gradientUnits="userSpaceOnUse"><stop stop-color="#fff"/><stop offset="1" stop-color="#fff" stop-opacity="0"/></linearGradient><linearGradient id="paint7_linear" x1="166.96" y1="227.25" x2="166.657" y2="266.023" gradientUnits="userSpaceOnUse"><stop stop-color="#fff"/><stop offset="1" stop-color="#fff" stop-opacity="0"/></linearGradient><linearGradient id="paint8_linear" x1="485.974" y1="131.44" x2="485.671" y2="170.212" gradientUnits="userSpaceOnUse"><stop stop-color="#fff"/><stop offset="1" stop-color="#fff" stop-opacity="0"/></linearGradient><filter id="filter0_d" x="131" y="178.483" width="522" height="362" filterUnits="userSpaceOnUse" color-interpolation-filters="sRGB"><feFlood flood-opacity="0" result="BackgroundImageFix"/><feColorMatrix in="SourceAlpha" values="0 0 0 0 0 0 0 0 0 0 0 0 0 0 0 0 0 0 127 0"/><feOffset dy="12"/><feGaussianBlur stdDeviation="12.5"/><feColorMatrix values="0 0 0 0 0 0 0 0 0 0 0 0 0 0 0 0 0 0 0.489159 0"/><feBlend in2="BackgroundImageFix" result="effect1_dropShadow"/><feBlend in="SourceGraphic" in2="effect1_dropShadow" result="shape"/></filter><filter id="filter1_d" x="201" y="149.483" width="432" height="360" filterUnits="userSpaceOnUse" color-interpolation-filters="sRGB"><feFlood flood-opacity="0" result="BackgroundImageFix"/><feColorMatrix in="SourceAlpha" values="0 0 0 0 0 0 0 0 0 0 0 0 0 0 0 0 0 0 127 0"/><feOffset dy="12"/><feGaussianBlur stdDeviation="12.5"/><feColorMatrix values="0 0 0 0 0 0 0 0 0 0 0 0 0 0 0 0 0 0 0.489159 0"/><feBlend in2="BackgroundImageFix" result="effect1_dropShadow"/><feBlend in="SourceGraphic" in2="effect1_dropShadow" result="shape"/></filter><filter id="filter2_d" x="215" y="-12.517" width="521.824" height="361.529" filterUnits="userSpaceOnUse" color-interpolation-filters="sRGB"><feFlood flood-opacity="0" result="BackgroundImageFix"/><feColorMatrix in="SourceAlpha" values="0 0 0 0 0 0 0 0 0 0 0 0 0 0 0 0 0 0 127 0"/><feOffset dy="12"/><feGaussianBlur stdDeviation="12.5"/><feColorMatrix values="0 0 0 0 0.211892 0 0 0 0 0.579571 0 0 0 0 0.940078 0 0 0 0.489159 0"/><feBlend in2="BackgroundImageFix" result="effect1_dropShadow"/><feBlend in="SourceGraphic" in2="effect1_dropShadow" result="shape"/></filter><filter id="filter3_d" x="-7" y="56.483" width="623" height="431" filterUnits="userSpaceOnUse" color-interpolation-filters="sRGB"><feFlood flood-opacity="0" result="BackgroundImageFix"/><feColorMatrix in="SourceAlpha" values="0 0 0 0 0 0 0 0 0 0 0 0 0 0 0 0 0 0 127 0"/><feOffset dy="15"/><feGaussianBlur stdDeviation="15"/><feColorMatrix values="0 0 0 0 0 0 0 0 0 0 0 0 0 0 0 0 0 0 0.489159 0"/><feBlend in2="BackgroundImageFix" result="effect1_dropShadow"/><feBlend in="SourceGraphic" in2="effect1_dropShadow" result="shape"/></filter><clipPath id="clip0"><rect x="240" y=".483" width="472" height="312" rx="7" fill="#fff"/></clipPath></defs></svg>