<svg width="97" height="98" fill="none" xmlns="http://www.w3.org/2000/svg"><g clip-path="url(#clip0)"><path d="M76.476 40.474H74.1c-.867 0-1.57.716-1.57 1.598 0 .882.703 1.598 1.57 1.598h2.376c.868 0 1.57-.716 1.57-1.598 0-.882-.702-1.598-1.57-1.598z" fill="url(#paint0_linear)"/><path d="M68.038 40.474h-2.376c-.868 0-1.57.716-1.57 1.598 0 .882.703 1.598 1.57 1.598h2.376c.868 0 1.57-.716 1.57-1.598 0-.882-.702-1.598-1.57-1.598z" fill="url(#paint1_linear)"/><path d="M59.392 40.474h-2.376c-.868 0-1.57.716-1.57 1.598 0 .882.702 1.598 1.57 1.598h2.376c.867 0 1.57-.716 1.57-1.598 0-.882-.703-1.598-1.57-1.598z" fill="url(#paint2_linear)"/><path d="M95.78 81.897a2.9 2.9 0 00-2.344-1.21h-4V31.522c0-2.538-2.032-4.6-4.529-4.6h-43.55l7.243-4.25c1.701 1.74 4.055 2.82 6.652 2.82 5.175 0 9.384-4.282 9.384-9.546 0-5.263-4.21-9.546-9.383-9.546-5.175 0-9.384 4.283-9.384 9.546 0 1.468.328 2.86.912 4.104l-9.537 5.596a9.298 9.298 0 00-5.543-1.828 9.338 9.338 0 00-6.951 3.104H11.43c-2.496 0-4.528 2.063-4.528 4.6v49.166h-4c-.923 0-1.8.453-2.344 1.21a3.002 3.002 0 00-.424 2.635l.772 2.471c.856 2.75 3.34 4.597 6.179 4.597h49.93c.868 0 1.57-.715 1.57-1.598 0-.882-.702-1.597-1.57-1.597H7.086a3.33 3.33 0 01-3.184-2.368l-.673-2.153h89.88l-.673 2.155a3.33 3.33 0 01-3.183 2.366H66.445c-.867 0-1.57.715-1.57 1.598 0 .882.703 1.597 1.57 1.597h22.808c2.84 0 5.323-1.847 6.178-4.595l.773-2.474a3.002 3.002 0 00-.424-2.635zM55.253 9.594c3.442 0 6.242 2.849 6.242 6.35 0 3.501-2.8 6.35-6.242 6.35s-6.242-2.849-6.242-6.35c0-3.501 2.8-6.35 6.242-6.35zM38.81 39.404h42.267v5.38H38.208l-2.281-3.108a9.446 9.446 0 002.883-2.272zm8.517 30.076c5.175 0 9.385-4.282 9.385-9.545 0-5.264-4.21-9.546-9.385-9.546a9.193 9.193 0 00-4.242 1.036l-2.53-3.446h40.524v23.6h-65.82v-23.6h21.374l3.93 5.35a9.596 9.596 0 00-2.62 6.606c0 5.263 4.21 9.545 9.385 9.545zm-6.242-9.545c0-3.502 2.8-6.35 6.242-6.35 3.443 0 6.243 2.848 6.243 6.35 0 3.5-2.8 6.35-6.242 6.35s-6.243-2.85-6.243-6.35zm-9.384-32.923a6.25 6.25 0 016.243 6.242c0 3.441-2.8 6.241-6.243 6.241a6.249 6.249 0 01-6.242-6.241c0-3.442 2.8-6.242 6.242-6.242zm0 15.679c.341 0 .677-.02 1.009-.055l1.577 2.148H15.26v-5.38h9.333c1.722 2.01 4.27 3.287 7.108 3.287zm54.593 37.996h-76.25V31.521c0-.776.623-1.404 1.387-1.404h11.422a9.445 9.445 0 00-.063 6.09h-9.1c-.863 0-1.57.712-1.57 1.597v35.373c0 .882.703 1.598 1.57 1.598h68.96c.868 0 1.572-.716 1.572-1.598V37.804c0-.842-.741-1.598-1.571-1.598H40.613a9.44 9.44 0 00-.063-6.089h44.357c.765 0 1.387.629 1.387 1.404v49.166z" fill="url(#paint3_linear)"/><path d="M49.02 31.656h-1.702c-.867 0-1.57.715-1.57 1.598 0 .882.703 1.598 1.57 1.598h1.703c.867 0 1.57-.716 1.57-1.598 0-.883-.703-1.598-1.57-1.598z" fill="url(#paint4_linear)"/><path d="M50.418 58.336h-1.52V56.79c0-.882-.703-1.598-1.57-1.598-.868 0-1.571.716-1.571 1.598v1.546h-1.52c-.868 0-1.571.716-1.571 1.598 0 .883.703 1.598 1.57 1.598h1.52v1.546c0 .883.704 1.598 1.571 1.598.868 0 1.571-.715 1.571-1.598v-1.546h1.52c.868 0 1.57-.715 1.57-1.598.001-.882-.702-1.598-1.57-1.598z" fill="url(#paint5_linear)"/><path d="M58.344 14.347h-1.52v-1.546c0-.882-.703-1.598-1.571-1.598s-1.57.716-1.57 1.598v1.546h-1.52c-.869 0-1.572.716-1.572 1.598 0 .882.703 1.598 1.571 1.598h1.52v1.546c0 .883.703 1.598 1.57 1.598.869 0 1.572-.716 1.572-1.598v-1.546h1.52c.867 0 1.57-.716 1.57-1.598 0-.882-.703-1.598-1.57-1.598z" fill="url(#paint6_linear)"/><path d="M34.792 31.656h-1.52v-1.503c0-.883-.703-1.598-1.57-1.598-.868 0-1.571.715-1.571 1.598v1.503h-1.52c-.868 0-1.571.715-1.571 1.598 0 .882.703 1.598 1.57 1.598h1.52v1.503c0 .882.704 1.598 1.572 1.598.867 0 1.57-.716 1.57-1.598v-1.503h1.52c.868 0 1.571-.716 1.571-1.598 0-.883-.703-1.598-1.57-1.598z" fill="url(#paint7_linear)"/></g><defs><linearGradient id="paint0_linear" x1="75.364" y1="45.633" x2="78.064" y2="40.956" gradientUnits="userSpaceOnUse"><stop stop-color="#102397"/><stop offset=".553" stop-color="#187ADF"/><stop offset="1" stop-color="#00EAF8"/></linearGradient><linearGradient id="paint1_linear" x1="66.926" y1="45.633" x2="69.626" y2="40.956" gradientUnits="userSpaceOnUse"><stop stop-color="#102397"/><stop offset=".553" stop-color="#187ADF"/><stop offset="1" stop-color="#00EAF8"/></linearGradient><linearGradient id="paint2_linear" x1="58.279" y1="45.633" x2="60.98" y2="40.956" gradientUnits="userSpaceOnUse"><stop stop-color="#102397"/><stop offset=".553" stop-color="#187ADF"/><stop offset="1" stop-color="#00EAF8"/></linearGradient><linearGradient id="paint3_linear" x1="49.487" y1="143.947" x2="131.963" y2="50.396" gradientUnits="userSpaceOnUse"><stop stop-color="#102397"/><stop offset=".553" stop-color="#187ADF"/><stop offset="1" stop-color="#00EAF8"/></linearGradient><linearGradient id="paint4_linear" x1="48.236" y1="36.815" x2="51.099" y2="32.462" gradientUnits="userSpaceOnUse"><stop stop-color="#102397"/><stop offset=".553" stop-color="#187ADF"/><stop offset="1" stop-color="#00EAF8"/></linearGradient><linearGradient id="paint5_linear" x1="47.455" y1="70.503" x2="56.708" y2="61.379" gradientUnits="userSpaceOnUse"><stop stop-color="#102397"/><stop offset=".553" stop-color="#187ADF"/><stop offset="1" stop-color="#00EAF8"/></linearGradient><linearGradient id="paint6_linear" x1="55.38" y1="26.514" x2="64.633" y2="17.389" gradientUnits="userSpaceOnUse"><stop stop-color="#102397"/><stop offset=".553" stop-color="#187ADF"/><stop offset="1" stop-color="#00EAF8"/></linearGradient><linearGradient id="paint7_linear" x1="31.829" y1="43.727" x2="40.999" y2="34.601" gradientUnits="userSpaceOnUse"><stop stop-color="#102397"/><stop offset=".553" stop-color="#187ADF"/><stop offset="1" stop-color="#00EAF8"/></linearGradient><clipPath id="clip0"><path fill="#fff" d="M0 0h96.339v98H0z"/></clipPath></defs></svg>