<svg width="859" height="697" fill="none" xmlns="http://www.w3.org/2000/svg"><path d="M20.471 23.427L.986 42.913l18.18 18.18 19.485-19.485-18.18-18.18zm21.522 23.078L22.508 65.99l18.18 18.18 19.485-19.485-18.18-18.18zm4.61-46.14L27.118 19.851l18.18 18.18 19.486-19.485L46.604.366zm615.104 332.154l-19.485 19.485 18.18 18.18 19.486-19.485-18.181-18.18zm21.522 23.061l-19.485 19.485 18.181 18.181 19.485-19.485-18.181-18.181zm-23.065 23.071l-19.486 19.485 18.181 18.181 19.485-19.486-18.18-18.18zM128.35 297.904H57.614v156.849h70.736V297.904z" fill="#E1E6FB"/><path d="M259.057 297.904H140.651v156.849h118.406V297.904z" fill="#BAC5F4"/><path d="M517.395 299.442H398.99V456.29h118.405V299.442z" fill="#E1E6FB"/><path d="M623.498 16.5H86.831v395.196h536.667V16.499z" fill="#BAC5F4"/><path d="M623.499 16.5H100.67v395.196h522.829V16.499z" fill="#F8F8FF"/><path d="M617.348 22.65H105.284v27.68h512.064V22.65z" fill="#fff"/><path d="M617.348 48.792H105.284v356.753h512.064V48.792z" fill="#E1E6FB"/><path d="M252.906 62.631h-63.047v70.736h63.047V62.631zm70.735 0h-63.047v70.736h63.047V62.631zm69.198 0h-63.047v70.736h63.047V62.631z" fill="#BAC5F4"/><path d="M463.575 62.631h-63.047v70.736h63.047V62.631zm69.197 0h-63.046v70.736h63.046V62.631zm70.736 0h-63.047v70.736h63.047V62.631zm-350.602 81.5h-63.047v70.736h63.047v-70.736zm70.735 0h-63.047v70.736h63.047v-70.736z" fill="#fff"/><path d="M392.839 144.131h-63.047v70.736h63.047v-70.736z" fill="#F8F8FF"/><path d="M463.575 144.131h-63.047v70.736h63.047v-70.736zm69.197 0h-63.046v70.736h63.046v-70.736zm70.736 0h-63.047v70.736h63.047v-70.736zm-350.602 78.424h-63.047v70.736h63.047v-70.736zm70.735 0h-63.047v70.736h63.047v-70.736z" fill="#fff"/><path d="M392.839 222.555h-63.047v70.736h63.047v-70.736z" fill="#F8F8FF"/><path d="M463.575 222.555h-63.047v70.736h63.047v-70.736z" fill="#fff"/><path d="M532.772 222.555h-63.046v70.736h63.046v-70.736z" fill="#F8F8FF"/><path d="M603.508 222.555h-63.047v70.736h63.047v-70.736z" fill="#fff"/><path d="M254.443 302.518h-63.046v70.735h63.046v-70.735zm70.736 0h-63.047v70.735h63.047v-70.735z" fill="#F8F8FF"/><path d="M394.377 302.518H331.33v70.735h63.047v-70.735zm70.735 0h-63.047v70.735h63.047v-70.735z" fill="#fff"/><path d="M534.31 302.518h-63.047v70.735h63.047v-70.735z" fill="#BAC5F4"/><path d="M605.046 302.518h-63.047v70.735h63.047v-70.735z" fill="#fff"/><path d="M119.892 42.641a5.382 5.382 0 100-10.763 5.382 5.382 0 000 10.763zm16.915 0a5.382 5.382 0 100-10.763 5.382 5.382 0 000 10.763zm16.915 0a5.382 5.382 0 100-10.763 5.382 5.382 0 000 10.763z" fill="#BAC5F4"/><path d="M170.637 142.594h-43.056a6.92 6.92 0 100 13.839h43.056a6.92 6.92 0 100-13.839zm0 79.961h-43.056a6.92 6.92 0 100 13.84h43.056a6.92 6.92 0 100-13.84zm0 79.963h-43.056a6.92 6.92 0 100 13.839h43.056a6.92 6.92 0 100-13.839z" fill="#fff"/><path d="M225.995 148.744h-24.603a5.382 5.382 0 100 10.764h24.603a5.382 5.382 0 100-10.764zm-15.377 19.991h-10.764a3.844 3.844 0 100 7.689h10.764a3.846 3.846 0 000-7.689zm86.882-19.991h-24.604a4.613 4.613 0 000 9.227H297.5a4.613 4.613 0 000-9.227z" fill="#BAC5F4"/><path d="M506.631 313.282h-24.604a4.613 4.613 0 000 9.226h24.604a4.613 4.613 0 100-9.226z" fill="#fff"/><path d="M575.829 230.244h-24.604a4.613 4.613 0 000 9.227h24.604a4.613 4.613 0 000-9.227zm-1.538-79.962h-24.603a4.614 4.614 0 000 9.227h24.603a4.613 4.613 0 000-9.227zm-69.198 0H480.49a4.613 4.613 0 000 9.227h24.603a4.614 4.614 0 000-9.227z" fill="#F5F5FC"/><path d="M274.434 176.423a6.15 6.15 0 100-12.301 6.15 6.15 0 100 12.301zm139.933-10.764a6.151 6.151 0 100-12.302 6.151 6.151 0 000 12.302zm21.529 0a6.15 6.15 0 006.15-6.151 6.15 6.15 0 10-12.301 0 6.15 6.15 0 006.151 6.151zm0 76.887a6.15 6.15 0 006.15-6.151 6.15 6.15 0 10-12.301 0 6.15 6.15 0 006.151 6.151zm-21.529 0a6.151 6.151 0 100-12.302 6.151 6.151 0 000 12.302zm19.991 78.424a6.151 6.151 0 100-12.302 6.151 6.151 0 000 12.302zm-21.528 0a6.151 6.151 0 100-12.302 6.151 6.151 0 000 12.302zm-187.603 1.538a6.151 6.151 0 100-12.302 6.151 6.151 0 000 12.302zm-21.529 0a6.151 6.151 0 100-12.302 6.151 6.151 0 000 12.302zM414.367 82.622a6.151 6.151 0 100-12.302 6.151 6.151 0 000 12.302z" fill="#BAC5F4"/><path d="M342.094 82.622a6.151 6.151 0 100-12.302 6.151 6.151 0 000 12.302zm21.528 0a6.151 6.151 0 100-12.302 6.151 6.151 0 000 12.302zm-90.726 0a6.151 6.151 0 100-12.302 6.151 6.151 0 000 12.302zm21.528 0a6.151 6.151 0 100-12.302 6.151 6.151 0 000 12.302zm-90.726 0a6.151 6.151 0 100-12.302 6.151 6.151 0 000 12.302zm21.529 0a6.151 6.151 0 100-12.302 6.151 6.151 0 000 12.302z" fill="#fff"/><path d="M448.966 102.998h2.761v2.064h-2.761v4.621h-2.543v-4.621h-9.065v-1.49l8.914-13.795h2.694v13.221zm-8.737 0h6.194v-9.762l-.301.547-5.893 9.215z" fill="#BAC5F4"/><path d="M314.473 109.683H301.43v-1.818l6.891-7.657c1.021-1.157 1.722-2.096 2.105-2.816a4.71 4.71 0 00.588-2.256c0-1.039-.314-1.891-.943-2.556-.629-.666-1.468-.998-2.516-.998-1.258 0-2.238.36-2.939 1.08-.693.71-1.039 1.704-1.039 2.98h-2.53c0-1.832.588-3.313 1.764-4.443 1.185-1.13 2.766-1.696 4.744-1.696 1.85 0 3.313.488 4.389 1.463 1.075.967 1.613 2.256 1.613 3.87 0 1.96-1.249 4.292-3.746 6.999l-5.332 5.784h9.994v2.064z" fill="#fff"/><path d="M242.531 170.853l-8.244 18.484h-2.652l8.216-17.828h-10.773v-2.078h13.453v1.422zm190.737 18.577h-2.543v-16.858l-5.099 1.873v-2.297l7.246-2.72h.396v20.002zm19.893-8.491c0 2.963-.506 5.164-1.518 6.604-1.011 1.44-2.593 2.16-4.744 2.16-2.123 0-3.696-.702-4.717-2.105-1.02-1.413-1.549-3.519-1.586-6.317v-3.377c0-2.925.506-5.099 1.518-6.521 1.012-1.422 2.598-2.133 4.758-2.133 2.142 0 3.719.688 4.73 2.064 1.012 1.368 1.532 3.482 1.559 6.344v3.281zm-2.529-3.459c0-2.141-.301-3.7-.903-4.675-.601-.985-1.554-1.477-2.857-1.477-1.294 0-2.238.488-2.83 1.463-.593.975-.898 2.475-.916 4.498v4.047c0 2.151.31 3.741.929 4.771.629 1.021 1.577 1.532 2.844 1.532 1.249 0 2.174-.483 2.776-1.45.61-.966.929-2.488.957-4.566v-4.143zm-82.486 91.558h-2.543v-16.857l-5.1 1.873v-2.297l7.246-2.721h.397v20.002zm8.572-9.98l1.011-9.926h10.2v2.338h-8.053l-.602 5.427c.976-.574 2.083-.861 3.323-.861 1.813 0 3.254.602 4.32 1.805 1.066 1.194 1.6 2.812 1.6 4.853 0 2.051-.556 3.669-1.668 4.854-1.103 1.176-2.648 1.764-4.635 1.764-1.759 0-3.195-.488-4.307-1.463-1.112-.976-1.745-2.325-1.9-4.047h2.392c.155 1.139.561 2 1.217 2.584.656.574 1.522.861 2.598.861 1.176 0 2.096-.401 2.762-1.203.674-.802 1.011-1.91 1.011-3.322 0-1.331-.364-2.397-1.093-3.2-.72-.811-1.682-1.216-2.885-1.216-1.103 0-1.969.241-2.598.724l-.67.547-2.023-.519zm199.021 13.055h-2.543v-16.857l-5.1 1.873v-2.297l7.246-2.721h.397v20.002zm19.482-14.711c0 .994-.264 1.878-.793 2.653-.519.774-1.226 1.381-2.119 1.818 1.039.447 1.86 1.098 2.461 1.955.611.857.916 1.828.916 2.912 0 1.723-.583 3.095-1.75 4.115-1.157 1.021-2.684 1.532-4.58 1.532-1.914 0-3.45-.511-4.607-1.532-1.149-1.029-1.723-2.401-1.723-4.115 0-1.075.292-2.046.875-2.912.593-.866 1.408-1.522 2.447-1.969-.884-.437-1.581-1.043-2.091-1.818-.511-.775-.766-1.654-.766-2.639 0-1.677.538-3.007 1.613-3.992 1.076-.984 2.493-1.476 4.252-1.476 1.75 0 3.163.492 4.238 1.476 1.085.985 1.627 2.315 1.627 3.992zm-2.064 9.284c0-1.112-.356-2.019-1.066-2.721-.702-.702-1.623-1.053-2.762-1.053-1.14 0-2.056.346-2.748 1.039-.684.693-1.026 1.604-1.026 2.735 0 1.13.333 2.018.998 2.666.675.647 1.609.97 2.803.97 1.185 0 2.115-.323 2.789-.97.675-.657 1.012-1.545 1.012-2.666zm-3.801-12.674c-.993 0-1.8.31-2.42.929-.61.611-.916 1.445-.916 2.502 0 1.012.301 1.832.903 2.461.61.62 1.421.93 2.433.93 1.012 0 1.818-.31 2.42-.93.611-.629.916-1.449.916-2.461 0-1.011-.314-1.836-.943-2.474-.629-.638-1.427-.957-2.393-.957zm-279.349 82.484c0 2.962-.506 5.164-1.518 6.604-1.012 1.44-2.593 2.16-4.744 2.16-2.124 0-3.696-.702-4.717-2.106-1.021-1.412-1.549-3.518-1.586-6.316v-3.377c0-2.926.506-5.1 1.518-6.522 1.011-1.421 2.597-2.132 4.758-2.132 2.141 0 3.718.688 4.73 2.064 1.012 1.367 1.531 3.482 1.559 6.344v3.281zm-2.53-3.459c0-2.142-.3-3.7-.902-4.676-.602-.984-1.554-1.476-2.857-1.476-1.295 0-2.238.487-2.831 1.463-.592.975-.897 2.474-.916 4.498v4.047c0 2.151.31 3.741.93 4.771.629 1.021 1.577 1.531 2.844 1.531 1.249 0 2.174-.483 2.775-1.449.611-.966.93-2.488.957-4.566v-4.143z" fill="#BAC5F4"/><g filter="url(#filter0_f)"><path fill-rule="evenodd" clip-rule="evenodd" d="M757.573 481.816c11.779-14.032 10.525-34.706-2.85-46.995L597.032 289.924l-68.515 99.882c-9.719 14.168-7.502 33.22 5.19 44.598l124.119 111.272c14.38 12.891 36.733 11.207 49.256-3.711l50.491-60.149z" fill="url(#paint0_linear)"/></g><g filter="url(#filter1_i)" fill-rule="evenodd" clip-rule="evenodd"><path d="M769.843 101.563c0-28.306-15.112-43.406-43.423-43.406H566.158c-28.31 0-43.422 15.1-43.422 43.406v30.96c.579 1.285.579 6.363.579 6.363v7.813c-.051.58-.087 1.221-.124 1.859-.088 1.543-.175 3.065-.455 3.663v17.973c.278.13.491.503.557 1.371h.022v33.305c0 1.125-.242 1.728-.579 1.933v11.423c.278.131.491.503.557 1.372h.022v33.304c0 1.125-.242 1.728-.579 1.933v259.341c0 28.299 15.11 43.403 43.422 43.403h65.299c.65-.346 1.866-.579 3.258-.579h.29l23.148.003c1.27.03 2.364.254 2.969.576h65.298c28.312 0 43.423-15.107 43.423-43.406V243.194c-.178-.189-.33-.546-.433-1.009l-.146-1.736V186.34h.021c.067-.875.28-1.582.558-1.877v-82.9z" fill="url(#paint1_linear)"/><path d="M769.843 101.563c0-28.306-15.112-43.406-43.423-43.406H566.158c-28.31 0-43.422 15.1-43.422 43.406v30.96c.579 1.285.579 6.363.579 6.363v7.813c-.051.58-.087 1.221-.124 1.859-.088 1.543-.175 3.065-.455 3.663v17.973c.278.13.491.503.557 1.371h.022v33.305c0 1.125-.242 1.728-.579 1.933v11.423c.278.131.491.503.557 1.372h.022v33.304c0 1.125-.242 1.728-.579 1.933v259.341c0 28.299 15.11 43.403 43.422 43.403h65.299c.65-.346 1.866-.579 3.258-.579h.29l23.148.003c1.27.03 2.364.254 2.969.576h65.298c28.312 0 43.423-15.107 43.423-43.406V243.194c-.178-.189-.33-.546-.433-1.009l-.146-1.736V186.34h.021c.067-.875.28-1.582.558-1.877v-82.9z" fill="url(#paint2_linear)"/></g><g style="mix-blend-mode:multiply" filter="url(#filter2_f)"><path fill-rule="evenodd" clip-rule="evenodd" d="M540.676 85.935c7.99 0 14.467-6.477 14.467-14.467S548.666 57 540.676 57s-14.468 6.477-14.468 14.468c0 7.99 6.478 14.467 14.468 14.467z" fill="#4A4A4A" fill-opacity=".15"/></g><g filter="url(#filter3_ii)"><path fill-rule="evenodd" clip-rule="evenodd" d="M723.59 62.208c28.672 0 42.202 11.817 42.202 40.509v411.459c0 28.686-13.528 39.93-42.202 39.93H568.989c-28.674 0-42.781-11.244-42.781-39.93V102.717c0-28.692 14.109-40.509 42.781-40.509H723.59z" fill="url(#paint3_linear)"/></g><path clip-rule="evenodd" d="M723.59 62.208c28.672 0 42.202 11.817 42.202 40.509v411.459c0 28.686-13.528 39.93-42.202 39.93H568.989c-28.674 0-42.781-11.244-42.781-39.93V102.717c0-28.692 14.109-40.509 42.781-40.509H723.59z" stroke="url(#paint4_linear)" stroke-width=".289"/><g filter="url(#filter4_ii)" fill-rule="evenodd" clip-rule="evenodd"><path d="M723.824 63.944c28.677 0 39.653 11.568 39.653 40.289v407.849c0 28.715-10.975 39.71-40.81 39.71H568.754c-28.099 0-40.231-10.995-40.231-39.132V104.233c0-28.721 11.555-40.289 40.231-40.289h155.07z" fill="url(#paint5_linear)"/><path d="M723.824 63.944c28.677 0 39.653 11.568 39.653 40.289v407.849c0 28.715-10.975 39.71-40.81 39.71H568.754c-28.099 0-40.231-10.995-40.231-39.132V104.233c0-28.721 11.555-40.289 40.231-40.289h155.07z" fill="url(#paint6_linear)"/></g><g filter="url(#filter5_di)"><path fill-rule="evenodd" clip-rule="evenodd" d="M768.975 188.674c.04-1.694.307-2.978.477-3.472 1.349.328 1.548.231 1.548.231v56.323s-.421.636-1.548.787c-.153-.18-.376-.68-.477-3.179 0-2.315-.041-48.997 0-50.69z" fill="url(#paint7_linear)"/></g><mask id="a" maskUnits="userSpaceOnUse" x="768" y="185" width="3" height="58"><path fill-rule="evenodd" clip-rule="evenodd" d="M768.975 188.674c.04-1.694.307-2.978.477-3.472 1.349.328 1.548.231 1.548.231v56.323s-.421.636-1.548.787c-.153-.18-.376-.68-.477-3.179 0-2.315-.041-48.997 0-50.69z" fill="#fff"/></mask><g mask="url(#a)"><path fill-rule="evenodd" clip-rule="evenodd" d="M772.026 184.315s-1.425-.184-1.605 4.051v49.093c0 4.783 1.388 5.039 1.605 5.305l.131-.837c-.802-1.194-.933-2.65-.933-4.922v-46.346c0-2.709.58-5.337.802-5.325v-1.019z" fill="#F7FAFF"/></g><g filter="url(#filter6_di)"><path fill-rule="evenodd" clip-rule="evenodd" d="M523.604 222.238c-.041-1.693 0-2.89-.493-3.55-.476.067-.987.17-1.532.31v34.911c.236.151.747.36 1.532.626.3-.453.391-.519.493-3.018 0-2.315.041-27.585 0-29.279z" fill="url(#paint8_linear)"/></g><mask id="b" maskUnits="userSpaceOnUse" x="521" y="218" width="3" height="37"><path fill-rule="evenodd" clip-rule="evenodd" d="M523.604 222.238c-.041-1.693 0-2.89-.493-3.55-.476.067-.987.17-1.532.31v34.911c.236.151.747.36 1.532.626.3-.453.391-.519.493-3.018 0-2.315.041-27.585 0-29.279z" fill="#fff"/></mask><g mask="url(#b)"><path fill-rule="evenodd" clip-rule="evenodd" d="M520.552 217.88s1.426-.184 1.605 4.05v27.682c0 4.783-1.388 5.039-1.605 5.305l-.131-.837c.803-1.195.934-2.65.934-4.922v-24.934c0-2.709-.58-5.337-.803-5.325v-1.019z" fill="#D0D5DA"/></g><g filter="url(#filter7_di)"><path fill-rule="evenodd" clip-rule="evenodd" d="M523.604 174.206c-.041-1.693-.191-3.397-.475-3.622-.476.078-.993.205-1.55.381v34.911c.077.236.569.436 1.477.602.319-.378.548-.9.548-2.994 0-2.314.041-27.585 0-29.278z" fill="url(#paint9_linear)"/></g><mask id="c" maskUnits="userSpaceOnUse" x="521" y="170" width="3" height="37"><path fill-rule="evenodd" clip-rule="evenodd" d="M523.604 174.206c-.041-1.693-.191-3.397-.475-3.622-.476.078-.993.205-1.55.381v34.911c.077.236.569.436 1.477.602.319-.378.548-.9.548-2.994 0-2.314.041-27.585 0-29.278z" fill="#fff"/></mask><g mask="url(#c)"><path fill-rule="evenodd" clip-rule="evenodd" d="M520.552 169.847s1.426-.183 1.605 4.051v27.681c0 4.783-1.388 5.039-1.605 5.305l-.131-.837c.803-1.194.934-2.65.934-4.922v-24.934c0-2.708-.58-5.336-.803-5.325v-1.019z" fill="#D0D5DA"/></g><g filter="url(#filter8_di)" fill-rule="evenodd" clip-rule="evenodd"><path d="M523.315 135.125c0-1.383-.35-2.315-.35-2.315h-1.424l-.541.539v17.55l.578.63 1.387.004s.35-1.475.35-3.098v-13.31z" fill="url(#paint10_linear)"/><path d="M523.315 135.125c0-1.383-.35-2.315-.35-2.315h-1.424l-.541.539v17.55l.578.63 1.387.004s.35-1.475.35-3.098v-13.31z" fill="url(#paint11_linear)"/></g><mask id="d" maskUnits="userSpaceOnUse" x="521" y="132" width="3" height="20"><path fill-rule="evenodd" clip-rule="evenodd" d="M523.315 135.125c0-1.383-.35-2.315-.35-2.315h-1.424l-.541.539v17.55l.578.63 1.387.004s.35-1.475.35-3.098v-13.31z" fill="#fff"/><path fill-rule="evenodd" clip-rule="evenodd" d="M523.315 135.125c0-1.383-.35-2.315-.35-2.315h-1.424l-.541.539v17.55l.578.63 1.387.004s.35-1.475.35-3.098v-13.31z" stroke="#fff"/></mask><g mask="url(#d)"><path fill-rule="evenodd" clip-rule="evenodd" d="M521 131.653c-.094 0 .868 1.045.868 3.64v12.845c0 4.095-.906 3.942-1.063 4.211l-.094-.847c.578-1.208.578-2.504.578-3.646v-11.574c0-1.642-.324-3.609-.484-3.598l.195-1.031z" fill="url(#paint12_linear)" fill-opacity=".2"/></g><g filter="url(#filter9_ddi)"><path fill-rule="evenodd" clip-rule="evenodd" d="M632.979 76.097a2.025 2.025 0 000 4.051h26.042a2.025 2.025 0 000-4.05h-26.042z" fill="#F4F4F4"/><path d="M631.098 78.123a1.88 1.88 0 011.881-1.881h26.042a1.88 1.88 0 110 3.761h-26.042a1.88 1.88 0 01-1.881-1.88z" stroke="url(#paint13_linear)" stroke-width=".289"/></g><g filter="url(#filter10_i)"><path fill-rule="evenodd" clip-rule="evenodd" d="M675.958 79.08a3.472 3.472 0 10-6.674-1.915 3.472 3.472 0 006.674 1.915z" fill="url(#paint14_linear)"/></g><g filter="url(#filter11_i)"><path fill-rule="evenodd" clip-rule="evenodd" d="M674.845 78.76a2.314 2.314 0 10-4.449-1.276 2.314 2.314 0 004.449 1.277z" fill="url(#paint15_radial)"/></g><path opacity=".01" fill-rule="evenodd" clip-rule="evenodd" d="M582.921 73.204a2.894 2.894 0 012.894 2.893v1.736c0 7.032 5.7 12.732 12.731 12.732h95.486c7.032 0 12.732-5.7 12.732-12.732v-1.736a2.893 2.893 0 012.893-2.893h22.57c12.465 0 22.569 10.104 22.569 22.57v424.768c0 12.464-10.104 22.569-22.569 22.569H560.352c-12.465 0-22.57-10.105-22.57-22.569V95.773c0-12.465 10.105-22.57 22.57-22.57h22.569z" fill="#4A90E2"/><mask id="e" maskUnits="userSpaceOnUse" x="537" y="73" width="218" height="471"><path fill-rule="evenodd" clip-rule="evenodd" d="M582.921 73.204a2.894 2.894 0 012.894 2.893v1.736c0 7.032 5.7 12.732 12.731 12.732h95.486c7.032 0 12.732-5.7 12.732-12.732v-1.736a2.893 2.893 0 012.893-2.893h22.57c12.465 0 22.569 10.104 22.569 22.57v424.768c0 12.464-10.104 22.569-22.569 22.569H560.352c-12.465 0-22.57-10.105-22.57-22.569V95.773c0-12.465 10.105-22.57 22.57-22.57h22.569z" fill="#fff"/></mask><g mask="url(#e)"><path d="M537.782 73.204h217.014V543.11H537.782V73.204z" fill="#fff"/><path d="M537.782 73.204h217.014v469.283H538.434l-.652-469.283z" fill="#000"/><path d="M537.782 73.204h217.014V543.11H537.782V73.204z" fill="#4C59E0"/></g><g filter="url(#filter12_f)" fill-rule="evenodd" clip-rule="evenodd"><path d="M596.103 626.163L706 573.266l-238.802 9.981-180.268 45.822 287.934.138c6.022 1.823 15.531.459 21.239-3.044z" fill="url(#paint16_linear)"/><path d="M596.103 626.163L706 573.266l-238.802 9.981-180.268 45.822 287.934.138c6.022 1.823 15.531.459 21.239-3.044z" fill="url(#paint17_radial)"/></g><path opacity=".4" d="M661.579 207.035c-2.662.017-4.572.892-5.731 2.6-1.19 1.723-1.753 3.958-1.753 6.711v14.901c0 2.829-.314 5.325-.971 7.504-.658 2.255-1.754 4.135-3.257 5.652-1.472 1.527-3.477 2.674-6.013 3.49-2.474.813-5.575 1.213-9.27 1.238l-1.754-.007V237.38l2.223-.013c2.662-.017 4.416-.692 5.293-1.989.94-1.327 1.409-3.367 1.409-6.119v-13.133c0-3.435.407-6.33 1.253-8.698.814-2.379 2.474-4.424 4.948-6.146-2.474-1.688-4.134-3.734-4.948-6.103-.814-2.369-1.221-5.259-1.221-8.693v-13.133c0-2.753-.47-4.805-1.41-6.105-.877-1.304-2.662-1.953-5.292-1.95l-2.224.012v-11.744l1.754.007c3.695-.024 6.796.358 9.27 1.137 2.537.774 4.541 1.901 6.013 3.429 1.535 1.5 2.631 3.357 3.257 5.613.658 2.165.971 4.669.971 7.498v14.901c0 2.752.595 4.998 1.754 6.699 1.19 1.687 3.1 2.555 5.731 2.527l-.032 11.658z" fill="url(#paint18_linear)"/><path opacity=".4" d="M594.497 195.49c2.662-.017 4.572-.893 5.731-2.6 1.19-1.723 1.754-3.959 1.754-6.712v-14.901c0-2.828.313-5.325.971-7.504.657-2.254 1.722-4.12 3.194-5.647 1.535-1.532 3.539-2.678 6.013-3.491 2.537-.816 5.668-1.232 9.364-1.231l1.754.007v11.744l-2.224.012c-2.662.018-4.447.682-5.386 2.009-.877 1.322-1.316 3.347-1.316 6.126v13.133c0 3.409-.407 6.329-1.252 8.697-.815 2.379-2.475 4.424-4.949 6.146 2.474 1.688 4.134 3.734 4.949 6.103.814 2.369 1.221 5.259 1.221 8.694v13.133c0 2.752.438 4.794 1.315 6.123.94 1.3 2.725 1.974 5.387 1.931l2.223-.012v11.744l-1.753-.007c-3.696.024-6.828-.369-9.364-1.118-2.474-.778-4.479-1.905-6.013-3.429-1.472-1.504-2.537-3.376-3.163-5.606-.658-2.165-.971-4.67-.971-7.498v-14.901c0-2.753-.595-4.998-1.754-6.7-1.19-1.687-3.1-2.554-5.731-2.527V195.49z" fill="url(#paint19_linear)"/><path opacity=".15" d="M670.63 130.159l66.112-.372-.032 127.834-66.111.398.031-127.86z" fill="url(#paint20_linear)"/><path d="M658.197 152.763l52.614-.324v11.744l-52.614.324v-11.744z" fill="#F2C94C"/><path opacity=".2" d="M679.243 197.22l49.857-.288v35.535l-49.857.288V197.22z" fill="url(#paint21_linear)"/><path opacity=".15" d="M678.741 170.205l50.61-.289v4.016l-50.61.289v-4.016zm0 8.082l43.751-.264v4.016l-43.751.264v-4.016zm0 7.981l37.143-.231v4.016l-37.143.231v-4.016z" fill="#fff"/><path opacity=".2" d="M670.63 130.159l66.112-.372v17.123l-66.143.413.031-17.164z" fill="url(#paint22_linear)"/><path opacity=".2" d="M687.135 138.746c0 2.601-1.88 4.699-4.197 4.705-2.318.007-4.197-2.063-4.197-4.664 0-2.601 1.879-4.699 4.197-4.705 2.317-.007 4.197 2.088 4.197 4.664z" fill="#fff"/><path opacity=".15" d="M551.498 225.454L755 224.25l-.031 127.911-203.502 1.203.031-127.91z" fill="url(#paint23_linear)"/><path d="M538 263.335l52.582-.31v11.744l-52.582.335v-11.769z" fill="#F2994A"/><path opacity=".15" d="M565.215 282.785l116.752-.676v4.016l-116.752.676v-4.016zm0 8.082l100.717-.594v4.015l-100.717.595v-4.016zm0 8.006l85.716-.495v4.016l-85.716.495v-4.016z" fill="#fff"/><path opacity=".2" d="M644.01 312.651l102.659-.6v35.535l-102.659.6v-35.535z" fill="url(#paint24_linear)"/><path opacity=".15" d="M651.746 319.639l15.471-.094v11.744l-15.471.094v-11.744zm18.947.465l15.471-.094v11.744l-15.471.093v-11.743zm19.041-.261l15.471-.094v11.744l-15.471.094v-11.744zm19.041.294l15.471-.094v11.744l-15.471.094v-11.744z" fill="#fff"/><path opacity=".2" d="M546.111 311.867l85.466-.503v35.535l-85.466.478v-35.51z" fill="url(#paint25_linear)"/><path opacity=".15" d="M554.723 320.916l67.897-.405v4.015l-67.897.406v-4.016zm0 8.082l54.368-.318v4.016l-54.368.292v-3.99z" fill="#fff"/><path opacity=".2" d="M551.498 225.454l203.22-1.172v17.326l-203.22 1.197v-17.351z" fill="url(#paint26_linear)"/><path opacity=".2" d="M573.64 233.986c0 2.601-1.88 4.699-4.197 4.705-2.318.006-4.197-2.063-4.197-4.664 0-2.602 1.879-4.699 4.197-4.706 2.317-.006 4.197 2.089 4.197 4.665z" fill="#fff"/><g filter="url(#filter13_i)"><path fill-rule="evenodd" clip-rule="evenodd" d="M225.426 269.97l141.227-61.03c14.662-7.02 35.834-9.355 48.287 2.151l275.833 256.937c18.644 17.796 21.724 39.061-1.426 54.156l-146.346 88.354c-21.313 11.792-46.114 9.683-61.805-6.83L215.685 313.374c-14.976-17.709-12.896-32.502 9.741-43.404z" fill="#F6F6F6"/></g><mask id="f" maskUnits="userSpaceOnUse" x="206" y="203" width="500" height="416"><path fill-rule="evenodd" clip-rule="evenodd" d="M225.426 269.97l141.227-61.03c14.662-7.02 35.834-9.355 48.287 2.151l275.833 256.937c18.644 17.796 21.724 39.061-1.426 54.156l-146.346 88.354c-21.313 11.792-46.114 9.683-61.805-6.83L215.685 313.374c-14.976-17.709-12.896-32.502 9.741-43.404z" fill="#fff"/></mask><g mask="url(#f)"><g filter="url(#filter14_f)"><path fill-rule="evenodd" clip-rule="evenodd" d="M206.63 292.747c-1.885 7.474 1.296 15.866 9.055 25.041l265.511 290.335c15.691 16.512 40.492 18.622 61.805 6.83l146.346-88.354c13.17-8.588 17.851-19.172 16.007-29.978-1.373 7.648-6.459 14.923-16.007 21.149l-146.346 88.354c-21.313 11.792-46.114 9.682-61.805-6.83L215.685 308.959c-4.837-5.719-7.894-11.134-9.055-16.212z" fill="url(#paint27_linear)"/></g><g filter="url(#filter15_d)"><path fill-rule="evenodd" clip-rule="evenodd" d="M269.698 355.555l88.583 96.55C469.138 572.928 485.392 590.641 487.124 592.5c14.518 15.68 37.902 17.404 59.335 3.725.692-.442 25.456-15.549 65.979-40.255 14.44-8.805 29.912-18.237 45.384-27.668l14.956-9.117 4.191-2.554 1.482-.904c14.568-8.58 22.315-15.743 24.386-23.391 2.25-8.313-2.35-16.963-14.354-27.21L416.358 211.99c-6.974-6.236-15.604-9.042-25.314-8.89-7.907.123-16.239 2.222-23.959 5.641l-1.54.664-4.385 1.89-15.647 6.747-47.485 20.474-69.081 29.784c-12.391 5.521-17.473 10.28-17.081 16.954.36 6.144 5.249 12.542 18.315 27.229l2.154 2.348 8.177 8.913 29.186 31.811zm-38.521-45.469c-11.909-13.412-16.645-19.582-16.961-24.969-.314-5.361 4.114-9.509 15.687-14.665l69.058-29.775 47.484-20.473 15.648-6.747 4.384-1.89 1.551-.669c7.46-3.304 15.489-5.326 23.053-5.444 9.15-.143 17.204 2.475 23.689 8.274L686.935 466.9c11.402 9.728 15.586 17.591 13.629 24.821-1.86 6.869-9.237 13.69-23.323 21.987l-1.498.912-4.19 2.555-14.956 9.116-45.414 27.686c-40.765 24.854-65.275 39.807-65.99 40.263-20.516 13.094-42.636 11.463-56.537-3.509.055.038-47.997-52.331-90.111-98.227l-38.546-42.009-88.566-96.532-29.186-31.811-8.177-8.913-2.893-3.153z" fill="url(#paint28_linear)" fill-opacity=".01"/></g><g filter="url(#filter16_dii)"><path fill-rule="evenodd" clip-rule="evenodd" d="M229.426 269.669c.081-.033 138.136-59.558 138.136-59.558 13.191-5.842 33.479-11.121 47.993 1.857l272.144 254.036c23.698 20.219 16.926 31.764-9.86 47.54 0 0-130.396 78.596-132.013 79.628-21.488 13.715-42.619 12.494-56.367-2.355-.124-.086-257.384-279.936-257.384-279.936-20.384-22.847-25.665-30.957-2.649-41.212z" fill="url(#paint29_linear)"/></g><path d="M628.614 558.413v.001l.007-.005c1.315-.904 2.388-1.939 2.959-2.966.286-.514.449-1.033.448-1.536a2.172 2.172 0 00-.534-1.419l-.007-.007c-.659-.689-1.534-.777-2.313-.643a5.117 5.117 0 00-1.846.739l-.001.001-4.511 2.919-3.079 1.992-1.013.656-.284.183-.075.049-.019.012-.005.003-.001.001h-.001l.08.124-.08-.124a111.82 111.82 0 01-8.204 4.814 68.386 68.386 0 01-.673.351l-.036.019-.01.005-.004.002-.003.001-.003.002a.123.123 0 00-.012.008l-.005.004c-.939.738-1.687 1.574-2.199 2.638-.511 1.063-.782 2.344-.782 3.966 0 .391.086.68.284.846.2.169.469.174.738.112.273-.063.582-.203.902-.375.322-.173.664-.385 1.003-.598l.001-.001 19.278-11.774z" fill="#F4F4F4"/><path d="M628.614 558.413v.001l.007-.005c1.315-.904 2.388-1.939 2.959-2.966.286-.514.449-1.033.448-1.536a2.172 2.172 0 00-.534-1.419l-.007-.007c-.659-.689-1.534-.777-2.313-.643a5.117 5.117 0 00-1.846.739l-.001.001-4.511 2.919-3.079 1.992-1.013.656-.284.183-.075.049-.019.012-.005.003-.001.001h-.001l.08.124-.08-.124a111.82 111.82 0 01-8.204 4.814 68.386 68.386 0 01-.673.351l-.036.019-.01.005-.004.002-.003.001-.003.002a.123.123 0 00-.012.008l-.005.004c-.939.738-1.687 1.574-2.199 2.638-.511 1.063-.782 2.344-.782 3.966 0 .391.086.68.284.846.2.169.469.174.738.112.273-.063.582-.203.902-.375.322-.173.664-.385 1.003-.598l.001-.001 19.278-11.774z" fill="url(#paint30_linear)"/><path d="M628.614 558.413v.001l.007-.005c1.315-.904 2.388-1.939 2.959-2.966.286-.514.449-1.033.448-1.536a2.172 2.172 0 00-.534-1.419h0l-.007-.007c-.659-.689-1.534-.777-2.313-.643a5.117 5.117 0 00-1.846.739l-.001.001-4.511 2.919-3.079 1.992-1.013.656-.284.183-.075.049-.019.012-.005.003-.001.001h-.001l.08.124-.08-.124a111.82 111.82 0 01-8.204 4.814 68.386 68.386 0 01-.673.351l-.036.019-.01.005-.004.002-.003.001-.003.002a.123.123 0 00-.012.008h0l-.005.004c-.939.738-1.687 1.574-2.199 2.638-.511 1.063-.782 2.344-.782 3.966 0 .391.086.68.284.846.2.169.469.174.738.112.273-.063.582-.203.902-.375.322-.173.664-.385 1.003-.598l.001-.001 19.278-11.774z" stroke="url(#paint31_linear)" stroke-width=".294"/><path d="M628.614 558.413v.001l.007-.005c1.315-.904 2.388-1.939 2.959-2.966.286-.514.449-1.033.448-1.536a2.172 2.172 0 00-.534-1.419h0l-.007-.007c-.659-.689-1.534-.777-2.313-.643a5.117 5.117 0 00-1.846.739l-.001.001-4.511 2.919-3.079 1.992-1.013.656-.284.183-.075.049-.019.012-.005.003-.001.001h-.001l.08.124-.08-.124a111.82 111.82 0 01-8.204 4.814 68.386 68.386 0 01-.673.351l-.036.019-.01.005-.004.002-.003.001-.003.002a.123.123 0 00-.012.008h0l-.005.004c-.939.738-1.687 1.574-2.199 2.638-.511 1.063-.782 2.344-.782 3.966 0 .391.086.68.284.846.2.169.469.174.738.112.273-.063.582-.203.902-.375.322-.173.664-.385 1.003-.598l.001-.001 19.278-11.774z" stroke="url(#paint32_linear)" stroke-width=".294"/><mask id="g" maskUnits="userSpaceOnUse" x="606" y="551" width="27" height="21"><path d="M628.614 558.413v.001l.007-.005c1.315-.904 2.388-1.939 2.959-2.966.286-.514.449-1.033.448-1.536a2.172 2.172 0 00-.534-1.419l-.007-.007c-.659-.689-1.534-.777-2.313-.643a5.117 5.117 0 00-1.846.739l-.001.001-4.511 2.919-3.079 1.992-1.013.656-.284.183-.075.049-.019.012-.005.003-.001.001h-.001l.08.124-.08-.124a111.82 111.82 0 01-8.204 4.814 68.386 68.386 0 01-.673.351l-.036.019-.01.005-.004.002-.003.001-.003.002a.123.123 0 00-.012.008l-.005.004c-.939.738-1.687 1.574-2.199 2.638-.511 1.063-.782 2.344-.782 3.966 0 .391.086.68.284.846.2.169.469.174.738.112.273-.063.582-.203.902-.375.322-.173.664-.385 1.003-.598l.001-.001 19.278-11.774z" fill="#fff"/><path d="M628.614 558.413v.001l.007-.005c1.315-.904 2.388-1.939 2.959-2.966.286-.514.449-1.033.448-1.536a2.172 2.172 0 00-.534-1.419h0l-.007-.007c-.659-.689-1.534-.777-2.313-.643a5.117 5.117 0 00-1.846.739l-.001.001-4.511 2.919-3.079 1.992-1.013.656-.284.183-.075.049-.019.012-.005.003-.001.001h-.001l.08.124-.08-.124a111.82 111.82 0 01-8.204 4.814 68.386 68.386 0 01-.673.351l-.036.019-.01.005-.004.002-.003.001-.003.002a.123.123 0 00-.012.008h0l-.005.004c-.939.738-1.687 1.574-2.199 2.638-.511 1.063-.782 2.344-.782 3.966 0 .391.086.68.284.846.2.169.469.174.738.112.273-.063.582-.203.902-.375.322-.173.664-.385 1.003-.598l.001-.001 19.278-11.774z" stroke="#fff" stroke-width=".294"/></mask><g filter="url(#filter17_d)" mask="url(#g)"><path fill-rule="evenodd" clip-rule="evenodd" d="M606.55 567.855c-.515 2.124 2.021.566 2.855 0l19.132-11.922c1.328-.833 1.898-2.523 1.328-3.33-.569-.807-1.605-.524-2.309-.05l-9.137 5.964c-4.811 3.113-8.93 5.191-8.939 5.197-.62.448-2.391 1.917-2.93 4.141z" fill="#C7C7C7"/></g><g filter="url(#filter18_di)"><path fill-rule="evenodd" clip-rule="evenodd" d="M596.179 576.895c.96.723 2.704.027 3.896-1.555 1.193-1.582 1.381-3.451.422-4.174-.96-.723-2.704-.027-3.897 1.555-1.192 1.582-1.38 3.451-.421 4.174z" fill="url(#paint33_linear)"/></g><mask id="h" maskUnits="userSpaceOnUse" x="595" y="570" width="7" height="8"><path fill-rule="evenodd" clip-rule="evenodd" d="M596.179 576.895c.96.723 2.704.027 3.896-1.555 1.193-1.582 1.381-3.451.422-4.174-.96-.723-2.704-.027-3.897 1.555-1.192 1.582-1.38 3.451-.421 4.174z" fill="#fff"/></mask><g mask="url(#h)"><path fill-rule="evenodd" clip-rule="evenodd" d="M596.082 576.539c.876.661 2.459.038 3.535-1.39 1.077-1.429 1.239-3.122.363-3.782-.877-.66-2.459-.038-3.536 1.391-1.076 1.428-1.238 3.121-.362 3.781z" fill="url(#paint34_linear)"/><g filter="url(#filter19_ii)"><path fill-rule="evenodd" clip-rule="evenodd" d="M597.325 574.26l-.154-.16a.441.441 0 01.206-.734l.412-.107.341-.556a.295.295 0 01.529.058l.131.379.034.001a.441.441 0 01.293.76l-.174.166.005.645a.294.294 0 01-.415.271l-.495-.224-.413.247a.294.294 0 01-.431-.343l.131-.403z" fill="#BEBFC4"/></g></g><g filter="url(#filter20_di)"><path fill-rule="evenodd" clip-rule="evenodd" d="M636.791 552.469c.96.723 2.704.027 3.897-1.555 1.192-1.583 1.38-3.451.421-4.174-.96-.724-2.704-.027-3.896 1.555-1.193 1.582-1.381 3.451-.422 4.174z" fill="url(#paint35_linear)"/></g><mask id="i" maskUnits="userSpaceOnUse" x="636" y="546" width="6" height="7"><path fill-rule="evenodd" clip-rule="evenodd" d="M636.791 552.469c.96.723 2.704.027 3.897-1.555 1.192-1.583 1.38-3.451.421-4.174-.96-.724-2.704-.027-3.896 1.555-1.193 1.582-1.381 3.451-.422 4.174z" fill="#fff"/></mask><g mask="url(#i)"><path fill-rule="evenodd" clip-rule="evenodd" d="M636.694 552.113c.876.66 2.459.038 3.535-1.391 1.077-1.428 1.239-3.121.363-3.781-.876-.661-2.459-.038-3.536 1.39-1.076 1.429-1.238 3.122-.362 3.782z" fill="url(#paint36_linear)"/><g filter="url(#filter21_ii)"><path fill-rule="evenodd" clip-rule="evenodd" d="M637.937 549.833l-.154-.159a.441.441 0 01.206-.734l.412-.107.341-.556a.294.294 0 01.529.058l.131.378.035.001c.392.012.575.49.292.761l-.174.165.006.646a.294.294 0 01-.416.27l-.495-.223-.413.247a.294.294 0 01-.431-.343l.131-.404z" fill="#BEBFC4"/></g></g><g filter="url(#filter22_di)"><path fill-rule="evenodd" clip-rule="evenodd" d="M660.745 537.842c.96.723 2.704.027 3.896-1.555 1.192-1.582 1.381-3.451.421-4.174-.96-.723-2.704-.027-3.896 1.555-1.193 1.582-1.381 3.451-.421 4.174z" fill="url(#paint37_linear)"/></g><mask id="j" maskUnits="userSpaceOnUse" x="660" y="531" width="6" height="8"><path fill-rule="evenodd" clip-rule="evenodd" d="M660.745 537.842c.96.723 2.704.027 3.896-1.555 1.192-1.582 1.381-3.451.421-4.174-.96-.723-2.704-.027-3.896 1.555-1.193 1.582-1.381 3.451-.421 4.174z" fill="#fff"/></mask><g mask="url(#j)"><path fill-rule="evenodd" clip-rule="evenodd" d="M659.988 537.842c.96.723 2.704.027 3.896-1.555 1.192-1.582 1.381-3.451.421-4.174-.96-.723-2.704-.027-3.896 1.555-1.193 1.582-1.381 3.451-.421 4.174z" fill="url(#paint38_linear)"/></g><g filter="url(#filter23_di)"><path fill-rule="evenodd" clip-rule="evenodd" d="M668.103 533.279c.96.724 2.704.027 3.897-1.555 1.192-1.582 1.38-3.45.42-4.174-.959-.723-2.704-.027-3.896 1.555-1.192 1.582-1.381 3.451-.421 4.174z" fill="url(#paint39_linear)"/></g><mask id="k" maskUnits="userSpaceOnUse" x="667" y="527" width="7" height="7"><path fill-rule="evenodd" clip-rule="evenodd" d="M668.103 533.279c.96.724 2.704.027 3.897-1.555 1.192-1.582 1.38-3.45.42-4.174-.959-.723-2.704-.027-3.896 1.555-1.192 1.582-1.381 3.451-.421 4.174z" fill="#fff"/></mask><g mask="url(#k)"><path fill-rule="evenodd" clip-rule="evenodd" d="M667.346 533.279c.96.724 2.705.027 3.897-1.555 1.192-1.582 1.38-3.45.42-4.174-.959-.723-2.704-.027-3.896 1.555-1.192 1.582-1.381 3.451-.421 4.174z" fill="url(#paint40_linear)"/></g><g filter="url(#filter24_di)"><path fill-rule="evenodd" clip-rule="evenodd" d="M675.314 529.158c.96.724 2.705.027 3.897-1.555 1.192-1.582 1.38-3.451.421-4.174-.96-.723-2.705-.027-3.897 1.555-1.192 1.582-1.38 3.451-.421 4.174z" fill="url(#paint41_linear)"/></g><mask id="l" maskUnits="userSpaceOnUse" x="674" y="523" width="7" height="7"><path fill-rule="evenodd" clip-rule="evenodd" d="M675.314 529.158c.96.724 2.705.027 3.897-1.555 1.192-1.582 1.38-3.451.421-4.174-.96-.723-2.705-.027-3.897 1.555-1.192 1.582-1.38 3.451-.421 4.174z" fill="#fff"/></mask><g mask="url(#l)"><path fill-rule="evenodd" clip-rule="evenodd" d="M674.558 529.158c.959.724 2.704.027 3.896-1.555 1.192-1.582 1.381-3.451.421-4.174-.96-.723-2.705-.027-3.897 1.555-1.192 1.582-1.38 3.451-.42 4.174z" fill="url(#paint42_linear)"/></g><g filter="url(#filter25_di)"><path fill-rule="evenodd" clip-rule="evenodd" d="M682.526 524.89c.96.723 2.704.027 3.896-1.555 1.192-1.582 1.381-3.451.421-4.174-.96-.724-2.704-.027-3.897 1.555-1.192 1.582-1.38 3.45-.42 4.174z" fill="url(#paint43_linear)"/></g><mask id="m" maskUnits="userSpaceOnUse" x="681" y="518" width="7" height="8"><path fill-rule="evenodd" clip-rule="evenodd" d="M682.526 524.89c.96.723 2.704.027 3.896-1.555 1.192-1.582 1.381-3.451.421-4.174-.96-.724-2.704-.027-3.897 1.555-1.192 1.582-1.38 3.45-.42 4.174z" fill="#fff"/></mask><g mask="url(#m)"><path fill-rule="evenodd" clip-rule="evenodd" d="M681.769 524.89c.96.723 2.704.027 3.896-1.555 1.192-1.582 1.381-3.451.421-4.174-.96-.724-2.704-.027-3.896 1.555-1.193 1.582-1.381 3.45-.421 4.174z" fill="url(#paint44_linear)"/></g><g filter="url(#filter26_di)"><path fill-rule="evenodd" clip-rule="evenodd" d="M689.443 520.474c.959.723 2.704.027 3.896-1.555 1.192-1.582 1.381-3.451.421-4.174-.96-.723-2.704-.027-3.897 1.555-1.192 1.582-1.38 3.451-.42 4.174z" fill="url(#paint45_linear)"/></g><mask id="n" maskUnits="userSpaceOnUse" x="688" y="514" width="7" height="7"><path fill-rule="evenodd" clip-rule="evenodd" d="M689.443 520.474c.959.723 2.704.027 3.896-1.555 1.192-1.582 1.381-3.451.421-4.174-.96-.723-2.704-.027-3.897 1.555-1.192 1.582-1.38 3.451-.42 4.174z" fill="#fff"/></mask><g mask="url(#n)"><path fill-rule="evenodd" clip-rule="evenodd" d="M688.686 520.474c.96.723 2.704.027 3.896-1.555 1.192-1.582 1.381-3.451.421-4.174-.96-.723-2.704-.027-3.896 1.555-1.193 1.582-1.381 3.451-.421 4.174z" fill="url(#paint46_linear)"/></g><g filter="url(#filter27_di)"><path fill-rule="evenodd" clip-rule="evenodd" d="M653.975 541.963c.96.723 2.704.027 3.896-1.555 1.192-1.582 1.381-3.451.421-4.174-.96-.723-2.704-.027-3.896 1.555-1.193 1.582-1.381 3.451-.421 4.174z" fill="url(#paint47_linear)"/></g><mask id="o" maskUnits="userSpaceOnUse" x="653" y="535" width="6" height="8"><path fill-rule="evenodd" clip-rule="evenodd" d="M653.975 541.963c.96.723 2.704.027 3.896-1.555 1.192-1.582 1.381-3.451.421-4.174-.96-.723-2.704-.027-3.896 1.555-1.193 1.582-1.381 3.451-.421 4.174z" fill="#fff"/></mask><g mask="url(#o)"><path fill-rule="evenodd" clip-rule="evenodd" d="M653.218 541.963c.96.723 2.704.027 3.896-1.555 1.193-1.582 1.381-3.451.421-4.174-.96-.723-2.704-.027-3.896 1.555-1.192 1.582-1.381 3.451-.421 4.174z" fill="url(#paint48_linear)"/></g><g filter="url(#filter28_di)"><path fill-rule="evenodd" clip-rule="evenodd" d="M562.013 597.728c.959.723 2.704.027 3.896-1.555 1.192-1.582 1.381-3.451.421-4.174-.96-.723-2.705-.027-3.897 1.555-1.192 1.582-1.38 3.451-.42 4.174z" fill="url(#paint49_linear)"/></g><mask id="p" maskUnits="userSpaceOnUse" x="561" y="591" width="6" height="8"><path fill-rule="evenodd" clip-rule="evenodd" d="M562.013 597.728c.959.723 2.704.027 3.896-1.555 1.192-1.582 1.381-3.451.421-4.174-.96-.723-2.705-.027-3.897 1.555-1.192 1.582-1.38 3.451-.42 4.174z" fill="#fff"/></mask><g mask="url(#p)"><path fill-rule="evenodd" clip-rule="evenodd" d="M561.256 597.728c.959.723 2.704.027 3.896-1.555 1.192-1.582 1.381-3.451.421-4.174-.96-.723-2.704-.027-3.897 1.555-1.192 1.582-1.38 3.451-.42 4.174z" fill="url(#paint50_linear)"/></g><g filter="url(#filter29_di)"><path fill-rule="evenodd" clip-rule="evenodd" d="M569.224 593.46c.96.723 2.704.027 3.896-1.555 1.192-1.582 1.381-3.451.421-4.175-.96-.723-2.704-.027-3.896 1.555-1.193 1.582-1.381 3.451-.421 4.175z" fill="url(#paint51_linear)"/></g><mask id="q" maskUnits="userSpaceOnUse" x="568" y="587" width="7" height="7"><path fill-rule="evenodd" clip-rule="evenodd" d="M569.224 593.46c.96.723 2.704.027 3.896-1.555 1.192-1.582 1.381-3.451.421-4.175-.96-.723-2.704-.027-3.896 1.555-1.193 1.582-1.381 3.451-.421 4.175z" fill="#fff"/></mask><g mask="url(#q)"><path fill-rule="evenodd" clip-rule="evenodd" d="M568.467 593.46c.96.723 2.704.027 3.896-1.555 1.193-1.582 1.381-3.451.421-4.175-.96-.723-2.704-.027-3.896 1.555-1.192 1.582-1.381 3.451-.421 4.175z" fill="url(#paint52_linear)"/></g><g filter="url(#filter30_di)"><path fill-rule="evenodd" clip-rule="evenodd" d="M576.141 589.044c.959.723 2.704.027 3.896-1.555 1.192-1.582 1.381-3.451.421-4.174-.96-.723-2.704-.027-3.897 1.555-1.192 1.582-1.38 3.451-.42 4.174z" fill="url(#paint53_linear)"/></g><mask id="r" maskUnits="userSpaceOnUse" x="575" y="583" width="7" height="7"><path fill-rule="evenodd" clip-rule="evenodd" d="M576.141 589.044c.959.723 2.704.027 3.896-1.555 1.192-1.582 1.381-3.451.421-4.174-.96-.723-2.704-.027-3.897 1.555-1.192 1.582-1.38 3.451-.42 4.174z" fill="#fff"/></mask><g mask="url(#r)"><path fill-rule="evenodd" clip-rule="evenodd" d="M575.384 589.044c.96.723 2.704.027 3.896-1.555 1.192-1.582 1.381-3.451.421-4.174-.96-.723-2.704-.027-3.896 1.555-1.193 1.582-1.381 3.451-.421 4.174z" fill="url(#paint54_linear)"/></g><path fill-rule="evenodd" clip-rule="evenodd" d="M299.883 405.535c1.747 1.74 3.326 2.286 4.173 1.74 2.114-1.364 1.475-5.138.09-6.633l-17.657-20.104c-.557-.64-1.745-1.537-3.088-1.325-2.872.454-2.254 4.636-1.084 5.944l17.566 20.378z" fill="url(#paint55_linear)"/><g filter="url(#filter31_i)"><path fill-rule="evenodd" clip-rule="evenodd" d="M299.477 405.12c1.988 2.088 2.95 2.583 4.238 1.889 1.661-1.001 1.765-4.031.008-6.251l-18.115-20.53c-.54-.606-1.29-.838-2.031-.509 0 0-.937.314-1.697.842-2.045 1.421-1.393 3.466-.659 4.336l18.256 20.223z" fill="url(#paint56_linear)"/></g><mask id="s" maskUnits="userSpaceOnUse" x="280" y="379" width="26" height="29"><path fill-rule="evenodd" clip-rule="evenodd" d="M299.477 405.12c1.988 2.088 2.95 2.583 4.238 1.889 1.661-1.001 1.765-4.031.008-6.251l-18.115-20.53c-.54-.606-1.29-.838-2.031-.509 0 0-.937.314-1.697.842-2.045 1.421-1.393 3.466-.659 4.336l18.256 20.223z" fill="#fff"/></mask><g filter="url(#filter32_i)" mask="url(#s)"><path fill-rule="evenodd" clip-rule="evenodd" d="M298.66 404.325c1.854 2 2.633 2.816 3.494 2.29 1.447-.885 2.516-2.919.026-5.782l-16.99-19.174c-.325-.364-.965-.781-1.441-.886 0 0-1.401-.566-2.608.483-1.206 1.048-.816 2.75.298 4.032l17.221 19.037z" fill="url(#paint57_linear)"/></g><path fill-rule="evenodd" clip-rule="evenodd" d="M271.925 375.224c1.748 1.74 3.327 2.286 4.173 1.74 2.114-1.364 1.476-5.138.09-6.634l-17.657-20.103c-.557-.641-1.745-1.537-3.087-1.325-2.872.454-2.255 4.636-1.084 5.943l17.565 20.379z" fill="url(#paint58_linear)"/><g filter="url(#filter33_i)"><path fill-rule="evenodd" clip-rule="evenodd" d="M271.52 374.808c1.987 2.088 2.949 2.583 4.238 1.889 1.66-1.001 1.765-4.031.008-6.251l-18.116-20.53c-.54-.606-1.289-.838-2.031-.509 0 0-.937.314-1.697.842-2.044 1.421-1.393 3.466-.659 4.336l18.257 20.223z" fill="url(#paint59_linear)"/></g><mask id="t" maskUnits="userSpaceOnUse" x="252" y="349" width="26" height="28"><path fill-rule="evenodd" clip-rule="evenodd" d="M271.52 374.808c1.987 2.088 2.949 2.583 4.238 1.889 1.66-1.001 1.765-4.031.008-6.251l-18.116-20.53c-.54-.606-1.289-.838-2.031-.509 0 0-.937.314-1.697.842-2.044 1.421-1.393 3.466-.659 4.336l18.257 20.223z" fill="#fff"/></mask><g filter="url(#filter34_i)" mask="url(#t)"><path fill-rule="evenodd" clip-rule="evenodd" d="M270.703 374.013c1.854 2 2.632 2.816 3.494 2.289 1.446-.884 2.515-2.918.025-5.781l-16.99-19.174c-.325-.364-.965-.781-1.441-.886 0 0-1.401-.566-2.607.483-1.206 1.048-.816 2.75.298 4.032l17.221 19.037z" fill="url(#paint60_linear)"/></g><g filter="url(#filter35_d)" fill-rule="evenodd" clip-rule="evenodd"><path d="M234.613 333.077l9.205 10.006c.543.604 1.176.476 1.412-.302l.653-2.149c.19-.623-.002-1.526-.43-2.018l-8.774-10.099c-.8-.921-1.876-.774-2.403.326l-.186.387c-.527 1.101-.294 2.941.523 3.849z" fill="#F3F3F6"/><path d="M234.613 333.077l9.205 10.006c.543.604 1.176.476 1.412-.302l.653-2.149c.19-.623-.002-1.526-.43-2.018l-8.774-10.099c-.8-.921-1.876-.774-2.403.326l-.186.387c-.527 1.101-.294 2.941.523 3.849z" fill="url(#paint61_linear)"/></g><mask id="u" maskUnits="userSpaceOnUse" x="233" y="327" width="13" height="17"><path fill-rule="evenodd" clip-rule="evenodd" d="M234.613 333.077l9.205 10.006c.543.604 1.176.476 1.412-.302l.653-2.149c.19-.623-.002-1.526-.43-2.018l-8.774-10.099c-.8-.921-1.876-.774-2.403.326l-.186.387c-.527 1.101-.294 2.941.523 3.849z" fill="#fff"/><path fill-rule="evenodd" clip-rule="evenodd" d="M234.613 333.077l9.205 10.006c.543.604 1.176.476 1.412-.302l.653-2.149c.19-.623-.002-1.526-.43-2.018l-8.774-10.099c-.8-.921-1.876-.774-2.403.326l-.186.387c-.527 1.101-.294 2.941.523 3.849z" stroke="#fff"/></mask><g filter="url(#filter36_ii)" mask="url(#u)"><path fill-rule="evenodd" clip-rule="evenodd" d="M234.43 328.546c.673-.585 1.519-.914 2.371.066l8.349 9.605c.607.698.768 1.977.336 2.761l.101-.092c-.426.648-1.471 1.117-2.53-.102l-8.674-9.977c-.607-.699-.625-1.677.047-2.261z" fill="url(#paint62_linear)"/></g><path fill-rule="evenodd" clip-rule="evenodd" d="M235.98 329.148l8.459 9.747c.641.738.612 1.497.401 1.989-.21.492-.551.627-.769.641-.299.02-.679-.185-1.114-.686l-8.783-10.119c-.545-.628-.553-1.348-.002-1.828s1.263-.371 1.808.256z" fill="url(#paint63_linear)"/><path opacity=".597" d="M294.414 249.711c-1.122.508-1.481 1.437-.719 2.034.704.552 2.126.591 3.211.1l28.46-12.566c1.123-.509 1.482-1.437.719-2.035-.704-.552-2.126-.591-3.211-.1l-28.46 12.567z" fill="url(#paint64_linear)"/><mask id="v" maskUnits="userSpaceOnUse" x="293" y="236" width="34" height="17"><path d="M294.414 249.711c-1.122.508-1.481 1.437-.719 2.034.704.552 2.126.591 3.211.1l28.46-12.566c1.123-.509 1.482-1.437.719-2.035-.704-.552-2.126-.591-3.211-.1l-28.46 12.567z" fill="#fff"/></mask><g filter="url(#filter37_dii)" mask="url(#v)"><path fill-rule="evenodd" clip-rule="evenodd" d="M323.096 237.717l-28.328 12.586c-1.031.459-1.336 1.24-.685 1.742.652.503 2.01.541 3.046.08l28.328-12.586c1.03-.458 1.336-1.239.685-1.741-.652-.503-2.011-.542-3.046-.081z" fill="#DEDEDE"/></g><g filter="url(#filter38_i)"><path fill-rule="evenodd" clip-rule="evenodd" d="M338.119 233.441c-.072-1.38-2.105-2.395-4.54-2.268-2.435.128-4.351 1.35-4.279 2.73.073 1.38 2.105 2.395 4.541 2.267 2.435-.127 4.351-1.349 4.278-2.729z" fill="url(#paint65_linear)"/></g><g filter="url(#filter39_i)"><path fill-rule="evenodd" clip-rule="evenodd" d="M336.446 234.013c-.053-1.022-1.282-1.789-2.743-1.713-1.461.077-2.602.968-2.549 1.991.054 1.022 1.282 1.789 2.743 1.713 1.462-.077 2.603-.968 2.549-1.991z" fill="url(#paint66_linear)"/></g><g filter="url(#filter40_d)"><path fill-rule="evenodd" clip-rule="evenodd" d="M257.774 266.638a3.531 3.531 0 00-4.003-.84l-26.909 11.725a9.451 9.451 0 00-2.64 1.726c-5.422 5.027-2.606 10.445 7.38 21.815l264.222 285.065c9.495 10.244 24.884 12.403 36.831 5.166l155.33-94.087a12.37 12.37 0 002.621-2.127c4.665-4.984 4.405-12.806-.579-17.47L412.536 217.933a32.372 32.372 0 00-35.05-6.041l-17.33 7.551a1.473 1.473 0 00-.652 2.142l3.953 6.183a6.475 6.475 0 01-1.968 8.943c-.297.189-84.431 36.349-84.431 36.349a14.717 14.717 0 01-16.609-3.53l-2.675-2.892z" fill="#4A4A4A"/><mask id="w" maskUnits="userSpaceOnUse" x="221" y="209" width="473" height="387"><path fill-rule="evenodd" clip-rule="evenodd" d="M257.774 266.638a3.531 3.531 0 00-4.003-.84l-26.909 11.725a9.451 9.451 0 00-2.64 1.726c-5.422 5.027-2.606 10.445 7.38 21.815l264.222 285.065c9.495 10.244 24.884 12.403 36.831 5.166l155.33-94.087a12.37 12.37 0 002.621-2.127c4.665-4.984 4.405-12.806-.579-17.47L412.536 217.933a32.372 32.372 0 00-35.05-6.041l-17.33 7.551a1.473 1.473 0 00-.652 2.142l3.953 6.183a6.475 6.475 0 01-1.968 8.943c-.297.189-84.431 36.349-84.431 36.349a14.717 14.717 0 01-16.609-3.53l-2.675-2.892z" fill="#fff"/></mask><g mask="url(#w)"><path fill-rule="evenodd" clip-rule="evenodd" d="M214.534 282.753l182.755-79.459 304.885 285.462-190.112 115.068-297.528-321.071z" fill="#4C59E0"/><path opacity=".07" d="M481.634 191.782c1.015-.437 2.596-.333 3.628.272l153.885 89.159c1.315.761 1.313 1.903.023 2.477l-123.41 52.427c-1.262.536-3.264.231-4.176-.685L403.117 226.988c-.758-.742-.519-1.592.524-2.065l77.993-33.141z" fill="url(#paint67_linear)"/><path opacity=".3" d="M461.533 278.353l-144.532 61.406 56.658 42.605 131.753-55.984 21.433 1.094-65.312-49.121z" fill="url(#paint68_linear)"/><path d="M330.377 367.964l-15.371-11.574 54.528-23.18 15.372 11.575-54.529 23.179z" fill="#F2994A"/><path opacity=".15" d="M438.168 304.519l-31.651 13.464 4.966 3.739 31.651-13.463-4.966-3.74zm9.931 7.479l-61.023 25.955 4.965 3.739 61.061-25.927-5.003-3.767zm9.968 7.505l-73.958 31.431 4.966 3.739 73.958-31.431-4.966-3.739z" fill="#fff"/><path d="M451.11 305.112c4.673 3.519 12.13 4.786 16.658 2.876 4.528-1.91 4.426-6.334-.247-9.854-4.674-3.519-12.13-4.786-16.658-2.875-4.528 1.91-4.427 6.334.247 9.853z" fill="#F2994A"/><path opacity=".3" d="M536.027 314.596l144.468-61.397 56.659 42.605-131.753 55.984-4.062 11.929-65.312-49.121z" fill="url(#paint69_linear)"/><path d="M666.723 292.309l-15.372-11.575 54.529-23.18 15.371 11.575-54.528 23.18z" fill="#F2C94C"/><path opacity=".15" d="M586.959 309.187l31.651-13.464 4.965 3.739-31.65 13.464-4.966-3.739zm9.968 7.505l57.145-24.299 4.966 3.739-57.145 24.299-4.966-3.739zm9.931 7.478l73.959-31.431 4.965 3.739-73.958 31.431-4.966-3.739z" fill="#fff"/><path d="M584.323 316.411c4.673 3.519 4.775 7.943.247 9.853-4.528 1.911-11.985.644-16.658-2.876-4.674-3.519-4.776-7.943-.248-9.853 4.556-1.947 12.021-.616 16.659 2.876z" fill="#F2C94C"/><path opacity=".2" d="M435.441 417.33l98.959-42.066-39.214-29.527-98.959 42.065 39.214 29.528z" fill="url(#paint70_linear)"/><path d="M487.21 363.471c-3.249-2.447-3.317-5.473-.243-6.819 3.11-1.319 8.263-.413 11.477 2.006 3.249 2.447 3.317 5.472.243 6.819-3.11 1.319-8.227.441-11.477-2.006z" fill="#F2994A"/><path opacity=".15" d="M494.758 375.102l-63.613 27.037-4.965-3.739 63.612-27.037 4.966 3.739zm-10.297-7.524l-28.943 12.299-4.966-3.739 28.943-12.299 4.966 3.739z" fill="#fff"/><path opacity=".2" d="M683.357 196.892l-98.931 42.029 39.214 29.528 98.959-42.065-39.242-29.492z" fill="url(#paint71_linear)"/><path opacity=".15" d="M619.294 235.545l24.296-10.307 4.966 3.739-24.296 10.307-4.966-3.739zm9.932 7.25l52.224-22.169 4.965 3.739-52.223 22.169-4.966-3.739z" fill="#fff"/><path d="M617.129 239.865c3.25 2.447 3.317 5.472.244 6.819-3.111 1.319-8.264.413-11.477-2.007-3.25-2.447-3.318-5.472-.244-6.819 3.074-1.346 8.227-.44 11.477 2.007z" fill="#F2C94C"/><path opacity=".2" d="M585.113 420.371c-50.275.814-48.225-25.615-24.537-18.475-5.457-14.864 39.969-8.631 24.537 18.475z" fill="url(#paint72_linear)"/><path opacity=".2" d="M541.294 171.665c2.891-1.255 7.277-.698 9.797 1.199l11.136 8.385 9.788-4.185c2.891-1.255 7.277-.698 9.833 1.227 2.519 1.897 2.222 4.419-.668 5.674l-9.788 4.185 11.136 8.385c2.519 1.897 2.222 4.42-.668 5.675-2.891 1.256-7.278.698-9.833-1.226l-11.137-8.386-9.824 4.158c-2.891 1.255-7.277.698-9.797-1.199-2.519-1.897-2.222-4.419.669-5.675l9.788-4.184-11.137-8.386c-2.519-1.897-2.222-4.419.705-5.647z" fill="url(#paint73_linear)"/></g></g></g><path d="M99.247 688.193s6.601-92.42 58.312-83.251c51.403 9.11 45.476 55.745 71.882 49.877 26.406-5.868 28.555-68.794 38.875-143.764 8.956-65.053 44.611-45.132 51.256-24.154 5.589 17.589 7.79 72.931 29.061 76.598 21.271 3.668 28.606-38.141 30.073-58.679 1.467-20.537 8.802-104.155 35.574-105.255 25.306-1.042 36.308 36.307 36.308 107.456 0 71.148 2.934 117.358 14.67 136.429 11.736 19.071 27.139 13.936 31.907 11.369 5.933-3.198 23.838-33.374 28.239-108.19s33.74-63.813 40.342-52.811c6.601 11.002 24.572 71.515 46.576 70.048 22.005-1.467 28.24-15.77 31.907-49.51 3.667-33.741 9.103-117.285 37.041-116.258 28.944 1.063 40.577 133.216 40.085 172.942-.623 50.119 36.932 109.451 60.403 109.451" fill="url(#paint74_linear)"/><path d="M99.247 688.193s6.601-92.42 58.312-83.251c51.403 9.11 45.476 55.745 71.882 49.877 26.406-5.868 28.555-68.794 38.875-143.764 8.956-65.053 44.611-45.132 51.256-24.154 5.589 17.589 7.79 72.931 29.061 76.598 21.271 3.668 28.606-38.141 30.073-58.679 1.467-20.537 8.802-104.155 35.574-105.255 25.306-1.042 36.308 36.307 36.308 107.456 0 71.148 2.934 117.358 14.67 136.429 11.736 19.07 27.139 13.936 31.907 11.369 5.933-3.198 23.838-33.374 28.239-108.19s33.74-63.813 40.342-52.811c6.601 11.002 24.572 71.515 46.576 70.048 22.005-1.467 28.24-15.77 31.907-49.51 3.667-33.741 9.103-117.285 37.041-116.258 28.944 1.063 40.577 133.216 40.085 172.942-.623 50.119 36.932 109.451 60.403 109.451" stroke="#BAC6F2" stroke-width="5" stroke-miterlimit="10"/><path d="M227.607 663.987c5.267 0 9.536-4.269 9.536-9.535s-4.269-9.535-9.536-9.535a9.535 9.535 0 000 19.07zM98.535 696.818c5.267 0 9.536-4.269 9.536-9.535s-4.269-9.535-9.536-9.535a9.535 9.535 0 100 19.07zm255.966-125.25c5.266 0 9.535-4.269 9.535-9.536a9.535 9.535 0 00-19.07 0c0 5.267 4.269 9.536 9.535 9.536zm-58.635-94.547a9.535 9.535 0 009.535-9.535c0-5.267-4.269-9.536-9.535-9.536s-9.535 4.269-9.535 9.536a9.535 9.535 0 009.535 9.535zm121.854-66.916c5.267 0 9.536-4.269 9.536-9.535a9.535 9.535 0 00-9.536-9.536c-5.266 0-9.535 4.269-9.535 9.536a9.535 9.535 0 009.535 9.535zm135.556 87.38c5.267 0 9.536-4.269 9.536-9.535s-4.269-9.535-9.536-9.535a9.535 9.535 0 000 19.07zm65.134 75.711a9.536 9.536 0 100-19.07 9.536 9.536 0 000 19.07zm61.166-164.125c5.266 0 9.535-4.269 9.535-9.536a9.535 9.535 0 00-9.535-9.535 9.536 9.536 0 000 19.071zm101.889 281.747a9.535 9.535 0 000-19.07c-5.267 0-9.536 4.269-9.536 9.535s4.269 9.535 9.536 9.535zm-294.936-26.097c5.266 0 9.535-4.27 9.535-9.536a9.535 9.535 0 00-19.07 0c0 5.266 4.269 9.536 9.535 9.536z" fill="#BAC6F2"/><defs><linearGradient id="paint0_linear" x1="801.774" y1="304.538" x2="797.472" y2="559.76" gradientUnits="userSpaceOnUse"><stop stop-opacity=".01"/><stop offset="1" stop-opacity=".433"/></linearGradient><linearGradient id="paint1_linear" x1="522.736" y1="557.579" x2="769.843" y2="557.579" gradientUnits="userSpaceOnUse"><stop stop-color="#CFD3D8"/><stop offset=".126" stop-color="#ECEDF0"/><stop offset=".933" stop-color="#F0F1F2"/><stop offset="1" stop-color="#FBFEFF"/></linearGradient><linearGradient id="paint2_linear" x1="621.818" y1="458.663" x2="621.818" y2="557.579" gradientUnits="userSpaceOnUse"><stop stop-color="#fff" stop-opacity=".5"/><stop offset="1" stop-color="#D0D5DA"/></linearGradient><linearGradient id="paint3_linear" x1="526.208" y1="554.106" x2="765.792" y2="554.106" gradientUnits="userSpaceOnUse"><stop stop-color="#D9D9D9"/><stop offset=".204" stop-color="#EDF1F4" stop-opacity=".01"/><stop offset=".903" stop-color="#EEF1F4" stop-opacity=".01"/><stop offset="1" stop-color="#fff"/></linearGradient><linearGradient id="paint4_linear" x1="526.208" y1="554.106" x2="765.792" y2="554.106" gradientUnits="userSpaceOnUse"><stop stop-color="#fff" stop-opacity=".5"/><stop offset=".066" stop-opacity=".05"/><stop offset=".949" stop-opacity=".05"/><stop offset="1" stop-opacity=".1"/></linearGradient><linearGradient id="paint5_linear" x1="528.523" y1="551.792" x2="763.477" y2="551.792" gradientUnits="userSpaceOnUse"><stop stop-color="#ECEDF0"/><stop offset="1" stop-color="#F8F8F8"/></linearGradient><linearGradient id="paint6_linear" x1="629.034" y1="481.337" x2="629.034" y2="551.792" gradientUnits="userSpaceOnUse"><stop stop-color="#E3E6EB" stop-opacity=".01"/><stop offset="1" stop-color="#E3E6EB"/></linearGradient><linearGradient id="paint7_linear" x1="768.988" y1="186.176" x2="768.988" y2="241.719" gradientUnits="userSpaceOnUse"><stop stop-color="#B1B8C2"/><stop offset=".052" stop-color="#ECEEF1"/><stop offset=".921" stop-color="#EDEEF1"/><stop offset="1" stop-color="#B1B8C2"/></linearGradient><linearGradient id="paint8_linear" x1="521.611" y1="219.298" x2="521.611" y2="254.02" gradientUnits="userSpaceOnUse"><stop stop-color="#B1B8C2"/><stop offset=".052" stop-color="#ECEEF1"/><stop offset=".921" stop-color="#EDEEF1"/><stop offset="1" stop-color="#B1B8C2"/></linearGradient><linearGradient id="paint9_linear" x1="521.611" y1="171.194" x2="521.611" y2="205.963" gradientUnits="userSpaceOnUse"><stop stop-color="#B1B8C2"/><stop offset=".052" stop-color="#ECEEF1"/><stop offset=".921" stop-color="#EDEEF1"/><stop offset="1" stop-color="#B1B8C2"/></linearGradient><linearGradient id="paint10_linear" x1="521.036" y1="133.128" x2="521.036" y2="151.264" gradientUnits="userSpaceOnUse"><stop stop-color="#B1B8C2"/><stop offset=".052" stop-color="#ECEEF1"/><stop offset=".921" stop-color="#EDEEF1"/><stop offset="1" stop-color="#B1B8C2"/></linearGradient><linearGradient id="paint11_linear" x1="521" y1="151.533" x2="523.315" y2="151.533" gradientUnits="userSpaceOnUse"><stop stop-color="#D0D5DA" stop-opacity=".01"/><stop offset=".684" stop-color="#D0D4D9" stop-opacity=".01"/><stop offset="1" stop-color="#D0D4D9"/></linearGradient><linearGradient id="paint12_linear" x1="520.807" y1="133.415" x2="520.807" y2="150.677" gradientUnits="userSpaceOnUse"><stop stop-color="#111"/><stop offset=".154" stop-color="#FEFEFE"/><stop offset=".831" stop-color="#FEFEFE"/><stop offset="1" stop-color="#1D1D1D"/></linearGradient><linearGradient id="paint13_linear" x1="661.046" y1="80.148" x2="661.046" y2="76.097" gradientUnits="userSpaceOnUse"><stop stop-color="#fff" stop-opacity=".2"/><stop offset="1" stop-opacity=".3"/></linearGradient><linearGradient id="paint14_linear" x1="677.627" y1="77.822" x2="672.416" y2="73.71" gradientUnits="userSpaceOnUse"><stop stop-color="#F5F9FC"/><stop offset="1" stop-color="#EAEAEA"/></linearGradient><linearGradient id="paint16_linear" x1="-216.573" y1="630.016" x2="-216.573" y2="436.898" gradientUnits="userSpaceOnUse"><stop stop-opacity=".05"/><stop offset="1" stop-opacity=".2"/><stop offset="1" stop-opacity=".01"/></linearGradient><linearGradient id="paint18_linear" x1="679.606" y1="127.99" x2="680.191" y2="223.556" gradientUnits="userSpaceOnUse"><stop stop-color="#fff"/><stop offset=".903" stop-color="#fff" stop-opacity="0"/></linearGradient><linearGradient id="paint19_linear" x1="649.994" y1="137.086" x2="650.568" y2="232.651" gradientUnits="userSpaceOnUse"><stop stop-color="#fff"/><stop offset=".903" stop-color="#fff" stop-opacity="0"/></linearGradient><linearGradient id="paint20_linear" x1="737.985" y1="129.782" x2="738.672" y2="247.527" gradientUnits="userSpaceOnUse"><stop stop-color="#fff"/><stop offset="1" stop-color="#fff" stop-opacity="0"/></linearGradient><linearGradient id="paint21_linear" x1="713.718" y1="197.001" x2="713.909" y2="229.726" gradientUnits="userSpaceOnUse"><stop stop-color="#fff"/><stop offset="1" stop-color="#fff" stop-opacity="0"/></linearGradient><linearGradient id="paint22_linear" x1="693.297" y1="119.741" x2="718.2" y2="152.675" gradientUnits="userSpaceOnUse"><stop stop-color="#fff"/><stop offset="1" stop-color="#fff" stop-opacity="0"/></linearGradient><linearGradient id="paint23_linear" x1="687.568" y1="224.647" x2="687.939" y2="287.022" gradientUnits="userSpaceOnUse"><stop stop-color="#fff"/><stop offset="1" stop-color="#fff" stop-opacity="0"/></linearGradient><linearGradient id="paint24_linear" x1="704.89" y1="312.29" x2="705.081" y2="345.015" gradientUnits="userSpaceOnUse"><stop stop-color="#fff"/><stop offset="1" stop-color="#fff" stop-opacity="0"/></linearGradient><linearGradient id="paint25_linear" x1="598.38" y1="311.55" x2="598.57" y2="344.275" gradientUnits="userSpaceOnUse"><stop stop-color="#fff"/><stop offset="1" stop-color="#fff" stop-opacity="0"/></linearGradient><linearGradient id="paint26_linear" x1="601.921" y1="187.729" x2="672.892" y2="262.641" gradientUnits="userSpaceOnUse"><stop stop-color="#fff"/><stop offset="1" stop-color="#fff" stop-opacity="0"/></linearGradient><linearGradient id="paint27_linear" x1="161.031" y1="298.136" x2="256.611" y2="662.629" gradientUnits="userSpaceOnUse"><stop stop-opacity=".3"/><stop offset=".95" stop-opacity=".3"/><stop offset="1" stop-opacity=".1"/></linearGradient><linearGradient id="paint28_linear" x1="143.223" y1="382.324" x2="426.584" y2="716.688" gradientUnits="userSpaceOnUse"><stop stop-color="#E3E3E5"/><stop offset="1" stop-color="#E5E5E7"/></linearGradient><linearGradient id="paint29_linear" x1="124.36" y1="378.551" x2="380.953" y2="724.036" gradientUnits="userSpaceOnUse"><stop stop-color="#F8F7F7"/><stop offset="1" stop-color="#fff"/></linearGradient><linearGradient id="paint30_linear" x1="616.694" y1="548.105" x2="610.551" y2="568.431" gradientUnits="userSpaceOnUse"><stop stop-opacity=".3"/><stop offset=".4" stop-opacity=".078"/><stop offset="1" stop-opacity=".01"/></linearGradient><linearGradient id="paint31_linear" x1="618.835" y1="541.264" x2="599.706" y2="567.621" gradientUnits="userSpaceOnUse"><stop/><stop offset=".043" stop-opacity=".307"/><stop offset=".177" stop-opacity=".05"/><stop offset=".83" stop-opacity=".05"/><stop offset="1" stop-opacity=".708"/></linearGradient><linearGradient id="paint32_linear" x1="624.242" y1="553.974" x2="626.134" y2="559.053" gradientUnits="userSpaceOnUse"><stop stop-color="#B4B4BC"/><stop offset="1" stop-color="#B4B4BC" stop-opacity=".01"/></linearGradient><linearGradient id="paint33_linear" x1="598.116" y1="570.393" x2="595.739" y2="577.716" gradientUnits="userSpaceOnUse"><stop stop-color="#C1C2C4"/><stop offset=".182" stop-color="#F5F5F6"/><stop offset=".738" stop-color="#fff"/><stop offset="1" stop-color="#C6C6C6"/></linearGradient><linearGradient id="paint34_linear" x1="598.393" y1="570.171" x2="594.495" y2="575.344" gradientUnits="userSpaceOnUse"><stop stop-color="#9C9C9C"/><stop offset="1" stop-color="#DDD"/></linearGradient><linearGradient id="paint35_linear" x1="638.728" y1="545.967" x2="636.351" y2="553.289" gradientUnits="userSpaceOnUse"><stop stop-color="#C1C2C4"/><stop offset=".182" stop-color="#F5F5F6"/><stop offset=".738" stop-color="#fff"/><stop offset="1" stop-color="#C6C6C6"/></linearGradient><linearGradient id="paint36_linear" x1="639.005" y1="545.745" x2="635.108" y2="550.918" gradientUnits="userSpaceOnUse"><stop stop-color="#9C9C9C"/><stop offset="1" stop-color="#DDD"/></linearGradient><linearGradient id="paint37_linear" x1="662.681" y1="531.34" x2="660.303" y2="538.662" gradientUnits="userSpaceOnUse"><stop stop-color="#C1C2C4"/><stop offset=".182" stop-color="#F5F5F6"/><stop offset=".738" stop-color="#fff"/><stop offset="1" stop-color="#C6C6C6"/></linearGradient><linearGradient id="paint38_linear" x1="662.567" y1="530.803" x2="658.25" y2="536.532" gradientUnits="userSpaceOnUse"><stop stop-color="#9C9C9C"/><stop offset="1" stop-color="#DDD"/></linearGradient><linearGradient id="paint39_linear" x1="670.04" y1="526.777" x2="667.662" y2="534.099" gradientUnits="userSpaceOnUse"><stop stop-color="#C1C2C4"/><stop offset=".182" stop-color="#F5F5F6"/><stop offset=".738" stop-color="#fff"/><stop offset="1" stop-color="#C6C6C6"/></linearGradient><linearGradient id="paint40_linear" x1="669.926" y1="526.241" x2="665.608" y2="531.97" gradientUnits="userSpaceOnUse"><stop stop-color="#9C9C9C"/><stop offset="1" stop-color="#DDD"/></linearGradient><linearGradient id="paint41_linear" x1="677.251" y1="522.656" x2="674.873" y2="529.978" gradientUnits="userSpaceOnUse"><stop stop-color="#C1C2C4"/><stop offset=".182" stop-color="#F5F5F6"/><stop offset=".738" stop-color="#fff"/><stop offset="1" stop-color="#C6C6C6"/></linearGradient><linearGradient id="paint42_linear" x1="677.137" y1="522.12" x2="672.82" y2="527.849" gradientUnits="userSpaceOnUse"><stop stop-color="#9C9C9C"/><stop offset="1" stop-color="#DDD"/></linearGradient><linearGradient id="paint43_linear" x1="684.462" y1="518.388" x2="682.084" y2="525.71" gradientUnits="userSpaceOnUse"><stop stop-color="#C1C2C4"/><stop offset=".182" stop-color="#F5F5F6"/><stop offset=".738" stop-color="#fff"/><stop offset="1" stop-color="#C6C6C6"/></linearGradient><linearGradient id="paint44_linear" x1="684.348" y1="517.851" x2="680.031" y2="523.58" gradientUnits="userSpaceOnUse"><stop stop-color="#9C9C9C"/><stop offset="1" stop-color="#DDD"/></linearGradient><linearGradient id="paint45_linear" x1="691.379" y1="513.972" x2="689.001" y2="521.294" gradientUnits="userSpaceOnUse"><stop stop-color="#C1C2C4"/><stop offset=".182" stop-color="#F5F5F6"/><stop offset=".738" stop-color="#fff"/><stop offset="1" stop-color="#C6C6C6"/></linearGradient><linearGradient id="paint46_linear" x1="691.265" y1="513.436" x2="686.948" y2="519.165" gradientUnits="userSpaceOnUse"><stop stop-color="#9C9C9C"/><stop offset="1" stop-color="#DDD"/></linearGradient><linearGradient id="paint47_linear" x1="655.911" y1="535.461" x2="653.534" y2="542.783" gradientUnits="userSpaceOnUse"><stop stop-color="#C1C2C4"/><stop offset=".182" stop-color="#F5F5F6"/><stop offset=".738" stop-color="#fff"/><stop offset="1" stop-color="#C6C6C6"/></linearGradient><linearGradient id="paint48_linear" x1="655.797" y1="534.924" x2="651.48" y2="540.653" gradientUnits="userSpaceOnUse"><stop stop-color="#9C9C9C"/><stop offset="1" stop-color="#DDD"/></linearGradient><linearGradient id="paint49_linear" x1="563.949" y1="591.226" x2="561.571" y2="598.548" gradientUnits="userSpaceOnUse"><stop stop-color="#C1C2C4"/><stop offset=".182" stop-color="#F5F5F6"/><stop offset=".738" stop-color="#fff"/><stop offset="1" stop-color="#C6C6C6"/></linearGradient><linearGradient id="paint50_linear" x1="563.835" y1="590.689" x2="559.518" y2="596.419" gradientUnits="userSpaceOnUse"><stop stop-color="#9C9C9C"/><stop offset="1" stop-color="#DDD"/></linearGradient><linearGradient id="paint51_linear" x1="571.16" y1="586.957" x2="568.783" y2="594.279" gradientUnits="userSpaceOnUse"><stop stop-color="#C1C2C4"/><stop offset=".182" stop-color="#F5F5F6"/><stop offset=".738" stop-color="#fff"/><stop offset="1" stop-color="#C6C6C6"/></linearGradient><linearGradient id="paint52_linear" x1="571.046" y1="586.421" x2="566.729" y2="592.15" gradientUnits="userSpaceOnUse"><stop stop-color="#9C9C9C"/><stop offset="1" stop-color="#DDD"/></linearGradient><linearGradient id="paint53_linear" x1="578.077" y1="582.542" x2="575.699" y2="589.864" gradientUnits="userSpaceOnUse"><stop stop-color="#C1C2C4"/><stop offset=".182" stop-color="#F5F5F6"/><stop offset=".738" stop-color="#fff"/><stop offset="1" stop-color="#C6C6C6"/></linearGradient><linearGradient id="paint54_linear" x1="577.963" y1="582.005" x2="573.646" y2="587.734" gradientUnits="userSpaceOnUse"><stop stop-color="#9C9C9C"/><stop offset="1" stop-color="#DDD"/></linearGradient><linearGradient id="paint55_linear" x1="267.454" y1="390.493" x2="286.809" y2="418.693" gradientUnits="userSpaceOnUse"><stop stop-opacity=".5"/><stop offset=".03" stop-opacity=".5"/><stop offset=".085" stop-opacity=".3"/><stop offset=".885" stop-opacity=".3"/><stop offset="1" stop-opacity=".5"/></linearGradient><linearGradient id="paint56_linear" x1="269.35" y1="386.66" x2="287.779" y2="415.63" gradientUnits="userSpaceOnUse"><stop stop-color="#B6B7BC"/><stop offset=".115" stop-color="#fff"/><stop offset=".899" stop-color="#fff"/><stop offset="1" stop-color="#AAA9AD"/></linearGradient><linearGradient id="paint57_linear" x1="293.935" y1="398.254" x2="297.427" y2="394.393" gradientUnits="userSpaceOnUse"><stop stop-color="#BBB"/><stop offset="1" stop-color="#EEE"/></linearGradient><linearGradient id="paint58_linear" x1="239.497" y1="360.181" x2="258.851" y2="388.381" gradientUnits="userSpaceOnUse"><stop stop-opacity=".5"/><stop offset=".03" stop-opacity=".5"/><stop offset=".085" stop-opacity=".3"/><stop offset=".885" stop-opacity=".3"/><stop offset="1" stop-opacity=".5"/></linearGradient><linearGradient id="paint59_linear" x1="241.393" y1="356.348" x2="259.822" y2="385.318" gradientUnits="userSpaceOnUse"><stop stop-color="#B6B7BC"/><stop offset=".115" stop-color="#fff"/><stop offset=".899" stop-color="#fff"/><stop offset="1" stop-color="#AAA9AD"/></linearGradient><linearGradient id="paint60_linear" x1="265.978" y1="367.942" x2="269.469" y2="364.081" gradientUnits="userSpaceOnUse"><stop stop-color="#BBB"/><stop offset="1" stop-color="#EEE"/></linearGradient><linearGradient id="paint61_linear" x1="239.29" y1="330.842" x2="235.409" y2="334.281" gradientUnits="userSpaceOnUse"><stop stop-opacity=".8"/><stop offset=".126" stop-opacity=".26"/><stop offset=".58" stop-opacity=".5"/><stop offset="1" stop-opacity=".01"/></linearGradient><linearGradient id="paint62_linear" x1="238.113" y1="328.416" x2="236.074" y2="340.1" gradientUnits="userSpaceOnUse"><stop stop-color="#B6B7BC"/><stop offset=".115" stop-color="#fff"/><stop offset=".899" stop-color="#fff"/><stop offset="1" stop-color="#AAA9AD"/></linearGradient><linearGradient id="paint63_linear" x1="240.286" y1="337.319" x2="242.026" y2="335.438" gradientUnits="userSpaceOnUse"><stop stop-color="#C6C6C6"/><stop offset="1" stop-color="#F1F1F1"/></linearGradient><linearGradient id="paint64_linear" x1="312.129" y1="230.017" x2="299.059" y2="253.803" gradientUnits="userSpaceOnUse"><stop stop-opacity=".4"/><stop offset=".096" stop-opacity=".2"/><stop offset="1" stop-opacity=".2"/></linearGradient><linearGradient id="paint65_linear" x1="330.738" y1="236.061" x2="337.009" y2="231.882" gradientUnits="userSpaceOnUse"><stop stop-opacity=".3"/><stop offset="1" stop-opacity=".1"/></linearGradient><linearGradient id="paint66_linear" x1="331.428" y1="235.099" x2="334.9" y2="237.321" gradientUnits="userSpaceOnUse"><stop stop-color="#F8F8F8"/><stop offset="1" stop-color="#DEDEDE"/></linearGradient><linearGradient id="paint67_linear" x1="536.374" y1="197.74" x2="503.095" y2="323.423" gradientUnits="userSpaceOnUse"><stop stop-color="#fff"/><stop offset="1" stop-color="#fff" stop-opacity="0"/></linearGradient><linearGradient id="paint68_linear" x1="421" y1="284.963" x2="422.674" y2="374.13" gradientUnits="userSpaceOnUse"><stop stop-color="#fff"/><stop offset="1" stop-color="#fff" stop-opacity="0"/></linearGradient><linearGradient id="paint69_linear" x1="572.983" y1="269.312" x2="697.492" y2="341.05" gradientUnits="userSpaceOnUse"><stop stop-color="#fff"/><stop offset="1" stop-color="#fff" stop-opacity="0"/></linearGradient><linearGradient id="paint70_linear" x1="473.633" y1="401.101" x2="457.001" y2="361.963" gradientUnits="userSpaceOnUse"><stop stop-color="#fff" stop-opacity="0"/><stop offset="1" stop-color="#fff"/></linearGradient><linearGradient id="paint71_linear" x1="645.198" y1="213.097" x2="661.825" y2="252.223" gradientUnits="userSpaceOnUse"><stop stop-color="#fff"/><stop offset="1" stop-color="#fff" stop-opacity="0"/></linearGradient><linearGradient id="paint72_linear" x1="565.691" y1="397.602" x2="567.741" y2="427.659" gradientUnits="userSpaceOnUse"><stop stop-color="#fff"/><stop offset="1" stop-color="#fff" stop-opacity="0"/></linearGradient><linearGradient id="paint73_linear" x1="561.282" y1="174.746" x2="561.972" y2="205.22" gradientUnits="userSpaceOnUse"><stop stop-color="#fff"/><stop offset="1" stop-color="#fff" stop-opacity="0"/></linearGradient><linearGradient id="paint74_linear" x1="485" y1="688" x2="440.099" y2="342.536" gradientUnits="userSpaceOnUse"><stop offset=".061" stop-color="#fff" stop-opacity="0"/><stop offset="1" stop-color="#BAC6F2"/></linearGradient><filter id="filter0_f" x="429.462" y="196.906" width="429.2" height="450.459" filterUnits="userSpaceOnUse" color-interpolation-filters="sRGB"><feFlood flood-opacity="0" result="BackgroundImageFix"/><feBlend in="SourceGraphic" in2="BackgroundImageFix" result="shape"/><feGaussianBlur stdDeviation="46.509" result="effect1_foregroundBlur"/></filter><filter id="filter1_i" x="522.736" y="58.157" width="247.106" height="499.421" filterUnits="userSpaceOnUse" color-interpolation-filters="sRGB"><feFlood flood-opacity="0" result="BackgroundImageFix"/><feBlend in="SourceGraphic" in2="BackgroundImageFix" result="shape"/><feColorMatrix in="SourceAlpha" values="0 0 0 0 0 0 0 0 0 0 0 0 0 0 0 0 0 0 127 0" result="hardAlpha"/><feOffset/><feGaussianBlur stdDeviation=".868"/><feComposite in2="hardAlpha" operator="arithmetic" k2="-1" k3="1"/><feColorMatrix values="0 0 0 0 0 0 0 0 0 0 0 0 0 0 0 0 0 0 0.1 0"/><feBlend in2="shape" result="effect1_innerShadow"/></filter><filter id="filter2_f" x="494.747" y="25.538" width="91.858" height="91.858" filterUnits="userSpaceOnUse" color-interpolation-filters="sRGB"><feFlood flood-opacity="0" result="BackgroundImageFix"/><feBlend in="SourceGraphic" in2="BackgroundImageFix" result="shape"/><feGaussianBlur stdDeviation="15.731" result="effect1_foregroundBlur"/></filter><filter id="filter3_ii" x="525.485" y="62.063" width="241.03" height="492.188" filterUnits="userSpaceOnUse" color-interpolation-filters="sRGB"><feFlood flood-opacity="0" result="BackgroundImageFix"/><feBlend in="SourceGraphic" in2="BackgroundImageFix" result="shape"/><feColorMatrix in="SourceAlpha" values="0 0 0 0 0 0 0 0 0 0 0 0 0 0 0 0 0 0 127 0" result="hardAlpha"/><feOffset dx=".579"/><feGaussianBlur stdDeviation=".579"/><feComposite in2="hardAlpha" operator="arithmetic" k2="-1" k3="1"/><feColorMatrix values="0 0 0 0 0 0 0 0 0 0 0 0 0 0 0 0 0 0 0.15666 0"/><feBlend in2="shape" result="effect1_innerShadow"/><feColorMatrix in="SourceAlpha" values="0 0 0 0 0 0 0 0 0 0 0 0 0 0 0 0 0 0 127 0" result="hardAlpha"/><feOffset dx="-.579"/><feGaussianBlur stdDeviation=".579"/><feComposite in2="hardAlpha" operator="arithmetic" k2="-1" k3="1"/><feColorMatrix values="0 0 0 0 0 0 0 0 0 0 0 0 0 0 0 0 0 0 0.05 0"/><feBlend in2="effect1_innerShadow" result="effect2_innerShadow"/></filter><filter id="filter4_ii" x="528.523" y="63.944" width="236.69" height="489.005" filterUnits="userSpaceOnUse" color-interpolation-filters="sRGB"><feFlood flood-opacity="0" result="BackgroundImageFix"/><feBlend in="SourceGraphic" in2="BackgroundImageFix" result="shape"/><feColorMatrix in="SourceAlpha" values="0 0 0 0 0 0 0 0 0 0 0 0 0 0 0 0 0 0 127 0" result="hardAlpha"/><feOffset dy="1.157"/><feGaussianBlur stdDeviation="1.736"/><feComposite in2="hardAlpha" operator="arithmetic" k2="-1" k3="1"/><feColorMatrix values="0 0 0 0 1 0 0 0 0 1 0 0 0 0 1 0 0 0 0.794307 0"/><feBlend in2="shape" result="effect1_innerShadow"/><feColorMatrix in="SourceAlpha" values="0 0 0 0 0 0 0 0 0 0 0 0 0 0 0 0 0 0 127 0" result="hardAlpha"/><feOffset dx="1.736"/><feGaussianBlur stdDeviation="1.736"/><feComposite in2="hardAlpha" operator="arithmetic" k2="-1" k3="1"/><feColorMatrix values="0 0 0 0 0 0 0 0 0 0 0 0 0 0 0 0 0 0 0.100579 0"/><feBlend in2="effect1_innerShadow" result="effect2_innerShadow"/></filter><filter id="filter5_di" x="768.841" y="185.202" width="2.449" height="57.342" filterUnits="userSpaceOnUse" color-interpolation-filters="sRGB"><feFlood flood-opacity="0" result="BackgroundImageFix"/><feColorMatrix in="SourceAlpha" values="0 0 0 0 0 0 0 0 0 0 0 0 0 0 0 0 0 0 127 0"/><feOffset dx="-.116"/><feColorMatrix values="0 0 0 0 0 0 0 0 0 0 0 0 0 0 0 0 0 0 0.3 0"/><feBlend in2="BackgroundImageFix" result="effect1_dropShadow"/><feBlend in="SourceGraphic" in2="effect1_dropShadow" result="shape"/><feColorMatrix in="SourceAlpha" values="0 0 0 0 0 0 0 0 0 0 0 0 0 0 0 0 0 0 127 0" result="hardAlpha"/><feOffset dx=".289"/><feGaussianBlur stdDeviation=".289"/><feComposite in2="hardAlpha" operator="arithmetic" k2="-1" k3="1"/><feColorMatrix values="0 0 0 0 0 0 0 0 0 0 0 0 0 0 0 0 0 0 0.100934 0"/><feBlend in2="shape" result="effect2_innerShadow"/></filter><filter id="filter6_di" x="521.289" y="218.688" width="2.449" height="35.847" filterUnits="userSpaceOnUse" color-interpolation-filters="sRGB"><feFlood flood-opacity="0" result="BackgroundImageFix"/><feColorMatrix in="SourceAlpha" values="0 0 0 0 0 0 0 0 0 0 0 0 0 0 0 0 0 0 127 0"/><feOffset dx=".116"/><feColorMatrix values="0 0 0 0 0 0 0 0 0 0 0 0 0 0 0 0 0 0 0.3 0"/><feBlend in2="BackgroundImageFix" result="effect1_dropShadow"/><feBlend in="SourceGraphic" in2="effect1_dropShadow" result="shape"/><feColorMatrix in="SourceAlpha" values="0 0 0 0 0 0 0 0 0 0 0 0 0 0 0 0 0 0 127 0" result="hardAlpha"/><feOffset dx="-.289"/><feGaussianBlur stdDeviation=".289"/><feComposite in2="hardAlpha" operator="arithmetic" k2="-1" k3="1"/><feColorMatrix values="0 0 0 0 0 0 0 0 0 0 0 0 0 0 0 0 0 0 0.0963724 0"/><feBlend in2="shape" result="effect2_innerShadow"/></filter><filter id="filter7_di" x="521.289" y="170.584" width="2.449" height="35.895" filterUnits="userSpaceOnUse" color-interpolation-filters="sRGB"><feFlood flood-opacity="0" result="BackgroundImageFix"/><feColorMatrix in="SourceAlpha" values="0 0 0 0 0 0 0 0 0 0 0 0 0 0 0 0 0 0 127 0"/><feOffset dx=".116"/><feColorMatrix values="0 0 0 0 0 0 0 0 0 0 0 0 0 0 0 0 0 0 0.3 0"/><feBlend in2="BackgroundImageFix" result="effect1_dropShadow"/><feBlend in="SourceGraphic" in2="effect1_dropShadow" result="shape"/><feColorMatrix in="SourceAlpha" values="0 0 0 0 0 0 0 0 0 0 0 0 0 0 0 0 0 0 127 0" result="hardAlpha"/><feOffset dx="-.289"/><feGaussianBlur stdDeviation=".289"/><feComposite in2="hardAlpha" operator="arithmetic" k2="-1" k3="1"/><feColorMatrix values="0 0 0 0 0 0 0 0 0 0 0 0 0 0 0 0 0 0 0.100716 0"/><feBlend in2="shape" result="effect2_innerShadow"/></filter><filter id="filter8_di" x="520.711" y="132.81" width="2.72" height="18.723" filterUnits="userSpaceOnUse" color-interpolation-filters="sRGB"><feFlood flood-opacity="0" result="BackgroundImageFix"/><feColorMatrix in="SourceAlpha" values="0 0 0 0 0 0 0 0 0 0 0 0 0 0 0 0 0 0 127 0"/><feOffset dx=".116"/><feColorMatrix values="0 0 0 0 0 0 0 0 0 0 0 0 0 0 0 0 0 0 0.3 0"/><feBlend in2="BackgroundImageFix" result="effect1_dropShadow"/><feBlend in="SourceGraphic" in2="effect1_dropShadow" result="shape"/><feColorMatrix in="SourceAlpha" values="0 0 0 0 0 0 0 0 0 0 0 0 0 0 0 0 0 0 127 0" result="hardAlpha"/><feOffset dx="-.289"/><feGaussianBlur stdDeviation=".289"/><feComposite in2="hardAlpha" operator="arithmetic" k2="-1" k3="1"/><feColorMatrix values="0 0 0 0 0 0 0 0 0 0 0 0 0 0 0 0 0 0 0.5 0"/><feBlend in2="shape" result="effect2_innerShadow"/></filter><filter id="filter9_ddi" x="630.664" y="75.808" width="30.671" height="4.63" filterUnits="userSpaceOnUse" color-interpolation-filters="sRGB"><feFlood flood-opacity="0" result="BackgroundImageFix"/><feColorMatrix in="SourceAlpha" values="0 0 0 0 0 0 0 0 0 0 0 0 0 0 0 0 0 0 127 0"/><feOffset dx="-.289" dy=".289"/><feColorMatrix values="0 0 0 0 1 0 0 0 0 1 0 0 0 0 1 0 0 0 0.5 0"/><feBlend in2="BackgroundImageFix" result="effect1_dropShadow"/><feColorMatrix in="SourceAlpha" values="0 0 0 0 0 0 0 0 0 0 0 0 0 0 0 0 0 0 127 0"/><feOffset dx=".289" dy="-.289"/><feColorMatrix values="0 0 0 0 0 0 0 0 0 0 0 0 0 0 0 0 0 0 0.152262 0"/><feBlend in2="effect1_dropShadow" result="effect2_dropShadow"/><feBlend in="SourceGraphic" in2="effect2_dropShadow" result="shape"/><feColorMatrix in="SourceAlpha" values="0 0 0 0 0 0 0 0 0 0 0 0 0 0 0 0 0 0 127 0" result="hardAlpha"/><feOffset dy=".289"/><feGaussianBlur stdDeviation=".289"/><feComposite in2="hardAlpha" operator="arithmetic" k2="-1" k3="1"/><feColorMatrix values="0 0 0 0 0 0 0 0 0 0 0 0 0 0 0 0 0 0 0.151524 0"/><feBlend in2="shape" result="effect3_innerShadow"/></filter><filter id="filter10_i" x="669.147" y="74.65" width="6.946" height="7.236" filterUnits="userSpaceOnUse" color-interpolation-filters="sRGB"><feFlood flood-opacity="0" result="BackgroundImageFix"/><feBlend in="SourceGraphic" in2="BackgroundImageFix" result="shape"/><feColorMatrix in="SourceAlpha" values="0 0 0 0 0 0 0 0 0 0 0 0 0 0 0 0 0 0 127 0" result="hardAlpha"/><feOffset dy=".289"/><feGaussianBlur stdDeviation=".289"/><feComposite in2="hardAlpha" operator="arithmetic" k2="-1" k3="1"/><feColorMatrix values="0 0 0 0 0 0 0 0 0 0 0 0 0 0 0 0 0 0 0.149858 0"/><feBlend in2="shape" result="effect1_innerShadow"/></filter><filter id="filter11_i" x="670.305" y="75.808" width="4.631" height="4.631" filterUnits="userSpaceOnUse" color-interpolation-filters="sRGB"><feFlood flood-opacity="0" result="BackgroundImageFix"/><feBlend in="SourceGraphic" in2="BackgroundImageFix" result="shape"/><feColorMatrix in="SourceAlpha" values="0 0 0 0 0 0 0 0 0 0 0 0 0 0 0 0 0 0 127 0" result="hardAlpha"/><feOffset/><feGaussianBlur stdDeviation=".579"/><feComposite in2="hardAlpha" operator="arithmetic" k2="-1" k3="1"/><feColorMatrix values="0 0 0 0 0 0 0 0 0 0 0 0 0 0 0 0 0 0 0.101508 0"/><feBlend in2="shape" result="effect1_innerShadow"/></filter><filter id="filter12_f" x="246.932" y="533.267" width="499.067" height="136.747" filterUnits="userSpaceOnUse" color-interpolation-filters="sRGB"><feFlood flood-opacity="0" result="BackgroundImageFix"/><feBlend in="SourceGraphic" in2="BackgroundImageFix" result="shape"/><feGaussianBlur stdDeviation="19.999" result="effect1_foregroundBlur"/></filter><filter id="filter13_i" x="206.101" y="201.596" width="501.11" height="416.406" filterUnits="userSpaceOnUse" color-interpolation-filters="sRGB"><feFlood flood-opacity="0" result="BackgroundImageFix"/><feBlend in="SourceGraphic" in2="BackgroundImageFix" result="shape"/><feColorMatrix in="SourceAlpha" values="0 0 0 0 0 0 0 0 0 0 0 0 0 0 0 0 0 0 127 0" result="hardAlpha"/><feOffset dx="1.471" dy="-1.471"/><feGaussianBlur stdDeviation="2.943"/><feComposite in2="hardAlpha" operator="arithmetic" k2="-1" k3="1"/><feColorMatrix values="0 0 0 0 0 0 0 0 0 0 0 0 0 0 0 0 0 0 0.0994591 0"/><feBlend in2="shape" result="effect1_innerShadow"/></filter><filter id="filter14_f" x="198.101" y="284.747" width="515.637" height="345.669" filterUnits="userSpaceOnUse" color-interpolation-filters="sRGB"><feFlood flood-opacity="0" result="BackgroundImageFix"/><feBlend in="SourceGraphic" in2="BackgroundImageFix" result="shape"/><feGaussianBlur stdDeviation="4" result="effect1_foregroundBlur"/></filter><filter id="filter15_d" x="211.551" y="203.094" width="491.838" height="402.962" filterUnits="userSpaceOnUse" color-interpolation-filters="sRGB"><feFlood flood-opacity="0" result="BackgroundImageFix"/><feColorMatrix in="SourceAlpha" values="0 0 0 0 0 0 0 0 0 0 0 0 0 0 0 0 0 0 127 0"/><feOffset dx="-.294" dy=".589"/><feColorMatrix values="0 0 0 0 1 0 0 0 0 1 0 0 0 0 1 0 0 0 1 0"/><feBlend in2="BackgroundImageFix" result="effect1_dropShadow"/><feBlend in="SourceGraphic" in2="effect1_dropShadow" result="shape"/></filter><filter id="filter16_dii" x="213.752" y="203.925" width="489.339" height="399.705" filterUnits="userSpaceOnUse" color-interpolation-filters="sRGB"><feFlood flood-opacity="0" result="BackgroundImageFix"/><feColorMatrix in="SourceAlpha" values="0 0 0 0 0 0 0 0 0 0 0 0 0 0 0 0 0 0 127 0"/><feOffset dx="-.589"/><feColorMatrix values="0 0 0 0 0 0 0 0 0 0 0 0 0 0 0 0 0 0 0.08 0"/><feBlend in2="BackgroundImageFix" result="effect1_dropShadow"/><feBlend in="SourceGraphic" in2="effect1_dropShadow" result="shape"/><feColorMatrix in="SourceAlpha" values="0 0 0 0 0 0 0 0 0 0 0 0 0 0 0 0 0 0 127 0" result="hardAlpha"/><feOffset dx="1.177" dy="1.177"/><feGaussianBlur stdDeviation=".441"/><feComposite in2="hardAlpha" operator="arithmetic" k2="-1" k3="1"/><feColorMatrix values="0 0 0 0 1 0 0 0 0 1 0 0 0 0 1 0 0 0 1 0"/><feBlend in2="shape" result="effect2_innerShadow"/><feColorMatrix in="SourceAlpha" values="0 0 0 0 0 0 0 0 0 0 0 0 0 0 0 0 0 0 127 0" result="hardAlpha"/><feOffset dy=".294"/><feComposite in2="hardAlpha" operator="arithmetic" k2="-1" k3="1"/><feColorMatrix values="0 0 0 0 0 0 0 0 0 0 0 0 0 0 0 0 0 0 0.05 0"/><feBlend in2="effect2_innerShadow" result="effect3_innerShadow"/></filter><filter id="filter17_d" x="606.481" y="552.094" width="23.604" height="16.991" filterUnits="userSpaceOnUse" color-interpolation-filters="sRGB"><feFlood flood-opacity="0" result="BackgroundImageFix"/><feColorMatrix in="SourceAlpha" values="0 0 0 0 0 0 0 0 0 0 0 0 0 0 0 0 0 0 127 0"/><feOffset dy=".147"/><feColorMatrix values="0 0 0 0 0 0 0 0 0 0 0 0 0 0 0 0 0 0 0.200889 0"/><feBlend in2="BackgroundImageFix" result="effect1_dropShadow"/><feBlend in="SourceGraphic" in2="effect1_dropShadow" result="shape"/></filter><filter id="filter18_di" x="595.272" y="570.733" width="5.837" height="6.595" filterUnits="userSpaceOnUse" color-interpolation-filters="sRGB"><feFlood flood-opacity="0" result="BackgroundImageFix"/><feColorMatrix in="SourceAlpha" values="0 0 0 0 0 0 0 0 0 0 0 0 0 0 0 0 0 0 127 0"/><feOffset dx="-.147"/><feGaussianBlur stdDeviation=".074"/><feColorMatrix values="0 0 0 0 1 0 0 0 0 1 0 0 0 0 1 0 0 0 0.5 0"/><feBlend in2="BackgroundImageFix" result="effect1_dropShadow"/><feBlend in="SourceGraphic" in2="effect1_dropShadow" result="shape"/><feColorMatrix in="SourceAlpha" values="0 0 0 0 0 0 0 0 0 0 0 0 0 0 0 0 0 0 127 0" result="hardAlpha"/><feOffset/><feGaussianBlur stdDeviation=".074"/><feComposite in2="hardAlpha" operator="arithmetic" k2="-1" k3="1"/><feColorMatrix values="0 0 0 0 0 0 0 0 0 0 0 0 0 0 0 0 0 0 0.2 0"/><feBlend in2="shape" result="effect2_innerShadow"/></filter><filter id="filter19_ii" x="597.046" y="572.563" width="2.502" height="2.781" filterUnits="userSpaceOnUse" color-interpolation-filters="sRGB"><feFlood flood-opacity="0" result="BackgroundImageFix"/><feBlend in="SourceGraphic" in2="BackgroundImageFix" result="shape"/><feColorMatrix in="SourceAlpha" values="0 0 0 0 0 0 0 0 0 0 0 0 0 0 0 0 0 0 127 0" result="hardAlpha"/><feOffset dx=".294" dy=".294"/><feGaussianBlur stdDeviation=".294"/><feComposite in2="hardAlpha" operator="arithmetic" k2="-1" k3="1"/><feColorMatrix values="0 0 0 0 0 0 0 0 0 0 0 0 0 0 0 0 0 0 0.5 0"/><feBlend in2="shape" result="effect1_innerShadow"/><feColorMatrix in="SourceAlpha" values="0 0 0 0 0 0 0 0 0 0 0 0 0 0 0 0 0 0 127 0" result="hardAlpha"/><feOffset dy="-.294"/><feComposite in2="hardAlpha" operator="arithmetic" k2="-1" k3="1"/><feColorMatrix values="0 0 0 0 1 0 0 0 0 1 0 0 0 0 1 0 0 0 0.504529 0"/><feBlend in2="effect1_innerShadow" result="effect2_innerShadow"/></filter><filter id="filter20_di" x="635.885" y="546.306" width="5.837" height="6.595" filterUnits="userSpaceOnUse" color-interpolation-filters="sRGB"><feFlood flood-opacity="0" result="BackgroundImageFix"/><feColorMatrix in="SourceAlpha" values="0 0 0 0 0 0 0 0 0 0 0 0 0 0 0 0 0 0 127 0"/><feOffset dx="-.147"/><feGaussianBlur stdDeviation=".074"/><feColorMatrix values="0 0 0 0 1 0 0 0 0 1 0 0 0 0 1 0 0 0 0.5 0"/><feBlend in2="BackgroundImageFix" result="effect1_dropShadow"/><feBlend in="SourceGraphic" in2="effect1_dropShadow" result="shape"/><feColorMatrix in="SourceAlpha" values="0 0 0 0 0 0 0 0 0 0 0 0 0 0 0 0 0 0 127 0" result="hardAlpha"/><feOffset/><feGaussianBlur stdDeviation=".074"/><feComposite in2="hardAlpha" operator="arithmetic" k2="-1" k3="1"/><feColorMatrix values="0 0 0 0 0 0 0 0 0 0 0 0 0 0 0 0 0 0 0.2 0"/><feBlend in2="shape" result="effect2_innerShadow"/></filter><filter id="filter21_ii" x="637.658" y="548.137" width="2.502" height="2.781" filterUnits="userSpaceOnUse" color-interpolation-filters="sRGB"><feFlood flood-opacity="0" result="BackgroundImageFix"/><feBlend in="SourceGraphic" in2="BackgroundImageFix" result="shape"/><feColorMatrix in="SourceAlpha" values="0 0 0 0 0 0 0 0 0 0 0 0 0 0 0 0 0 0 127 0" result="hardAlpha"/><feOffset dx=".294" dy=".294"/><feGaussianBlur stdDeviation=".294"/><feComposite in2="hardAlpha" operator="arithmetic" k2="-1" k3="1"/><feColorMatrix values="0 0 0 0 0 0 0 0 0 0 0 0 0 0 0 0 0 0 0.5 0"/><feBlend in2="shape" result="effect1_innerShadow"/><feColorMatrix in="SourceAlpha" values="0 0 0 0 0 0 0 0 0 0 0 0 0 0 0 0 0 0 127 0" result="hardAlpha"/><feOffset dy="-.294"/><feComposite in2="hardAlpha" operator="arithmetic" k2="-1" k3="1"/><feColorMatrix values="0 0 0 0 1 0 0 0 0 1 0 0 0 0 1 0 0 0 0.504529 0"/><feBlend in2="effect1_innerShadow" result="effect2_innerShadow"/></filter><filter id="filter22_di" x="659.838" y="531.68" width="5.837" height="6.595" filterUnits="userSpaceOnUse" color-interpolation-filters="sRGB"><feFlood flood-opacity="0" result="BackgroundImageFix"/><feColorMatrix in="SourceAlpha" values="0 0 0 0 0 0 0 0 0 0 0 0 0 0 0 0 0 0 127 0"/><feOffset dx="-.147"/><feGaussianBlur stdDeviation=".074"/><feColorMatrix values="0 0 0 0 1 0 0 0 0 1 0 0 0 0 1 0 0 0 0.5 0"/><feBlend in2="BackgroundImageFix" result="effect1_dropShadow"/><feBlend in="SourceGraphic" in2="effect1_dropShadow" result="shape"/><feColorMatrix in="SourceAlpha" values="0 0 0 0 0 0 0 0 0 0 0 0 0 0 0 0 0 0 127 0" result="hardAlpha"/><feOffset/><feGaussianBlur stdDeviation=".074"/><feComposite in2="hardAlpha" operator="arithmetic" k2="-1" k3="1"/><feColorMatrix values="0 0 0 0 0 0 0 0 0 0 0 0 0 0 0 0 0 0 0.2 0"/><feBlend in2="shape" result="effect2_innerShadow"/></filter><filter id="filter23_di" x="667.196" y="527.117" width="5.837" height="6.595" filterUnits="userSpaceOnUse" color-interpolation-filters="sRGB"><feFlood flood-opacity="0" result="BackgroundImageFix"/><feColorMatrix in="SourceAlpha" values="0 0 0 0 0 0 0 0 0 0 0 0 0 0 0 0 0 0 127 0"/><feOffset dx="-.147"/><feGaussianBlur stdDeviation=".074"/><feColorMatrix values="0 0 0 0 1 0 0 0 0 1 0 0 0 0 1 0 0 0 0.5 0"/><feBlend in2="BackgroundImageFix" result="effect1_dropShadow"/><feBlend in="SourceGraphic" in2="effect1_dropShadow" result="shape"/><feColorMatrix in="SourceAlpha" values="0 0 0 0 0 0 0 0 0 0 0 0 0 0 0 0 0 0 127 0" result="hardAlpha"/><feOffset/><feGaussianBlur stdDeviation=".074"/><feComposite in2="hardAlpha" operator="arithmetic" k2="-1" k3="1"/><feColorMatrix values="0 0 0 0 0 0 0 0 0 0 0 0 0 0 0 0 0 0 0.2 0"/><feBlend in2="shape" result="effect2_innerShadow"/></filter><filter id="filter24_di" x="674.407" y="522.996" width="5.837" height="6.595" filterUnits="userSpaceOnUse" color-interpolation-filters="sRGB"><feFlood flood-opacity="0" result="BackgroundImageFix"/><feColorMatrix in="SourceAlpha" values="0 0 0 0 0 0 0 0 0 0 0 0 0 0 0 0 0 0 127 0"/><feOffset dx="-.147"/><feGaussianBlur stdDeviation=".074"/><feColorMatrix values="0 0 0 0 1 0 0 0 0 1 0 0 0 0 1 0 0 0 0.5 0"/><feBlend in2="BackgroundImageFix" result="effect1_dropShadow"/><feBlend in="SourceGraphic" in2="effect1_dropShadow" result="shape"/><feColorMatrix in="SourceAlpha" values="0 0 0 0 0 0 0 0 0 0 0 0 0 0 0 0 0 0 127 0" result="hardAlpha"/><feOffset/><feGaussianBlur stdDeviation=".074"/><feComposite in2="hardAlpha" operator="arithmetic" k2="-1" k3="1"/><feColorMatrix values="0 0 0 0 0 0 0 0 0 0 0 0 0 0 0 0 0 0 0.2 0"/><feBlend in2="shape" result="effect2_innerShadow"/></filter><filter id="filter25_di" x="681.619" y="518.727" width="5.837" height="6.595" filterUnits="userSpaceOnUse" color-interpolation-filters="sRGB"><feFlood flood-opacity="0" result="BackgroundImageFix"/><feColorMatrix in="SourceAlpha" values="0 0 0 0 0 0 0 0 0 0 0 0 0 0 0 0 0 0 127 0"/><feOffset dx="-.147"/><feGaussianBlur stdDeviation=".074"/><feColorMatrix values="0 0 0 0 1 0 0 0 0 1 0 0 0 0 1 0 0 0 0.5 0"/><feBlend in2="BackgroundImageFix" result="effect1_dropShadow"/><feBlend in="SourceGraphic" in2="effect1_dropShadow" result="shape"/><feColorMatrix in="SourceAlpha" values="0 0 0 0 0 0 0 0 0 0 0 0 0 0 0 0 0 0 127 0" result="hardAlpha"/><feOffset/><feGaussianBlur stdDeviation=".074"/><feComposite in2="hardAlpha" operator="arithmetic" k2="-1" k3="1"/><feColorMatrix values="0 0 0 0 0 0 0 0 0 0 0 0 0 0 0 0 0 0 0.2 0"/><feBlend in2="shape" result="effect2_innerShadow"/></filter><filter id="filter26_di" x="688.536" y="514.312" width="5.837" height="6.595" filterUnits="userSpaceOnUse" color-interpolation-filters="sRGB"><feFlood flood-opacity="0" result="BackgroundImageFix"/><feColorMatrix in="SourceAlpha" values="0 0 0 0 0 0 0 0 0 0 0 0 0 0 0 0 0 0 127 0"/><feOffset dx="-.147"/><feGaussianBlur stdDeviation=".074"/><feColorMatrix values="0 0 0 0 1 0 0 0 0 1 0 0 0 0 1 0 0 0 0.5 0"/><feBlend in2="BackgroundImageFix" result="effect1_dropShadow"/><feBlend in="SourceGraphic" in2="effect1_dropShadow" result="shape"/><feColorMatrix in="SourceAlpha" values="0 0 0 0 0 0 0 0 0 0 0 0 0 0 0 0 0 0 127 0" result="hardAlpha"/><feOffset/><feGaussianBlur stdDeviation=".074"/><feComposite in2="hardAlpha" operator="arithmetic" k2="-1" k3="1"/><feColorMatrix values="0 0 0 0 0 0 0 0 0 0 0 0 0 0 0 0 0 0 0.2 0"/><feBlend in2="shape" result="effect2_innerShadow"/></filter><filter id="filter27_di" x="653.068" y="535.801" width="5.837" height="6.595" filterUnits="userSpaceOnUse" color-interpolation-filters="sRGB"><feFlood flood-opacity="0" result="BackgroundImageFix"/><feColorMatrix in="SourceAlpha" values="0 0 0 0 0 0 0 0 0 0 0 0 0 0 0 0 0 0 127 0"/><feOffset dx="-.147"/><feGaussianBlur stdDeviation=".074"/><feColorMatrix values="0 0 0 0 1 0 0 0 0 1 0 0 0 0 1 0 0 0 0.5 0"/><feBlend in2="BackgroundImageFix" result="effect1_dropShadow"/><feBlend in="SourceGraphic" in2="effect1_dropShadow" result="shape"/><feColorMatrix in="SourceAlpha" values="0 0 0 0 0 0 0 0 0 0 0 0 0 0 0 0 0 0 127 0" result="hardAlpha"/><feOffset/><feGaussianBlur stdDeviation=".074"/><feComposite in2="hardAlpha" operator="arithmetic" k2="-1" k3="1"/><feColorMatrix values="0 0 0 0 0 0 0 0 0 0 0 0 0 0 0 0 0 0 0.2 0"/><feBlend in2="shape" result="effect2_innerShadow"/></filter><filter id="filter28_di" x="561.105" y="591.566" width="5.837" height="6.595" filterUnits="userSpaceOnUse" color-interpolation-filters="sRGB"><feFlood flood-opacity="0" result="BackgroundImageFix"/><feColorMatrix in="SourceAlpha" values="0 0 0 0 0 0 0 0 0 0 0 0 0 0 0 0 0 0 127 0"/><feOffset dx="-.147"/><feGaussianBlur stdDeviation=".074"/><feColorMatrix values="0 0 0 0 1 0 0 0 0 1 0 0 0 0 1 0 0 0 0.5 0"/><feBlend in2="BackgroundImageFix" result="effect1_dropShadow"/><feBlend in="SourceGraphic" in2="effect1_dropShadow" result="shape"/><feColorMatrix in="SourceAlpha" values="0 0 0 0 0 0 0 0 0 0 0 0 0 0 0 0 0 0 127 0" result="hardAlpha"/><feOffset/><feGaussianBlur stdDeviation=".074"/><feComposite in2="hardAlpha" operator="arithmetic" k2="-1" k3="1"/><feColorMatrix values="0 0 0 0 0 0 0 0 0 0 0 0 0 0 0 0 0 0 0.2 0"/><feBlend in2="shape" result="effect2_innerShadow"/></filter><filter id="filter29_di" x="568.317" y="587.297" width="5.837" height="6.595" filterUnits="userSpaceOnUse" color-interpolation-filters="sRGB"><feFlood flood-opacity="0" result="BackgroundImageFix"/><feColorMatrix in="SourceAlpha" values="0 0 0 0 0 0 0 0 0 0 0 0 0 0 0 0 0 0 127 0"/><feOffset dx="-.147"/><feGaussianBlur stdDeviation=".074"/><feColorMatrix values="0 0 0 0 1 0 0 0 0 1 0 0 0 0 1 0 0 0 0.5 0"/><feBlend in2="BackgroundImageFix" result="effect1_dropShadow"/><feBlend in="SourceGraphic" in2="effect1_dropShadow" result="shape"/><feColorMatrix in="SourceAlpha" values="0 0 0 0 0 0 0 0 0 0 0 0 0 0 0 0 0 0 127 0" result="hardAlpha"/><feOffset/><feGaussianBlur stdDeviation=".074"/><feComposite in2="hardAlpha" operator="arithmetic" k2="-1" k3="1"/><feColorMatrix values="0 0 0 0 0 0 0 0 0 0 0 0 0 0 0 0 0 0 0.2 0"/><feBlend in2="shape" result="effect2_innerShadow"/></filter><filter id="filter30_di" x="575.234" y="582.882" width="5.837" height="6.595" filterUnits="userSpaceOnUse" color-interpolation-filters="sRGB"><feFlood flood-opacity="0" result="BackgroundImageFix"/><feColorMatrix in="SourceAlpha" values="0 0 0 0 0 0 0 0 0 0 0 0 0 0 0 0 0 0 127 0"/><feOffset dx="-.147"/><feGaussianBlur stdDeviation=".074"/><feColorMatrix values="0 0 0 0 1 0 0 0 0 1 0 0 0 0 1 0 0 0 0.5 0"/><feBlend in2="BackgroundImageFix" result="effect1_dropShadow"/><feBlend in="SourceGraphic" in2="effect1_dropShadow" result="shape"/><feColorMatrix in="SourceAlpha" values="0 0 0 0 0 0 0 0 0 0 0 0 0 0 0 0 0 0 127 0" result="hardAlpha"/><feOffset/><feGaussianBlur stdDeviation=".074"/><feComposite in2="hardAlpha" operator="arithmetic" k2="-1" k3="1"/><feColorMatrix values="0 0 0 0 0 0 0 0 0 0 0 0 0 0 0 0 0 0 0.2 0"/><feBlend in2="shape" result="effect2_innerShadow"/></filter><filter id="filter31_i" x="280.214" y="379.569" width="24.787" height="27.735" filterUnits="userSpaceOnUse" color-interpolation-filters="sRGB"><feFlood flood-opacity="0" result="BackgroundImageFix"/><feBlend in="SourceGraphic" in2="BackgroundImageFix" result="shape"/><feColorMatrix in="SourceAlpha" values="0 0 0 0 0 0 0 0 0 0 0 0 0 0 0 0 0 0 127 0" result="hardAlpha"/><feOffset dx="-.294"/><feGaussianBlur stdDeviation=".294"/><feComposite in2="hardAlpha" operator="arithmetic" k2="-1" k3="1"/><feColorMatrix values="0 0 0 0 0 0 0 0 0 0 0 0 0 0 0 0 0 0 0.19837 0"/><feBlend in2="shape" result="effect1_innerShadow"/></filter><filter id="filter32_i" x="280.402" y="380.62" width="23.269" height="26.15" filterUnits="userSpaceOnUse" color-interpolation-filters="sRGB"><feFlood flood-opacity="0" result="BackgroundImageFix"/><feBlend in="SourceGraphic" in2="BackgroundImageFix" result="shape"/><feColorMatrix in="SourceAlpha" values="0 0 0 0 0 0 0 0 0 0 0 0 0 0 0 0 0 0 127 0" result="hardAlpha"/><feOffset dx=".294" dy="-.147"/><feComposite in2="hardAlpha" operator="arithmetic" k2="-1" k3="1"/><feColorMatrix values="0 0 0 0 0 0 0 0 0 0 0 0 0 0 0 0 0 0 0.2 0"/><feBlend in2="shape" result="effect1_innerShadow"/></filter><filter id="filter33_i" x="252.257" y="349.257" width="24.787" height="27.735" filterUnits="userSpaceOnUse" color-interpolation-filters="sRGB"><feFlood flood-opacity="0" result="BackgroundImageFix"/><feBlend in="SourceGraphic" in2="BackgroundImageFix" result="shape"/><feColorMatrix in="SourceAlpha" values="0 0 0 0 0 0 0 0 0 0 0 0 0 0 0 0 0 0 127 0" result="hardAlpha"/><feOffset dx="-.294"/><feGaussianBlur stdDeviation=".294"/><feComposite in2="hardAlpha" operator="arithmetic" k2="-1" k3="1"/><feColorMatrix values="0 0 0 0 0 0 0 0 0 0 0 0 0 0 0 0 0 0 0.19837 0"/><feBlend in2="shape" result="effect1_innerShadow"/></filter><filter id="filter34_i" x="252.444" y="350.308" width="23.269" height="26.15" filterUnits="userSpaceOnUse" color-interpolation-filters="sRGB"><feFlood flood-opacity="0" result="BackgroundImageFix"/><feBlend in="SourceGraphic" in2="BackgroundImageFix" result="shape"/><feColorMatrix in="SourceAlpha" values="0 0 0 0 0 0 0 0 0 0 0 0 0 0 0 0 0 0 127 0" result="hardAlpha"/><feOffset dx=".294" dy="-.147"/><feComposite in2="hardAlpha" operator="arithmetic" k2="-1" k3="1"/><feColorMatrix values="0 0 0 0 0 0 0 0 0 0 0 0 0 0 0 0 0 0 0.2 0"/><feBlend in2="shape" result="effect1_innerShadow"/></filter><filter id="filter35_d" x="233.661" y="327.763" width="12.295" height="15.7" filterUnits="userSpaceOnUse" color-interpolation-filters="sRGB"><feFlood flood-opacity="0" result="BackgroundImageFix"/><feColorMatrix in="SourceAlpha" values="0 0 0 0 0 0 0 0 0 0 0 0 0 0 0 0 0 0 127 0"/><feOffset dx="-.147" dy="-.147"/><feColorMatrix values="0 0 0 0 0 0 0 0 0 0 0 0 0 0 0 0 0 0 0.2 0"/><feBlend in2="BackgroundImageFix" result="effect1_dropShadow"/><feBlend in="SourceGraphic" in2="effect1_dropShadow" result="shape"/></filter><filter id="filter36_ii" x="233.927" y="327.988" width="11.95" height="13.554" filterUnits="userSpaceOnUse" color-interpolation-filters="sRGB"><feFlood flood-opacity="0" result="BackgroundImageFix"/><feBlend in="SourceGraphic" in2="BackgroundImageFix" result="shape"/><feColorMatrix in="SourceAlpha" values="0 0 0 0 0 0 0 0 0 0 0 0 0 0 0 0 0 0 127 0" result="hardAlpha"/><feOffset dx=".147"/><feGaussianBlur stdDeviation=".294"/><feComposite in2="hardAlpha" operator="arithmetic" k2="-1" k3="1"/><feColorMatrix values="0 0 0 0 0 0 0 0 0 0 0 0 0 0 0 0 0 0 0.19837 0"/><feBlend in2="shape" result="effect1_innerShadow"/><feColorMatrix in="SourceAlpha" values="0 0 0 0 0 0 0 0 0 0 0 0 0 0 0 0 0 0 127 0" result="hardAlpha"/><feOffset dx=".147"/><feComposite in2="hardAlpha" operator="arithmetic" k2="-1" k3="1"/><feColorMatrix values="0 0 0 0 0 0 0 0 0 0 0 0 0 0 0 0 0 0 0.19837 0"/><feBlend in2="effect1_innerShadow" result="effect2_innerShadow"/></filter><filter id="filter37_dii" x="293.3" y="236.806" width="33.626" height="15.936" filterUnits="userSpaceOnUse" color-interpolation-filters="sRGB"><feFlood flood-opacity="0" result="BackgroundImageFix"/><feColorMatrix in="SourceAlpha" values="0 0 0 0 0 0 0 0 0 0 0 0 0 0 0 0 0 0 127 0"/><feOffset dy="-.147"/><feGaussianBlur stdDeviation=".221"/><feColorMatrix values="0 0 0 0 0 0 0 0 0 0 0 0 0 0 0 0 0 0 0.101138 0"/><feBlend in2="BackgroundImageFix" result="effect1_dropShadow"/><feBlend in="SourceGraphic" in2="effect1_dropShadow" result="shape"/><feColorMatrix in="SourceAlpha" values="0 0 0 0 0 0 0 0 0 0 0 0 0 0 0 0 0 0 127 0" result="hardAlpha"/><feOffset dy=".147"/><feComposite in2="hardAlpha" operator="arithmetic" k2="-1" k3="1"/><feColorMatrix values="0 0 0 0 0 0 0 0 0 0 0 0 0 0 0 0 0 0 0.08 0"/><feBlend in2="shape" result="effect2_innerShadow"/><feColorMatrix in="SourceAlpha" values="0 0 0 0 0 0 0 0 0 0 0 0 0 0 0 0 0 0 127 0" result="hardAlpha"/><feOffset/><feGaussianBlur stdDeviation=".221"/><feComposite in2="hardAlpha" operator="arithmetic" k2="-1" k3="1"/><feColorMatrix values="0 0 0 0 0 0 0 0 0 0 0 0 0 0 0 0 0 0 0.3 0"/><feBlend in2="effect2_innerShadow" result="effect3_innerShadow"/></filter><filter id="filter38_i" x="329.298" y="231.163" width="8.823" height="5.313" filterUnits="userSpaceOnUse" color-interpolation-filters="sRGB"><feFlood flood-opacity="0" result="BackgroundImageFix"/><feBlend in="SourceGraphic" in2="BackgroundImageFix" result="shape"/><feColorMatrix in="SourceAlpha" values="0 0 0 0 0 0 0 0 0 0 0 0 0 0 0 0 0 0 127 0" result="hardAlpha"/><feOffset dy=".294"/><feGaussianBlur stdDeviation=".441"/><feComposite in2="hardAlpha" operator="arithmetic" k2="-1" k3="1"/><feColorMatrix values="0 0 0 0 0 0 0 0 0 0 0 0 0 0 0 0 0 0 0.1 0"/><feBlend in2="shape" result="effect1_innerShadow"/></filter><filter id="filter39_i" x="331.152" y="232.295" width="5.296" height="3.714" filterUnits="userSpaceOnUse" color-interpolation-filters="sRGB"><feFlood flood-opacity="0" result="BackgroundImageFix"/><feBlend in="SourceGraphic" in2="BackgroundImageFix" result="shape"/><feColorMatrix in="SourceAlpha" values="0 0 0 0 0 0 0 0 0 0 0 0 0 0 0 0 0 0 127 0" result="hardAlpha"/><feOffset/><feGaussianBlur stdDeviation=".074"/><feComposite in2="hardAlpha" operator="arithmetic" k2="-1" k3="1"/><feColorMatrix values="0 0 0 0 0 0 0 0 0 0 0 0 0 0 0 0 0 0 0.1 0"/><feBlend in2="shape" result="effect1_innerShadow"/></filter><filter id="filter40_d" x="221.506" y="209.197" width="472.436" height="386.651" filterUnits="userSpaceOnUse" color-interpolation-filters="sRGB"><feFlood flood-opacity="0" result="BackgroundImageFix"/><feColorMatrix in="SourceAlpha" values="0 0 0 0 0 0 0 0 0 0 0 0 0 0 0 0 0 0 127 0"/><feOffset dy=".294"/><feColorMatrix values="0 0 0 0 1 0 0 0 0 1 0 0 0 0 1 0 0 0 0.5 0"/><feBlend in2="BackgroundImageFix" result="effect1_dropShadow"/><feBlend in="SourceGraphic" in2="effect1_dropShadow" result="shape"/></filter><radialGradient id="paint15_radial" cx="0" cy="0" r="1" gradientUnits="userSpaceOnUse" gradientTransform="rotate(16 62.78 2430.552) scale(3.12438)"><stop stop-color="#fff"/><stop offset="1" stop-color="#DBDBDC"/></radialGradient><radialGradient id="paint17_radial" cx="0" cy="0" r="1" gradientUnits="userSpaceOnUse" gradientTransform="matrix(0 -51.6133 1604.16 0 544.867 611.733)"><stop stop-opacity=".25"/><stop offset="1" stop-opacity=".01"/></radialGradient></defs></svg>