<svg width="98" height="98" fill="none" xmlns="http://www.w3.org/2000/svg"><path d="M78.078 29.014C78.078 13.016 65.062 0 49.063 0 33.066 0 20.05 13.016 20.05 29.014c0 10.234 5.327 19.247 13.354 24.413a19.276 19.276 0 00-2.457 6.187 19.627 19.627 0 00-.409 3.993v15.348C30.538 89.456 38.82 98 49 98c4.407 0 8.674-1.628 12.014-4.584 3.291-2.912 5.492-6.933 6.198-11.323a1.598 1.598 0 00-3.155-.507C62.825 89.246 56.493 94.805 49 94.805c-8.418 0-15.266-7.11-15.266-15.85V66.884a18.901 18.901 0 003.58 4.043c3.285 2.774 7.435 4.302 11.687 4.302 4.408 0 8.675-1.628 12.014-4.584a18.943 18.943 0 003.251-3.765v4.806a1.598 1.598 0 103.196 0v-8.08a19.64 19.64 0 00-.429-4.086 19.275 19.275 0 00-2.402-6.036c8.077-5.157 13.447-14.197 13.447-24.47zM58.897 68.253c-2.755 2.438-6.27 3.78-9.896 3.78-7.023 0-13.21-5.085-14.84-12.137 1.493-6.433 6.772-11.35 13.245-12.051v3.592a4.076 4.076 0 00-2.606 3.795v1.828a4.076 4.076 0 002.606 3.795v3.466a1.598 1.598 0 103.195 0v-3.466a4.076 4.076 0 002.606-3.795v-1.828a4.076 4.076 0 00-2.606-3.795v-3.592c6.472.704 11.75 5.624 13.24 12.058-.75 3.224-2.494 6.18-4.944 8.35zM47.995 57.06v-1.828c0-.484.394-.877.877-.877h.262c.484 0 .877.394.877.877v1.828a.878.878 0 01-.877.877h-.262a.878.878 0 01-.877-.877zM62.74 50.9a18.597 18.597 0 00-6.227-4.69 18.68 18.68 0 004.351-2.629A18.819 18.819 0 0067.36 33.12a1.598 1.598 0 00-3.119-.697c-1.566 7.01-7.907 12.103-15.095 12.142l-.142-.002H49l-.055.001c-8.52-.065-15.433-7.013-15.433-15.549 0-8.575 6.977-15.551 15.552-15.551a15.53 15.53 0 0114.33 9.498 1.598 1.598 0 002.943-1.245 18.721 18.721 0 00-17.273-11.45c-10.337 0-18.748 8.411-18.748 18.748 0 7.665 4.624 14.269 11.229 17.172a18.584 18.584 0 00-6.24 4.664c-7.24-4.578-12.06-12.654-12.06-21.835 0-14.237 11.582-25.819 25.818-25.819 14.237 0 25.819 11.582 25.819 25.819 0 9.216-4.856 17.317-12.143 21.886z" fill="url(#paint0_linear)"/><path d="M22.736 66.979h-4.914a1.598 1.598 0 100 3.196h4.914a1.598 1.598 0 100-3.196z" fill="url(#paint1_linear)"/><path d="M25.604 61.88l-3.475-3.475a1.598 1.598 0 10-2.26 2.259l3.475 3.475a1.59 1.59 0 001.13.468 1.598 1.598 0 001.13-2.727z" fill="url(#paint2_linear)"/><path d="M25.604 73.014a1.598 1.598 0 00-2.26 0L19.87 76.49a1.597 1.597 0 102.26 2.259l3.475-3.475a1.598 1.598 0 000-2.26z" fill="url(#paint3_linear)"/><path d="M80.178 66.979h-4.915a1.598 1.598 0 100 3.196h4.915a1.598 1.598 0 100-3.196z" fill="url(#paint4_linear)"/><path d="M78.131 76.49l-3.475-3.476a1.598 1.598 0 10-2.26 2.26l3.475 3.475c.312.312.721.468 1.13.468a1.598 1.598 0 001.13-2.727z" fill="url(#paint5_linear)"/><path d="M78.13 58.404a1.598 1.598 0 00-2.26 0l-3.474 3.476a1.597 1.597 0 102.26 2.26l3.475-3.476a1.598 1.598 0 000-2.26z" fill="url(#paint6_linear)"/><path d="M50.99 27.42v-6.242c1.467.488 2.498 1.626 2.498 2.95a1.598 1.598 0 103.196 0c0-3.048-2.44-5.602-5.694-6.243v-.478a1.598 1.598 0 10-3.196 0v.478c-3.255.64-5.695 3.195-5.695 6.242s2.44 5.602 5.695 6.243v6.243c-1.467-.488-2.499-1.626-2.499-2.95a1.598 1.598 0 10-3.196 0c0 3.047 2.44 5.602 5.695 6.243v.723a1.598 1.598 0 103.196 0v-.723c3.254-.642 5.694-3.196 5.694-6.243s-2.44-5.601-5.694-6.242zm-3.196-.346c-1.467-.488-2.499-1.624-2.499-2.947s1.031-2.461 2.499-2.95v5.897zm3.196 9.539v-5.897c1.466.488 2.498 1.624 2.498 2.947 0 1.324-1.031 2.462-2.498 2.95z" fill="url(#paint7_linear)"/><defs><linearGradient id="paint0_linear" x1="49.857" y1="158.21" x2="133.825" y2="108.335" gradientUnits="userSpaceOnUse"><stop stop-color="#102397"/><stop offset=".553" stop-color="#187ADF"/><stop offset="1" stop-color="#00EAF8"/></linearGradient><linearGradient id="paint1_linear" x1="20.39" y1="72.138" x2="22.513" y2="66.736" gradientUnits="userSpaceOnUse"><stop stop-color="#102397"/><stop offset=".553" stop-color="#187ADF"/><stop offset="1" stop-color="#00EAF8"/></linearGradient><linearGradient id="paint2_linear" x1="22.828" y1="68.706" x2="29.337" y2="62.176" gradientUnits="userSpaceOnUse"><stop stop-color="#102397"/><stop offset=".553" stop-color="#187ADF"/><stop offset="1" stop-color="#00EAF8"/></linearGradient><linearGradient id="paint3_linear" x1="22.828" y1="83.315" x2="29.337" y2="76.786" gradientUnits="userSpaceOnUse"><stop stop-color="#102397"/><stop offset=".553" stop-color="#187ADF"/><stop offset="1" stop-color="#00EAF8"/></linearGradient><linearGradient id="paint4_linear" x1="77.831" y1="72.138" x2="79.954" y2="66.736" gradientUnits="userSpaceOnUse"><stop stop-color="#102397"/><stop offset=".553" stop-color="#187ADF"/><stop offset="1" stop-color="#00EAF8"/></linearGradient><linearGradient id="paint5_linear" x1="75.355" y1="83.315" x2="81.864" y2="76.786" gradientUnits="userSpaceOnUse"><stop stop-color="#102397"/><stop offset=".553" stop-color="#187ADF"/><stop offset="1" stop-color="#00EAF8"/></linearGradient><linearGradient id="paint6_linear" x1="75.355" y1="68.706" x2="81.863" y2="62.176" gradientUnits="userSpaceOnUse"><stop stop-color="#102397"/><stop offset=".553" stop-color="#187ADF"/><stop offset="1" stop-color="#00EAF8"/></linearGradient><linearGradient id="paint7_linear" x1="49.591" y1="58.457" x2="71.44" y2="46.357" gradientUnits="userSpaceOnUse"><stop stop-color="#102397"/><stop offset=".553" stop-color="#187ADF"/><stop offset="1" stop-color="#00EAF8"/></linearGradient></defs></svg>