<svg width="96" height="98" viewBox="0 0 96 98" fill="none" xmlns="http://www.w3.org/2000/svg">
<path d="M87.5161 55.4646V39.5161C87.5161 38.6432 86.8084 37.9355 85.9355 37.9355H59.8309L49.5807 27.6852V18.9677H71.7097C72.5826 18.9677 73.2903 18.26 73.2903 17.3871V1.58065C73.2903 0.70774 72.5826 0 71.7097 0H24.2903C23.4174 0 22.7097 0.70774 22.7097 1.58065V17.3871C22.7097 18.26 23.4174 18.9677 24.2903 18.9677H46.4194V27.6852L36.1691 37.9355H10.0645C9.19162 37.9355 8.48388 38.6432 8.48388 39.5161V55.4646C3.92255 56.2318 0.582202 60.1811 0.582202 64.8064C0.582202 69.4318 3.92255 73.3811 8.48388 74.1483V79.0323H2.1613C1.2884 79.0323 0.580658 79.74 0.580658 80.6129V96.4194C0.580658 97.2923 1.2884 98 2.1613 98H17.9678C18.8407 98 19.5484 97.2923 19.5484 96.4194V80.6129C19.5484 79.74 18.8407 79.0323 17.9678 79.0323H11.6452V74.1483C16.2065 73.3811 19.5469 69.4318 19.5469 64.8064C19.5469 60.1811 16.2065 56.2318 11.6452 55.4646V41.0968H36.1691L46.4194 51.347V55.4646C41.5578 56.2866 38.1372 60.6959 38.5493 65.6091C38.9615 70.5224 43.0698 74.2996 48 74.2996C52.9303 74.2996 57.0385 70.5224 57.4507 65.6091C57.8628 60.6959 54.4422 56.2866 49.5807 55.4646V51.347L59.8309 41.0968H84.3548V55.4646C79.4933 56.2866 76.0727 60.6959 76.4848 65.6091C76.8969 70.5224 81.0052 74.2996 85.9355 74.2996C90.8657 74.2996 94.974 70.5224 95.3862 65.6091C95.7983 60.6959 92.3777 56.2866 87.5161 55.4646ZM25.871 3.16129H70.129V15.8065H25.871V3.16129ZM16.3871 94.8387H3.74195V82.1936H16.3871V94.8387ZM16.3871 64.8064C16.3871 68.2981 13.5561 71.129 10.0645 71.129C6.57291 71.129 3.74195 68.2981 3.74195 64.8064C3.74195 61.3148 6.57291 58.4839 10.0645 58.4839C13.5561 58.4839 16.3871 61.3148 16.3871 64.8064ZM54.3226 64.8064C54.3226 68.2981 51.4916 71.129 48 71.129C44.5084 71.129 41.6774 68.2981 41.6774 64.8064C41.6774 61.3148 44.5084 58.4839 48 58.4839C51.4916 58.4839 54.3226 61.3148 54.3226 64.8064ZM48 48.4582L39.0579 39.5161L48 30.5741L56.9421 39.5161L48 48.4582ZM85.9355 71.129C82.4439 71.129 79.6129 68.2981 79.6129 64.8064C79.6129 61.3148 82.4439 58.4839 85.9355 58.4839C89.4271 58.4839 92.2581 61.3148 92.2581 64.8064C92.2581 68.2981 89.4271 71.129 85.9355 71.129Z" fill="url(#paint0_linear)"/>
<defs>
<linearGradient id="paint0_linear" x1="49.2971" y1="158.21" x2="144.875" y2="65.4242" gradientUnits="userSpaceOnUse">
<stop stop-color="#102397"/>
<stop offset="0.552714" stop-color="#187ADF"/>
<stop offset="1" stop-color="#00EAF8"/>
</linearGradient>
</defs>
</svg>
