<svg width="98" height="98" viewBox="0 0 98 98" fill="none" xmlns="http://www.w3.org/2000/svg">
<path d="M90.0968 7.90332H7.90323C3.54024 7.90872 0.00540261 11.4436 0 15.8065V60.0646C0.00540261 64.4276 3.54024 67.9624 7.90323 67.9678H40.7803L38.1948 82.1936H30.0323C29.1594 82.1936 28.4516 82.9014 28.4516 83.7743V88.5162C28.4516 89.3891 29.1594 90.0969 30.0323 90.0969H67.9677C68.8407 90.0969 69.5484 89.3891 69.5484 88.5162V83.7743C69.5484 82.9014 68.8407 82.1936 67.9677 82.1936H59.8021L57.2197 67.9678H90.0968C94.4598 67.9624 97.9946 64.4276 98 60.0646V15.8065C97.9946 11.4436 94.4598 7.90872 90.0968 7.90332ZM7.90323 11.0646H90.0968C92.7155 11.0646 94.8387 13.1878 94.8387 15.8065V55.3227H3.16129V15.8065C3.16129 13.1878 5.28451 11.0646 7.90323 11.0646ZM66.3871 86.9356H31.6129V85.3549H66.3871V86.9356ZM56.5868 82.1936H41.4132L44.0003 67.9678H54.0059L56.5868 82.1936ZM90.0968 64.8065H7.90323C5.28451 64.8065 3.16129 62.6833 3.16129 60.0646V58.484H94.8387V60.0646C94.8387 62.6833 92.7155 64.8065 90.0968 64.8065Z" fill="url(#paint0_linear)"/>
<path d="M18.9678 60.0645H9.4839C8.611 60.0645 7.90326 60.7722 7.90326 61.6451C7.90326 62.518 8.611 63.2257 9.4839 63.2257H18.9678C19.8407 63.2257 20.5484 62.518 20.5484 61.6451C20.5484 60.7722 19.8407 60.0645 18.9678 60.0645Z" fill="url(#paint1_linear)"/>
<path d="M25.2905 60.0645H23.7099C22.837 60.0645 22.1292 60.7722 22.1292 61.6451C22.1292 62.518 22.837 63.2257 23.7099 63.2257H25.2905C26.1634 63.2257 26.8711 62.518 26.8711 61.6451C26.8711 60.7722 26.1634 60.0645 25.2905 60.0645Z" fill="url(#paint2_linear)"/>
<path d="M88.5162 30.0322H77.7172C76.8443 30.0322 76.1365 30.74 76.1365 31.6129C76.1365 32.4858 76.8443 33.1935 77.7172 33.1935H88.5162C89.3891 33.1935 90.0968 32.4858 90.0968 31.6129C90.0968 30.74 89.3891 30.0322 88.5162 30.0322Z" fill="url(#paint3_linear)"/>
<path d="M34.7741 33.1935H71.1698C72.0427 33.1935 72.7505 32.4858 72.7505 31.6129C72.7505 30.74 72.0427 30.0322 71.1698 30.0322H34.7741C33.9012 30.0322 33.1934 30.74 33.1934 31.6129C33.1934 32.4858 33.9012 33.1935 34.7741 33.1935Z" fill="url(#paint4_linear)"/>
<path d="M34.7741 45.8385H88.516C89.3889 45.8385 90.0967 45.1308 90.0967 44.2579C90.0967 43.385 89.3889 42.6772 88.516 42.6772H34.7741C33.9012 42.6772 33.1934 43.385 33.1934 44.2579C33.1934 45.1308 33.9012 45.8385 34.7741 45.8385Z" fill="url(#paint5_linear)"/>
<path d="M88.5162 36.355H67.9169C67.044 36.355 66.3362 37.0627 66.3362 37.9356C66.3362 38.8085 67.044 39.5163 67.9169 39.5163H88.5162C89.3891 39.5163 90.0969 38.8085 90.0969 37.9356C90.0969 37.0627 89.3891 36.355 88.5162 36.355Z" fill="url(#paint6_linear)"/>
<path d="M34.7741 39.5163H61.7253C62.599 39.5163 63.3059 38.8085 63.3059 37.9356C63.3059 37.0627 62.599 36.355 61.7253 36.355H34.7741C33.9012 36.355 33.1934 37.0627 33.1934 37.9356C33.1934 38.8085 33.9012 39.5163 34.7741 39.5163Z" fill="url(#paint7_linear)"/>
<path d="M34.7741 52.1613H80.6128C81.4857 52.1613 82.1934 51.4536 82.1934 50.5806C82.1934 49.7077 81.4857 49 80.6128 49H34.7741C33.9012 49 33.1934 49.7077 33.1934 50.5806C33.1934 51.4536 33.9012 52.1613 34.7741 52.1613Z" fill="url(#paint8_linear)"/>
<path d="M34.7741 28.4514H88.516C89.3889 28.4514 90.0967 27.7436 90.0967 26.8707V15.8062C90.0967 14.9333 89.3889 14.2256 88.516 14.2256H34.7741C33.9012 14.2256 33.1934 14.9333 33.1934 15.8062V26.8707C33.1934 27.7436 33.9012 28.4514 34.7741 28.4514ZM36.3547 17.3869H86.9354V25.2901H36.3547V17.3869Z" fill="url(#paint9_linear)"/>
<path d="M18.9678 52.1613C25.0789 52.1613 30.0323 47.2078 30.0323 41.0967C30.0323 34.9856 25.0789 30.0322 18.9678 30.0322C12.8567 30.0322 7.90326 34.9856 7.90326 41.0967C7.91021 47.2048 12.8598 52.1543 18.9678 52.1613ZM18.9678 33.1935C23.3323 33.1935 26.871 36.7322 26.871 41.0967C26.871 45.4613 23.3323 49 18.9678 49C14.6033 49 11.0645 45.4613 11.0645 41.0967C11.07 36.7338 14.6048 33.1989 18.9678 33.1935Z" fill="url(#paint10_linear)"/>
<defs>
<linearGradient id="paint0_linear" x1="50.3401" y1="140.595" x2="129.269" y2="46.1921" gradientUnits="userSpaceOnUse">
<stop stop-color="#102397"/>
<stop offset="0.552714" stop-color="#187ADF"/>
<stop offset="1" stop-color="#00EAF8"/>
</linearGradient>
<linearGradient id="paint1_linear" x1="14.3988" y1="65.168" x2="15.8463" y2="59.3597" gradientUnits="userSpaceOnUse">
<stop stop-color="#102397"/>
<stop offset="0.552714" stop-color="#187ADF"/>
<stop offset="1" stop-color="#00EAF8"/>
</linearGradient>
<linearGradient id="paint2_linear" x1="24.565" y1="65.168" x2="27.4088" y2="60.8889" gradientUnits="userSpaceOnUse">
<stop stop-color="#102397"/>
<stop offset="0.552714" stop-color="#187ADF"/>
<stop offset="1" stop-color="#00EAF8"/>
</linearGradient>
<linearGradient id="paint3_linear" x1="83.3076" y1="35.1358" x2="84.6327" y2="29.2658" gradientUnits="userSpaceOnUse">
<stop stop-color="#102397"/>
<stop offset="0.552714" stop-color="#187ADF"/>
<stop offset="1" stop-color="#00EAF8"/>
</linearGradient>
<linearGradient id="paint4_linear" x1="53.5128" y1="35.1358" x2="54.0012" y2="29.0056" gradientUnits="userSpaceOnUse">
<stop stop-color="#102397"/>
<stop offset="0.552714" stop-color="#187ADF"/>
<stop offset="1" stop-color="#00EAF8"/>
</linearGradient>
<linearGradient id="paint5_linear" x1="62.4231" y1="47.7808" x2="62.7638" y2="41.6306" gradientUnits="userSpaceOnUse">
<stop stop-color="#102397"/>
<stop offset="0.552714" stop-color="#187ADF"/>
<stop offset="1" stop-color="#00EAF8"/>
</linearGradient>
<linearGradient id="paint6_linear" x1="78.5415" y1="41.4585" x2="79.3455" y2="35.3961" gradientUnits="userSpaceOnUse">
<stop stop-color="#102397"/>
<stop offset="0.552714" stop-color="#187ADF"/>
<stop offset="1" stop-color="#00EAF8"/>
</linearGradient>
<linearGradient id="paint7_linear" x1="48.6614" y1="41.4585" x2="49.3001" y2="35.3563" gradientUnits="userSpaceOnUse">
<stop stop-color="#102397"/>
<stop offset="0.552714" stop-color="#187ADF"/>
<stop offset="1" stop-color="#00EAF8"/>
</linearGradient>
<linearGradient id="paint8_linear" x1="58.3635" y1="54.1035" x2="58.7586" y2="47.9599" gradientUnits="userSpaceOnUse">
<stop stop-color="#102397"/>
<stop offset="0.552714" stop-color="#187ADF"/>
<stop offset="1" stop-color="#00EAF8"/>
</linearGradient>
<linearGradient id="paint9_linear" x1="62.4231" y1="37.1915" x2="68.937" y2="11.0542" gradientUnits="userSpaceOnUse">
<stop stop-color="#102397"/>
<stop offset="0.552714" stop-color="#187ADF"/>
<stop offset="1" stop-color="#00EAF8"/>
</linearGradient>
<linearGradient id="paint10_linear" x1="19.2704" y1="65.757" x2="40.8619" y2="44.0977" gradientUnits="userSpaceOnUse">
<stop stop-color="#102397"/>
<stop offset="0.552714" stop-color="#187ADF"/>
<stop offset="1" stop-color="#00EAF8"/>
</linearGradient>
</defs>
</svg>
