<svg width="98" height="98" viewBox="0 0 98 98" fill="none" xmlns="http://www.w3.org/2000/svg">
<path d="M39.5163 39.5161C29.0407 39.5161 20.5486 48.0082 20.5486 58.4839C20.5486 68.9595 29.0407 77.4516 39.5163 77.4516C49.992 77.4516 58.4841 68.9595 58.4841 58.4839C58.4725 48.0129 49.9873 39.5277 39.5163 39.5161ZM39.5163 74.2903C30.7865 74.2903 23.7099 67.2137 23.7099 58.4839C23.7099 49.754 30.7865 42.6774 39.5163 42.6774C48.2462 42.6774 55.3228 49.754 55.3228 58.4839C55.3135 67.2098 48.2423 74.281 39.5163 74.2903Z" fill="url(#paint0_linear)"/>
<path d="M39.516 44.2578C31.659 44.2578 25.2902 50.6267 25.2902 58.4836C25.2902 66.3405 31.659 72.7094 39.516 72.7094C47.3729 72.7094 53.7418 66.3405 53.7418 58.4836C53.7333 50.6306 47.369 44.2663 39.516 44.2578ZM39.516 69.5481C33.4049 69.5481 28.4515 64.5947 28.4515 58.4836C28.4515 52.3725 33.4049 47.4191 39.516 47.4191C45.6271 47.4191 50.5805 52.3725 50.5805 58.4836C50.5735 64.5916 45.624 69.5412 39.516 69.5481Z" fill="url(#paint1_linear)"/>
<path d="M96.4194 0H60.0645C59.1916 0 58.4839 0.70774 58.4839 1.58065V30.0577L54.861 33.6806C52.0833 31.9401 49.034 30.6783 45.8387 29.9466V20.5484C45.8387 19.6755 45.131 18.9677 44.2581 18.9677H34.7742C33.9013 18.9677 33.1936 19.6755 33.1936 20.5484V29.9466C29.9983 30.6783 26.9489 31.9401 24.1712 33.6806L17.5245 27.0415C16.907 26.4249 15.9068 26.4249 15.2893 27.0415L8.06145 34.2571C7.44401 34.8745 7.44401 35.8748 8.06145 36.4922L14.7082 43.139C12.9693 45.9167 11.7082 48.9668 10.9773 52.1613H1.58065C0.70774 52.1613 0 52.869 0 53.7419V63.2258C0 64.0987 0.70774 64.8064 1.58065 64.8064H10.9773C11.7097 68.0017 12.9724 71.0511 14.7128 73.8288L8.07379 80.4678C7.45713 81.0845 7.45713 82.0855 8.07379 82.7022L15.2978 89.9262C15.9145 90.5429 16.9155 90.5429 17.5322 89.9262L24.1789 83.2872C26.9543 85.0268 30.0014 86.2887 33.1936 87.0212V96.4194C33.1936 97.2923 33.9013 98 34.7742 98H44.2581C45.131 98 45.8387 97.2923 45.8387 96.4194V87.0212C49.034 86.2895 52.0833 85.0276 54.861 83.2872L61.5001 89.9262C62.1167 90.5429 63.1178 90.5429 63.7344 89.9262L70.9585 82.7022C71.5751 82.0855 71.5751 81.0845 70.9585 80.4678L64.3195 73.8288C66.0599 71.0511 67.3225 68.0017 68.055 64.8064H77.4516C78.3245 64.8064 79.0323 64.0987 79.0323 63.2258V53.7419C79.0323 52.869 78.3245 52.1613 77.4516 52.1613H68.0519C67.7949 51.0908 67.4784 50.035 67.1033 49H80.6129V56.9032C80.6129 57.5423 80.998 58.1188 81.5885 58.3635C82.1789 58.6081 82.8588 58.4723 83.3111 58.0208L92.3319 49H96.4194C97.2923 49 98 48.2923 98 47.4194V1.58065C98 0.70774 97.2923 0 96.4194 0ZM65.2124 54.0314C65.3521 54.78 66.0051 55.3226 66.7668 55.3226H75.871V61.6452H66.7668C66.0043 61.6452 65.3506 62.1901 65.2124 62.9395C64.544 66.6009 63.1046 70.0778 60.9907 73.1411C60.5585 73.7694 60.6364 74.616 61.1759 75.1547L67.6135 81.5931L62.6253 86.5812L56.187 80.139C55.6483 79.5995 54.8016 79.5216 54.1734 79.9538C51.1101 82.0677 47.6331 83.5064 43.9717 84.1755C43.2208 84.3137 42.6759 84.9697 42.6774 85.7346V94.8387H36.3548V85.7346C36.3548 84.972 35.8099 84.3183 35.0605 84.1802C31.3991 83.511 27.9222 82.0724 24.8589 79.9584C24.2306 79.5262 23.384 79.6042 22.8453 80.1437L16.4069 86.5812L11.4188 81.5931L17.861 75.1547C18.4005 74.616 18.4784 73.7694 18.0462 73.1411C15.9323 70.0778 14.4928 66.6009 13.8245 62.9395C13.6863 62.1885 13.0303 61.6436 12.2654 61.6452H3.16129V55.3226H12.2654C13.028 55.3226 13.6817 54.7777 13.8198 54.0283C14.4882 50.3669 15.9276 46.8899 18.0416 43.8266C18.4738 43.1984 18.3958 42.3517 17.8564 41.813L11.4188 35.3747L16.4069 30.3865L22.8453 36.8287C23.384 37.3682 24.2306 37.4462 24.8589 37.014C27.9222 34.9 31.3991 33.4614 35.0605 32.7922C35.8115 32.6541 36.3564 31.998 36.3548 31.2332V22.129H42.6774V31.2332C42.6774 31.9957 43.2223 32.6494 43.9717 32.7876C47.6331 33.4567 51.1101 34.8954 54.1734 37.0093C54.8016 37.4415 55.6483 37.3636 56.187 36.8241L58.4839 34.528V47.4194C58.4839 48.2923 59.1916 49 60.0645 49H63.7367C64.3966 50.6231 64.8913 52.3087 65.2124 54.0314ZM94.8387 45.8387H91.6774C91.2583 45.8387 90.8562 46.0054 90.5599 46.3018L83.7742 53.0875V47.4194C83.7742 46.5465 83.0665 45.8387 82.1936 45.8387H61.6452V3.16129H94.8387V45.8387Z" fill="url(#paint2_linear)"/>
<path d="M64.8066 9.48404H91.6776C92.5505 9.48404 93.2582 8.7763 93.2582 7.9034C93.2582 7.03049 92.5505 6.32275 91.6776 6.32275H64.8066C63.9337 6.32275 63.226 7.03049 63.226 7.9034C63.226 8.7763 63.9337 9.48404 64.8066 9.48404Z" fill="url(#paint3_linear)"/>
<path d="M91.6773 12.645H80.6127C79.7398 12.645 79.0321 13.3528 79.0321 14.2257C79.0321 15.0986 79.7398 15.8063 80.6127 15.8063H91.6773C92.5502 15.8063 93.2579 15.0986 93.2579 14.2257C93.2579 13.3528 92.5502 12.645 91.6773 12.645Z" fill="url(#paint4_linear)"/>
<path d="M64.8066 15.8063H74.2905C75.1634 15.8063 75.8711 15.0986 75.8711 14.2257C75.8711 13.3528 75.1634 12.645 74.2905 12.645H64.8066C63.9337 12.645 63.226 13.3528 63.226 14.2257C63.226 15.0986 63.9337 15.8063 64.8066 15.8063Z" fill="url(#paint5_linear)"/>
<path d="M90.0967 18.9678H88.5161C87.6432 18.9678 86.9354 19.6755 86.9354 20.5484C86.9354 21.4213 87.6432 22.1291 88.5161 22.1291H90.0967C90.9696 22.1291 91.6774 21.4213 91.6774 20.5484C91.6774 19.6755 90.9696 18.9678 90.0967 18.9678Z" fill="url(#paint6_linear)"/>
<path d="M64.8066 22.1291H83.7744C84.6473 22.1291 85.355 21.4213 85.355 20.5484C85.355 19.6755 84.6473 18.9678 83.7744 18.9678H64.8066C63.9337 18.9678 63.226 19.6755 63.226 20.5484C63.226 21.4213 63.9337 22.1291 64.8066 22.1291Z" fill="url(#paint7_linear)"/>
<defs>
<linearGradient id="paint0_linear" x1="40.0351" y1="100.759" x2="77.0491" y2="63.6284" gradientUnits="userSpaceOnUse">
<stop stop-color="#102397"/>
<stop offset="0.552714" stop-color="#187ADF"/>
<stop offset="1" stop-color="#00EAF8"/>
</linearGradient>
<linearGradient id="paint1_linear" x1="39.905" y1="90.1896" x2="67.6656" y2="62.342" gradientUnits="userSpaceOnUse">
<stop stop-color="#102397"/>
<stop offset="0.552714" stop-color="#187ADF"/>
<stop offset="1" stop-color="#00EAF8"/>
</linearGradient>
<linearGradient id="paint2_linear" x1="50.3401" y1="158.21" x2="145.96" y2="62.2901" gradientUnits="userSpaceOnUse">
<stop stop-color="#102397"/>
<stop offset="0.552714" stop-color="#187ADF"/>
<stop offset="1" stop-color="#00EAF8"/>
</linearGradient>
<linearGradient id="paint3_linear" x1="78.6527" y1="11.4263" x2="79.293" y2="5.32444" gradientUnits="userSpaceOnUse">
<stop stop-color="#102397"/>
<stop offset="0.552714" stop-color="#187ADF"/>
<stop offset="1" stop-color="#00EAF8"/>
</linearGradient>
<linearGradient id="paint4_linear" x1="86.3395" y1="17.7485" x2="87.6422" y2="11.8681" gradientUnits="userSpaceOnUse">
<stop stop-color="#102397"/>
<stop offset="0.552714" stop-color="#187ADF"/>
<stop offset="1" stop-color="#00EAF8"/>
</linearGradient>
<linearGradient id="paint5_linear" x1="69.7214" y1="17.7485" x2="71.169" y2="11.9403" gradientUnits="userSpaceOnUse">
<stop stop-color="#102397"/>
<stop offset="0.552714" stop-color="#187ADF"/>
<stop offset="1" stop-color="#00EAF8"/>
</linearGradient>
<linearGradient id="paint6_linear" x1="89.3712" y1="24.0713" x2="92.215" y2="19.7922" gradientUnits="userSpaceOnUse">
<stop stop-color="#102397"/>
<stop offset="0.552714" stop-color="#187ADF"/>
<stop offset="1" stop-color="#00EAF8"/>
</linearGradient>
<linearGradient id="paint7_linear" x1="74.5931" y1="24.0713" x2="75.4541" y2="18.0249" gradientUnits="userSpaceOnUse">
<stop stop-color="#102397"/>
<stop offset="0.552714" stop-color="#187ADF"/>
<stop offset="1" stop-color="#00EAF8"/>
</linearGradient>
</defs>
</svg>
