<svg width="100" height="98" viewBox="0 0 100 98" fill="none" xmlns="http://www.w3.org/2000/svg">
<g clip-path="url(#clip0)">
<path d="M46.1382 8.19141H31.4107C30.5131 8.19141 29.7852 8.90669 29.7852 9.78926C29.7852 10.6718 30.5131 11.3871 31.4107 11.3871H46.1382C47.0358 11.3871 47.7636 10.6718 47.7636 9.78926C47.7636 8.90669 47.0358 8.19141 46.1382 8.19141Z" fill="url(#paint0_linear)"/>
<path d="M60.6122 8.19141H58.6383C57.7407 8.19141 57.0129 8.90669 57.0129 9.78926C57.0129 10.6718 57.7407 11.3871 58.6383 11.3871H60.6122C61.5098 11.3871 62.2376 10.6718 62.2376 9.78926C62.2376 8.90669 61.51 8.19141 60.6122 8.19141Z" fill="url(#paint1_linear)"/>
<path d="M43.4334 87.0396H34.115C33.2174 87.0396 32.4896 87.7548 32.4896 88.6374C32.4896 89.52 33.2174 90.2353 34.115 90.2353H43.4334C44.331 90.2353 45.0588 89.52 45.0588 88.6374C45.0588 87.7548 44.331 87.0396 43.4334 87.0396Z" fill="url(#paint2_linear)"/>
<path d="M83.6208 50.8375C82.9861 50.2137 81.9569 50.2137 81.3223 50.8375L67.5773 64.3498C66.9425 64.974 66.9425 65.9856 67.5773 66.6095C67.8946 66.9213 68.3107 67.0773 68.7266 67.0773C69.1425 67.0773 69.5586 66.9213 69.8759 66.6095L83.621 53.0972C84.2557 52.4732 84.2557 51.4616 83.6208 50.8375Z" fill="url(#paint3_linear)"/>
<path d="M83.6208 60.058C82.9863 59.4344 81.9571 59.4344 81.3223 60.058L67.5773 73.5701C66.9425 74.1943 66.9425 75.2059 67.5773 75.8299C67.8946 76.1417 68.3107 76.2977 68.7266 76.2977C69.1425 76.2977 69.5586 76.1417 69.8759 75.8299L83.621 62.3178C84.2556 61.6936 84.2556 60.682 83.6208 60.058Z" fill="url(#paint4_linear)"/>
<path d="M95.9056 72.1769C96.8032 72.1769 97.531 71.4616 97.531 70.579V39.4055C97.531 34.4712 93.4472 30.4565 88.4277 30.4565H75.39V6.30434C75.3896 2.82802 72.5126 0 68.9768 0H8.57195C5.0357 0 2.15892 2.82802 2.15892 6.30434V61.3353C2.15892 62.2178 2.88673 62.9331 3.78432 62.9331C4.68192 62.9331 5.40973 62.2178 5.40973 61.3353V18.0628H72.139V30.4565H63.6393C58.6196 30.4565 54.536 34.4711 54.536 39.4055V78.7568H5.40953V70.9557C5.40953 70.0731 4.68172 69.3578 3.78413 69.3578C2.88653 69.3578 2.15872 70.0731 2.15872 70.9557V91.6957C2.15872 95.172 5.0357 98.0002 8.57195 98.0002H63.4979V97.9966C63.5452 97.9971 63.5918 98.0002 63.6391 98.0002H88.4273C93.447 98.0002 97.5306 93.9856 97.5306 89.0512V79.1308C97.5306 78.2483 96.8028 77.533 95.9052 77.533C95.0076 77.533 94.2798 78.2483 94.2798 79.1308V83.9123H57.7868V43.7429H94.2802V70.579C94.2802 71.4616 95.0078 72.1769 95.9056 72.1769ZM8.57195 94.8041C6.82816 94.8041 5.40953 93.4095 5.40953 91.6953V81.9523H54.5358V89.0508C54.5358 91.2401 55.3409 93.2472 56.6737 94.8041H8.57195ZM57.787 87.1077H94.2802V89.0508C94.2802 92.2232 91.6545 94.8041 88.4277 94.8041H63.6395C60.4124 94.8041 57.787 92.2232 57.787 89.0508V87.1077ZM5.40953 14.8671V6.30434C5.40953 4.5901 6.82816 3.19552 8.57195 3.19552H68.9766C70.7204 3.19552 72.139 4.5901 72.139 6.30434V14.8671H5.40953ZM94.28 40.5474H57.7868V39.4055C57.7868 36.2331 60.4124 33.6522 63.6393 33.6522H88.4275C91.6545 33.6522 94.28 36.2331 94.28 39.4055V40.5474Z" fill="url(#paint5_linear)"/>
<path d="M82.1979 36.0161H69.8687C68.9711 36.0161 68.2433 36.7314 68.2433 37.614C68.2433 38.4965 68.9711 39.2118 69.8687 39.2118H82.1979C83.0955 39.2118 83.8233 38.4965 83.8233 37.614C83.8233 36.7314 83.0957 36.0161 82.1979 36.0161Z" fill="url(#paint6_linear)"/>
<path d="M78.2351 89.5342H73.8314C72.9338 89.5342 72.206 90.2495 72.206 91.132C72.206 92.0146 72.9338 92.7299 73.8314 92.7299H78.2351C79.1327 92.7299 79.8605 92.0146 79.8605 91.132C79.8605 90.2495 79.1327 89.5342 78.2351 89.5342Z" fill="url(#paint7_linear)"/>
<path d="M46.7955 34.712C46.1607 34.0882 45.1315 34.0882 44.497 34.712L30.7519 48.2241C30.1172 48.8482 30.1172 49.8598 30.7519 50.4838C31.0693 50.7958 31.4852 50.9516 31.9013 50.9516C32.3171 50.9516 32.7332 50.7956 33.0506 50.4838L46.7957 36.9717C47.4302 36.3475 47.4302 35.336 46.7955 34.712Z" fill="url(#paint8_linear)"/>
<path d="M46.7955 43.9327C46.1607 43.3089 45.1315 43.3089 44.497 43.9327L30.7519 57.4448C30.1172 58.0688 30.1172 59.0803 30.7519 59.7045C31.0693 60.0165 31.4854 60.1723 31.9013 60.1723C32.3171 60.1723 32.7332 60.0163 33.0506 59.7045L46.7957 46.1924C47.4302 45.5682 47.4302 44.5567 46.7955 43.9327Z" fill="url(#paint9_linear)"/>
</g>
<defs>
<linearGradient id="paint0_linear" x1="39.0203" y1="13.3505" x2="40.0917" y2="7.30415" gradientUnits="userSpaceOnUse">
<stop stop-color="#102397"/>
<stop offset="0.552714" stop-color="#187ADF"/>
<stop offset="1" stop-color="#00EAF8"/>
</linearGradient>
<linearGradient id="paint1_linear" x1="59.6967" y1="13.3505" x2="62.4686" y2="8.80444" gradientUnits="userSpaceOnUse">
<stop stop-color="#102397"/>
<stop offset="0.552714" stop-color="#187ADF"/>
<stop offset="1" stop-color="#00EAF8"/>
</linearGradient>
<linearGradient id="paint2_linear" x1="38.9461" y1="92.1987" x2="40.4312" y2="86.3389" gradientUnits="userSpaceOnUse">
<stop stop-color="#102397"/>
<stop offset="0.552714" stop-color="#187ADF"/>
<stop offset="1" stop-color="#00EAF8"/>
</linearGradient>
<linearGradient id="paint3_linear" x1="75.8315" y1="77.3423" x2="92.1302" y2="60.7106" gradientUnits="userSpaceOnUse">
<stop stop-color="#102397"/>
<stop offset="0.552714" stop-color="#187ADF"/>
<stop offset="1" stop-color="#00EAF8"/>
</linearGradient>
<linearGradient id="paint4_linear" x1="75.8314" y1="86.5624" x2="92.1297" y2="69.9308" gradientUnits="userSpaceOnUse">
<stop stop-color="#102397"/>
<stop offset="0.552714" stop-color="#187ADF"/>
<stop offset="1" stop-color="#00EAF8"/>
</linearGradient>
<linearGradient id="paint5_linear" x1="51.149" y1="158.21" x2="146.742" y2="64.8889" gradientUnits="userSpaceOnUse">
<stop stop-color="#102397"/>
<stop offset="0.552714" stop-color="#187ADF"/>
<stop offset="1" stop-color="#00EAF8"/>
</linearGradient>
<linearGradient id="paint6_linear" x1="76.2463" y1="41.1752" x2="77.4703" y2="35.1893" gradientUnits="userSpaceOnUse">
<stop stop-color="#102397"/>
<stop offset="0.552714" stop-color="#187ADF"/>
<stop offset="1" stop-color="#00EAF8"/>
</linearGradient>
<linearGradient id="paint7_linear" x1="76.1379" y1="94.6933" x2="78.3502" y2="89.3778" gradientUnits="userSpaceOnUse">
<stop stop-color="#102397"/>
<stop offset="0.552714" stop-color="#187ADF"/>
<stop offset="1" stop-color="#00EAF8"/>
</linearGradient>
<linearGradient id="paint8_linear" x1="39.0061" y1="61.2164" x2="55.3045" y2="44.5848" gradientUnits="userSpaceOnUse">
<stop stop-color="#102397"/>
<stop offset="0.552714" stop-color="#187ADF"/>
<stop offset="1" stop-color="#00EAF8"/>
</linearGradient>
<linearGradient id="paint9_linear" x1="39.0061" y1="70.4371" x2="55.3045" y2="53.8055" gradientUnits="userSpaceOnUse">
<stop stop-color="#102397"/>
<stop offset="0.552714" stop-color="#187ADF"/>
<stop offset="1" stop-color="#00EAF8"/>
</linearGradient>
<clipPath id="clip0">
<rect width="99.6897" height="98" fill="white"/>
</clipPath>
</defs>
</svg>
