<svg width="98" height="98" viewBox="0 0 98 98" fill="none" xmlns="http://www.w3.org/2000/svg">
<path d="M88.8797 12.1616H86.4503C85.5678 12.1616 84.8525 12.8771 84.8525 13.7595C84.8525 14.6419 85.5676 15.3573 86.4503 15.3573H88.8797C89.7621 15.3573 90.4775 14.6419 90.4775 13.7595C90.4775 12.8771 89.7622 12.1616 88.8797 12.1616Z" fill="url(#paint0_linear)"/>
<path d="M80.2513 12.1616H77.822C76.9394 12.1616 76.2241 12.8771 76.2241 13.7595C76.2241 14.6419 76.9392 15.3573 77.822 15.3573H80.2513C81.1337 15.3573 81.8492 14.6419 81.8492 13.7595C81.8492 12.8771 81.1341 12.1616 80.2513 12.1616Z" fill="url(#paint1_linear)"/>
<path d="M71.4104 12.1616H68.9811C68.0985 12.1616 67.3832 12.8771 67.3832 13.7595C67.3832 14.6419 68.0983 15.3573 68.9811 15.3573H71.4104C72.2928 15.3573 73.0083 14.6419 73.0083 13.7595C73.0083 12.8771 72.293 12.1616 71.4104 12.1616Z" fill="url(#paint2_linear)"/>
<path d="M89.1016 47.4784V27.4979C89.1016 26.6155 88.3865 25.9 87.5038 25.9H67.5217C67.5102 25.8999 67.4985 25.8999 67.4869 25.9H10.4968C9.6144 25.9 8.89893 26.6155 8.89893 27.4979V47.4964C8.89893 48.3788 9.6144 49.0943 10.4968 49.0943H87.5039C87.5591 49.0941 87.6138 49.091 87.668 49.0857C87.6887 49.0836 87.7089 49.0794 87.7294 49.0763C87.7618 49.0719 87.7943 49.0681 87.8261 49.0616C88.5544 48.9126 89.1024 48.2676 89.1024 47.4951C89.1024 47.4897 89.1016 47.4842 89.1016 47.4784ZM12.0946 45.8986V29.0956H66.8437L83.6484 45.8986H12.0946ZM85.9059 43.6371L71.3628 29.0956H85.9059V43.6371Z" fill="url(#paint3_linear)"/>
<path d="M44.3107 53.3633H10.0549C9.17251 53.3633 8.45703 54.0788 8.45703 54.9611V82.2572C8.45703 83.1396 9.17251 83.8551 10.0549 83.8551H44.3107C45.1931 83.8551 45.9085 83.1396 45.9085 82.2572V71.2073C45.9087 71.1939 45.9087 71.1805 45.9085 71.1671V54.9611C45.9085 54.0786 45.1932 53.3633 44.3107 53.3633ZM42.713 56.5588V67.3289L31.943 56.5588H42.713ZM42.7132 80.6593H11.6526V56.5588H27.4239L42.7132 71.8481V80.6593Z" fill="url(#paint4_linear)"/>
<path d="M96.4021 6.73633H57.2127H1.59786C0.715476 6.73633 0 7.45161 0 8.33419V19.1852V89.6661C0 90.5485 0.715476 91.264 1.59786 91.264H72.2415C73.1241 91.264 73.8394 90.5485 73.8394 89.6661C73.8394 88.7838 73.1243 88.0683 72.2415 88.0683H3.19553V20.7831H57.2125H94.8043V88.0685H81.8832C81.0006 88.0685 80.2854 88.7839 80.2854 89.6663C80.2854 90.5487 81.0004 91.2642 81.8832 91.2642H96.4021C97.2847 91.2642 98 90.5487 98 89.6663V19.1852V8.33419C98 7.45161 97.2849 6.73633 96.4021 6.73633ZM55.6148 17.5873H3.19553V9.93185H55.6148V17.5873ZM94.8045 17.5873H58.8105V9.93185H94.8045V17.5873Z" fill="url(#paint5_linear)"/>
<path d="M61.9142 54.1631H52.511C51.6284 54.1631 50.9131 54.8786 50.9131 55.7609V65.1531C50.9131 66.0354 51.6282 66.7509 52.511 66.7509H61.9142C62.7968 66.7509 63.5121 66.0354 63.5121 65.1531V55.7609C63.5121 54.8786 62.797 54.1631 61.9142 54.1631ZM60.3165 63.5552H54.1089V57.3586H60.3165V63.5552Z" fill="url(#paint6_linear)"/>
<path d="M61.9142 71.0464H52.511C51.6284 71.0464 50.9131 71.7619 50.9131 72.6442V82.0362C50.9131 82.9185 51.6282 83.634 52.511 83.634H61.9142C62.7968 83.634 63.5121 82.9185 63.5121 82.0362V72.6441C63.5121 71.7617 62.7966 71.0464 61.9142 71.0464ZM60.3165 80.4383H54.1089V74.2421H60.3165V80.4383Z" fill="url(#paint7_linear)"/>
<path d="M85.1052 57.0938H69.8095C68.927 57.0938 68.2117 57.8092 68.2117 58.6916C68.2117 59.574 68.9268 60.2894 69.8095 60.2894H85.105C85.9876 60.2894 86.7029 59.574 86.7029 58.6916C86.7029 57.809 85.9878 57.0938 85.1052 57.0938Z" fill="url(#paint8_linear)"/>
<path d="M85.1052 62.6113H69.8095C68.927 62.6113 68.2117 63.3268 68.2117 64.2092C68.2117 65.0916 68.9268 65.807 69.8095 65.807H85.105C85.9876 65.807 86.7029 65.0916 86.7029 64.2092C86.7029 63.3268 85.9878 62.6113 85.1052 62.6113Z" fill="url(#paint9_linear)"/>
<path d="M85.1052 72.5435H69.8095C68.927 72.5435 68.2117 73.2589 68.2117 74.1413C68.2117 75.0237 68.9268 75.7392 69.8095 75.7392H85.105C85.9876 75.7392 86.7029 75.0237 86.7029 74.1413C86.7029 73.2587 85.9878 72.5435 85.1052 72.5435Z" fill="url(#paint10_linear)"/>
<path d="M85.1052 78.061H69.8095C68.927 78.061 68.2117 78.7765 68.2117 79.6589C68.2117 80.5413 68.9271 81.2568 69.8095 81.2568H85.105C85.9876 81.2568 86.7029 80.5413 86.7029 79.6589C86.7029 78.7765 85.9878 78.061 85.1052 78.061Z" fill="url(#paint11_linear)"/>
<path d="M33.6618 12.1616H9.09346C8.21108 12.1616 7.49561 12.8771 7.49561 13.7595C7.49561 14.6419 8.21108 15.3573 9.09346 15.3573H33.662C34.5444 15.3573 35.2598 14.6419 35.2598 13.7595C35.2595 12.8769 34.5442 12.1616 33.6618 12.1616Z" fill="url(#paint12_linear)"/>
<defs>
<linearGradient id="paint0_linear" x1="87.7419" y1="17.3207" x2="90.4161" y2="12.599" gradientUnits="userSpaceOnUse">
<stop stop-color="#102397"/>
<stop offset="0.552714" stop-color="#187ADF"/>
<stop offset="1" stop-color="#00EAF8"/>
</linearGradient>
<linearGradient id="paint1_linear" x1="79.1136" y1="17.3207" x2="81.7877" y2="12.599" gradientUnits="userSpaceOnUse">
<stop stop-color="#102397"/>
<stop offset="0.552714" stop-color="#187ADF"/>
<stop offset="1" stop-color="#00EAF8"/>
</linearGradient>
<linearGradient id="paint2_linear" x1="70.2727" y1="17.3207" x2="72.9468" y2="12.599" gradientUnits="userSpaceOnUse">
<stop stop-color="#102397"/>
<stop offset="0.552714" stop-color="#187ADF"/>
<stop offset="1" stop-color="#00EAF8"/>
</linearGradient>
<linearGradient id="paint3_linear" x1="50.0974" y1="63.3445" x2="62.1448" y2="21.5554" gradientUnits="userSpaceOnUse">
<stop stop-color="#102397"/>
<stop offset="0.552714" stop-color="#187ADF"/>
<stop offset="1" stop-color="#00EAF8"/>
</linearGradient>
<linearGradient id="paint4_linear" x1="27.695" y1="102.589" x2="56.8098" y2="66.7162" gradientUnits="userSpaceOnUse">
<stop stop-color="#102397"/>
<stop offset="0.552714" stop-color="#187ADF"/>
<stop offset="1" stop-color="#00EAF8"/>
</linearGradient>
<linearGradient id="paint5_linear" x1="50.3401" y1="143.197" x2="131.884" y2="48.3603" gradientUnits="userSpaceOnUse">
<stop stop-color="#102397"/>
<stop offset="0.552714" stop-color="#187ADF"/>
<stop offset="1" stop-color="#00EAF8"/>
</linearGradient>
<linearGradient id="paint6_linear" x1="57.3849" y1="74.4847" x2="69.6669" y2="62.1533" gradientUnits="userSpaceOnUse">
<stop stop-color="#102397"/>
<stop offset="0.552714" stop-color="#187ADF"/>
<stop offset="1" stop-color="#00EAF8"/>
</linearGradient>
<linearGradient id="paint7_linear" x1="57.3849" y1="91.3677" x2="69.6667" y2="79.0362" gradientUnits="userSpaceOnUse">
<stop stop-color="#102397"/>
<stop offset="0.552714" stop-color="#187ADF"/>
<stop offset="1" stop-color="#00EAF8"/>
</linearGradient>
<linearGradient id="paint8_linear" x1="77.7101" y1="62.2528" x2="78.7535" y2="56.1964" gradientUnits="userSpaceOnUse">
<stop stop-color="#102397"/>
<stop offset="0.552714" stop-color="#187ADF"/>
<stop offset="1" stop-color="#00EAF8"/>
</linearGradient>
<linearGradient id="paint9_linear" x1="77.7101" y1="67.7704" x2="78.7535" y2="61.714" gradientUnits="userSpaceOnUse">
<stop stop-color="#102397"/>
<stop offset="0.552714" stop-color="#187ADF"/>
<stop offset="1" stop-color="#00EAF8"/>
</linearGradient>
<linearGradient id="paint10_linear" x1="77.7101" y1="77.7026" x2="78.7536" y2="71.6461" gradientUnits="userSpaceOnUse">
<stop stop-color="#102397"/>
<stop offset="0.552714" stop-color="#187ADF"/>
<stop offset="1" stop-color="#00EAF8"/>
</linearGradient>
<linearGradient id="paint11_linear" x1="77.7101" y1="83.2202" x2="78.7536" y2="77.1637" gradientUnits="userSpaceOnUse">
<stop stop-color="#102397"/>
<stop offset="0.552714" stop-color="#187ADF"/>
<stop offset="1" stop-color="#00EAF8"/>
</linearGradient>
<linearGradient id="paint12_linear" x1="21.7574" y1="17.3207" x2="22.4636" y2="11.1656" gradientUnits="userSpaceOnUse">
<stop stop-color="#102397"/>
<stop offset="0.552714" stop-color="#187ADF"/>
<stop offset="1" stop-color="#00EAF8"/>
</linearGradient>
</defs>
</svg>
