<svg width="98" height="98" viewBox="0 0 98 98" fill="none" xmlns="http://www.w3.org/2000/svg">
<path d="M97.9843 5.75022C97.9383 3.88668 97.0315 2.24155 95.6453 1.19647C94.6969 0.480802 93.5239 0.0465014 92.249 0.0149194C88.0176 -0.0874829 83.6242 0.337439 79.1928 1.28413C79.188 1.28528 79.1836 1.2872 79.179 1.28815C66.5741 3.95176 53.4632 10.8562 42.2104 22.0636C35.9078 28.3409 30.6613 35.588 26.8908 43.1952C26.3899 42.6945 25.6603 41.9128 24.3409 41.1642C20.4376 38.9651 15.4974 39.6427 12.3271 42.8128L1.9592 53.1803C-0.647758 55.7874 -0.647758 60.0296 1.95958 62.6373C2.58682 63.2643 3.31799 63.7524 4.12725 64.0855C4.94035 64.4233 5.80168 64.5948 6.68751 64.5948H20.4085C20.1104 67.1945 19.9977 69.7637 20.0785 72.2748C20.1776 75.3442 22.6583 77.8246 25.7253 77.9215C26.2548 77.9385 26.7861 77.9471 27.3201 77.9471C29.3203 77.9471 31.3533 77.8263 33.4053 77.5911V91.3163C33.4072 92.204 33.5786 93.0642 33.9126 93.8683C34.2479 94.6825 34.736 95.4137 35.3632 96.0407C36.6265 97.3042 38.3057 97.9998 40.0915 97.9998C41.8772 97.9996 43.5564 97.304 44.8198 96.0409L55.1874 85.6734C58.3572 82.5035 59.0352 77.5633 56.8338 73.6552C56.09 72.3441 55.3041 71.6087 54.8055 71.1097C62.4133 67.3388 69.6604 62.0924 75.9366 55.7894C78.5426 53.1726 80.983 50.3777 83.189 47.4827C83.7237 46.7808 83.5884 45.7782 82.8863 45.2433C82.1845 44.7087 81.1821 44.8442 80.6469 45.5459C78.5261 48.3293 76.1793 51.0172 73.6721 53.5346C59.9387 67.3266 42.0483 75.2494 25.827 74.7277C24.4391 74.6838 23.3171 73.561 23.2723 72.172C22.7509 55.9498 30.6734 38.064 44.4656 24.3281C55.0216 13.8142 67.2257 7.27056 79.0169 4.59718L93.4043 18.9846C91.9584 25.3309 89.4497 31.4829 86.2097 37.1588C85.7722 37.9252 86.0388 38.901 86.8054 39.3384C87.0554 39.4812 87.3274 39.5487 87.5959 39.5487C88.1506 39.5487 88.6904 39.2595 88.9851 38.7427C92.8326 32.0025 95.3821 25.137 96.7166 18.8083C97.6623 14.3817 98.0888 9.98833 97.9843 5.75022ZM36.6009 77.1319C41.4997 76.2918 46.5858 74.7943 51.7214 72.546C52.973 73.7974 53.4867 74.2317 54.0518 75.228C55.5499 77.8876 55.0876 81.2537 52.9276 83.4137L42.5601 93.7812C41.1988 95.1425 38.9837 95.1425 37.6228 93.7812C37.2953 93.4539 37.0415 93.0741 36.8654 92.6471C36.6908 92.2266 36.6018 91.7764 36.6009 91.3126V77.1319ZM20.8659 61.3991H6.68731C6.22488 61.3991 5.77584 61.3101 5.34862 61.1323C4.92638 60.9587 4.54605 60.7043 4.21894 60.377C2.85766 59.0159 2.85766 56.8011 4.21894 55.4398L14.5866 45.0721C15.8997 43.7591 17.6576 43.0737 19.4311 43.0737C20.5754 43.0737 21.7265 43.3591 22.7677 43.9459C23.7692 44.5138 24.1987 45.0228 25.4543 46.2788C23.193 51.445 21.701 56.5303 20.8659 61.3991ZM94.734 9.55786C94.6347 11.4467 94.4362 13.3305 94.1374 15.1984C90.8358 11.8968 87.5345 8.59547 84.2329 5.2939C83.7561 4.81711 83.2793 4.34032 82.8023 3.86333C82.8517 3.8551 82.9007 3.84668 82.9497 3.83845C84.9652 3.52148 87.0012 3.31629 89.0399 3.23667C90.761 3.16929 93.1938 2.72791 94.3223 4.37956C95.2311 5.70983 94.8142 8.03484 94.734 9.55786Z" fill="url(#paint0_linear)"/>
<path d="M77.5037 20.4946C73.4657 16.4569 66.8953 16.4567 62.8571 20.4948C59.2033 24.1486 58.8563 29.8753 61.8147 33.9237L41.5088 54.2296C40.8848 54.8538 40.8848 55.8654 41.5088 56.4895C41.8209 56.8015 42.23 56.9573 42.6388 56.9573C43.0477 56.9573 43.4567 56.8013 43.7689 56.4895L64.0746 36.1836C65.8859 37.5072 68.0331 38.1697 70.1805 38.1697C72.8324 38.1697 75.4845 37.1602 77.5037 35.1412H77.5038C81.5417 31.1031 81.5417 24.5329 77.5037 20.4946ZM75.2441 32.8815C72.4524 35.6732 67.9102 35.6732 65.1181 32.883C65.1178 32.8826 65.1174 32.8819 65.1168 32.8815C65.1164 32.8811 65.116 32.8807 65.1153 32.8802C62.3246 30.0877 62.3251 25.546 65.1166 22.7546C66.5127 21.3583 68.3464 20.6604 70.1803 20.6604C72.0141 20.6604 73.8478 21.3583 75.2439 22.7546C78.0359 25.5466 78.036 30.0896 75.2441 32.8815Z" fill="url(#paint1_linear)"/>
<defs>
<linearGradient id="paint0_linear" x1="50.3419" y1="158.209" x2="145.961" y2="62.294" gradientUnits="userSpaceOnUse">
<stop stop-color="#102397"/>
<stop offset="0.552714" stop-color="#187ADF"/>
<stop offset="1" stop-color="#00EAF8"/>
</linearGradient>
<linearGradient id="paint1_linear" x1="61.3265" y1="81.22" x2="99.8584" y2="42.5669" gradientUnits="userSpaceOnUse">
<stop stop-color="#102397"/>
<stop offset="0.552714" stop-color="#187ADF"/>
<stop offset="1" stop-color="#00EAF8"/>
</linearGradient>
</defs>
</svg>
