<svg width="100" height="98" viewBox="0 0 100 98" fill="none" xmlns="http://www.w3.org/2000/svg">
<path d="M92.2083 29.6256H85.9395C85.3708 27.8846 84.656 26.1866 83.8046 24.5547L88.246 20.1742C88.8833 19.5452 88.8833 18.5285 88.246 17.8995L75.7021 5.52704C75.3946 5.22404 74.977 5.0535 74.5414 5.0535H74.5412C74.1057 5.0535 73.6884 5.22385 73.3808 5.52684L68.944 9.90104C67.2875 9.06211 65.569 8.35908 63.8114 7.80132V1.61106C63.8114 0.721217 63.0779 0 62.1725 0H44.4307C43.5257 0 42.7919 0.721026 42.7919 1.61106V7.80113C41.0343 8.35889 39.3158 9.06173 37.659 9.90085L33.2223 5.52684C32.9146 5.22385 32.497 5.0535 32.0616 5.0535C31.6263 5.0535 31.2086 5.22404 30.9012 5.52704L18.3571 17.8995C17.7198 18.5285 17.7198 19.5452 18.3571 20.1742L22.7985 24.5547C21.9472 26.187 21.2325 27.8848 20.6637 29.6256H14.395C13.49 29.6256 12.7561 30.3466 12.7561 31.2367V48.7335C12.7561 49.6233 13.4898 50.3445 14.395 50.3445H19.4167C16.3884 58.6678 17.7511 68.0226 23.0528 75.1915L19.6912 78.4952L19.3534 78.1631C18.7134 77.5341 17.6758 77.5341 17.036 78.1631L6.32267 88.6946C6.01523 88.9968 5.84253 89.4065 5.84253 89.8339C5.84253 90.2613 6.01523 90.6707 6.32267 90.9731L12.9908 97.5282C13.3107 97.8427 13.7303 97.9998 14.1495 97.9998C14.5689 97.9998 14.9883 97.8427 15.3082 97.5282L26.0213 86.9967C26.6613 86.3673 26.6613 85.3475 26.0213 84.7184L25.6833 84.3861L29.0388 81.0885C33.8187 84.518 39.4846 86.2331 45.1507 86.2331C52.1498 86.2331 59.1489 83.6168 64.4773 78.3842C66.715 76.1868 68.516 73.675 69.8397 70.9509L73.3804 74.4435C73.688 74.7465 74.1057 74.917 74.5412 74.917C74.9768 74.917 75.3944 74.7465 75.7021 74.4431L88.246 62.0706C88.8833 61.4419 88.8833 60.4249 88.246 59.7962L83.8044 55.4153C84.6564 53.781 85.3712 52.0831 85.9393 50.3445H92.2085C93.1136 50.3445 93.8473 49.6235 93.8473 48.7335V31.2367C93.8471 30.3468 93.1134 29.6256 92.2083 29.6256ZM14.1491 94.1106L9.79857 89.8341L18.1945 81.5806L18.5288 81.9093C18.53 81.9104 18.5307 81.9116 18.5319 81.9127L22.2064 85.5249C22.2076 85.5261 22.2085 85.5269 22.2097 85.528L22.5446 85.8572L14.1491 94.1106ZM23.3657 82.1076L22.0086 80.7735L25.1433 77.6926C25.672 78.2498 26.2818 78.8265 26.5002 79.0267L23.3657 82.1076ZM69.4382 47.0646C68.1597 44.6441 66.4969 42.4041 64.4771 40.4207C59.634 35.6645 53.2013 32.8816 46.3636 32.5851C43.0787 32.4435 39.8366 32.8799 36.7739 33.8463C39.3029 27.2884 45.7549 22.6123 53.3013 22.6123C63.0462 22.6123 70.974 30.4058 70.974 39.9856C70.9742 42.5055 70.4242 44.9011 69.4382 47.0646ZM90.5694 47.1226H84.7212C83.987 47.1226 83.3421 47.6026 83.1433 48.2978C82.4874 50.5934 81.5493 52.8219 80.3557 54.9216C79.9984 55.5502 80.1087 56.335 80.6256 56.8449L84.7713 60.9337L74.5408 71.0236L71.1607 67.6897C72.0303 65.0476 72.4832 62.2592 72.4832 59.4024C72.4832 56.4557 72.0021 53.5822 71.078 50.8667C73.0868 47.707 74.2515 43.9784 74.2515 39.9856C74.2515 28.6295 64.8532 19.3904 53.3013 19.3904C43.3482 19.3904 34.997 26.2502 32.8751 35.4122C31.0558 36.3105 29.3319 37.4122 27.7388 38.7078C27.0415 39.275 26.9438 40.2902 27.5207 40.9762C28.0978 41.6614 29.1303 41.7577 29.8282 41.1904C39.4311 33.3802 53.3309 34.0295 62.1607 42.7002C66.7037 47.1618 69.2059 53.0931 69.2059 59.4022C69.2059 65.7116 66.7039 71.6432 62.1607 76.1047C52.7758 85.3209 37.5128 85.309 28.1401 76.1047C20.5491 68.6498 18.8909 57.0114 24.1926 47.7942C24.6381 47.0198 24.3606 46.0369 23.5727 45.599C22.7847 45.1603 21.7849 45.4336 21.3396 46.2084C21.1657 46.5107 21 46.816 20.8392 47.1226H16.0338V32.8477H21.882C22.6165 32.8477 23.2611 32.3677 23.4595 31.6723C24.1169 29.3724 25.0546 27.1444 26.2467 25.0495C26.6044 24.4209 26.4942 23.6358 25.9773 23.1255L21.8316 19.0368L32.062 8.94631L36.2001 13.0257C36.7198 13.5378 37.5226 13.6472 38.1635 13.2926C40.2959 12.1145 42.5541 11.1907 44.8752 10.5474C45.5814 10.3518 46.0694 9.71825 46.0694 8.99684V3.22213H60.5335V8.99703C60.5335 9.71825 61.0212 10.352 61.7276 10.5476C64.0485 11.1909 66.3067 12.1147 68.4393 13.2928C69.0809 13.6472 69.8835 13.5381 70.4026 13.0259L74.5406 8.9465L84.7711 19.037L80.6254 23.1257C80.1083 23.6358 79.9983 24.4211 80.3559 25.0497C81.5481 27.1448 82.4858 29.3731 83.1431 31.6725C83.3417 32.3675 83.9866 32.8479 84.721 32.8479H90.5692V47.1226H90.5694Z" fill="url(#paint0_linear)"/>
<path d="M60.0656 44.5432C56.0751 40.6165 50.7692 38.4536 45.1254 38.4536C39.4817 38.4536 34.1761 40.6161 30.1856 44.5432C21.9492 52.6487 21.9492 65.8373 30.1858 73.9426C34.1763 77.8694 39.482 80.0323 45.1256 80.0323C50.769 80.0323 56.0753 77.8694 60.0654 73.9426C68.3024 65.8373 68.3024 52.6487 60.0656 44.5432ZM57.7472 71.6654C54.3757 74.983 49.8934 76.8102 45.1258 76.8102C40.3582 76.8102 35.8759 74.9829 32.5048 71.6654C25.544 64.8158 25.544 53.6702 32.5048 46.8205C35.8761 43.5029 40.3582 41.6759 45.1258 41.6759C49.8934 41.6759 54.3757 43.5031 57.7472 46.8205C64.7078 53.6706 64.7078 64.8158 57.7472 71.6654Z" fill="url(#paint1_linear)"/>
<path d="M56.1848 48.3634C53.2309 45.4567 49.3037 43.856 45.1261 43.856C40.9487 43.856 37.0214 45.4569 34.0679 48.3634C33.4283 48.9929 33.4289 50.0131 34.0693 50.6415C34.7091 51.2703 35.7465 51.2699 36.3863 50.6403C38.7208 48.3431 41.8246 47.0777 45.1259 47.0777C48.4271 47.0777 51.5311 48.3429 53.866 50.6403C54.1861 50.9552 54.6057 51.1127 55.0255 51.1127C55.4445 51.1127 55.8639 50.9558 56.1838 50.6415C56.824 50.0127 56.8246 48.9927 56.1848 48.3634Z" fill="url(#paint2_linear)"/>
<defs>
<linearGradient id="paint0_linear" x1="51.0483" y1="158.209" x2="146.149" y2="72.5401" gradientUnits="userSpaceOnUse">
<stop stop-color="#102397"/>
<stop offset="0.552714" stop-color="#187ADF"/>
<stop offset="1" stop-color="#00EAF8"/>
</linearGradient>
<linearGradient id="paint1_linear" x1="45.7033" y1="105.578" x2="86.2651" y2="64.2465" gradientUnits="userSpaceOnUse">
<stop stop-color="#102397"/>
<stop offset="0.552714" stop-color="#187ADF"/>
<stop offset="1" stop-color="#00EAF8"/>
</linearGradient>
<linearGradient id="paint2_linear" x1="45.442" y1="55.5713" x2="49.4842" y2="42.6773" gradientUnits="userSpaceOnUse">
<stop stop-color="#102397"/>
<stop offset="0.552714" stop-color="#187ADF"/>
<stop offset="1" stop-color="#00EAF8"/>
</linearGradient>
</defs>
</svg>
