<svg width="96" height="98" fill="none" xmlns="http://www.w3.org/2000/svg"><path d="M87.516 55.465V39.516a1.58 1.58 0 00-1.58-1.58H59.83l-10.25-10.25v-8.718h22.13a1.58 1.58 0 001.58-1.58V1.58A1.58 1.58 0 0071.71 0H24.29a1.58 1.58 0 00-1.58 1.58v15.807c0 .873.707 1.58 1.58 1.58h22.13v8.718l-10.25 10.25H10.064a1.58 1.58 0 00-1.581 1.581v15.949a9.473 9.473 0 000 18.683v4.884H2.16a1.58 1.58 0 00-1.58 1.58V96.42a1.58 1.58 0 001.58 1.581h15.807a1.58 1.58 0 001.58-1.58V80.612a1.58 1.58 0 00-1.58-1.58h-6.323v-4.885a9.473 9.473 0 000-18.683V41.097H36.17l10.25 10.25v4.118a9.484 9.484 0 103.162 0v-4.118l10.25-10.25h24.524v14.368a9.484 9.484 0 103.161 0zM25.871 3.16h44.258v12.646H25.871V3.16zm-9.484 91.68H3.742V82.194h12.645v12.645zm0-30.033a6.323 6.323 0 11-12.646 0 6.323 6.323 0 0112.646 0zm37.936 0a6.323 6.323 0 11-12.646 0 6.323 6.323 0 0112.646 0zM48 48.458l-8.942-8.942L48 30.574l8.942 8.942L48 48.458zM85.936 71.13a6.323 6.323 0 110-12.646 6.323 6.323 0 010 12.646z" fill="url(#paint0_linear)"/><defs><linearGradient id="paint0_linear" x1="49.297" y1="158.21" x2="144.875" y2="65.424" gradientUnits="userSpaceOnUse"><stop stop-color="#102397"/><stop offset=".553" stop-color="#187ADF"/><stop offset="1" stop-color="#00EAF8"/></linearGradient></defs></svg>