<svg width="98" height="98" fill="none" xmlns="http://www.w3.org/2000/svg"><path d="M90.097 7.903H7.903A7.913 7.913 0 000 15.807v44.258a7.912 7.912 0 007.903 7.903H40.78l-2.585 14.226h-8.163a1.58 1.58 0 00-1.58 1.58v4.742c0 .873.707 1.58 1.58 1.58h37.936a1.58 1.58 0 001.58-1.58v-4.742a1.58 1.58 0 00-1.58-1.58h-8.166L57.22 67.968h32.877A7.912 7.912 0 0098 60.065V15.807a7.913 7.913 0 00-7.903-7.904zM7.903 11.065h82.194a4.742 4.742 0 014.742 4.742v39.516H3.16V15.806a4.742 4.742 0 014.742-4.741zm58.484 75.87H31.613v-1.58h34.774v1.58zm-9.8-4.741H41.413L44 67.968h10.006l2.58 14.226zm33.51-17.388H7.903a4.742 4.742 0 01-4.742-4.741v-1.581H94.84v1.58a4.742 4.742 0 01-4.742 4.742z" fill="url(#paint0_linear)"/><path d="M18.968 60.065H9.484a1.58 1.58 0 000 3.16h9.484a1.58 1.58 0 000-3.16z" fill="url(#paint1_linear)"/><path d="M25.29 60.065h-1.58a1.58 1.58 0 000 3.16h1.58a1.58 1.58 0 000-3.16z" fill="url(#paint2_linear)"/><path d="M88.516 30.032H77.717a1.58 1.58 0 000 3.162h10.8a1.58 1.58 0 000-3.162z" fill="url(#paint3_linear)"/><path d="M34.774 33.194H71.17a1.58 1.58 0 000-3.162H34.774a1.58 1.58 0 000 3.162z" fill="url(#paint4_linear)"/><path d="M34.774 45.839h53.742a1.58 1.58 0 000-3.162H34.774a1.58 1.58 0 000 3.162z" fill="url(#paint5_linear)"/><path d="M88.516 36.355h-20.6a1.58 1.58 0 000 3.161h20.6a1.58 1.58 0 000-3.161z" fill="url(#paint6_linear)"/><path d="M34.774 39.516h26.951a1.58 1.58 0 100-3.161h-26.95a1.58 1.58 0 000 3.161z" fill="url(#paint7_linear)"/><path d="M34.774 52.161h45.839a1.58 1.58 0 000-3.161H34.774a1.58 1.58 0 000 3.161z" fill="url(#paint8_linear)"/><path d="M34.774 28.451h53.742a1.58 1.58 0 001.58-1.58V15.806a1.58 1.58 0 00-1.58-1.58H34.774a1.58 1.58 0 00-1.58 1.58v11.065c0 .873.707 1.58 1.58 1.58zm1.58-11.064h50.581v7.903h-50.58v-7.903z" fill="url(#paint9_linear)"/><path d="M18.968 52.161c6.11 0 11.064-4.953 11.064-11.064S25.08 30.032 18.968 30.032 7.903 34.986 7.903 41.097c.007 6.108 4.957 11.057 11.065 11.064zm0-18.968a7.904 7.904 0 11-7.903 7.904 7.913 7.913 0 017.903-7.904z" fill="url(#paint10_linear)"/><defs><linearGradient id="paint0_linear" x1="50.34" y1="140.595" x2="129.269" y2="46.192" gradientUnits="userSpaceOnUse"><stop stop-color="#102397"/><stop offset=".553" stop-color="#187ADF"/><stop offset="1" stop-color="#00EAF8"/></linearGradient><linearGradient id="paint1_linear" x1="14.399" y1="65.168" x2="15.846" y2="59.36" gradientUnits="userSpaceOnUse"><stop stop-color="#102397"/><stop offset=".553" stop-color="#187ADF"/><stop offset="1" stop-color="#00EAF8"/></linearGradient><linearGradient id="paint2_linear" x1="24.565" y1="65.168" x2="27.409" y2="60.889" gradientUnits="userSpaceOnUse"><stop stop-color="#102397"/><stop offset=".553" stop-color="#187ADF"/><stop offset="1" stop-color="#00EAF8"/></linearGradient><linearGradient id="paint3_linear" x1="83.308" y1="35.136" x2="84.633" y2="29.266" gradientUnits="userSpaceOnUse"><stop stop-color="#102397"/><stop offset=".553" stop-color="#187ADF"/><stop offset="1" stop-color="#00EAF8"/></linearGradient><linearGradient id="paint4_linear" x1="53.513" y1="35.136" x2="54.001" y2="29.006" gradientUnits="userSpaceOnUse"><stop stop-color="#102397"/><stop offset=".553" stop-color="#187ADF"/><stop offset="1" stop-color="#00EAF8"/></linearGradient><linearGradient id="paint5_linear" x1="62.423" y1="47.781" x2="62.764" y2="41.631" gradientUnits="userSpaceOnUse"><stop stop-color="#102397"/><stop offset=".553" stop-color="#187ADF"/><stop offset="1" stop-color="#00EAF8"/></linearGradient><linearGradient id="paint6_linear" x1="78.541" y1="41.459" x2="79.346" y2="35.396" gradientUnits="userSpaceOnUse"><stop stop-color="#102397"/><stop offset=".553" stop-color="#187ADF"/><stop offset="1" stop-color="#00EAF8"/></linearGradient><linearGradient id="paint7_linear" x1="48.661" y1="41.459" x2="49.3" y2="35.356" gradientUnits="userSpaceOnUse"><stop stop-color="#102397"/><stop offset=".553" stop-color="#187ADF"/><stop offset="1" stop-color="#00EAF8"/></linearGradient><linearGradient id="paint8_linear" x1="58.364" y1="54.103" x2="58.759" y2="47.96" gradientUnits="userSpaceOnUse"><stop stop-color="#102397"/><stop offset=".553" stop-color="#187ADF"/><stop offset="1" stop-color="#00EAF8"/></linearGradient><linearGradient id="paint9_linear" x1="62.423" y1="37.191" x2="68.937" y2="11.054" gradientUnits="userSpaceOnUse"><stop stop-color="#102397"/><stop offset=".553" stop-color="#187ADF"/><stop offset="1" stop-color="#00EAF8"/></linearGradient><linearGradient id="paint10_linear" x1="19.27" y1="65.757" x2="40.862" y2="44.098" gradientUnits="userSpaceOnUse"><stop stop-color="#102397"/><stop offset=".553" stop-color="#187ADF"/><stop offset="1" stop-color="#00EAF8"/></linearGradient></defs></svg>