<svg width="100" height="98" fill="none" xmlns="http://www.w3.org/2000/svg"><g clip-path="url(#clip0)"><path d="M90.416 6.744h-2.47c-.899 0-1.626.715-1.626 1.598 0 .882.728 1.597 1.625 1.597h2.471c.898 0 1.626-.715 1.626-1.597 0-.883-.728-1.598-1.626-1.598z" fill="url(#paint0_linear)"/><path d="M81.64 6.744h-2.472c-.898 0-1.626.715-1.626 1.598 0 .882.728 1.597 1.626 1.597h2.471c.898 0 1.626-.715 1.626-1.597 0-.883-.728-1.598-1.626-1.598z" fill="url(#paint1_linear)"/><path d="M72.645 6.744h-2.47c-.899 0-1.626.715-1.626 1.598 0 .882.728 1.597 1.625 1.597h2.471c.898 0 1.626-.715 1.626-1.597 0-.883-.728-1.598-1.626-1.598z" fill="url(#paint2_linear)"/><path d="M71.953 78.93H11.132c-.898 0-1.626.716-1.626 1.598 0 .883.728 1.598 1.626 1.598h60.82c.898 0 1.626-.715 1.626-1.598 0-.882-.727-1.597-1.625-1.597z" fill="url(#paint3_linear)"/><path d="M50.186 85.482H11.132c-.898 0-1.626.716-1.626 1.598 0 .883.728 1.598 1.626 1.598h39.054c.897 0 1.625-.715 1.625-1.598 0-.882-.727-1.598-1.625-1.598z" fill="url(#paint4_linear)"/><path d="M98.064.484H1.625C.728.484 0 1.2 0 2.082v93.836c0 .882.728 1.598 1.625 1.598h72.098c.898 0 1.625-.715 1.625-1.598 0-.883-.727-1.598-1.625-1.598H3.25V73.713h93.188V94.32H83.531c-.897 0-1.625.715-1.625 1.598 0 .883.728 1.598 1.625 1.598h14.533c.898 0 1.626-.715 1.626-1.598V2.082c0-.882-.728-1.598-1.626-1.598zM3.251 3.68h47.542v9.324H3.25V3.68zm93.188 66.837H3.25V16.2h93.188v54.318zm0-57.513H54.044V3.68h42.395v9.324z" fill="url(#paint5_linear)"/><path d="M34.245 6.744H9.253c-.897 0-1.625.715-1.625 1.598 0 .882.728 1.597 1.625 1.597h24.992c.898 0 1.626-.715 1.626-1.597 0-.883-.728-1.598-1.626-1.598z" fill="url(#paint6_linear)"/><path d="M26.226 44.74l7.52-7.393a1.579 1.579 0 000-2.26 1.645 1.645 0 00-2.3 0l-8.668 8.522a1.579 1.579 0 000 2.26l8.669 8.522c.317.312.733.468 1.149.468.416 0 .832-.156 1.15-.468a1.579 1.579 0 000-2.26l-7.52-7.392z" fill="url(#paint7_linear)"/><path d="M76.891 43.61l-8.668-8.523a1.646 1.646 0 00-2.299 0 1.579 1.579 0 000 2.26l7.52 7.392-7.52 7.392a1.579 1.579 0 000 2.26c.317.312.733.467 1.15.467a1.64 1.64 0 001.149-.467l8.669-8.522a1.579 1.579 0 000-2.26z" fill="url(#paint8_linear)"/><path d="M54.544 30.439c-.854-.271-1.77.188-2.047 1.028l-8.417 25.56c-.277.84.191 1.74 1.045 2.012.167.053.336.078.501.078.686 0 1.324-.43 1.546-1.106l8.418-25.56a1.592 1.592 0 00-1.046-2.012z" fill="url(#paint9_linear)"/></g><defs><linearGradient id="paint0_linear" x1="89.259" y1="11.903" x2="91.909" y2="7.142" gradientUnits="userSpaceOnUse"><stop stop-color="#102397"/><stop offset=".553" stop-color="#187ADF"/><stop offset="1" stop-color="#00EAF8"/></linearGradient><linearGradient id="paint1_linear" x1="80.482" y1="11.903" x2="83.132" y2="7.142" gradientUnits="userSpaceOnUse"><stop stop-color="#102397"/><stop offset=".553" stop-color="#187ADF"/><stop offset="1" stop-color="#00EAF8"/></linearGradient><linearGradient id="paint2_linear" x1="71.488" y1="11.903" x2="74.138" y2="7.142" gradientUnits="userSpaceOnUse"><stop stop-color="#102397"/><stop offset=".553" stop-color="#187ADF"/><stop offset="1" stop-color="#00EAF8"/></linearGradient><linearGradient id="paint3_linear" x1="42.418" y1="84.09" x2="42.728" y2="77.869" gradientUnits="userSpaceOnUse"><stop stop-color="#102397"/><stop offset=".553" stop-color="#187ADF"/><stop offset="1" stop-color="#00EAF8"/></linearGradient><linearGradient id="paint4_linear" x1="31.237" y1="90.641" x2="31.704" y2="84.441" gradientUnits="userSpaceOnUse"><stop stop-color="#102397"/><stop offset=".553" stop-color="#187ADF"/><stop offset="1" stop-color="#00EAF8"/></linearGradient><linearGradient id="paint5_linear" x1="51.208" y1="157.13" x2="145.84" y2="59.601" gradientUnits="userSpaceOnUse"><stop stop-color="#102397"/><stop offset=".553" stop-color="#187ADF"/><stop offset="1" stop-color="#00EAF8"/></linearGradient><linearGradient id="paint6_linear" x1="22.136" y1="11.903" x2="22.83" y2="5.745" gradientUnits="userSpaceOnUse"><stop stop-color="#102397"/><stop offset=".553" stop-color="#187ADF"/><stop offset="1" stop-color="#00EAF8"/></linearGradient><linearGradient id="paint7_linear" x1="28.425" y1="67.293" x2="45.721" y2="57.075" gradientUnits="userSpaceOnUse"><stop stop-color="#102397"/><stop offset=".553" stop-color="#187ADF"/><stop offset="1" stop-color="#00EAF8"/></linearGradient><linearGradient id="paint8_linear" x1="71.571" y1="67.293" x2="88.867" y2="57.074" gradientUnits="userSpaceOnUse"><stop stop-color="#102397"/><stop offset=".553" stop-color="#187ADF"/><stop offset="1" stop-color="#00EAF8"/></linearGradient><linearGradient id="paint9_linear" x1="49.994" y1="76.784" x2="69.59" y2="68.808" gradientUnits="userSpaceOnUse"><stop stop-color="#102397"/><stop offset=".553" stop-color="#187ADF"/><stop offset="1" stop-color="#00EAF8"/></linearGradient><clipPath id="clip0"><path fill="#fff" d="M0 0h99.69v98H0z"/></clipPath></defs></svg>