<svg width="98" height="98" fill="none" xmlns="http://www.w3.org/2000/svg"><path d="M39.516 39.516c-10.475 0-18.967 8.492-18.967 18.968 0 10.476 8.492 18.968 18.967 18.968 10.476 0 18.968-8.492 18.968-18.968-.012-10.471-8.497-18.956-18.968-18.968zm0 34.774c-8.73 0-15.806-7.076-15.806-15.806s7.076-15.807 15.806-15.807 15.807 7.077 15.807 15.807c-.01 8.726-7.08 15.797-15.807 15.806z" fill="url(#paint0_linear)"/><path d="M39.516 44.258c-7.857 0-14.226 6.369-14.226 14.226 0 7.857 6.369 14.225 14.226 14.225 7.857 0 14.226-6.368 14.226-14.225-.009-7.853-6.373-14.218-14.226-14.226zm0 25.29c-6.111 0-11.064-4.953-11.064-11.064s4.953-11.065 11.064-11.065 11.065 4.954 11.065 11.065c-.008 6.108-4.957 11.057-11.065 11.064z" fill="url(#paint1_linear)"/><path d="M96.42 0H60.064a1.58 1.58 0 00-1.581 1.58v28.478L54.86 33.68a29.314 29.314 0 00-9.022-3.734v-9.399a1.58 1.58 0 00-1.58-1.58h-9.485a1.58 1.58 0 00-1.58 1.58v9.399a29.314 29.314 0 00-9.023 3.734l-6.646-6.64a1.582 1.582 0 00-2.236 0L8.06 34.256a1.58 1.58 0 000 2.235l6.647 6.647a29.334 29.334 0 00-3.73 9.022H1.58A1.58 1.58 0 000 53.741v9.485c0 .873.708 1.58 1.58 1.58h9.397a29.337 29.337 0 003.736 9.023l-6.64 6.639a1.58 1.58 0 000 2.234l7.225 7.224a1.58 1.58 0 002.234 0l6.647-6.639a29.321 29.321 0 009.015 3.734v9.398A1.58 1.58 0 0034.774 98h9.484a1.58 1.58 0 001.58-1.58v-9.4a29.316 29.316 0 009.023-3.734l6.64 6.64a1.58 1.58 0 002.233 0l7.224-7.225a1.58 1.58 0 000-2.234l-6.638-6.64a29.34 29.34 0 003.735-9.022h9.397a1.58 1.58 0 001.58-1.58v-9.484a1.58 1.58 0 00-1.58-1.58h-9.4A29.469 29.469 0 0067.103 49h13.51v7.903a1.581 1.581 0 002.698 1.118L92.331 49h4.088A1.58 1.58 0 0098 47.42V1.58A1.58 1.58 0 0096.42 0zM65.211 54.031c.14.749.793 1.292 1.555 1.292h9.104v6.322h-9.104c-.763 0-1.416.545-1.555 1.294a26.267 26.267 0 01-4.221 10.202 1.58 1.58 0 00.185 2.014l6.438 6.438-4.989 4.988-6.438-6.442a1.58 1.58 0 00-2.014-.185 26.278 26.278 0 01-10.201 4.222 1.581 1.581 0 00-1.295 1.559v9.104h-6.322v-9.104a1.58 1.58 0 00-1.294-1.555 26.278 26.278 0 01-10.202-4.222 1.58 1.58 0 00-2.014.186l-6.438 6.437-4.988-4.988 6.442-6.438a1.58 1.58 0 00.185-2.014 26.265 26.265 0 01-4.221-10.202 1.581 1.581 0 00-1.56-1.294H3.161v-6.322h9.104a1.58 1.58 0 001.555-1.295 26.266 26.266 0 014.222-10.201 1.58 1.58 0 00-.186-2.014l-6.437-6.438 4.988-4.988 6.438 6.442a1.58 1.58 0 002.014.185 26.278 26.278 0 0110.201-4.222 1.581 1.581 0 001.295-1.559V22.13h6.322v9.104c0 .763.545 1.416 1.295 1.555a26.278 26.278 0 0110.201 4.221 1.58 1.58 0 002.014-.185l2.297-2.296V47.42c0 .873.708 1.581 1.58 1.581h3.673a26.017 26.017 0 011.475 5.031zM94.84 45.84h-3.162c-.419 0-.82.166-1.117.463l-6.786 6.785V47.42a1.58 1.58 0 00-1.58-1.58h-20.55V3.16H94.84v42.68z" fill="url(#paint2_linear)"/><path d="M64.807 9.484h26.87a1.58 1.58 0 000-3.161h-26.87a1.58 1.58 0 000 3.161z" fill="url(#paint3_linear)"/><path d="M91.677 12.645H80.613a1.58 1.58 0 000 3.161h11.064a1.58 1.58 0 000-3.161z" fill="url(#paint4_linear)"/><path d="M64.807 15.806h9.483a1.58 1.58 0 000-3.161h-9.483a1.58 1.58 0 000 3.161z" fill="url(#paint5_linear)"/><path d="M90.097 18.968h-1.58a1.58 1.58 0 000 3.161h1.58a1.58 1.58 0 000-3.161z" fill="url(#paint6_linear)"/><path d="M64.807 22.13h18.967a1.58 1.58 0 000-3.162H64.807a1.58 1.58 0 000 3.161z" fill="url(#paint7_linear)"/><defs><linearGradient id="paint0_linear" x1="40.035" y1="100.759" x2="77.049" y2="63.628" gradientUnits="userSpaceOnUse"><stop stop-color="#102397"/><stop offset=".553" stop-color="#187ADF"/><stop offset="1" stop-color="#00EAF8"/></linearGradient><linearGradient id="paint1_linear" x1="39.905" y1="90.19" x2="67.666" y2="62.342" gradientUnits="userSpaceOnUse"><stop stop-color="#102397"/><stop offset=".553" stop-color="#187ADF"/><stop offset="1" stop-color="#00EAF8"/></linearGradient><linearGradient id="paint2_linear" x1="50.34" y1="158.21" x2="145.96" y2="62.29" gradientUnits="userSpaceOnUse"><stop stop-color="#102397"/><stop offset=".553" stop-color="#187ADF"/><stop offset="1" stop-color="#00EAF8"/></linearGradient><linearGradient id="paint3_linear" x1="78.653" y1="11.426" x2="79.293" y2="5.324" gradientUnits="userSpaceOnUse"><stop stop-color="#102397"/><stop offset=".553" stop-color="#187ADF"/><stop offset="1" stop-color="#00EAF8"/></linearGradient><linearGradient id="paint4_linear" x1="86.34" y1="17.748" x2="87.642" y2="11.868" gradientUnits="userSpaceOnUse"><stop stop-color="#102397"/><stop offset=".553" stop-color="#187ADF"/><stop offset="1" stop-color="#00EAF8"/></linearGradient><linearGradient id="paint5_linear" x1="69.721" y1="17.748" x2="71.169" y2="11.94" gradientUnits="userSpaceOnUse"><stop stop-color="#102397"/><stop offset=".553" stop-color="#187ADF"/><stop offset="1" stop-color="#00EAF8"/></linearGradient><linearGradient id="paint6_linear" x1="89.371" y1="24.071" x2="92.215" y2="19.792" gradientUnits="userSpaceOnUse"><stop stop-color="#102397"/><stop offset=".553" stop-color="#187ADF"/><stop offset="1" stop-color="#00EAF8"/></linearGradient><linearGradient id="paint7_linear" x1="74.593" y1="24.071" x2="75.454" y2="18.025" gradientUnits="userSpaceOnUse"><stop stop-color="#102397"/><stop offset=".553" stop-color="#187ADF"/><stop offset="1" stop-color="#00EAF8"/></linearGradient></defs></svg>