<svg width="100" height="98" fill="none" xmlns="http://www.w3.org/2000/svg"><g clip-path="url(#clip0)"><path d="M46.138 8.191H31.411c-.898 0-1.626.716-1.626 1.598 0 .883.728 1.598 1.626 1.598h14.727c.898 0 1.626-.715 1.626-1.598 0-.882-.728-1.598-1.626-1.598z" fill="url(#paint0_linear)"/><path d="M60.612 8.191h-1.974c-.897 0-1.625.716-1.625 1.598 0 .883.728 1.598 1.625 1.598h1.974c.898 0 1.626-.715 1.626-1.598 0-.882-.728-1.598-1.626-1.598z" fill="url(#paint1_linear)"/><path d="M43.433 87.04h-9.318c-.898 0-1.625.715-1.625 1.597 0 .883.727 1.598 1.625 1.598h9.318c.898 0 1.626-.715 1.626-1.598 0-.882-.728-1.597-1.626-1.597z" fill="url(#paint2_linear)"/><path d="M83.62 50.837a1.645 1.645 0 00-2.298 0L67.577 64.35a1.579 1.579 0 000 2.26 1.64 1.64 0 001.15.467c.415 0 .832-.156 1.149-.468L83.62 53.097a1.579 1.579 0 000-2.26z" fill="url(#paint3_linear)"/><path d="M83.62 60.058a1.646 1.646 0 00-2.298 0L67.577 73.57a1.579 1.579 0 000 2.26c.318.312.734.468 1.15.468.415 0 .832-.156 1.149-.468L83.62 62.318a1.579 1.579 0 000-2.26z" fill="url(#paint4_linear)"/><path d="M95.906 72.177c.897 0 1.625-.715 1.625-1.598V39.406c0-4.935-4.084-8.95-9.103-8.95H75.39V6.304C75.39 2.828 72.513 0 68.977 0H8.572C5.036 0 2.159 2.828 2.159 6.304v55.031c0 .883.728 1.598 1.625 1.598.898 0 1.626-.715 1.626-1.598V18.063h66.729v12.393h-8.5c-5.02 0-9.103 4.015-9.103 8.95v39.35H5.41v-7.8c0-.883-.728-1.598-1.626-1.598-.897 0-1.625.715-1.625 1.598v20.74C2.159 95.172 5.036 98 8.572 98h54.926v-.003l.141.003h24.788c5.02 0 9.104-4.014 9.104-8.949v-9.92c0-.883-.728-1.598-1.626-1.598-.897 0-1.625.715-1.625 1.598v4.781H57.787v-40.17H94.28V70.58c0 .883.728 1.598 1.626 1.598zM8.572 94.804c-1.744 0-3.162-1.395-3.162-3.109v-9.743h49.126v7.099c0 2.19.805 4.196 2.138 5.753H8.572zm49.215-7.696H94.28v1.943c0 3.172-2.626 5.753-5.852 5.753H63.64c-3.228 0-5.853-2.58-5.853-5.753v-1.943zM5.41 14.868V6.303c0-1.714 1.418-3.108 3.162-3.108h60.405c1.743 0 3.162 1.394 3.162 3.108v8.563H5.409zm88.87 25.68H57.787v-1.142c0-3.173 2.625-5.754 5.852-5.754h24.788c3.227 0 5.853 2.581 5.853 5.754v1.141z" fill="url(#paint5_linear)"/><path d="M82.198 36.016h-12.33c-.897 0-1.625.715-1.625 1.598 0 .883.728 1.598 1.626 1.598h12.329c.898 0 1.625-.716 1.625-1.598 0-.883-.727-1.598-1.625-1.598z" fill="url(#paint6_linear)"/><path d="M78.235 89.534h-4.404c-.897 0-1.625.715-1.625 1.598 0 .883.728 1.598 1.625 1.598h4.404c.898 0 1.626-.715 1.626-1.598 0-.883-.728-1.598-1.626-1.598z" fill="url(#paint7_linear)"/><path d="M46.795 34.712a1.645 1.645 0 00-2.298 0L30.752 48.224a1.579 1.579 0 000 2.26c.317.312.733.468 1.15.468.415 0 .831-.156 1.149-.468l13.745-13.512a1.579 1.579 0 000-2.26z" fill="url(#paint8_linear)"/><path d="M46.795 43.933a1.645 1.645 0 00-2.298 0L30.752 57.445a1.579 1.579 0 000 2.26c.317.312.733.467 1.15.467a1.64 1.64 0 001.149-.467l13.745-13.513a1.579 1.579 0 000-2.26z" fill="url(#paint9_linear)"/></g><defs><linearGradient id="paint0_linear" x1="39.02" y1="13.351" x2="40.092" y2="7.304" gradientUnits="userSpaceOnUse"><stop stop-color="#102397"/><stop offset=".553" stop-color="#187ADF"/><stop offset="1" stop-color="#00EAF8"/></linearGradient><linearGradient id="paint1_linear" x1="59.697" y1="13.351" x2="62.469" y2="8.804" gradientUnits="userSpaceOnUse"><stop stop-color="#102397"/><stop offset=".553" stop-color="#187ADF"/><stop offset="1" stop-color="#00EAF8"/></linearGradient><linearGradient id="paint2_linear" x1="38.946" y1="92.199" x2="40.431" y2="86.339" gradientUnits="userSpaceOnUse"><stop stop-color="#102397"/><stop offset=".553" stop-color="#187ADF"/><stop offset="1" stop-color="#00EAF8"/></linearGradient><linearGradient id="paint3_linear" x1="75.832" y1="77.342" x2="92.13" y2="60.711" gradientUnits="userSpaceOnUse"><stop stop-color="#102397"/><stop offset=".553" stop-color="#187ADF"/><stop offset="1" stop-color="#00EAF8"/></linearGradient><linearGradient id="paint4_linear" x1="75.831" y1="86.562" x2="92.13" y2="69.931" gradientUnits="userSpaceOnUse"><stop stop-color="#102397"/><stop offset=".553" stop-color="#187ADF"/><stop offset="1" stop-color="#00EAF8"/></linearGradient><linearGradient id="paint5_linear" x1="51.149" y1="158.21" x2="146.742" y2="64.889" gradientUnits="userSpaceOnUse"><stop stop-color="#102397"/><stop offset=".553" stop-color="#187ADF"/><stop offset="1" stop-color="#00EAF8"/></linearGradient><linearGradient id="paint6_linear" x1="76.246" y1="41.175" x2="77.47" y2="35.189" gradientUnits="userSpaceOnUse"><stop stop-color="#102397"/><stop offset=".553" stop-color="#187ADF"/><stop offset="1" stop-color="#00EAF8"/></linearGradient><linearGradient id="paint7_linear" x1="76.138" y1="94.693" x2="78.35" y2="89.378" gradientUnits="userSpaceOnUse"><stop stop-color="#102397"/><stop offset=".553" stop-color="#187ADF"/><stop offset="1" stop-color="#00EAF8"/></linearGradient><linearGradient id="paint8_linear" x1="39.006" y1="61.216" x2="55.304" y2="44.585" gradientUnits="userSpaceOnUse"><stop stop-color="#102397"/><stop offset=".553" stop-color="#187ADF"/><stop offset="1" stop-color="#00EAF8"/></linearGradient><linearGradient id="paint9_linear" x1="39.006" y1="70.437" x2="55.304" y2="53.806" gradientUnits="userSpaceOnUse"><stop stop-color="#102397"/><stop offset=".553" stop-color="#187ADF"/><stop offset="1" stop-color="#00EAF8"/></linearGradient><clipPath id="clip0"><path fill="#fff" d="M0 0h99.69v98H0z"/></clipPath></defs></svg>