<svg width="98" height="98" fill="none" xmlns="http://www.w3.org/2000/svg"><path d="M88.88 12.162h-2.43a1.598 1.598 0 000 3.195h2.43a1.598 1.598 0 000-3.195z" fill="url(#paint0_linear)"/><path d="M80.251 12.162h-2.429a1.598 1.598 0 100 3.195h2.43a1.598 1.598 0 000-3.195z" fill="url(#paint1_linear)"/><path d="M71.41 12.162h-2.429a1.598 1.598 0 100 3.195h2.43a1.598 1.598 0 000-3.195z" fill="url(#paint2_linear)"/><path d="M89.102 47.478v-19.98c0-.883-.716-1.598-1.598-1.598H10.497c-.883 0-1.598.716-1.598 1.598v19.998c0 .883.715 1.598 1.598 1.598h77.007c.055 0 .11-.003.164-.008.02-.002.04-.007.061-.01.033-.004.065-.008.097-.014a1.6 1.6 0 001.276-1.567v-.017zm-77.007-1.58V29.097h54.749L83.648 45.9H12.095zm73.81-2.26L71.364 29.095h14.543v14.541z" fill="url(#paint3_linear)"/><path d="M44.31 53.363H10.056c-.882 0-1.598.716-1.598 1.598v27.296c0 .883.716 1.598 1.598 1.598H44.31c.882 0 1.597-.715 1.597-1.598V54.961c0-.882-.715-1.598-1.597-1.598zm-1.597 3.196v10.77l-10.77-10.77h10.77zm0 24.1h-31.06v-24.1h15.77l15.29 15.29v8.81z" fill="url(#paint4_linear)"/><path d="M96.402 6.736H1.598C.715 6.736 0 7.452 0 8.334v81.332c0 .883.715 1.598 1.598 1.598h70.644a1.598 1.598 0 100-3.196H3.195V20.783h91.608v67.285h-12.92a1.598 1.598 0 100 3.196h14.518c.883 0 1.598-.715 1.598-1.598V8.334c0-.882-.715-1.598-1.598-1.598zM55.615 17.587H3.195V9.932h52.42v7.655zm39.19 0H58.81V9.932h35.995v7.655z" fill="url(#paint5_linear)"/><path d="M61.914 54.163h-9.403c-.883 0-1.598.716-1.598 1.598v9.392c0 .882.715 1.598 1.598 1.598h9.403c.883 0 1.598-.716 1.598-1.598v-9.392c0-.882-.715-1.598-1.598-1.598zm-1.598 9.392H54.11V57.36h6.207v6.196z" fill="url(#paint6_linear)"/><path d="M61.914 71.046h-9.403c-.883 0-1.598.716-1.598 1.598v9.392c0 .882.715 1.598 1.598 1.598h9.403c.883 0 1.598-.716 1.598-1.598v-9.392c0-.882-.715-1.598-1.598-1.598zm-1.598 9.392H54.11v-6.196h6.207v6.196z" fill="url(#paint7_linear)"/><path d="M85.105 57.094H69.81a1.598 1.598 0 100 3.195h15.296a1.598 1.598 0 000-3.195z" fill="url(#paint8_linear)"/><path d="M85.105 62.611H69.81a1.598 1.598 0 000 3.196h15.296a1.598 1.598 0 000-3.196z" fill="url(#paint9_linear)"/><path d="M85.105 72.543H69.81a1.598 1.598 0 100 3.196h15.296a1.598 1.598 0 000-3.196z" fill="url(#paint10_linear)"/><path d="M85.105 78.061H69.81a1.598 1.598 0 000 3.196h15.296a1.598 1.598 0 000-3.196z" fill="url(#paint11_linear)"/><path d="M33.662 12.162H9.093a1.598 1.598 0 000 3.195h24.569a1.598 1.598 0 100-3.195z" fill="url(#paint12_linear)"/><defs><linearGradient id="paint0_linear" x1="87.742" y1="17.321" x2="90.416" y2="12.599" gradientUnits="userSpaceOnUse"><stop stop-color="#102397"/><stop offset=".553" stop-color="#187ADF"/><stop offset="1" stop-color="#00EAF8"/></linearGradient><linearGradient id="paint1_linear" x1="79.114" y1="17.321" x2="81.788" y2="12.599" gradientUnits="userSpaceOnUse"><stop stop-color="#102397"/><stop offset=".553" stop-color="#187ADF"/><stop offset="1" stop-color="#00EAF8"/></linearGradient><linearGradient id="paint2_linear" x1="70.273" y1="17.321" x2="72.947" y2="12.599" gradientUnits="userSpaceOnUse"><stop stop-color="#102397"/><stop offset=".553" stop-color="#187ADF"/><stop offset="1" stop-color="#00EAF8"/></linearGradient><linearGradient id="paint3_linear" x1="50.097" y1="63.344" x2="62.145" y2="21.555" gradientUnits="userSpaceOnUse"><stop stop-color="#102397"/><stop offset=".553" stop-color="#187ADF"/><stop offset="1" stop-color="#00EAF8"/></linearGradient><linearGradient id="paint4_linear" x1="27.695" y1="102.589" x2="56.81" y2="66.716" gradientUnits="userSpaceOnUse"><stop stop-color="#102397"/><stop offset=".553" stop-color="#187ADF"/><stop offset="1" stop-color="#00EAF8"/></linearGradient><linearGradient id="paint5_linear" x1="50.34" y1="143.197" x2="131.884" y2="48.36" gradientUnits="userSpaceOnUse"><stop stop-color="#102397"/><stop offset=".553" stop-color="#187ADF"/><stop offset="1" stop-color="#00EAF8"/></linearGradient><linearGradient id="paint6_linear" x1="57.385" y1="74.485" x2="69.667" y2="62.153" gradientUnits="userSpaceOnUse"><stop stop-color="#102397"/><stop offset=".553" stop-color="#187ADF"/><stop offset="1" stop-color="#00EAF8"/></linearGradient><linearGradient id="paint7_linear" x1="57.385" y1="91.368" x2="69.667" y2="79.036" gradientUnits="userSpaceOnUse"><stop stop-color="#102397"/><stop offset=".553" stop-color="#187ADF"/><stop offset="1" stop-color="#00EAF8"/></linearGradient><linearGradient id="paint8_linear" x1="77.71" y1="62.253" x2="78.754" y2="56.196" gradientUnits="userSpaceOnUse"><stop stop-color="#102397"/><stop offset=".553" stop-color="#187ADF"/><stop offset="1" stop-color="#00EAF8"/></linearGradient><linearGradient id="paint9_linear" x1="77.71" y1="67.77" x2="78.754" y2="61.714" gradientUnits="userSpaceOnUse"><stop stop-color="#102397"/><stop offset=".553" stop-color="#187ADF"/><stop offset="1" stop-color="#00EAF8"/></linearGradient><linearGradient id="paint10_linear" x1="77.71" y1="77.703" x2="78.754" y2="71.646" gradientUnits="userSpaceOnUse"><stop stop-color="#102397"/><stop offset=".553" stop-color="#187ADF"/><stop offset="1" stop-color="#00EAF8"/></linearGradient><linearGradient id="paint11_linear" x1="77.71" y1="83.22" x2="78.754" y2="77.164" gradientUnits="userSpaceOnUse"><stop stop-color="#102397"/><stop offset=".553" stop-color="#187ADF"/><stop offset="1" stop-color="#00EAF8"/></linearGradient><linearGradient id="paint12_linear" x1="21.757" y1="17.321" x2="22.464" y2="11.166" gradientUnits="userSpaceOnUse"><stop stop-color="#102397"/><stop offset=".553" stop-color="#187ADF"/><stop offset="1" stop-color="#00EAF8"/></linearGradient></defs></svg>