<svg width="98" height="98" fill="none" xmlns="http://www.w3.org/2000/svg"><path d="M97.984 5.75a5.87 5.87 0 00-2.339-4.554A5.86 5.86 0 0092.25.015c-4.231-.102-8.625.322-13.056 1.27-.005 0-.01.002-.014.003-12.605 2.664-25.716 9.568-36.969 20.776-6.302 6.277-11.549 13.524-15.32 21.131-.5-.5-1.23-1.282-2.55-2.03-3.902-2.2-8.843-1.522-12.013 1.648L1.96 53.18a6.695 6.695 0 000 9.457 6.622 6.622 0 002.168 1.448 6.64 6.64 0 002.56.51h13.721c-.298 2.6-.41 5.169-.33 7.68.1 3.07 2.58 5.55 5.647 5.646.53.017 1.061.026 1.595.026 2 0 4.033-.12 6.085-.356v13.725c.002.888.174 1.748.508 2.552a6.625 6.625 0 001.45 2.173A6.643 6.643 0 0040.092 98a6.645 6.645 0 004.728-1.96l10.367-10.367a10.063 10.063 0 001.647-12.018c-.744-1.31-1.53-2.046-2.029-2.545 7.608-3.771 14.855-9.018 21.132-15.32a83.786 83.786 0 007.252-8.307 1.598 1.598 0 00-2.542-1.937 80.532 80.532 0 01-6.975 7.989C59.94 67.327 42.048 75.249 25.827 74.728a2.646 2.646 0 01-2.555-2.556c-.521-16.222 7.401-34.108 21.194-47.844 10.556-10.514 22.76-17.057 34.55-19.73l14.388 14.387c-1.446 6.346-3.954 12.498-7.194 18.174a1.597 1.597 0 102.775 1.584c3.848-6.74 6.397-13.606 7.732-19.935.945-4.426 1.372-8.82 1.267-13.058zM36.601 77.132c4.899-.84 9.985-2.338 15.12-4.586 1.252 1.251 1.766 1.686 2.33 2.682a6.856 6.856 0 01-1.123 8.186L42.56 93.78a3.495 3.495 0 01-5.695-1.134 3.484 3.484 0 01-.264-1.334v-14.18zM20.866 61.399H6.687a3.46 3.46 0 01-1.338-.267 3.495 3.495 0 01-1.13-5.693l10.368-10.367a6.849 6.849 0 018.18-1.126c1.002.568 1.432 1.077 2.687 2.333-2.261 5.166-3.753 10.251-4.588 15.12zM94.734 9.558a53.498 53.498 0 01-.597 5.64l-9.904-9.904-1.43-1.43.147-.026a52.394 52.394 0 016.09-.601c1.721-.068 4.154-.51 5.282 1.143.91 1.33.492 3.655.412 5.178z" fill="url(#paint0_linear)"/><path d="M77.504 20.495c-4.038-4.038-10.609-4.038-14.647 0-3.654 3.654-4 9.38-1.042 13.429L41.509 54.23a1.598 1.598 0 002.26 2.26l20.306-20.306a10.34 10.34 0 006.105 1.986c2.652 0 5.304-1.01 7.324-3.029 4.038-4.038 4.038-10.608 0-14.646zm-2.26 12.387c-2.792 2.791-7.334 2.791-10.126.001l-.001-.002h-.002c-2.79-2.793-2.79-7.335.002-10.126a7.138 7.138 0 015.063-2.095c1.834 0 3.668.698 5.064 2.095 2.792 2.792 2.792 7.335 0 10.127z" fill="url(#paint1_linear)"/><defs><linearGradient id="paint0_linear" x1="50.342" y1="158.209" x2="145.961" y2="62.294" gradientUnits="userSpaceOnUse"><stop stop-color="#102397"/><stop offset=".553" stop-color="#187ADF"/><stop offset="1" stop-color="#00EAF8"/></linearGradient><linearGradient id="paint1_linear" x1="61.327" y1="81.22" x2="99.858" y2="42.567" gradientUnits="userSpaceOnUse"><stop stop-color="#102397"/><stop offset=".553" stop-color="#187ADF"/><stop offset="1" stop-color="#00EAF8"/></linearGradient></defs></svg>