<svg width="100" height="98" fill="none" xmlns="http://www.w3.org/2000/svg"><path d="M92.208 29.626H85.94a33.372 33.372 0 00-2.134-5.071l4.441-4.38a1.592 1.592 0 000-2.276L75.702 5.527a1.654 1.654 0 00-1.16-.474c-.436 0-.854.17-1.161.474L68.944 9.9a34.395 34.395 0 00-5.133-2.1V1.61c0-.89-.733-1.611-1.639-1.611H44.431c-.905 0-1.64.721-1.64 1.611V7.8a34.391 34.391 0 00-5.132 2.1l-4.437-4.374a1.655 1.655 0 00-1.16-.474c-.436 0-.853.171-1.16.474L18.356 17.9a1.592 1.592 0 000 2.274l4.442 4.38a33.417 33.417 0 00-2.135 5.072h-6.269c-.905 0-1.639.72-1.639 1.61v17.497c0 .89.734 1.611 1.639 1.611h5.022c-3.029 8.324-1.666 17.679 3.636 24.848l-3.362 3.303-.338-.332a1.659 1.659 0 00-2.317 0L6.323 88.695a1.594 1.594 0 000 2.279l6.668 6.554c.32.315.74.472 1.159.472.419 0 .838-.157 1.158-.472l10.713-10.531c.64-.63.64-1.65 0-2.279l-.338-.332 3.356-3.297c4.78 3.429 10.446 5.144 16.112 5.144 6.999 0 13.998-2.616 19.326-7.849a26.88 26.88 0 005.363-7.433l3.54 3.493a1.66 1.66 0 002.322-.001l12.544-12.372a1.592 1.592 0 000-2.275l-4.442-4.38a33.454 33.454 0 002.135-5.072h6.27c.905 0 1.638-.72 1.638-1.61V31.236c0-.89-.734-1.611-1.639-1.611zM14.15 94.11L9.8 89.834l8.396-8.253.334.328.003.004 3.674 3.612.004.003.335.33-8.396 8.253zm9.217-12.003l-1.357-1.335 3.134-3.08a31.487 31.487 0 001.357 1.334l-3.134 3.08zm46.072-35.043a26.948 26.948 0 00-4.96-6.644c-4.844-4.757-11.277-7.54-18.114-7.836a27.868 27.868 0 00-9.59 1.261c2.529-6.558 8.98-11.234 16.527-11.234 9.745 0 17.673 7.794 17.673 17.374 0 2.52-.55 4.915-1.536 7.079zm21.131.058h-5.848c-.734 0-1.379.48-1.578 1.175a30.225 30.225 0 01-2.787 6.624 1.59 1.59 0 00.27 1.923l4.145 4.089-10.23 10.09-3.38-3.334a26.468 26.468 0 001.322-8.288c0-2.946-.48-5.82-1.405-8.535a20.21 20.21 0 003.173-10.881c0-11.356-9.398-20.596-20.95-20.596-9.953 0-18.304 6.86-20.426 16.022-1.82.898-3.543 2-5.136 3.296a1.593 1.593 0 00-.218 2.268c.577.685 1.61.782 2.307.214 9.603-7.81 23.503-7.16 32.333 1.51 4.543 4.462 7.045 10.393 7.045 16.702 0 6.31-2.502 12.241-7.045 16.703-9.385 9.216-24.648 9.204-34.02 0-7.592-7.455-9.25-19.094-3.948-28.31a1.596 1.596 0 00-.62-2.196 1.653 1.653 0 00-2.233.61c-.174.302-.34.607-.5.914h-4.806V32.848h5.848c.734 0 1.38-.48 1.577-1.176a30.176 30.176 0 012.788-6.623 1.591 1.591 0 00-.27-1.924l-4.145-4.088 10.23-10.09 4.138 4.079a1.66 1.66 0 001.963.267 31.05 31.05 0 016.712-2.746 1.615 1.615 0 001.194-1.55V3.222h14.464v5.775c0 .721.488 1.355 1.195 1.55a31.102 31.102 0 016.711 2.746 1.66 1.66 0 001.964-.267l4.138-4.08 10.23 10.091-4.146 4.089a1.59 1.59 0 00-.27 1.924 30.18 30.18 0 012.788 6.622 1.635 1.635 0 001.578 1.176h5.848v14.275z" fill="url(#paint0_linear)"/><path d="M60.066 44.543c-3.99-3.926-9.297-6.09-14.94-6.09-5.644 0-10.95 2.163-14.94 6.09a20.578 20.578 0 000 29.4c3.99 3.926 9.296 6.09 14.94 6.09 5.643 0 10.95-2.164 14.94-6.09a20.578 20.578 0 000-29.4zm-2.319 27.122c-3.371 3.318-7.854 5.145-12.621 5.145-4.768 0-9.25-1.827-12.621-5.145a17.39 17.39 0 010-24.845c3.371-3.317 7.853-5.144 12.62-5.144 4.768 0 9.25 1.827 12.622 5.145a17.39 17.39 0 010 24.844z" fill="url(#paint1_linear)"/><path d="M56.185 48.363c-2.954-2.906-6.881-4.507-11.059-4.507-4.177 0-8.105 1.6-11.058 4.507-.64.63-.64 1.65.001 2.279.64.628 1.677.628 2.317-.002 2.335-2.297 5.439-3.562 8.74-3.562s6.405 1.265 8.74 3.562c.32.315.74.473 1.16.473a1.65 1.65 0 001.158-.471c.64-.63.64-1.65 0-2.279z" fill="url(#paint2_linear)"/><defs><linearGradient id="paint0_linear" x1="51.048" y1="158.209" x2="146.149" y2="72.54" gradientUnits="userSpaceOnUse"><stop stop-color="#102397"/><stop offset=".553" stop-color="#187ADF"/><stop offset="1" stop-color="#00EAF8"/></linearGradient><linearGradient id="paint1_linear" x1="45.703" y1="105.578" x2="86.265" y2="64.246" gradientUnits="userSpaceOnUse"><stop stop-color="#102397"/><stop offset=".553" stop-color="#187ADF"/><stop offset="1" stop-color="#00EAF8"/></linearGradient><linearGradient id="paint2_linear" x1="45.442" y1="55.571" x2="49.484" y2="42.677" gradientUnits="userSpaceOnUse"><stop stop-color="#102397"/><stop offset=".553" stop-color="#187ADF"/><stop offset="1" stop-color="#00EAF8"/></linearGradient></defs></svg>