<svg width="789" height="813" viewBox="0 0 789 813" fill="none" xmlns="http://www.w3.org/2000/svg">
<g opacity="0.1">
<g opacity="0.3">
<path opacity="0.3" d="M532.923 395.518L214.28 534.157C205.94 537.789 195.59 532.994 190.459 523.12L111.839 387.513C106.073 376.405 109.177 363.357 118.574 359.267L470.189 206.257C479.587 202.167 491.241 208.779 495.438 220.592L541.087 370.551C544.807 381.025 541.263 391.886 532.923 395.518Z" fill="#444444"/>
</g>
<g opacity="0.3">
<path opacity="0.3" d="M631.503 626.266L315.945 763.583C305.543 768.115 293.447 763.354 288.916 752.951L207.227 565.242C202.696 554.84 207.457 542.744 217.859 538.213L533.417 400.896C543.82 396.364 555.915 401.125 560.447 411.528L642.135 599.237C646.666 609.64 641.906 621.735 631.503 626.266Z" fill="#444444"/>
</g>
</g>
<path opacity="0.1" d="M643.387 601.828L561.698 414.12C561.416 413.485 561.117 412.868 560.782 412.286L560.447 411.528C555.915 401.125 543.82 396.364 533.417 400.896L506.793 412.48C506.652 411.986 506.475 411.475 506.264 410.999L506.123 410.681C505.682 409.676 505.118 408.76 504.465 407.913L534.545 394.83C542.973 391.163 546.588 380.284 542.868 369.811L497.395 219.781C497.254 219.376 497.078 218.988 496.919 218.6L494.733 211.388C490.536 199.593 478.776 193.016 469.255 197.159L112.509 352.355C102.988 356.499 99.7611 369.581 105.544 380.69L109.335 387.196C109.512 387.584 109.67 387.972 109.864 388.342L188.661 523.878C193.792 533.752 204.212 538.512 212.64 534.845L242.544 521.833C242.72 522.573 242.95 523.296 243.267 524.019L243.408 524.336C243.743 525.112 244.166 525.853 244.625 526.523L217.877 538.16C207.474 542.691 202.714 554.787 207.245 565.189L288.933 752.898C289.216 753.533 289.515 754.133 289.85 754.732L290.185 755.49C294.717 765.893 306.812 770.654 317.215 766.122L632.772 628.805C643.14 624.344 647.918 612.231 643.387 601.828ZM301.47 499.105L301.329 498.788C301.011 498.065 300.641 497.413 300.218 496.778L482.478 417.47L446.58 433.091C446.756 434.132 447.038 435.172 447.479 436.177L447.62 436.494C447.832 436.988 448.079 437.447 448.343 437.905L302.228 501.485C302.052 500.674 301.805 499.881 301.47 499.105Z" fill="#444444"/>
<path opacity="0.1" d="M252.788 612.901C252.947 611.42 253.017 609.904 253.017 608.37C253.017 584.214 233.446 564.643 209.29 564.643C198.976 564.643 189.49 568.222 182.014 574.199C178.346 571.607 173.885 570.073 169.054 570.073C158.793 570.073 150.153 576.95 147.455 586.348C146.944 586.33 146.45 586.312 145.939 586.312C130.776 586.312 118.31 597.844 116.811 612.602C102.053 616.269 91.1215 629.599 91.1215 645.485C91.1215 664.192 106.285 679.373 125.01 679.373H243.567C262.274 679.373 277.455 664.21 277.455 645.485C277.437 629.987 267.017 616.921 252.788 612.901Z" fill="#444444"/>
<path opacity="0.1" d="M443.494 135.148C442.948 120.373 436.036 105.968 423.359 96.323C410.699 86.6783 394.954 83.8572 380.584 87.2602C369.476 89.905 359.161 96.2524 351.721 106.038C336.875 125.539 338.215 152.269 353.501 170.183L340.701 187.004L303.392 200.757C299.407 202.22 297.379 206.646 298.843 210.613C300.306 214.598 304.732 216.625 308.699 215.162L331.726 206.681L326.789 213.152C324.462 216.22 325.044 220.592 328.111 222.937C331.179 225.265 335.552 224.683 337.897 221.615L341.776 216.519L339.907 238.912C339.555 243.144 342.693 246.846 346.925 247.199C351.156 247.551 354.859 244.413 355.212 240.181L358.597 199.734L358.368 199.716L370.816 183.354C392.15 193.316 418.263 187.48 433.109 167.979C440.532 158.193 443.9 146.574 443.494 135.148Z" fill="#444444"/>
<path opacity="0.1" d="M175.666 148.672L50.2861 260.74C65.6611 277.931 126.403 345.902 143.911 365.473C143.911 365.473 247.657 272.73 269.292 253.405C269.292 253.405 193.175 168.243 175.666 148.672Z" fill="#444444"/>
<path d="M252.788 607.03C252.947 605.549 253.017 604.033 253.017 602.499C253.017 578.343 233.446 558.771 209.29 558.771C198.976 558.771 189.49 562.351 182.014 568.328C178.346 565.736 173.885 564.202 169.054 564.202C158.793 564.202 150.153 571.079 147.455 580.476C146.944 580.459 146.45 580.441 145.939 580.441C130.776 580.441 118.31 591.972 116.811 606.73C102.053 610.398 91.1215 623.727 91.1215 639.614C91.1215 658.321 106.285 673.502 125.01 673.502H243.567C262.274 673.502 277.455 658.339 277.455 639.614C277.437 624.115 267.017 611.032 252.788 607.03Z" fill="#DAE1F9"/>
<path d="M163.888 148.619C181.379 168.19 257.513 253.352 257.513 253.352C235.879 272.677 132.133 365.42 132.133 365.42C114.625 345.831 53.883 277.878 38.508 260.687L163.888 148.619Z" fill="#F0F0FC"/>
<path d="M164.399 153.503C180.991 172.069 253.158 252.806 253.158 252.806C232.353 271.407 132.503 360.66 132.503 360.66C115.912 342.093 58.3262 277.667 43.7446 261.357L164.399 153.503Z" fill="white"/>
<path d="M132.486 360.642C108.93 334.3 85.9024 308.522 85.9024 308.522C86.8193 307.676 87.7538 306.794 88.6883 305.966C128.624 270.261 181.89 264.372 209.114 292.16L132.486 360.642Z" fill="#F6F9FD"/>
<path d="M179.21 185.311C186.528 193.51 185.84 206.081 177.641 213.416C169.46 220.733 156.871 220.028 149.553 211.829C142.236 203.63 142.924 191.059 151.123 183.742C159.322 176.407 171.893 177.112 179.21 185.311Z" fill="#F2994A"/>
<path d="M149.959 345.038C149.959 345.038 144.899 246.599 211.089 205.729L253.158 252.788L149.959 345.038Z" fill="#F2F2F2"/>
<path d="M647.195 613.765L331.638 751.082C321.235 755.614 309.14 750.853 304.608 740.45L222.92 552.741C218.388 542.339 223.149 530.243 233.552 525.712L549.109 388.395C559.512 383.863 571.607 388.624 576.139 399.027L657.827 586.736C662.376 597.121 657.598 609.234 647.195 613.765Z" fill="#B7B7CE"/>
<g opacity="0.3">
<path opacity="0.3" d="M547.381 380.408L228.756 519.065C220.416 522.697 210.066 517.901 204.935 508.027L126.315 372.42C120.549 361.312 123.652 348.265 133.05 344.174L484.665 191.165C494.062 187.074 505.717 193.686 509.914 205.499L555.562 355.458C559.265 365.932 555.721 376.775 547.381 380.408Z" fill="black"/>
</g>
<g opacity="0.3">
<path opacity="0.3" d="M645.961 611.156L330.404 748.473C320.001 753.004 307.905 748.244 303.374 737.841L221.686 550.132C217.154 539.729 221.915 527.634 232.318 523.102L547.875 385.785C558.278 381.254 570.373 386.015 574.905 396.417L656.593 584.126C661.125 594.529 656.364 606.642 645.961 611.156Z" fill="black"/>
</g>
<path d="M546.218 371.362L222.92 512.047C214.456 515.732 204.001 510.972 198.87 501.115L120.002 365.597C114.219 354.489 117.428 341.406 126.967 337.245L483.713 182.014C493.234 177.87 505.012 184.429 509.191 196.243L554.593 346.307C558.313 356.781 554.681 367.677 546.218 371.362Z" fill="#B7B7CE"/>
<path d="M549.003 379.685L227.098 519.77C218.67 523.437 208.25 518.677 203.119 508.803L124.322 373.267C118.539 362.159 121.73 349.076 131.216 344.95L486.446 190.371C495.931 186.245 507.674 192.822 511.853 204.618L557.326 354.647C561.064 365.138 557.431 376.017 549.003 379.685Z" fill="white"/>
<path d="M220.345 506.105C219.799 506.334 217.242 505.594 215.497 502.226L215.32 501.891L136.506 366.461C135.307 364.01 135.36 361.718 135.818 360.36C136.012 359.778 136.294 359.337 136.541 359.232L493.287 204.001C493.534 203.895 494.045 203.983 494.609 204.248C495.914 204.829 497.624 206.363 498.594 208.902L543.978 358.897L544.102 359.249C545.371 362.811 544.172 365.209 543.626 365.438L220.345 506.105Z" fill="#4C59E0"/>
<path d="M645.961 611.156L330.404 748.473C320.001 753.004 307.905 748.244 303.374 737.841L221.686 550.132C217.154 539.729 221.915 527.634 232.318 523.102L547.875 385.785C558.278 381.254 570.373 386.015 574.905 396.417L656.593 584.126C661.125 594.529 656.364 606.642 645.961 611.156Z" fill="white"/>
<path d="M557.23 407.957L241.754 545.24L290.465 657.178L605.941 519.895L557.23 407.957Z" fill="#E1E0FE"/>
<path d="M255.574 560.129L265.677 555.739C266.858 555.228 267.387 553.87 266.876 552.689L262.486 542.586C261.974 541.404 260.617 540.875 259.435 541.387L249.332 545.777C248.151 546.288 247.622 547.646 248.133 548.827L252.524 558.93C253.035 560.112 254.41 560.641 255.574 560.129Z" fill="#CACAED"/>
<path d="M264.478 580.6L274.563 576.21C275.745 575.698 276.274 574.323 275.762 573.159L271.372 563.074C270.861 561.892 269.485 561.363 268.322 561.875L258.236 566.265C257.055 566.776 256.526 568.152 257.037 569.315L261.428 579.401C261.939 580.582 263.314 581.111 264.478 580.6Z" fill="#CACAED"/>
<path d="M281.599 573.159L291.684 568.769C292.865 568.258 293.394 566.882 292.883 565.719L288.493 555.633C287.981 554.452 286.606 553.923 285.442 554.434L275.357 558.825C274.175 559.336 273.647 560.711 274.158 561.875L278.548 571.96C279.06 573.124 280.417 573.671 281.599 573.159Z" fill="#CACAED"/>
<path d="M309.069 579.683L304.679 569.598C304.167 568.416 302.792 567.887 301.628 568.399L291.543 572.789C290.362 573.3 289.833 574.676 290.344 575.839L294.734 585.925C295.246 587.106 296.621 587.635 297.785 587.124L307.87 582.733C309.051 582.222 309.58 580.864 309.069 579.683Z" fill="#CACAED"/>
<path d="M272.165 598.267L290.802 590.156C291.984 589.645 292.513 588.287 292.001 587.106L287.611 577.021C287.1 575.839 285.724 575.31 284.561 575.822L265.924 583.932C264.742 584.444 264.213 585.819 264.725 586.983L269.115 597.068C269.626 598.249 271.002 598.778 272.165 598.267Z" fill="#CACAED"/>
<path d="M314.958 579.665L325.043 575.275C326.225 574.764 326.754 573.406 326.242 572.225L321.852 562.139C321.341 560.958 319.965 560.429 318.802 560.94L308.716 565.331C307.535 565.842 307.006 567.217 307.517 568.381L311.908 578.466C312.419 579.63 313.777 580.177 314.958 579.665Z" fill="#CACAED"/>
<path d="M343.416 564.749L339.025 554.663C338.514 553.482 337.139 552.953 335.975 553.465L325.89 557.855C324.708 558.366 324.179 559.741 324.691 560.905L329.081 570.991C329.592 572.172 330.95 572.701 332.131 572.19L342.217 567.799C343.381 567.288 343.927 565.913 343.416 564.749Z" fill="#CACAED"/>
<path d="M349.287 564.714L359.373 560.323C360.554 559.812 361.083 558.437 360.572 557.273L356.181 547.188C355.67 546.006 354.295 545.477 353.131 545.989L343.046 550.379C341.864 550.89 341.335 552.265 341.847 553.429L346.237 563.515C346.748 564.696 348.106 565.225 349.287 564.714Z" fill="#CACAED"/>
<path d="M366.461 557.238L376.546 552.847C377.727 552.336 378.256 550.978 377.745 549.797L373.355 539.712C372.843 538.53 371.468 538.001 370.304 538.513L360.219 542.903C359.038 543.414 358.509 544.79 359.02 545.953L363.41 556.039C363.922 557.22 365.279 557.749 366.461 557.238Z" fill="#CACAED"/>
<path d="M376.176 538.477L380.566 548.563C381.078 549.744 382.453 550.273 383.616 549.762L393.702 545.371C394.883 544.86 395.412 543.502 394.901 542.321L390.511 532.236C389.999 531.054 388.624 530.525 387.46 531.037L377.375 535.427C376.211 535.938 375.665 537.314 376.176 538.477Z" fill="#CACAED"/>
<path d="M393.349 531.019L397.74 541.105C398.251 542.286 399.626 542.815 400.79 542.303L410.875 537.913C412.057 537.402 412.586 536.027 412.074 534.863L407.684 524.777C407.173 523.596 405.797 523.067 404.634 523.578L394.548 527.969C393.367 528.48 392.838 529.838 393.349 531.019Z" fill="#CACAED"/>
<path d="M410.523 523.543L414.913 533.629C415.424 534.81 416.8 535.339 417.963 534.828L428.049 530.437C429.23 529.926 429.759 528.551 429.248 527.387L424.857 517.301C424.346 516.12 422.971 515.591 421.807 516.102L411.722 520.493C410.54 521.004 410.011 522.362 410.523 523.543Z" fill="#CACAED"/>
<path d="M427.679 516.067L432.069 526.153C432.58 527.334 433.955 527.863 435.119 527.352L445.205 522.961C446.386 522.45 446.915 521.075 446.404 519.911L442.013 509.826C441.502 508.644 440.144 508.115 438.963 508.627L428.877 513.017C427.714 513.528 427.167 514.904 427.679 516.067Z" fill="#CACAED"/>
<path d="M463.577 512.453L459.187 502.367C458.675 501.186 457.3 500.657 456.136 501.168L446.051 505.559C444.87 506.07 444.341 507.428 444.852 508.609L449.242 518.694C449.754 519.876 451.129 520.405 452.293 519.893L462.378 515.503C463.559 514.992 464.088 513.634 463.577 512.453Z" fill="#CACAED"/>
<path d="M469.466 512.417L479.551 508.027C480.733 507.516 481.262 506.14 480.75 504.977L476.36 494.891C475.849 493.71 474.474 493.181 473.31 493.692L463.224 498.083C462.043 498.594 461.514 499.969 462.025 501.133L466.416 511.218C466.927 512.4 468.285 512.929 469.466 512.417Z" fill="#CACAED"/>
<path d="M497.924 497.519L493.534 487.433C493.022 486.252 491.647 485.723 490.483 486.234L480.398 490.625C479.216 491.136 478.688 492.511 479.199 493.675L483.589 503.76C484.1 504.942 485.476 505.471 486.639 504.959L496.725 500.569C497.889 500.058 498.435 498.682 497.924 497.519Z" fill="#CACAED"/>
<path d="M298.701 565.719L308.787 561.328C309.968 560.817 310.497 559.442 309.986 558.278L305.596 548.192C305.084 547.011 303.727 546.482 302.545 546.994L292.46 551.384C291.278 551.895 290.749 553.27 291.261 554.434L295.651 564.52C296.162 565.683 297.538 566.212 298.701 565.719Z" fill="#CACAED"/>
<path d="M315.822 558.26L325.907 553.87C327.089 553.359 327.618 551.983 327.106 550.82L322.716 540.734C322.205 539.553 320.847 539.024 319.666 539.535L309.58 543.926C308.399 544.437 307.87 545.812 308.381 546.976L312.772 557.061C313.283 558.243 314.641 558.772 315.822 558.26Z" fill="#CACAED"/>
<path d="M332.925 550.82L343.01 546.429C344.192 545.918 344.721 544.543 344.209 543.379L339.819 533.294C339.308 532.112 337.932 531.583 336.769 532.095L326.683 536.485C325.502 536.996 324.973 538.372 325.484 539.535L329.875 549.621C330.386 550.785 331.761 551.331 332.925 550.82Z" fill="#CACAED"/>
<path d="M350.045 543.379L360.131 538.989C361.312 538.477 361.841 537.102 361.33 535.938L356.94 525.853C356.428 524.672 355.053 524.143 353.889 524.654L343.804 529.044C342.622 529.556 342.093 530.913 342.605 532.095L346.995 542.18C347.506 543.344 348.864 543.89 350.045 543.379Z" fill="#CACAED"/>
<path d="M289.797 545.248L299.9 540.858C301.082 540.346 301.611 538.989 301.099 537.807L296.709 527.704C296.198 526.523 294.84 525.994 293.659 526.505L283.556 530.896C282.374 531.407 281.845 532.765 282.357 533.946L286.747 544.049C287.258 545.213 288.634 545.759 289.797 545.248Z" fill="#CACAED"/>
<path d="M306.918 537.79L317.021 533.399C318.202 532.888 318.731 531.53 318.22 530.349L313.83 520.246C313.318 519.065 311.961 518.536 310.779 519.047L300.676 523.437C299.495 523.949 298.966 525.306 299.477 526.488L303.868 536.591C304.379 537.772 305.737 538.301 306.918 537.79Z" fill="#CACAED"/>
<path d="M324.021 530.349L334.124 525.959C335.305 525.447 335.834 524.09 335.323 522.908L330.932 512.805C330.421 511.624 329.063 511.095 327.882 511.606L317.779 515.997C316.598 516.508 316.069 517.866 316.58 519.047L320.97 529.15C321.482 530.331 322.857 530.86 324.021 530.349Z" fill="#CACAED"/>
<path d="M341.141 522.908L351.244 518.518C352.426 518.007 352.955 516.649 352.443 515.468L348.053 505.365C347.542 504.183 346.184 503.654 345.003 504.166L334.9 508.556C333.718 509.067 333.189 510.425 333.701 511.606L338.091 521.709C338.602 522.873 339.96 523.42 341.141 522.908Z" fill="#CACAED"/>
<path d="M367.148 535.921L377.234 531.53C378.415 531.019 378.944 529.644 378.433 528.48L374.042 518.395C373.531 517.213 372.173 516.684 370.992 517.196L360.907 521.586C359.725 522.097 359.196 523.473 359.708 524.636L364.098 534.722C364.609 535.903 365.985 536.432 367.148 535.921Z" fill="#CACAED"/>
<path d="M388.113 509.737L378.027 514.128C376.846 514.639 376.317 516.014 376.828 517.178L381.219 527.263C381.73 528.445 383.088 528.974 384.269 528.462L394.354 524.072C395.536 523.561 396.065 522.186 395.553 521.022L391.163 510.936C390.652 509.773 389.294 509.226 388.113 509.737Z" fill="#CACAED"/>
<path d="M405.233 502.297L395.148 506.687C393.966 507.199 393.437 508.574 393.949 509.737L398.339 519.823C398.85 521.004 400.226 521.533 401.389 521.022L411.475 516.632C412.656 516.12 413.185 514.745 412.674 513.581L408.283 503.496C407.772 502.332 406.397 501.786 405.233 502.297Z" fill="#CACAED"/>
<path d="M422.336 494.856L412.251 499.246C411.069 499.758 410.54 501.133 411.052 502.297L415.442 512.382C415.953 513.563 417.311 514.092 418.492 513.581L428.578 509.191C429.759 508.679 430.288 507.322 429.777 506.14L425.386 496.055C424.875 494.874 423.517 494.345 422.336 494.856Z" fill="#CACAED"/>
<path d="M428.155 494.856L432.545 504.942C433.056 506.123 434.431 506.652 435.595 506.141L445.681 501.75C446.862 501.239 447.391 499.864 446.88 498.7L442.489 488.614C441.978 487.433 440.603 486.904 439.439 487.416L429.353 491.806C428.19 492.317 427.643 493.675 428.155 494.856Z" fill="#CACAED"/>
<path d="M452.716 498.7L462.801 494.31C463.983 493.798 464.512 492.423 464 491.259L459.61 481.174C459.099 479.992 457.723 479.464 456.56 479.975L446.474 484.365C445.293 484.876 444.764 486.252 445.275 487.415L449.665 497.501C450.177 498.665 451.534 499.211 452.716 498.7Z" fill="#CACAED"/>
<path d="M469.819 491.242L479.904 486.851C481.085 486.34 481.614 484.965 481.103 483.801L476.713 473.715C476.201 472.534 474.826 472.005 473.662 472.517L463.577 476.907C462.396 477.418 461.867 478.793 462.378 479.957L466.768 490.043C467.28 491.224 468.655 491.753 469.819 491.242Z" fill="#CACAED"/>
<path d="M486.939 483.801L497.025 479.411C498.206 478.899 498.735 477.524 498.224 476.36L493.833 466.275C493.322 465.094 491.947 464.565 490.783 465.076L480.698 469.466C479.516 469.978 478.987 471.353 479.499 472.517L483.889 482.602C484.4 483.783 485.758 484.312 486.939 483.801Z" fill="#CACAED"/>
<path d="M507.904 457.618L497.818 462.008C496.637 462.519 496.108 463.895 496.619 465.058L501.01 475.144C501.521 476.325 502.896 476.854 504.06 476.343L514.145 471.952C515.327 471.441 515.856 470.066 515.344 468.902L510.954 458.817C510.443 457.653 509.067 457.106 507.904 457.618Z" fill="#CACAED"/>
<path d="M527.193 449.225L517.107 453.615C515.926 454.126 515.397 455.484 515.908 456.665L520.299 466.751C520.81 467.932 522.185 468.461 523.349 467.95L533.434 463.559C534.616 463.048 535.145 461.673 534.633 460.509L530.243 450.424C529.732 449.26 528.357 448.713 527.193 449.225Z" fill="#CACAED"/>
<path d="M544.296 441.784L534.21 446.175C533.029 446.686 532.5 448.044 533.011 449.225L537.402 459.31C537.913 460.492 539.271 461.021 540.452 460.509L550.537 456.119C551.719 455.608 552.248 454.25 551.736 453.069L547.346 442.983C546.835 441.802 545.477 441.273 544.296 441.784Z" fill="#CACAED"/>
<path d="M561.416 434.343L551.331 438.734C550.149 439.245 549.62 440.62 550.132 441.784L554.522 451.87C555.034 453.051 556.409 453.58 557.572 453.069L567.658 448.678C568.839 448.167 569.368 446.792 568.857 445.628L564.467 435.542C563.955 434.361 562.58 433.832 561.416 434.343Z" fill="#CACAED"/>
<path d="M534.88 466.892L524.795 471.282C523.614 471.794 523.085 473.169 523.596 474.333L527.986 484.418C528.498 485.599 529.873 486.128 531.037 485.617L541.122 481.227C542.303 480.715 542.832 479.358 542.321 478.176L537.931 468.091C537.419 466.927 536.044 466.381 534.88 466.892Z" fill="#CACAED"/>
<path d="M551.983 459.451L541.898 463.842C540.716 464.353 540.188 465.728 540.699 466.892L545.089 476.977C545.6 478.159 546.976 478.688 548.139 478.176L558.225 473.786C559.406 473.275 559.935 471.917 559.424 470.736L555.034 460.65C554.522 459.487 553.165 458.94 551.983 459.451Z" fill="#CACAED"/>
<path d="M569.104 452.011L559.018 456.401C557.837 456.912 557.308 458.288 557.819 459.451L562.21 469.537C562.721 470.718 564.079 471.247 565.26 470.736L575.345 466.345C576.527 465.834 577.056 464.459 576.544 463.295L572.154 453.21C571.643 452.028 570.267 451.499 569.104 452.011Z" fill="#CACAED"/>
<path d="M542.568 484.577L532.482 488.967C531.301 489.478 530.772 490.854 531.283 492.017L535.674 502.103C536.185 503.284 537.56 503.813 538.724 503.302L548.809 498.911C549.991 498.4 550.52 497.042 550.008 495.861L545.618 485.776C545.107 484.594 543.749 484.065 542.568 484.577Z" fill="#CACAED"/>
<path d="M559.671 477.119L549.585 481.509C548.404 482.02 547.875 483.395 548.386 484.559L552.777 494.645C553.288 495.826 554.663 496.355 555.827 495.844L565.912 491.453C567.094 490.942 567.623 489.584 567.111 488.403L562.721 478.318C562.227 477.154 560.852 476.607 559.671 477.119Z" fill="#CACAED"/>
<path d="M576.791 469.678L566.706 474.068C565.524 474.58 564.995 475.955 565.507 477.118L569.897 487.204C570.408 488.385 571.766 488.914 572.947 488.403L583.033 484.013C584.214 483.501 584.743 482.144 584.232 480.962L579.841 470.877C579.33 469.696 577.972 469.167 576.791 469.678Z" fill="#CACAED"/>
<path d="M557.943 519.911L547.857 524.301C546.676 524.813 546.147 526.188 546.658 527.352L551.049 537.437C551.56 538.619 552.918 539.147 554.099 538.636L564.185 534.246C565.366 533.735 565.895 532.359 565.384 531.196L560.993 521.11C560.482 519.929 559.124 519.4 557.943 519.911Z" fill="#CACAED"/>
<path d="M575.063 512.47L564.978 516.861C563.797 517.372 563.268 518.747 563.779 519.911L568.169 529.996C568.681 531.178 570.056 531.707 571.22 531.195L581.305 526.805C582.486 526.294 583.015 524.918 582.504 523.755L578.114 513.669C577.602 512.488 576.227 511.959 575.063 512.47Z" fill="#CACAED"/>
<path d="M592.166 505.012L582.081 509.402C580.899 509.914 580.371 511.289 580.882 512.453L585.272 522.538C585.784 523.72 587.159 524.248 588.322 523.737L598.408 519.347C599.589 518.836 600.118 517.46 599.607 516.296L595.217 506.211C594.705 505.047 593.348 504.501 592.166 505.012Z" fill="#CACAED"/>
<path d="M366.055 512.065L376.158 507.674C377.34 507.163 377.868 505.805 377.357 504.624L372.967 494.521C372.455 493.34 371.098 492.811 369.916 493.322L359.813 497.712C358.632 498.224 358.103 499.581 358.614 500.763L363.005 510.866C363.516 512.047 364.874 512.576 366.055 512.065Z" fill="#CACAED"/>
<path d="M383.669 504.395L393.772 500.005C394.954 499.493 395.483 498.136 394.971 496.954L390.581 486.851C390.07 485.67 388.712 485.141 387.531 485.652L377.428 490.043C376.246 490.554 375.717 491.912 376.229 493.093L380.619 503.196C381.13 504.377 382.488 504.906 383.669 504.395Z" fill="#CACAED"/>
<path d="M401.284 496.743L411.387 492.352C412.568 491.841 413.097 490.483 412.586 489.302L408.195 479.199C407.684 478.018 406.326 477.489 405.145 478L395.042 482.39C393.861 482.902 393.332 484.259 393.843 485.441L398.233 495.544C398.745 496.707 400.102 497.254 401.284 496.743Z" fill="#CACAED"/>
<path d="M418.898 489.073L429.001 484.683C430.182 484.171 430.711 482.814 430.2 481.632L425.81 471.529C425.298 470.348 423.941 469.819 422.759 470.33L412.656 474.721C411.475 475.232 410.946 476.59 411.457 477.771L415.847 487.874C416.359 489.038 417.716 489.584 418.898 489.073Z" fill="#CACAED"/>
<path d="M443.812 478.229L453.915 473.839C455.096 473.328 455.625 471.97 455.114 470.789L450.723 460.686C450.212 459.504 448.854 458.975 447.673 459.487L437.57 463.877C436.389 464.388 435.86 465.746 436.371 466.927L440.761 477.03C441.273 478.194 442.63 478.741 443.812 478.229Z" fill="#CACAED"/>
<path d="M460.915 470.789L471.018 466.398C472.199 465.887 472.728 464.529 472.217 463.348L467.826 453.245C467.315 452.064 465.957 451.535 464.776 452.046L454.673 456.436C453.492 456.948 452.963 458.305 453.474 459.487L457.864 469.59C458.376 470.753 459.751 471.3 460.915 470.789Z" fill="#CACAED"/>
<path d="M478.035 463.33L488.138 458.94C489.32 458.429 489.849 457.071 489.337 455.89L484.947 445.787C484.436 444.605 483.078 444.076 481.897 444.588L471.793 448.978C470.612 449.489 470.083 450.847 470.595 452.028L474.985 462.131C475.496 463.313 476.854 463.842 478.035 463.33Z" fill="#CACAED"/>
<path d="M498.999 437.147L488.896 441.537C487.715 442.049 487.186 443.406 487.697 444.588L492.088 454.691C492.599 455.872 493.957 456.401 495.138 455.89L505.241 451.499C506.422 450.988 506.951 449.63 506.44 448.449L502.05 438.346C501.538 437.182 500.163 436.636 498.999 437.147Z" fill="#CACAED"/>
<path d="M518.289 428.754L508.186 433.145C507.004 433.656 506.475 435.014 506.987 436.195L511.377 446.298C511.888 447.479 513.246 448.008 514.427 447.497L524.53 443.107C525.712 442.595 526.241 441.238 525.729 440.056L521.339 429.953C520.828 428.79 519.452 428.243 518.289 428.754Z" fill="#CACAED"/>
<path d="M535.392 421.314L525.289 425.704C524.107 426.215 523.578 427.573 524.09 428.754L528.48 438.857C528.991 440.039 530.349 440.568 531.53 440.056L541.633 435.666C542.815 435.155 543.344 433.797 542.832 432.616L538.442 422.513C537.931 421.331 536.573 420.802 535.392 421.314Z" fill="#CACAED"/>
<path d="M552.512 413.873L542.409 418.263C541.228 418.775 540.699 420.132 541.21 421.314L545.6 431.417C546.112 432.598 547.469 433.127 548.651 432.616L558.754 428.225C559.935 427.714 560.464 426.356 559.953 425.175L555.562 415.072C555.051 413.891 553.676 413.362 552.512 413.873Z" fill="#CACAED"/>
<path d="M310.48 602.622L320.565 598.232C321.746 597.72 322.275 596.345 321.764 595.181L317.374 585.096C316.862 583.915 315.505 583.386 314.323 583.897L304.238 588.287C303.057 588.799 302.528 590.174 303.039 591.338L307.429 601.423C307.941 602.587 309.298 603.133 310.48 602.622Z" fill="#CACAED"/>
<path d="M279.871 615.952L303.462 605.69C304.643 605.179 305.172 603.803 304.661 602.64L300.271 592.554C299.759 591.373 298.384 590.844 297.22 591.355L273.629 601.617C272.448 602.128 271.919 603.504 272.43 604.667L276.82 614.753C277.314 615.917 278.689 616.463 279.871 615.952Z" fill="#CACAED"/>
<path d="M338.937 587.706L334.547 577.62C334.036 576.439 332.66 575.91 331.497 576.421L321.411 580.811C320.23 581.323 319.701 582.698 320.212 583.862L324.603 593.947C325.114 595.129 326.489 595.657 327.653 595.146L337.738 590.756C338.92 590.245 339.449 588.887 338.937 587.706Z" fill="#CACAED"/>
<path d="M344.809 587.688L354.894 583.298C356.075 582.786 356.604 581.411 356.093 580.247L351.703 570.162C351.191 568.981 349.834 568.452 348.652 568.963L338.567 573.353C337.386 573.865 336.857 575.24 337.368 576.404L341.758 586.489C342.27 587.653 343.645 588.199 344.809 587.688Z" fill="#CACAED"/>
<path d="M373.267 572.771L368.876 562.686C368.365 561.505 366.99 560.976 365.826 561.487L355.741 565.877C354.559 566.389 354.03 567.764 354.542 568.928L358.932 579.013C359.443 580.194 360.818 580.723 361.982 580.212L372.068 575.822C373.249 575.31 373.778 573.935 373.267 572.771Z" fill="#CACAED"/>
<path d="M390.44 565.296L386.05 555.21C385.538 554.029 384.181 553.5 382.999 554.011L372.914 558.401C371.733 558.913 371.204 560.288 371.715 561.452L376.105 571.537C376.617 572.719 377.992 573.248 379.156 572.736L389.241 568.346C390.422 567.835 390.951 566.477 390.44 565.296Z" fill="#CACAED"/>
<path d="M407.613 557.82L403.223 547.734C402.712 546.553 401.336 546.024 400.173 546.535L390.087 550.925C388.906 551.437 388.377 552.812 388.888 553.976L393.279 564.061C393.79 565.243 395.165 565.772 396.329 565.26L406.414 560.87C407.578 560.358 408.125 559.001 407.613 557.82Z" fill="#CACAED"/>
<path d="M424.769 550.361L420.379 540.276C419.868 539.095 418.492 538.566 417.329 539.077L407.243 543.467C406.062 543.979 405.533 545.354 406.044 546.518L410.435 556.603C410.946 557.784 412.321 558.313 413.485 557.802L423.57 553.412C424.752 552.9 425.281 551.525 424.769 550.361Z" fill="#CACAED"/>
<path d="M441.943 542.885L437.552 532.8C437.041 531.619 435.683 531.09 434.502 531.601L424.417 535.991C423.235 536.503 422.706 537.878 423.218 539.042L427.608 549.127C428.119 550.308 429.495 550.837 430.658 550.326L440.744 545.936C441.925 545.424 442.454 544.067 441.943 542.885Z" fill="#CACAED"/>
<path d="M459.116 535.409L454.726 525.324C454.214 524.143 452.839 523.614 451.675 524.125L441.59 528.515C440.409 529.027 439.88 530.402 440.391 531.566L444.781 541.651C445.293 542.833 446.668 543.361 447.832 542.85L457.917 538.46C459.081 537.948 459.627 536.591 459.116 535.409Z" fill="#CACAED"/>
<path d="M464.988 535.392L475.073 531.001C476.254 530.49 476.783 529.132 476.272 527.951L471.882 517.866C471.37 516.684 469.995 516.155 468.831 516.667L458.746 521.057C457.565 521.568 457.036 522.944 457.547 524.107L461.937 534.193C462.449 535.357 463.806 535.903 464.988 535.392Z" fill="#CACAED"/>
<path d="M493.445 520.475L489.055 510.39C488.544 509.208 487.168 508.679 486.005 509.191L475.919 513.581C474.738 514.092 474.209 515.468 474.72 516.631L479.111 526.717C479.622 527.898 480.997 528.427 482.161 527.916L492.246 523.525C493.428 523.014 493.957 521.657 493.445 520.475Z" fill="#CACAED"/>
<path d="M325.361 617.151L335.446 612.76C336.628 612.249 337.157 610.874 336.645 609.71L332.255 599.625C331.744 598.443 330.386 597.914 329.205 598.426L319.119 602.816C317.938 603.327 317.409 604.703 317.92 605.866L322.31 615.952C322.822 617.133 324.197 617.662 325.361 617.151Z" fill="#CACAED"/>
<path d="M287.558 633.619L318.326 620.236C319.507 619.725 320.036 618.35 319.525 617.186L315.134 607.101C314.623 605.919 313.248 605.39 312.084 605.902L281.316 619.284C280.135 619.796 279.606 621.171 280.117 622.335L284.508 632.42C285.019 633.584 286.377 634.13 287.558 633.619Z" fill="#CACAED"/>
<path d="M353.801 602.252L349.411 592.166C348.899 590.985 347.524 590.456 346.36 590.967L336.275 595.358C335.094 595.869 334.565 597.227 335.076 598.408L339.466 608.494C339.978 609.675 341.353 610.204 342.517 609.692L352.602 605.302C353.766 604.791 354.312 603.433 353.801 602.252Z" fill="#CACAED"/>
<path d="M349.693 610.521L334.635 617.063C333.454 617.574 332.925 618.949 333.436 620.113L337.827 630.198C338.338 631.38 339.713 631.909 340.877 631.397L355.934 624.856C357.116 624.345 357.645 622.969 357.133 621.806L352.743 611.72C352.232 610.557 350.874 610.01 349.693 610.521Z" fill="#CACAED"/>
<path d="M451.676 566.159L356.728 607.471C355.547 607.982 355.018 609.357 355.529 610.521L359.919 620.607C360.431 621.788 361.806 622.317 362.97 621.806L457.917 580.494C459.099 579.983 459.627 578.608 459.116 577.444L454.726 567.358C454.215 566.177 452.839 565.648 451.676 566.159Z" fill="#CACAED"/>
<path d="M359.655 602.234L369.74 597.844C370.921 597.333 371.45 595.957 370.939 594.794L366.549 584.708C366.037 583.527 364.68 582.998 363.498 583.509L353.413 587.9C352.232 588.411 351.703 589.769 352.214 590.95L356.604 601.035C357.098 602.217 358.473 602.746 359.655 602.234Z" fill="#CACAED"/>
<path d="M376.793 594.776L386.878 590.386C388.06 589.874 388.589 588.517 388.077 587.335L383.687 577.25C383.176 576.069 381.8 575.54 380.637 576.051L370.551 580.441C369.37 580.953 368.841 582.328 369.352 583.492L373.743 593.577C374.254 594.758 375.612 595.287 376.793 594.776Z" fill="#CACAED"/>
<path d="M393.931 587.318L404.017 582.927C405.198 582.416 405.727 581.041 405.215 579.877L400.825 569.792C400.314 568.61 398.939 568.081 397.775 568.593L387.689 572.983C386.508 573.494 385.979 574.852 386.49 576.033L390.881 586.119C391.392 587.3 392.75 587.829 393.931 587.318Z" fill="#CACAED"/>
<path d="M411.069 579.859L421.155 575.469C422.336 574.958 422.865 573.582 422.354 572.419L417.963 562.333C417.452 561.152 416.094 560.623 414.913 561.134L404.828 565.525C403.646 566.036 403.117 567.394 403.629 568.575L408.019 578.66C408.53 579.842 409.888 580.371 411.069 579.859Z" fill="#CACAED"/>
<path d="M428.207 572.401L438.293 568.011C439.474 567.5 440.003 566.124 439.492 564.961L435.102 554.875C434.59 553.694 433.215 553.165 432.051 553.676L421.966 558.066C420.784 558.578 420.256 559.953 420.767 561.117L425.157 571.202C425.668 572.384 427.026 572.912 428.207 572.401Z" fill="#CACAED"/>
<path d="M445.346 564.943L455.431 560.552C456.612 560.041 457.141 558.666 456.63 557.502L452.24 547.417C451.728 546.235 450.371 545.706 449.189 546.218L439.104 550.608C437.923 551.119 437.394 552.477 437.905 553.658L442.295 563.744C442.807 564.925 444.164 565.454 445.346 564.943Z" fill="#CACAED"/>
<path d="M466.328 538.76L456.242 543.15C455.061 543.661 454.532 545.037 455.043 546.2L459.433 556.286C459.945 557.467 461.302 557.996 462.484 557.485L472.569 553.094C473.751 552.583 474.28 551.208 473.768 550.044L469.378 539.959C468.867 538.777 467.509 538.248 466.328 538.76Z" fill="#CACAED"/>
<path d="M472.975 556.885L458.728 563.074C457.547 563.585 457.018 564.961 457.529 566.124L461.92 576.21C462.431 577.391 463.806 577.92 464.97 577.409L479.217 571.22C480.398 570.709 480.927 569.333 480.416 568.17L476.025 558.084C475.514 556.92 474.156 556.374 472.975 556.885Z" fill="#CACAED"/>
<path d="M494.239 547.628L479.992 553.817C478.811 554.329 478.282 555.704 478.793 556.868L483.184 566.953C483.695 568.134 485.07 568.663 486.234 568.152L500.48 561.963C501.662 561.452 502.191 560.077 501.68 558.913L497.289 548.827C496.778 547.664 495.42 547.117 494.239 547.628Z" fill="#CACAED"/>
<path d="M327.618 620.131L313.371 626.319C312.19 626.831 311.661 628.206 312.172 629.37L316.563 639.455C317.074 640.636 318.449 641.165 319.613 640.654L333.859 634.465C335.041 633.954 335.57 632.579 335.058 631.415L330.668 621.33C330.157 620.166 328.799 619.619 327.618 620.131Z" fill="#CACAED"/>
<path d="M306.354 629.387L288.986 636.934C287.805 637.445 287.276 638.82 287.787 639.984L292.178 650.069C292.689 651.251 294.047 651.78 295.228 651.268L312.595 643.722C313.777 643.211 314.306 641.835 313.794 640.672L309.404 630.586C308.91 629.422 307.535 628.876 306.354 629.387Z" fill="#CACAED"/>
<path d="M515.468 538.389L501.221 544.578C500.04 545.089 499.511 546.465 500.022 547.628L504.412 557.714C504.924 558.895 506.299 559.424 507.463 558.913L521.709 552.724C522.891 552.213 523.42 550.837 522.908 549.674L518.518 539.588C518.024 538.425 516.649 537.878 515.468 538.389Z" fill="#CACAED"/>
<path d="M538.653 528.304L522.503 535.339C521.321 535.85 520.792 537.208 521.304 538.389L525.694 548.475C526.205 549.656 527.581 550.185 528.744 549.674L544.895 542.639C546.076 542.127 546.605 540.77 546.094 539.588L541.704 529.503C541.192 528.339 539.835 527.792 538.653 528.304Z" fill="#CACAED"/>
<path d="M479.622 550.026L489.707 545.636C490.889 545.125 491.418 543.749 490.906 542.586L486.516 532.5C486.005 531.319 484.629 530.79 483.466 531.301L473.38 535.692C472.199 536.203 471.67 537.578 472.181 538.742L476.572 548.827C477.083 550.009 478.458 550.538 479.622 550.026Z" fill="#CACAED"/>
<path d="M567.376 494.786L557.29 499.176C556.109 499.687 555.58 501.063 556.091 502.226L560.482 512.312C560.993 513.493 562.368 514.022 563.532 513.511L573.618 509.12C574.799 508.609 575.328 507.251 574.816 506.07L570.426 495.985C569.915 494.821 568.54 494.274 567.376 494.786Z" fill="#CACAED"/>
<path d="M530.966 510.637L490.783 528.127C489.602 528.639 489.073 529.996 489.584 531.178L493.974 541.263C494.486 542.444 495.861 542.973 497.025 542.462L537.208 524.971C538.389 524.46 538.918 523.085 538.407 521.921L534.016 511.836C533.505 510.654 532.147 510.125 530.966 510.637Z" fill="#CACAED"/>
<path d="M515.644 475.267L497.554 483.131C496.407 483.625 495.879 484.965 496.39 486.093L501.838 498.629L502.244 499.564C502.755 500.745 502.208 502.103 501.045 502.614L499.916 503.108L493.304 505.982C492.123 506.493 491.594 507.868 492.105 509.032L496.496 519.117C497.007 520.299 498.382 520.828 499.546 520.316L529.52 507.269C530.701 506.758 531.23 505.382 530.719 504.219L518.606 476.395C518.112 475.302 516.79 474.773 515.644 475.267Z" fill="#CACAED"/>
<path d="M315.928 483.995L315.787 483.677C315.469 482.954 315.099 482.302 314.676 481.667L257.002 506.757C257.178 507.498 257.408 508.221 257.725 508.944L257.866 509.261C258.201 510.037 258.624 510.778 259.083 511.448L316.704 486.375C316.51 485.564 316.263 484.771 315.928 483.995Z" fill="#CACAED"/>
<path d="M461.937 421.067L462.078 421.384C462.29 421.878 462.537 422.336 462.801 422.795L521.269 397.352C521.127 396.858 520.951 396.347 520.74 395.871L520.599 395.553C520.158 394.548 519.594 393.631 518.941 392.785L461.038 417.981C461.214 419.021 461.497 420.062 461.937 421.067Z" fill="#CACAED"/>
<path d="M529.397 644.868L434.714 686.074C426.744 689.547 417.452 685.897 413.979 677.91L398.233 641.729C394.76 633.76 398.41 624.468 406.397 620.994L501.08 579.789C509.067 576.315 518.342 579.965 521.815 587.952L537.56 624.133C541.034 632.12 537.366 641.394 529.397 644.868Z" fill="#E1E0FE"/>
<path opacity="0.5" d="M312.349 282.727L316.563 464.229L238.647 498.136L234.433 316.633L312.349 282.727Z" fill="#627AF4"/>
<path opacity="0.5" d="M359.302 262.292L363.516 443.812L339.466 454.267L335.27 272.765L359.302 262.292Z" fill="#627AF4"/>
<path opacity="0.5" d="M477.383 210.912L481.579 392.433L403.664 426.339L399.468 244.819L477.383 210.912Z" fill="#627AF4"/>
<path opacity="0.5" d="M500.657 217.066L526.946 303.991L528.533 371.997L504.501 382.453L500.657 217.066Z" fill="#627AF4"/>
<path opacity="0.1" d="M672.092 237.642L612.09 218.67C605.267 216.519 598.003 220.293 595.834 227.116L546.429 383.37C544.278 390.193 548.051 397.475 554.875 399.626L614.876 418.598C621.7 420.749 628.982 416.976 631.133 410.152L680.537 253.899C682.706 247.058 678.915 239.793 672.092 237.642Z" fill="#444444"/>
<path opacity="0.1" d="M366.531 748.261C366.09 748.032 365.632 747.873 365.174 747.715L367.237 743.606C369.105 739.886 367.607 735.337 363.869 733.468L292.812 697.781L293.095 697.217L290.362 695.842L288.122 700.303L269.662 691.028C268.445 690.429 266.982 690.905 266.382 692.121L253.599 717.564C253 718.763 253.476 720.244 254.692 720.844C254.692 720.844 263.279 725.163 273.153 730.118L270.984 734.438L273.717 735.813L273.999 735.249L345.056 770.936C348.776 772.805 353.325 771.306 355.194 767.568L357.257 763.46C357.645 763.742 358.05 764.006 358.509 764.236C362.917 766.457 368.277 764.676 370.498 760.269C372.72 755.843 370.939 750.483 366.531 748.261ZM367.43 758.717C366.073 761.432 362.758 762.525 360.06 761.168C359.602 760.938 359.214 760.656 358.844 760.339L363.604 750.871C364.08 750.959 364.539 751.118 364.997 751.347C367.695 752.687 368.788 756.002 367.43 758.717Z" fill="#444444"/>
<path opacity="0.1" d="M659.308 467.491H644.921C639.032 467.491 633.689 469.748 629.669 473.433C623.956 477.541 620.236 484.224 620.236 491.806V546.958C620.236 559.477 630.374 569.615 642.893 569.615H657.263C663.152 569.615 668.494 567.358 672.515 563.673C678.227 559.565 681.948 552.882 681.948 545.301V490.148C681.948 477.63 671.809 467.491 659.308 467.491Z" fill="#444444"/>
<path d="M326.313 209.872C329.381 212.2 333.754 211.618 336.099 208.55L358.438 179.193L347.33 170.747L324.991 200.104C322.663 203.172 323.245 207.545 326.313 209.872Z" fill="#B4B4DB"/>
<path d="M356.581 150.712L333.506 181.034L350.821 194.21L373.896 163.888L356.581 150.712Z" fill="#CACAED"/>
<path d="M431.293 154.914C414.19 177.394 382.1 181.732 359.637 164.629C337.174 147.526 332.802 115.453 349.922 92.9729C357.363 83.1872 367.677 76.8397 378.785 74.1949C393.173 70.792 408.901 73.6131 421.56 83.2577C434.238 92.9023 441.149 107.325 441.696 122.083C442.119 133.509 438.751 145.128 431.293 154.914Z" fill="white"/>
<path d="M417.734 144.599C406.326 159.586 384.939 162.478 369.969 151.088C355 139.697 352.091 118.31 363.481 103.323C374.889 88.3357 396.276 85.4441 411.246 96.8343C426.233 108.224 429.124 129.612 417.734 144.599Z" fill="#4C59E0"/>
<path d="M411.069 139.521C402.465 150.823 386.349 153.009 375.047 144.405C363.745 135.801 361.559 119.685 370.163 108.383C378.768 97.0811 394.883 94.8947 406.185 103.499C417.47 112.103 419.656 128.219 411.069 139.521Z" fill="#474E5D"/>
<path d="M405.639 135.395C399.309 143.7 387.46 145.304 379.156 138.992C370.851 132.68 369.247 120.814 375.559 112.509C381.871 104.204 393.737 102.6 402.042 108.912C410.346 115.242 411.969 127.09 405.639 135.395Z" fill="#CACAED"/>
<path d="M401.284 132.08C396.805 137.969 388.377 139.115 382.488 134.637C376.599 130.158 375.453 121.73 379.949 115.841C384.445 109.952 392.856 108.806 398.745 113.285C404.616 117.763 405.762 126.174 401.284 132.08Z" fill="#F0F0FC"/>
<path d="M395.465 127.655C393.42 130.335 389.594 130.864 386.914 128.818C384.234 126.773 383.722 122.947 385.75 120.267C387.795 117.587 391.621 117.058 394.301 119.103C396.982 121.131 397.51 124.975 395.465 127.655Z" fill="#474E5D"/>
<path d="M386.914 128.818C384.234 126.773 383.722 122.947 385.75 120.267C387.795 117.587 391.621 117.058 394.301 119.103C396.982 121.149 397.51 124.975 395.465 127.655C393.42 130.335 389.594 130.846 386.914 128.818Z" fill="#8683E4"/>
<path d="M441.714 122.083C435.666 122.718 430.394 103.199 415.195 91.6328C400.014 80.084 379.79 80.1897 378.785 74.1949C393.173 70.792 408.901 73.6131 421.56 83.2577C434.238 92.9023 441.149 107.325 441.714 122.083Z" fill="#F2994A"/>
<path opacity="0.2" d="M390.211 123C389.594 123.811 388.43 123.97 387.601 123.353C386.79 122.735 386.632 121.572 387.249 120.761C387.866 119.95 389.029 119.791 389.858 120.408C390.669 121.025 390.828 122.189 390.211 123Z" fill="white"/>
<path d="M297.044 197.547C295.581 193.563 297.608 189.155 301.593 187.691L339.678 173.656L344.985 188.062L306.9 202.097C302.915 203.578 298.507 201.532 297.044 197.547Z" fill="#CACAED"/>
<path d="M345.126 234.134C349.358 234.486 353.06 231.348 353.413 227.116L356.798 186.669L341.494 185.399L338.109 225.847C337.756 230.078 340.894 233.781 345.126 234.134Z" fill="#CACAED"/>
<g opacity="0.1">
<path opacity="0.1" d="M511.818 186.351C508.45 188.203 507.234 192.434 509.085 195.802L511.553 200.263C513.405 203.63 517.636 204.847 521.004 202.996L525.959 200.263L516.772 183.618L511.818 186.351Z" fill="#444444"/>
<path opacity="0.1" d="M663.187 116.406L660.93 112.297C659.026 108.841 654.671 107.572 651.198 109.476L646.42 112.121L655.094 127.849L638.873 98.4387L637.145 99.3908C626.619 83.6808 610.151 72.3612 592.272 67.6535C592.025 64.2681 589.31 61.5352 585.836 61.3765C570.955 60.7241 555.862 64.0566 542.198 71.0035C528.533 77.9505 516.949 88.1769 508.697 100.572C506.722 103.534 507.41 107.449 510.143 109.617C503.09 128.219 503.355 149.994 511.624 168.631L509.261 169.936L533.523 213.945L543.432 208.479L545.724 212.64C547.54 215.92 551.666 217.119 554.945 215.303L569.21 207.439C572.489 205.623 573.688 201.497 571.872 198.217L548.298 155.46L548.616 155.284L548.298 155.46L543.026 145.886C541.21 142.607 537.084 141.408 533.805 143.224L519.541 151.087C516.261 152.904 515.062 157.029 516.878 160.309L522.15 169.883L519.17 164.47L517.583 165.352C510.072 148.02 510.108 127.655 517.055 110.552C518.218 110.058 519.258 109.229 520.017 108.101C526.981 97.6453 536.785 89.0056 548.369 83.1166C559.953 77.2276 572.718 74.4065 585.272 74.953C586.489 75.0059 587.635 74.7415 588.64 74.2301C588.851 74.1244 589.063 74.0009 589.257 73.8599C605.901 77.8976 621.365 88.2651 631.221 102.688L628.999 103.922L626.707 99.7611C624.891 96.4816 620.765 95.2826 617.486 97.0987L603.204 104.962C599.924 106.779 598.725 110.904 600.541 114.184L629.405 166.515C631.221 169.795 635.347 170.994 638.626 169.178L652.908 161.314C656.188 159.498 657.387 155.372 655.57 152.092L640.689 125.098L653.278 147.931L663.187 142.465L655.641 128.783L660.419 126.138C663.84 124.216 665.109 119.861 663.187 116.406ZM522.132 169.883L530.825 185.646L522.132 169.883Z" fill="#444444"/>
</g>
<path opacity="0.1" d="M171.646 461.532L71.3738 398.269C68.6232 396.541 65.0087 397.352 63.2631 400.102L19.1835 469.977C17.4555 472.728 18.2666 476.342 21.0172 478.088L121.29 541.351C124.04 543.079 127.655 542.268 129.4 539.517L153.997 500.533L161.191 489.143L173.498 469.642C175.208 466.892 174.397 463.26 171.646 461.532Z" fill="#444444"/>
<path d="M622.176 544.86C622.176 557.378 632.314 567.517 644.833 567.517H659.22C671.739 567.517 681.877 557.378 681.877 544.86V489.725C681.877 477.224 671.739 467.068 659.22 467.068H644.833C632.314 467.068 622.176 477.206 622.176 489.725V544.86Z" fill="#B7B7CE"/>
<path d="M624.203 543.203C624.203 555.721 634.342 565.86 646.86 565.86H661.248C673.767 565.86 683.905 555.721 683.905 543.203V488.05C683.905 475.549 673.767 465.393 661.248 465.393H646.86C634.342 465.393 624.203 475.531 624.203 488.05V543.203Z" fill="#E1E1EF"/>
<path d="M647.46 489.707C647.46 493.34 650.404 496.302 654.054 496.302C657.686 496.302 660.648 493.357 660.648 489.707C660.648 486.058 657.704 483.113 654.054 483.113C650.404 483.113 647.46 486.075 647.46 489.707Z" fill="#4C59E0"/>
<path d="M293.253 698.98C293.077 698.998 292.953 699.015 292.953 699.015L270.155 687.572C268.939 686.973 267.475 687.449 266.876 688.666L254.093 714.108C253.493 715.307 253.969 716.788 255.186 717.388C255.186 717.388 266.594 723.118 278.196 728.954L293.253 698.98Z" fill="#CECDE8"/>
<path d="M259.687 707.607L258.793 709.387L282.032 721.062L282.927 719.281L259.687 707.607Z" fill="#4C59E0"/>
<path d="M258.016 710.94L257.122 712.72L280.362 724.395L281.256 722.614L258.016 710.94Z" fill="#4C59E0"/>
<path d="M261.349 704.322L260.455 706.103L283.695 717.777L284.589 715.997L261.349 704.322Z" fill="#4C59E0"/>
<path d="M262.987 701.044L262.093 702.824L285.333 714.499L286.227 712.718L262.987 701.044Z" fill="#4C59E0"/>
<path d="M264.65 697.752L263.756 699.532L286.996 711.207L287.89 709.426L264.65 697.752Z" fill="#4C59E0"/>
<path d="M266.296 694.457L265.402 696.237L288.642 707.912L289.536 706.132L266.296 694.457Z" fill="#4C59E0"/>
<path d="M267.95 691.18L267.055 692.96L290.295 704.635L291.189 702.855L267.95 691.18Z" fill="#4C59E0"/>
<path d="M367.007 744.788C366.567 744.558 366.108 744.4 365.65 744.241L367.713 740.133C369.582 736.413 368.083 731.864 364.345 729.995L291.807 693.549L272.994 731L345.532 767.445C349.252 769.314 353.801 767.815 355.67 764.077L357.733 759.969C358.121 760.251 358.526 760.515 358.985 760.745C363.393 762.966 368.753 761.185 370.975 756.777C373.196 752.369 371.415 747.009 367.007 744.788ZM360.536 757.677C360.078 757.447 359.69 757.165 359.32 756.848L364.08 747.38C364.556 747.468 365.015 747.626 365.473 747.856C368.189 749.213 369.282 752.528 367.924 755.226C366.549 757.959 363.252 759.052 360.536 757.677Z" fill="#F2994A"/>
<path d="M290.887 692.323L271.504 730.909L274.229 732.279L293.613 693.693L290.887 692.323Z" fill="#CECDE8"/>
<path d="M171.928 462.501L127.849 532.377C126.121 535.127 122.489 535.938 119.738 534.21L19.4656 470.947C16.715 469.219 15.904 465.587 17.6319 462.836L61.7115 392.961C63.4395 390.211 67.0716 389.4 69.8222 391.128L170.095 454.391C172.828 456.119 173.656 459.751 171.928 462.501Z" fill="white"/>
<path d="M23.7854 464.353C24.667 464.917 24.9315 466.081 24.3849 466.962C23.8206 467.844 22.6569 468.108 21.7753 467.562C20.8938 466.998 20.6293 465.834 21.1759 464.952C21.7225 464.071 22.8862 463.806 23.7854 464.353Z" fill="#4C59E0"/>
<path d="M67.8122 394.566C68.6937 395.13 68.9582 396.294 68.4116 397.175C67.8474 398.057 66.6837 398.321 65.8021 397.775C64.9205 397.211 64.656 396.047 65.2026 395.148C65.7492 394.284 66.9306 394.002 67.8122 394.566Z" fill="#4C59E0"/>
<path d="M123.247 527.122C124.128 527.686 124.393 528.85 123.846 529.732C123.282 530.613 122.118 530.878 121.237 530.331C120.355 529.767 120.091 528.603 120.637 527.722C121.201 526.823 122.365 526.558 123.247 527.122Z" fill="#4C59E0"/>
<path d="M167.291 457.335C168.173 457.899 168.437 459.063 167.891 459.945C167.326 460.826 166.163 461.091 165.281 460.544C164.4 459.98 164.135 458.816 164.682 457.935C165.228 457.036 166.392 456.771 167.291 457.335Z" fill="#4C59E0"/>
<path d="M154.416 478.736L147.228 490.129L152.417 493.403L159.605 482.011L154.416 478.736Z" fill="#CACAED"/>
<path d="M153.115 480.821L156.747 483.113L157.364 482.143L153.732 479.851L153.115 480.821ZM155.46 485.141L156.077 484.171L152.445 481.879L151.828 482.849L155.46 485.141ZM154.155 487.186L154.773 486.216L151.14 483.924L150.523 484.894L154.155 487.186ZM152.868 489.231L153.485 488.262L149.853 485.97L149.236 486.939L152.868 489.231ZM151.581 491.277L152.198 490.307L148.566 488.015L147.949 488.985L151.581 491.277Z" fill="#8683E4"/>
<path d="M105.421 420.397C124.763 432.598 130.564 458.199 118.345 477.542C106.144 496.901 80.5424 502.685 61.2002 490.466C41.8581 478.264 36.0572 452.681 48.2761 433.321C60.4949 413.979 86.0788 408.195 105.421 420.397Z" fill="#4C59E0"/>
<path d="M96.1466 449.013C99.6906 456.101 96.8342 464.723 89.7462 468.285C82.6582 471.829 74.0362 468.973 70.4746 461.885C66.9306 454.797 69.787 446.175 76.875 442.613C83.9806 439.051 92.6026 441.925 96.1466 449.013Z" fill="#E1E1EF"/>
<path d="M94.9476 449.613C98.1743 456.031 95.5648 463.859 89.1468 467.068C82.7288 470.295 74.9002 467.685 71.6912 461.267C68.4822 454.849 71.0741 447.021 77.4921 443.812C83.9101 440.585 91.7386 443.177 94.9476 449.613Z" fill="#8683E4"/>
<path d="M89.4641 452.363C91.1567 455.749 89.7991 459.874 86.3961 461.585C83.0108 463.277 78.885 461.902 77.1747 458.517C75.482 455.132 76.8573 451.006 80.2426 449.295C83.6279 447.603 87.7538 448.978 89.4641 452.363Z" fill="#E1E1EF"/>
<path d="M75.4292 459.398C75.7642 460.051 75.4997 460.862 74.8297 461.197C74.1773 461.532 73.3663 461.267 73.0313 460.597C72.6962 459.945 72.9607 459.134 73.6307 458.799C74.2831 458.464 75.0942 458.728 75.4292 459.398Z" fill="#E1E1EF"/>
<path d="M93.59 450.283C93.925 450.935 93.6605 451.746 92.9905 452.081C92.3381 452.416 91.527 452.152 91.192 451.482C90.857 450.829 91.1215 450.018 91.7915 449.683C92.4615 449.366 93.2726 449.63 93.59 450.283Z" fill="#E1E1EF"/>
<path d="M87.2778 463.33C87.9301 462.995 88.7412 463.26 89.0762 463.93C89.4112 464.582 89.1467 465.393 88.4767 465.728C87.8243 466.063 87.0133 465.799 86.6783 465.129C86.3433 464.459 86.6077 463.665 87.2778 463.33Z" fill="#E1E1EF"/>
<path d="M78.162 445.152C78.8144 444.817 79.6255 445.081 79.9605 445.751C80.2955 446.404 80.031 447.215 79.361 447.55C78.7086 447.885 77.8976 447.62 77.5626 446.95C77.2452 446.28 77.5097 445.487 78.162 445.152Z" fill="#E1E1EF"/>
<path d="M606.677 114.466L635.029 98.8443L606.677 114.466Z" fill="#E1E0FE"/>
<path d="M543.943 63.7744L539.8 66.0489C506.193 84.58 496.372 131.463 514.921 165.069L549.197 146.168L520.863 161.79C504.13 131.445 512.752 88.7058 543.079 71.9908L547.223 69.7163C577.567 52.9837 618.297 68.5174 635.029 98.8442L640.971 95.5646C622.423 61.9583 577.549 45.2433 543.943 63.7744Z" fill="#E1E0FE"/>
<path d="M519.747 155.351L509.834 160.817L534.1 204.822L544.013 199.356L519.747 155.351Z" fill="#DBDBE6"/>
<path d="M521.586 193.88L526.54 191.147L517.354 174.502L512.4 177.235C509.032 179.087 507.815 183.318 509.667 186.686L512.135 191.147C513.987 194.515 518.218 195.749 521.586 193.88Z" fill="#5468DA"/>
<path d="M572.454 189.102C574.27 192.381 573.071 196.507 569.791 198.323L555.527 206.187C552.248 208.003 548.104 206.804 546.306 203.524L517.442 151.193C515.626 147.914 516.825 143.77 520.105 141.972L534.369 134.09C537.648 132.274 541.792 133.473 543.59 136.753L572.454 189.102Z" fill="#4C59E0"/>
<path d="M639.481 89.3145L629.568 94.7808L653.835 138.785L663.747 133.319L639.481 89.3145Z" fill="#DBDBE6"/>
<path d="M660.966 117.023L656.188 119.668L647.001 103.023L651.78 100.378C655.236 98.474 659.608 99.7259 661.512 103.199L663.769 107.308C665.691 110.763 664.439 115.119 660.966 117.023Z" fill="#5468DA"/>
<path d="M629.951 157.4C631.767 160.679 635.893 161.878 639.173 160.062L653.455 152.198C656.734 150.382 657.933 146.256 656.117 142.977L627.254 90.6455C625.438 87.3659 621.312 86.167 618.032 87.9831L603.75 95.8469C600.471 97.663 599.272 101.789 601.088 105.068L629.951 157.4Z" fill="#4C59E0"/>
<path d="M589.186 65.1145C588.181 65.6258 587.035 65.8903 585.819 65.8374C573.265 65.2908 560.517 68.1119 548.915 74.0009C537.331 79.8899 527.528 88.5296 520.563 98.9853C518.483 102.106 514.269 102.952 511.148 100.872C508.027 98.7913 507.181 94.5773 509.261 91.4565C517.513 79.0613 529.097 68.8348 542.762 61.8878C556.426 54.9409 571.519 51.6084 586.401 52.2608C590.139 52.4195 593.048 55.5932 592.889 59.3312C592.801 61.8878 591.302 64.0389 589.186 65.1145Z" fill="#9696CC"/>
<path d="M629.528 403.012C627.377 409.835 620.095 413.626 613.272 411.457L553.27 392.485C546.447 390.334 542.674 383.052 544.825 376.229L594.229 219.975C596.38 213.152 603.662 209.378 610.486 211.53L670.487 230.501C677.311 232.652 681.101 239.934 678.933 246.758L629.528 403.012Z" fill="#E1E1EF"/>
<path d="M595.65 232.175L554.467 362.417L629.6 386.175L670.783 255.932L595.65 232.175Z" fill="white"/>
<path d="M627.483 358.491C627.112 359.637 625.878 360.29 624.732 359.919L571.554 343.099C570.408 342.728 569.756 341.512 570.126 340.348C570.497 339.202 571.713 338.55 572.877 338.92L626.055 355.741C627.201 356.111 627.835 357.345 627.483 358.491Z" fill="#F2994A"/>
<path d="M624.997 366.32C624.627 367.466 623.392 368.118 622.246 367.748L569.068 350.927C567.922 350.557 567.27 349.34 567.64 348.177C568.011 347.031 569.227 346.378 570.391 346.748L623.569 363.569C624.732 363.922 625.367 365.156 624.997 366.32Z" fill="#F2994A"/>
<path d="M630.075 350.275C629.704 351.421 628.47 352.055 627.324 351.703L574.146 334.882C573 334.512 572.348 333.295 572.718 332.131C573.088 330.985 574.305 330.333 575.469 330.703L628.646 347.524C629.793 347.894 630.445 349.111 630.075 350.275Z" fill="#F2994A"/>
<path d="M644.533 304.52C644.163 305.666 642.928 306.319 641.782 305.948L588.605 289.128C587.458 288.757 586.806 287.541 587.176 286.377C587.547 285.231 588.763 284.579 589.927 284.949L643.105 301.77C644.268 302.14 644.903 303.374 644.533 304.52Z" fill="#F6F9FD"/>
<path d="M642.064 312.349C641.694 313.495 640.46 314.147 639.314 313.777L586.136 296.956C584.99 296.586 584.338 295.369 584.708 294.205C585.078 293.059 586.295 292.407 587.458 292.777L640.636 309.598C641.782 309.968 642.435 311.185 642.064 312.349Z" fill="#F6F9FD"/>
<path d="M647.142 296.304C646.772 297.45 645.538 298.084 644.392 297.732L591.214 280.911C590.068 280.541 589.416 279.324 589.786 278.16C590.156 277.014 591.373 276.362 592.536 276.732L645.714 293.553C646.86 293.923 647.495 295.157 647.142 296.304Z" fill="#F6F9FD"/>
<path d="M625.755 340.083L582.151 326.295C579.489 325.449 578.008 322.61 578.854 319.93L582.857 307.271C583.703 304.608 586.542 303.127 589.222 303.973L632.825 317.762C635.488 318.608 636.969 321.447 636.122 324.127L632.12 336.786C631.274 339.449 628.435 340.93 625.755 340.083Z" fill="#4C59E0"/>
<path d="M615.564 278.407L597.755 272.783C595.745 272.148 594.635 270.014 595.269 268.004L600.894 250.196C601.529 248.186 603.662 247.075 605.672 247.71L623.48 253.335C625.49 253.969 626.601 256.103 625.966 258.113L620.342 275.921C619.725 277.931 617.574 279.042 615.564 278.407Z" fill="#4C59E0"/>
<path d="M643.757 287.329L625.949 281.704C623.939 281.07 622.828 278.936 623.463 276.926L629.087 259.118C629.722 257.108 631.855 255.997 633.866 256.632L651.674 262.256C653.684 262.891 654.795 265.025 654.16 267.035L648.535 284.843C647.9 286.835 645.767 287.964 643.757 287.329Z" fill="#4C59E0"/>
<path d="M595.164 391.657C593.788 395.994 589.169 398.392 584.831 397.034C580.494 395.659 578.096 391.04 579.454 386.702C580.829 382.365 585.448 379.967 589.786 381.324C594.141 382.7 596.539 387.319 595.164 391.657Z" fill="#CACAED"/>
<path d="M751.84 147.138C748.649 145.798 747.115 142.095 748.455 138.904L764.659 100.043C765.999 96.8519 769.701 95.318 772.893 96.658C776.084 97.998 777.618 101.701 776.278 104.892L760.074 143.753C758.734 146.944 755.032 148.46 751.84 147.138Z" fill="#4C59E0"/>
<path d="M738.035 111.733C739.375 108.542 743.077 107.008 746.269 108.348L785.129 124.552C788.321 125.892 789.855 129.594 788.515 132.786C787.175 135.977 783.472 137.511 780.281 136.171L741.42 119.985C738.229 118.645 736.695 114.942 738.035 111.733Z" fill="#4C59E0"/>
<path d="M39.9891 812.3C37.5735 811.295 36.4275 808.509 37.4325 806.094L49.6337 776.842C50.6388 774.427 53.4246 773.281 55.8402 774.286C58.2557 775.291 59.4018 778.077 58.3968 780.492L46.1955 809.744C45.1905 812.159 42.4047 813.305 39.9891 812.3Z" fill="#4C59E0"/>
<path d="M29.6039 785.658C30.6089 783.243 33.3948 782.097 35.8103 783.102L65.0616 795.303C67.4772 796.308 68.6233 799.094 67.6182 801.51C66.6132 803.925 63.8274 805.071 61.4118 804.066L32.1606 791.865C29.745 790.86 28.5989 788.074 29.6039 785.658Z" fill="#4C59E0"/>
<path d="M761.644 720.032C759.863 721.126 757.5 720.561 756.407 718.781L743.113 697.111C742.019 695.33 742.584 692.968 744.364 691.874C746.145 690.781 748.508 691.345 749.601 693.126L762.895 714.796C763.989 716.577 763.424 718.939 761.644 720.032Z" fill="#4C59E0"/>
<path d="M739.445 714.267C738.352 712.486 738.916 710.123 740.697 709.03L762.367 695.736C764.147 694.643 766.51 695.207 767.603 696.988C768.696 698.768 768.132 701.131 766.351 702.224L744.682 715.519C742.883 716.612 740.538 716.048 739.445 714.267Z" fill="#4C59E0"/>
<path d="M426.726 11.1962C426.726 11.1962 445.593 13.7881 450.618 24.5964C455.643 35.3871 464.864 29.692 473.257 29.1983C481.632 28.687 489.179 42.2107 489.179 50.9561L478.705 55.364C478.705 55.364 477.03 40.0419 465.71 41.4877C454.391 42.9336 443.071 45.6665 439.721 30.891C436.371 16.1155 419.18 21.934 419.18 21.934L426.726 11.1962Z" fill="#F2994A"/>
<path d="M400.984 7.54644L425.721 35.2814L437.358 0L400.984 7.54644Z" fill="#F2994A"/>
<path d="M583.456 723.559C583.456 723.559 572.084 738.828 560.2 738.035C548.316 737.241 548.862 748.067 545.265 755.649C541.669 763.231 526.188 763.336 518.518 759.105L519.699 747.803C519.699 747.803 533.928 753.727 538.125 743.113C542.321 732.498 545.371 721.267 559.935 725.463C574.499 729.642 577.673 711.781 577.673 711.781L583.456 723.559Z" fill="#F2994A"/>
<path d="M599.06 702.771L562.844 711.058L588.146 738.281L599.06 702.771Z" fill="#F2994A"/>
<path d="M10.0149 392.821C10.0149 392.821 5.53643 380.831 10.3323 374.413C15.1105 367.995 8.81596 364.363 5.83617 359.567C2.87402 354.771 8.46332 346.008 13.6295 343.204L19.5714 348C19.5714 348 11.0376 353.872 15.4984 360.113C19.9593 366.355 25.1783 372.174 17.5085 378.856C9.8386 385.556 18.7603 393.861 18.7603 393.861L10.0149 392.821Z" fill="#F2994A"/>
<path d="M16.0626 409.2L24.5788 385.732L0 390.088L16.0626 409.2Z" fill="#F2994A"/>
<path d="M749.16 555.898C749.16 561.152 744.894 565.401 739.657 565.401C734.403 565.401 730.153 561.134 730.153 555.898C730.153 550.643 734.42 546.394 739.657 546.394C744.911 546.394 749.16 550.643 749.16 555.898Z" fill="#F2F2F2"/>
<path d="M110.305 144.476C110.305 149.73 106.038 153.979 100.801 153.979C95.5471 153.979 91.2978 149.712 91.2978 144.476C91.2978 139.221 95.5647 134.972 100.801 134.972C106.038 134.954 110.305 139.221 110.305 144.476Z" fill="#F2F2F2"/>
<path d="M690.411 205.288C690.411 207.915 688.278 210.049 685.65 210.049C683.023 210.049 680.89 207.915 680.89 205.288C680.89 202.661 683.023 200.527 685.65 200.527C688.278 200.545 690.411 202.661 690.411 205.288Z" fill="#F2F2F2"/>
<path d="M695.277 67.918C695.277 71.5678 692.315 74.5299 688.665 74.5299C685.016 74.5299 682.054 71.5678 682.054 67.918C682.054 64.2682 685.016 61.306 688.665 61.306C692.315 61.306 695.277 64.2682 695.277 67.918Z" fill="#F2F2F2"/>
<path d="M449.736 756.319C449.736 761.891 445.222 766.404 439.651 766.404C434.079 766.404 429.565 761.891 429.565 756.319C429.565 750.747 434.079 746.233 439.651 746.233C445.222 746.216 449.736 750.73 449.736 756.319Z" fill="#F2F2F2"/>
</svg>
