<svg width="2000" height="6180" viewBox="0 0 2000 6180" fill="none" xmlns="http://www.w3.org/2000/svg">
<mask id="mask0" mask-type="alpha" maskUnits="userSpaceOnUse" x="0" y="0" width="2000" height="6180">
<rect width="2000" height="6180" fill="#C4C4C4"/>
</mask>
<g mask="url(#mask0)">
<path opacity="0.297283" fill-rule="evenodd" clip-rule="evenodd" d="M1655.38 -2284.49C1688.56 -2334.99 1758.61 -2344.75 1804.33 -2305.24L2871.22 -1383.38C2915.87 -1344.79 2917.58 -1276.13 2874.89 -1235.38L933.712 617.639C915.866 634.674 892.354 644.511 867.695 645.259L-100.742 674.634C-181.651 677.088 -231.798 587.412 -187.346 519.764L1655.38 -2284.49Z" fill="#91B7DC"/>
<g filter="url(#filter0_d)">
<rect x="1884" y="2136.28" width="1413.86" height="1413.86" rx="100" transform="rotate(45 1884 2136.28)" fill="#F6F9FD"/>
</g>
<g filter="url(#filter1_d)">
<rect x="328" y="3377" width="715" height="715" rx="100" transform="rotate(45 328 3377)" fill="#F6F9FD"/>
</g>
<g filter="url(#filter2_d)">
<rect width="1117.94" height="1117.94" rx="100" transform="matrix(-0.707107 0.707107 0.707107 0.707107 1884 4593)" fill="#F6F9FD"/>
</g>
<g filter="url(#filter3_d)">
<path fill-rule="evenodd" clip-rule="evenodd" d="M596.403 -1113.58C634.631 -1156.57 701.164 -1158.52 741.844 -1117.84L1564.21 -295.478C1603.26 -256.425 1603.26 -193.109 1564.21 -154.057L705.256 704.894C681.404 728.746 647.134 738.966 614.114 732.074L-615.968 475.331C-691.212 459.626 -721.343 368.435 -670.267 310.993L596.403 -1113.58Z" fill="#F6F9FD"/>
</g>
<g filter="url(#filter4_d)">
<rect width="715" height="715" rx="100" transform="matrix(-0.707107 0.707107 0.707107 0.707107 328 1858)" fill="#F6F9FD"/>
</g>
</g>
<defs>
<filter id="filter0_d" x="893.671" y="2147.7" width="2006.66" height="2006.66" filterUnits="userSpaceOnUse" color-interpolation-filters="sRGB">
<feFlood flood-opacity="0" result="BackgroundImageFix"/>
<feColorMatrix in="SourceAlpha" type="matrix" values="0 0 0 0 0 0 0 0 0 0 0 0 0 0 0 0 0 0 127 0"/>
<feOffset dx="13" dy="15"/>
<feGaussianBlur stdDeviation="22.5"/>
<feColorMatrix type="matrix" values="0 0 0 0 0.0901961 0 0 0 0 0.501961 0 0 0 0 0.878431 0 0 0 0.271031 0"/>
<feBlend mode="normal" in2="BackgroundImageFix" result="effect1_dropShadow"/>
<feBlend mode="normal" in="SourceGraphic" in2="effect1_dropShadow" result="shape"/>
</filter>
<filter id="filter1_d" x="-181.16" y="3388.42" width="1018.32" height="1018.32" filterUnits="userSpaceOnUse" color-interpolation-filters="sRGB">
<feFlood flood-opacity="0" result="BackgroundImageFix"/>
<feColorMatrix in="SourceAlpha" type="matrix" values="0 0 0 0 0 0 0 0 0 0 0 0 0 0 0 0 0 0 127 0"/>
<feOffset dy="15"/>
<feGaussianBlur stdDeviation="22.5"/>
<feColorMatrix type="matrix" values="0 0 0 0 0.0901961 0 0 0 0 0.501961 0 0 0 0 0.878431 0 0 0 0.212891 0"/>
<feBlend mode="normal" in2="BackgroundImageFix" result="effect1_dropShadow"/>
<feBlend mode="normal" in="SourceGraphic" in2="effect1_dropShadow" result="shape"/>
</filter>
<filter id="filter2_d" x="1089.92" y="4604.42" width="1588.16" height="1588.16" filterUnits="userSpaceOnUse" color-interpolation-filters="sRGB">
<feFlood flood-opacity="0" result="BackgroundImageFix"/>
<feColorMatrix in="SourceAlpha" type="matrix" values="0 0 0 0 0 0 0 0 0 0 0 0 0 0 0 0 0 0 127 0"/>
<feOffset dy="15"/>
<feGaussianBlur stdDeviation="22.5"/>
<feColorMatrix type="matrix" values="0 0 0 0 0.0901961 0 0 0 0 0.501961 0 0 0 0 0.878431 0 0 0 0.212891 0"/>
<feBlend mode="normal" in2="BackgroundImageFix" result="effect1_dropShadow"/>
<feBlend mode="normal" in="SourceGraphic" in2="effect1_dropShadow" result="shape"/>
</filter>
<filter id="filter3_d" x="-744.621" y="-1194.13" width="2387.12" height="1979.32" filterUnits="userSpaceOnUse" color-interpolation-filters="sRGB">
<feFlood flood-opacity="0" result="BackgroundImageFix"/>
<feColorMatrix in="SourceAlpha" type="matrix" values="0 0 0 0 0 0 0 0 0 0 0 0 0 0 0 0 0 0 127 0"/>
<feOffset dy="2"/>
<feGaussianBlur stdDeviation="24.5"/>
<feColorMatrix type="matrix" values="0 0 0 0 0.0901961 0 0 0 0 0.501961 0 0 0 0 0.878431 0 0 0 0.271031 0"/>
<feBlend mode="normal" in2="BackgroundImageFix" result="effect1_dropShadow"/>
<feBlend mode="normal" in="SourceGraphic" in2="effect1_dropShadow" result="shape"/>
</filter>
<filter id="filter4_d" x="-168.16" y="1869.42" width="1018.32" height="1018.32" filterUnits="userSpaceOnUse" color-interpolation-filters="sRGB">
<feFlood flood-opacity="0" result="BackgroundImageFix"/>
<feColorMatrix in="SourceAlpha" type="matrix" values="0 0 0 0 0 0 0 0 0 0 0 0 0 0 0 0 0 0 127 0"/>
<feOffset dx="13" dy="15"/>
<feGaussianBlur stdDeviation="22.5"/>
<feColorMatrix type="matrix" values="0 0 0 0 0.0901961 0 0 0 0 0.501961 0 0 0 0 0.878431 0 0 0 0.271031 0"/>
<feBlend mode="normal" in2="BackgroundImageFix" result="effect1_dropShadow"/>
<feBlend mode="normal" in="SourceGraphic" in2="effect1_dropShadow" result="shape"/>
</filter>
</defs>
</svg>
