<svg width="360" height="6180" viewBox="0 0 360 6180" fill="none" xmlns="http://www.w3.org/2000/svg">
<mask id="mask0" mask-type="alpha" maskUnits="userSpaceOnUse" x="0" y="0" width="360" height="6180">
<rect width="360" height="6180" fill="#C4C4C4"/>
</mask>
<g mask="url(#mask0)">
<path opacity="0.297283" fill-rule="evenodd" clip-rule="evenodd" d="M845.378 -2284.49C878.562 -2334.99 948.608 -2344.75 994.33 -2305.24L2061.22 -1383.38C2105.87 -1344.79 2107.58 -1276.13 2064.89 -1235.38L123.712 617.639C105.867 634.674 82.354 644.511 57.6945 645.259L-910.742 674.634C-991.651 677.088 -1041.8 587.412 -997.346 519.764L845.378 -2284.49Z" fill="#91B7DC"/>
<g filter="url(#filter0_d)">
<path fill-rule="evenodd" clip-rule="evenodd" d="M-213.597 -1113.58C-175.369 -1156.57 -108.836 -1158.52 -68.1557 -1117.84L754.207 -295.478C793.259 -256.426 793.259 -193.109 754.207 -154.057L-104.744 704.894C-128.596 728.746 -162.866 738.966 -195.886 732.074L-1425.97 475.331C-1501.21 459.626 -1531.34 368.435 -1480.27 310.993L-213.597 -1113.58Z" fill="#F6F9FD"/>
</g>
</g>
<defs>
<filter id="filter0_d" x="-1675.01" y="-1235.55" width="2548.92" height="2548.92" filterUnits="userSpaceOnUse" color-interpolation-filters="sRGB">
<feFlood flood-opacity="0" result="BackgroundImageFix"/>
<feColorMatrix in="SourceAlpha" type="matrix" values="0 0 0 0 0 0 0 0 0 0 0 0 0 0 0 0 0 0 127 0"/>
<feOffset dy="2"/>
<feGaussianBlur stdDeviation="24.5"/>
<feColorMatrix type="matrix" values="0 0 0 0 0.0901961 0 0 0 0 0.501961 0 0 0 0 0.878431 0 0 0 0.271031 0"/>
<feBlend mode="normal" in2="BackgroundImageFix" result="effect1_dropShadow"/>
<feBlend mode="normal" in="SourceGraphic" in2="effect1_dropShadow" result="shape"/>
</filter>
</defs>
</svg>
