<svg width="18" height="17" viewBox="0 0 18 17" fill="none" xmlns="http://www.w3.org/2000/svg">
<path d="M17.7071 7.93059L10.7071 0.930589C10.3166 0.540064 9.68342 0.540064 9.29289 0.930589C8.93241 1.29107 8.90468 1.8583 9.2097 2.2506L9.29289 2.3448L14.586 7.6377H1C0.487164 7.6377 0.0644928 8.02374 0.0067277 8.52107L0 8.6377C0 9.15053 0.38604 9.5732 0.883379 9.63097L1 9.6377H14.586L9.29289 14.9306C8.93241 15.2911 8.90468 15.8583 9.2097 16.2506L9.29289 16.3448C9.65338 16.7053 10.2206 16.733 10.6129 16.428L10.7071 16.3448L17.7071 9.3448L17.8037 9.233L17.8753 9.12176L17.9288 9.00903L17.9642 8.90369L17.989 8.78616L17.996 8.72695L17.9998 8.61852L17.996 8.54845L17.9798 8.43697L17.9503 8.32555L17.9063 8.21447L17.854 8.11699L17.7872 8.02095C17.7623 7.98923 17.7356 7.95906 17.7071 7.93059Z" fill="white"/>
</svg>
