<svg width="18" height="17" viewBox="0 0 18 17" fill="none" xmlns="http://www.w3.org/2000/svg">
<path d="M17.7071 7.93083L10.7071 0.930833C10.3166 0.540308 9.68342 0.540308 9.29289 0.930833C8.93241 1.29132 8.90468 1.85855 9.2097 2.25084L9.29289 2.34505L14.586 7.63794H1C0.487164 7.63794 0.0644928 8.02398 0.0067277 8.52132L0 8.63794C0 9.15078 0.38604 9.57345 0.883379 9.63121L1 9.63794H14.586L9.29289 14.9308C8.93241 15.2913 8.90468 15.8585 9.2097 16.2508L9.29289 16.345C9.65338 16.7055 10.2206 16.7333 10.6129 16.4282L10.7071 16.345L17.7071 9.34505L17.8037 9.23325L17.8753 9.122L17.9288 9.00928L17.9642 8.90393L17.989 8.78641L17.996 8.72719L17.9998 8.61876L17.996 8.54869L17.9798 8.43721L17.9503 8.3258L17.9063 8.21472L17.854 8.11723L17.7872 8.02119C17.7623 7.98947 17.7356 7.9593 17.7071 7.93083L10.7071 0.930833L17.7071 7.93083Z" fill="url(#paint0_linear)"/>
<defs>
<linearGradient id="paint0_linear" x1="9.24604" y1="26.4681" x2="24.7441" y2="8.97829" gradientUnits="userSpaceOnUse">
<stop stop-color="#102397"/>
<stop offset="0.552714" stop-color="#187ADF"/>
<stop offset="1" stop-color="#00EAF8"/>
</linearGradient>
</defs>
</svg>
