<svg width="643" height="612" viewBox="0 0 643 612" fill="none" xmlns="http://www.w3.org/2000/svg">
<path d="M630.577 179.37L323.363 1.92657C319.926 -0.189004 316.225 -0.45345 313.052 0.604335L312.523 0.868777C312.523 0.868777 312.523 0.868777 312.259 0.868777L301.155 5.09993L311.202 9.85996C311.202 10.1244 311.202 10.1244 310.937 10.3889L260.969 238.077C258.589 249.448 263.348 262.671 272.073 267.695L571.619 440.643L570.562 453.336L582.723 448.576C586.689 446.725 590.126 442.23 591.448 436.147L641.416 208.459C644.06 197.617 639.301 184.395 630.577 179.37Z" fill="#CACAED"/>
<path d="M630.577 179.37L323.363 1.92657C319.926 -0.189004 316.225 -0.45345 313.052 0.604335L312.524 0.868777C312.524 0.868777 312.524 0.868777 312.259 0.868777L301.155 5.09993L311.202 9.85996C311.202 10.1244 311.202 10.1244 310.937 10.3889L277.889 160.594L428.059 277.744L639.83 191.535C638.244 186.246 634.807 181.75 630.577 179.37Z" fill="#DBDAFA"/>
<path d="M618.942 214.277L642.208 204.228C642.737 195.237 638.771 185.717 632.69 180.692L595.677 196.295L618.942 214.277Z" fill="#CACAED"/>
<path d="M560.251 452.543L253.302 275.1C244.577 270.075 239.554 256.853 242.198 245.482L292.166 17.7936C294.546 6.42243 303.799 1.13351 312.524 6.15798L619.473 183.601C628.198 188.626 633.221 201.848 630.577 213.219L580.609 440.908C577.965 452.543 568.976 457.568 560.251 452.543Z" fill="white"/>
<path d="M553.642 435.619L264.935 269.018C257.004 264.522 252.509 252.357 254.624 241.78L300.363 33.3959C302.742 23.0825 310.938 18.3225 318.87 22.818L607.576 189.419C615.508 193.915 620.002 206.079 617.887 216.657L572.149 425.041C569.769 435.619 561.574 440.114 553.642 435.619Z" fill="white"/>
<path d="M553.642 435.619L264.935 269.018C257.004 264.522 252.509 252.357 254.624 241.78L300.363 33.3959C302.742 23.0825 310.938 18.3225 318.87 22.818L607.576 189.419C615.508 193.915 620.002 206.079 617.887 216.657L572.149 425.041C569.769 435.619 561.574 440.114 553.642 435.619Z" fill="#0075C5"/>
<path d="M564.481 460.212L522.444 454.658L251.451 298.106C242.727 293.082 227.657 293.611 217.61 299.428L25.6679 410.231L0.287138 406.794V421.074C0.0227546 424.512 2.13782 427.685 6.10358 430.065L313.053 607.508C321.777 612.533 336.847 612.004 346.894 606.186L556.021 485.599C561.573 482.425 564.481 478.194 564.217 474.227V460.212H564.481Z" fill="#CACAED"/>
<path d="M360.906 361.309L341.606 350.202H130.099L25.6679 410.496L0.287138 407.058V421.338C0.0227547 424.776 2.13782 427.949 6.10358 430.329L313.053 607.773C317.547 610.417 324.157 611.475 330.502 610.946L360.906 361.309Z" fill="#DBDAFA"/>
<path d="M11.3906 408.645L0.0220625 407.059V421.339C-0.242321 424.776 1.87274 427.95 5.83849 430.33L11.1262 433.503V408.645H11.3906Z" fill="#E1E1EF"/>
<path d="M316.224 609.36C324.42 612.533 336.317 611.74 345.042 607.509V575.511H316.224V609.36Z" fill="#CACAED"/>
<path d="M313.053 593.493L6.10335 416.05C-2.6213 411.025 -1.56377 402.299 8.4828 396.481L217.61 275.893C227.657 270.075 242.727 269.547 251.451 274.571L558.4 452.015C567.125 457.039 566.068 465.766 556.021 471.584L346.894 592.171C337.111 597.724 321.777 598.518 313.053 593.493Z" fill="white"/>
<path d="M556.022 466.03L346.894 586.617C336.848 592.435 321.778 592.964 313.053 587.939L6.10394 410.76C3.19573 409.174 1.60942 407.058 0.816274 404.942C-0.505643 409.174 1.08066 413.14 6.10394 416.049L313.053 593.493C321.778 598.517 336.848 597.988 346.894 592.17L556.022 471.583C562.631 467.616 565.539 462.327 563.953 457.832C562.896 460.741 560.252 463.649 556.022 466.03Z" fill="white"/>
<path d="M136.709 357.342L122.696 349.409C121.639 348.88 121.639 347.558 122.961 346.764L139.353 337.244C140.675 336.451 142.525 336.451 143.583 336.98L157.595 344.913C158.653 345.442 158.653 346.764 157.331 347.558L140.939 357.078C139.881 357.871 137.766 358.136 136.709 357.342Z" fill="#CACAED"/>
<path d="M158.125 369.771L144.112 361.838C143.055 361.309 143.055 359.986 144.377 359.193L160.769 349.673C162.091 348.88 163.941 348.88 164.999 349.409L179.011 357.342C180.069 357.871 180.069 359.193 178.747 359.986L162.355 369.507C161.297 370.3 159.182 370.3 158.125 369.771Z" fill="#CACAED"/>
<path d="M179.538 382.201L165.525 374.267C164.468 373.738 164.468 372.416 165.79 371.623L182.181 362.103C183.503 361.309 185.354 361.309 186.412 361.838L200.424 369.772C201.481 370.301 201.481 371.623 200.16 372.416L183.768 381.936C182.71 382.73 180.595 382.73 179.538 382.201Z" fill="#CACAED"/>
<path d="M209.414 371.887L195.402 363.954C194.345 363.425 194.345 362.103 195.667 361.31L209.414 353.376C210.736 352.583 212.587 352.583 213.645 353.112L227.657 361.045C228.714 361.574 228.714 362.896 227.393 363.69L213.645 371.623C212.323 372.416 210.472 372.681 209.414 371.887Z" fill="#CACAED"/>
<path d="M230.828 384.316L216.815 376.383C215.758 375.854 215.758 374.532 217.08 373.738L230.828 365.805C232.149 365.012 234 365.012 235.058 365.54L249.07 373.474C250.128 374.003 250.128 375.325 248.806 376.118L235.058 384.052C233.736 384.845 231.885 384.845 230.828 384.316Z" fill="#CACAED"/>
<path d="M252.243 396.745L238.231 388.811C237.174 388.283 237.174 386.96 238.496 386.167L252.243 378.234C253.565 377.44 255.416 377.44 256.474 377.969L270.486 385.903C271.543 386.431 271.543 387.754 270.222 388.547L256.474 396.48C255.152 397.274 253.301 397.274 252.243 396.745Z" fill="#CACAED"/>
<path d="M273.659 409.174L259.647 401.24C258.589 400.711 258.589 399.389 259.911 398.596L273.659 390.662C274.981 389.869 276.832 389.869 277.889 390.398L291.902 398.331C292.959 398.86 292.959 400.182 291.637 400.976L277.889 408.909C276.832 409.702 274.717 409.702 273.659 409.174Z" fill="#CACAED"/>
<path d="M295.075 421.603L281.063 413.67C280.005 413.141 280.006 411.819 281.327 411.025L295.075 403.092C296.397 402.299 298.248 402.299 299.306 402.828L313.318 410.761C314.375 411.29 314.375 412.612 313.053 413.405L299.306 421.339C298.248 422.132 296.133 422.132 295.075 421.603Z" fill="#CACAED"/>
<path d="M316.488 433.767L302.476 425.834C301.418 425.305 301.418 423.983 302.74 423.189L316.488 415.256C317.81 414.463 319.661 414.463 320.718 414.992L334.731 422.925C335.788 423.454 335.788 424.776 334.466 425.57L320.718 433.503C319.661 434.561 317.546 434.561 316.488 433.767Z" fill="#CACAED"/>
<path d="M337.904 446.196L323.892 438.263C322.834 437.734 322.834 436.412 324.156 435.618L337.904 427.685C339.226 426.891 341.077 426.891 342.134 427.42L356.147 435.354C357.204 435.883 357.204 437.205 355.882 437.998L342.134 445.932C341.077 446.725 339.226 446.989 337.904 446.196Z" fill="#CACAED"/>
<path d="M359.585 458.626L345.573 450.692C344.516 450.163 344.515 448.841 345.837 448.048L359.585 440.115C360.907 439.321 362.758 439.321 363.815 439.85L377.828 447.783C378.885 448.312 378.885 449.635 377.563 450.428L363.815 458.361C362.494 459.155 360.643 459.419 359.585 458.626Z" fill="#CACAED"/>
<path d="M380.998 471.054L366.986 463.121C365.928 462.592 365.928 461.27 367.25 460.477L380.998 452.543C382.32 451.75 384.171 451.75 385.228 452.279L399.241 460.212C400.298 460.741 400.298 462.063 398.976 462.857L385.228 470.79C383.906 471.583 382.056 471.583 380.998 471.054Z" fill="#CACAED"/>
<path d="M402.414 483.483L388.402 475.55C387.344 475.021 387.344 473.699 388.666 472.905L402.414 464.972C403.736 464.179 405.587 464.179 406.644 464.707L420.656 472.641C421.714 473.17 421.714 474.492 420.392 475.285L406.644 483.219C405.322 484.012 403.472 484.012 402.414 483.483Z" fill="#CACAED"/>
<path d="M240.876 366.069L226.863 358.136C225.806 357.607 225.806 356.285 227.128 355.491L240.876 347.558C242.198 346.765 244.048 346.765 245.106 347.293L259.118 355.227C260.176 355.756 260.176 357.078 258.854 357.871L245.106 365.805C244.048 366.598 241.933 366.598 240.876 366.069Z" fill="#DBDAFA"/>
<path d="M219.195 353.376L205.183 345.442C204.125 344.913 204.125 343.591 205.447 342.798L219.195 334.865C220.517 334.071 222.367 334.071 223.425 334.6L237.437 342.533C238.495 343.062 238.495 344.385 237.173 345.178L223.425 353.111C222.103 354.169 220.252 354.169 219.195 353.376Z" fill="#DBDAFA"/>
<path d="M197.253 340.947L167.378 323.758C166.32 323.229 166.32 321.907 167.642 321.113L181.39 313.18C182.712 312.387 184.563 312.387 185.62 312.915L215.496 330.105C216.553 330.633 216.553 331.956 215.231 332.749L201.483 340.682C200.426 341.476 198.311 341.476 197.253 340.947Z" fill="#CACAED"/>
<path d="M212.587 325.608L188.264 311.593C187.206 311.064 187.206 309.742 188.528 308.948L202.276 301.015C203.598 300.222 205.449 300.222 206.506 300.75L230.829 314.766C231.887 315.295 231.887 316.617 230.565 317.411L216.817 325.344C215.495 326.137 213.644 326.137 212.587 325.608Z" fill="#CACAED"/>
<path d="M262.292 378.498L248.279 370.564C247.222 370.036 247.222 368.713 248.544 367.92L262.292 359.987C263.614 359.193 265.464 359.193 266.522 359.722L280.534 367.655C281.592 368.184 281.592 369.507 280.27 370.3L266.522 378.233C265.464 379.027 263.349 379.027 262.292 378.498Z" fill="#DBDAFA"/>
<path d="M283.705 390.927L269.692 382.994C268.635 382.465 268.635 381.143 269.957 380.35L283.705 372.416C285.027 371.623 286.877 371.623 287.935 372.152L301.947 380.085C303.005 380.614 303.005 381.936 301.683 382.73L287.935 390.663C286.877 391.456 285.027 391.456 283.705 390.927Z" fill="#CACAED"/>
<path d="M305.386 403.356L291.373 395.423C290.316 394.894 290.316 393.572 291.638 392.778L305.386 384.845C306.708 384.052 308.558 384.052 309.616 384.581L323.628 392.514C324.686 393.043 324.686 394.365 323.364 395.158L309.616 403.092C308.294 403.885 306.443 403.885 305.386 403.356Z" fill="#CACAED"/>
<path d="M326.802 415.52L312.789 407.587C311.732 407.058 311.732 405.736 313.054 404.942L326.802 397.009C328.124 396.216 329.974 396.216 331.032 396.745L345.044 404.678C346.102 405.207 346.102 406.529 344.78 407.322L331.032 415.256C329.71 416.314 327.859 416.314 326.802 415.52Z" fill="#CACAED"/>
<path d="M348.215 427.95L334.202 420.017C333.145 419.488 333.145 418.165 334.467 417.372L348.215 409.439C349.537 408.645 351.387 408.645 352.445 409.174L366.457 417.108C367.515 417.637 367.515 418.959 366.193 419.752L352.445 427.686C351.123 428.479 349.272 428.743 348.215 427.95Z" fill="#CACAED"/>
<path d="M369.631 440.379L355.618 432.445C354.561 431.916 354.561 430.594 355.883 429.801L369.631 421.867C370.952 421.074 372.803 421.074 373.861 421.603L387.873 429.536C388.931 430.065 388.931 431.388 387.609 432.181L373.861 440.114C372.803 440.908 370.688 441.172 369.631 440.379Z" fill="#CACAED"/>
<path d="M391.043 452.807L377.031 444.874C375.974 444.345 375.974 443.023 377.296 442.23L391.043 434.296C392.365 433.503 394.216 433.503 395.274 434.032L409.286 441.965C410.343 442.494 410.343 443.816 409.022 444.61L395.274 452.543C394.216 453.336 392.101 453.336 391.043 452.807Z" fill="#CACAED"/>
<path d="M412.463 465.236L398.45 457.303C397.393 456.774 397.393 455.452 398.715 454.658L412.463 446.725C413.784 445.932 415.635 445.932 416.693 446.46L430.705 454.394C431.763 454.923 431.763 456.245 430.441 457.038L416.693 464.972C415.635 465.765 413.784 465.765 412.463 465.236Z" fill="#CACAED"/>
<path d="M433.875 477.666L419.863 469.732C418.805 469.204 418.805 467.881 420.127 467.088L433.875 459.155C435.197 458.361 437.048 458.361 438.105 458.89L452.118 466.823C453.175 467.352 453.175 468.675 451.853 469.468L438.105 477.401C437.048 478.195 435.197 478.195 433.875 477.666Z" fill="#CACAED"/>
<path d="M472.21 499.615L441.806 482.161C440.749 481.632 440.749 480.31 442.07 479.517L455.818 471.583C457.14 470.79 458.991 470.79 460.048 471.319L490.453 488.772C491.51 489.301 491.51 490.623 490.188 491.417L476.44 499.35C475.118 500.143 473.268 500.143 472.21 499.615Z" fill="#CACAED"/>
<path d="M513.985 475.55L488.34 460.741C487.282 460.212 487.282 458.89 488.604 458.097L502.352 450.163C503.674 449.37 505.525 449.37 506.582 449.899L532.228 464.708C533.285 465.237 533.285 466.559 531.963 467.352L518.215 475.286C516.893 476.079 515.043 476.079 513.985 475.55Z" fill="#CACAED"/>
<path d="M299.831 376.118L285.819 368.185C284.761 367.656 284.761 366.333 286.083 365.54L299.831 357.607C301.153 356.813 303.004 356.813 304.061 357.342L318.074 365.276C319.131 365.805 319.131 367.127 317.809 367.92L304.061 375.853C303.004 376.647 301.153 376.647 299.831 376.118Z" fill="#CACAED"/>
<path d="M277.891 363.425L263.879 355.491C262.822 354.962 262.822 353.64 264.143 352.847L277.891 344.913C279.213 344.12 281.064 344.12 282.122 344.649L296.134 352.582C297.191 353.111 297.191 354.433 295.87 355.227L282.122 363.16C281.064 363.953 278.949 363.953 277.891 363.425Z" fill="#CACAED"/>
<path d="M255.945 350.731L241.933 342.798C240.875 342.269 240.876 340.947 242.197 340.153L255.945 332.22C257.267 331.427 259.118 331.427 260.175 331.956L274.188 339.889C275.245 340.418 275.245 341.74 273.923 342.533L260.175 350.467C259.118 351.26 257.003 351.26 255.945 350.731Z" fill="#DBDAFA"/>
<path d="M234.002 338.038L219.99 330.104C218.932 329.576 218.932 328.253 220.254 327.46L234.002 319.527C235.324 318.733 237.175 318.733 238.232 319.262L252.245 327.196C253.302 327.724 253.302 329.047 251.98 329.84L238.232 337.773C236.91 338.567 235.06 338.567 234.002 338.038Z" fill="#CACAED"/>
<path d="M321.512 388.547L307.5 380.613C306.443 380.084 306.443 378.762 307.764 377.969L321.512 370.035C322.834 369.242 324.685 369.242 325.743 369.771L339.755 377.704C340.812 378.233 340.812 379.555 339.49 380.349L325.743 388.282C324.421 389.076 322.57 389.076 321.512 388.547Z" fill="#CACAED"/>
<path d="M342.928 400.712L328.916 392.778C327.859 392.249 327.859 390.927 329.18 390.134L342.928 382.2C344.25 381.407 346.101 381.407 347.159 381.936L361.171 389.869C362.228 390.398 362.228 391.721 360.906 392.514L347.159 400.447C345.837 401.241 343.986 401.505 342.928 400.712Z" fill="#CACAED"/>
<path d="M364.341 413.14L350.329 405.207C349.271 404.678 349.271 403.356 350.593 402.563L364.341 394.629C365.663 393.836 367.514 393.836 368.572 394.365L382.584 402.298C383.641 402.827 383.641 404.149 382.319 404.943L368.572 412.876C367.25 413.669 365.399 413.934 364.341 413.14Z" fill="#CACAED"/>
<path d="M385.757 425.569L371.745 417.636C370.687 417.107 370.687 415.785 372.009 414.991L385.757 407.058C387.079 406.265 388.93 406.265 389.987 406.793L404 414.727C405.057 415.256 405.057 416.578 403.735 417.371L389.987 425.305C388.93 426.098 386.815 426.362 385.757 425.569Z" fill="#CACAED"/>
<path d="M407.173 437.999L393.161 430.065C392.104 429.537 392.104 428.214 393.425 427.421L407.173 419.488C408.495 418.694 410.346 418.694 411.404 419.223L425.416 427.156C426.473 427.685 426.473 429.008 425.151 429.801L411.404 437.734C410.346 438.528 408.231 438.528 407.173 437.999Z" fill="#CACAED"/>
<path d="M428.589 450.427L414.577 442.494C413.519 441.965 413.519 440.643 414.841 439.85L428.589 431.916C429.911 431.123 431.762 431.123 432.819 431.652L446.832 439.585C447.889 440.114 447.889 441.436 446.567 442.23L432.819 450.163C431.762 450.956 429.647 450.956 428.589 450.427Z" fill="#CACAED"/>
<path d="M450.002 462.856L435.99 454.923C434.932 454.394 434.932 453.072 436.254 452.278L450.002 444.345C451.324 443.552 453.175 443.552 454.232 444.081L468.245 452.014C469.302 452.543 469.302 453.865 467.98 454.658L454.232 462.592C453.175 463.385 451.324 463.385 450.002 462.856Z" fill="#CACAED"/>
<path d="M471.683 475.021L457.671 467.088C456.613 466.559 456.613 465.237 457.935 464.443L471.683 456.51C473.005 455.717 474.856 455.717 475.913 456.246L489.926 464.179C490.983 464.708 490.983 466.03 489.661 466.823L475.913 474.757C474.591 475.815 472.741 475.815 471.683 475.021Z" fill="#CACAED"/>
<path d="M493.099 487.45L479.087 479.517C478.029 478.988 478.029 477.665 479.351 476.872L493.099 468.939C494.421 468.145 496.272 468.145 497.329 468.674L511.342 476.608C512.399 477.137 512.399 478.459 511.077 479.252L497.329 487.185C496.007 487.979 494.157 488.243 493.099 487.45Z" fill="#CACAED"/>
<path d="M288.729 345.442L274.717 337.509C273.659 336.98 273.659 335.658 274.981 334.864L288.729 326.931C290.051 326.138 291.902 326.138 292.959 326.666L306.971 334.6C308.029 335.129 308.029 336.451 306.707 337.244L292.959 345.178C291.637 345.971 289.786 345.971 288.729 345.442Z" fill="#CACAED"/>
<path d="M267.316 333.013L253.304 325.08C252.246 324.551 252.246 323.229 253.568 322.436L267.316 314.502C268.638 313.709 270.488 313.709 271.546 314.238L285.558 322.171C286.616 322.7 286.616 324.022 285.294 324.816L271.546 332.749C270.224 333.542 268.373 333.807 267.316 333.013Z" fill="#CACAED"/>
<path d="M245.9 320.848L231.888 312.915C230.83 312.386 230.83 311.064 232.152 310.271L245.9 302.337C247.222 301.544 249.073 301.544 250.13 302.073L264.143 310.006C265.2 310.535 265.2 311.857 263.878 312.651L250.13 320.584C249.073 321.377 246.958 321.377 245.9 320.848Z" fill="#CACAED"/>
<path d="M224.484 308.42L210.472 300.486C209.414 299.957 209.414 298.635 210.736 297.842L224.484 289.908C225.806 289.115 227.657 289.115 228.714 289.644L242.726 297.577C243.784 298.106 243.784 299.428 242.462 300.222L228.714 308.155C227.657 308.949 225.806 308.949 224.484 308.42Z" fill="#CACAED"/>
<path d="M246.427 295.726L232.415 287.793C231.357 287.264 231.357 285.942 232.679 285.149L237.174 282.504C238.496 281.711 240.346 281.711 241.404 282.24L255.416 290.173C256.474 290.702 256.474 292.024 255.152 292.818L250.657 295.462C249.6 296.255 247.749 296.255 246.427 295.726Z" fill="#CACAED"/>
<path d="M274.452 311.857L260.439 303.924C259.382 303.395 259.382 302.073 260.704 301.279L265.198 298.635C266.52 297.842 268.371 297.842 269.428 298.371L283.441 306.304C284.498 306.833 284.498 308.155 283.176 308.948L278.682 311.593C277.36 312.386 275.509 312.386 274.452 311.857Z" fill="#CACAED"/>
<path d="M295.602 324.022L281.59 316.089C280.533 315.56 280.533 314.238 281.855 313.444L286.349 310.8C287.671 310.007 289.522 310.007 290.579 310.536L304.592 318.469C305.649 318.998 305.649 320.32 304.327 321.113L299.833 323.758C298.775 324.551 296.66 324.816 295.602 324.022Z" fill="#CACAED"/>
<path d="M317.018 336.451L303.006 328.518C301.948 327.989 301.949 326.667 303.27 325.873L307.765 323.229C309.087 322.435 310.938 322.435 311.995 322.964L326.007 330.898C327.065 331.427 327.065 332.749 325.743 333.542L321.248 336.187C319.927 336.98 318.076 336.98 317.018 336.451Z" fill="#CACAED"/>
<path d="M338.169 348.616L324.157 340.683C323.099 340.154 323.099 338.832 324.421 338.038L328.916 335.394C330.238 334.6 332.088 334.6 333.146 335.129L347.158 343.063C348.216 343.592 348.216 344.914 346.894 345.707L342.399 348.352C341.342 349.145 339.227 349.409 338.169 348.616Z" fill="#CACAED"/>
<path d="M456.876 417.107L442.863 409.174C441.806 408.645 441.806 407.323 443.128 406.529L447.622 403.885C448.944 403.092 450.795 403.092 451.852 403.621L465.865 411.554C466.922 412.083 466.922 413.405 465.6 414.198L461.106 416.843C460.048 417.636 457.933 417.901 456.876 417.107Z" fill="#CACAED"/>
<path d="M478.026 429.536L464.014 421.603C462.957 421.074 462.957 419.752 464.278 418.958L468.773 416.314C470.095 415.52 471.946 415.52 473.003 416.049L487.015 423.983C488.073 424.512 488.073 425.834 486.751 426.627L482.257 429.272C481.199 430.065 479.348 430.065 478.026 429.536Z" fill="#CACAED"/>
<path d="M499.443 441.701L485.43 433.768C484.373 433.239 484.373 431.917 485.695 431.123L490.189 428.479C491.511 427.685 493.362 427.685 494.419 428.214L508.432 436.148C509.489 436.677 509.489 437.999 508.167 438.792L503.673 441.437C502.351 442.23 500.5 442.494 499.443 441.701Z" fill="#CACAED"/>
<path d="M520.593 454.13L506.581 446.196C505.523 445.667 505.523 444.345 506.845 443.552L511.34 440.907C512.662 440.114 514.512 440.114 515.57 440.643L529.582 448.576C530.64 449.105 530.64 450.427 529.318 451.221L524.823 453.865C523.766 454.659 521.651 454.659 520.593 454.13Z" fill="#CACAED"/>
<path d="M310.145 357.871L296.132 349.937C295.075 349.409 295.075 348.086 296.397 347.293L310.145 339.36C311.467 338.566 313.317 338.566 314.375 339.095L328.387 347.029C329.445 347.557 329.445 348.88 328.123 349.673L314.375 357.606C313.053 358.4 311.202 358.4 310.145 357.871Z" fill="#CACAED"/>
<path d="M331.558 370.036L317.545 362.103C316.488 361.574 316.488 360.251 317.81 359.458L331.558 351.525C332.88 350.731 334.73 350.731 335.788 351.26L349.8 359.194C350.858 359.722 350.858 361.045 349.536 361.838L335.788 369.771C334.73 370.829 332.615 370.829 331.558 370.036Z" fill="#CACAED"/>
<path d="M352.977 382.465L338.965 374.531C337.907 374.002 337.907 372.68 339.229 371.887L352.977 363.953C354.299 363.16 356.149 363.16 357.207 363.689L371.219 371.622C372.277 372.151 372.277 373.473 370.955 374.267L357.207 382.2C356.149 382.993 354.034 383.258 352.977 382.465Z" fill="#CACAED"/>
<path d="M374.39 394.894L360.377 386.961C359.32 386.432 359.32 385.11 360.642 384.316L374.39 376.383C375.712 375.59 377.562 375.59 378.62 376.119L392.632 384.052C393.69 384.581 393.69 385.903 392.368 386.696L378.62 394.63C377.562 395.423 375.447 395.688 374.39 394.894Z" fill="#CACAED"/>
<path d="M395.805 407.323L381.793 399.39C380.736 398.861 380.736 397.538 382.058 396.745L395.805 388.812C397.127 388.018 398.978 388.018 400.036 388.547L414.048 396.481C415.105 397.01 415.105 398.332 413.784 399.125L400.036 407.059C398.978 407.852 397.127 407.852 395.805 407.323Z" fill="#CACAED"/>
<path d="M417.484 419.752L403.471 411.818C402.414 411.289 402.414 409.967 403.736 409.174L417.484 401.24C418.805 400.447 420.656 400.447 421.714 400.976L435.726 408.909C436.784 409.438 436.784 410.761 435.462 411.554L421.714 419.487C420.392 420.281 418.541 420.281 417.484 419.752Z" fill="#CACAED"/>
<path d="M438.899 432.18L424.887 424.247C423.83 423.718 423.83 422.396 425.151 421.603L438.899 413.669C440.221 412.876 442.072 412.876 443.13 413.405L457.142 421.338C458.199 421.867 458.199 423.189 456.878 423.983L443.13 431.916C441.808 432.709 439.957 432.709 438.899 432.18Z" fill="#CACAED"/>
<path d="M460.315 444.61L446.303 436.677C445.246 436.148 445.246 434.826 446.568 434.032L460.315 426.099C461.637 425.306 463.488 425.306 464.546 425.834L478.558 433.768C479.615 434.297 479.616 435.619 478.294 436.412L464.546 444.346C463.224 445.139 461.373 445.139 460.315 444.61Z" fill="#CACAED"/>
<path d="M481.728 456.774L467.716 448.841C466.658 448.312 466.658 446.99 467.98 446.196L481.728 438.263C483.05 437.47 484.901 437.47 485.958 437.998L499.971 445.932C501.028 446.461 501.028 447.783 499.706 448.576L485.958 456.51C484.901 457.568 482.786 457.568 481.728 456.774Z" fill="#CACAED"/>
<path d="M187.471 359.194L146.492 335.658C145.434 335.129 145.434 333.807 146.756 333.014L160.504 325.08C161.826 324.287 163.677 324.287 164.734 324.816L205.714 348.352C206.771 348.88 206.771 350.203 205.45 350.996L191.702 358.929C190.38 359.987 188.529 359.987 187.471 359.194Z" fill="#CACAED"/>
<path d="M451.059 511.514L410.08 487.978C409.022 487.45 409.022 486.127 410.344 485.334L424.092 477.401C425.414 476.607 427.265 476.607 428.322 477.136L469.302 500.672C470.359 501.201 470.359 502.523 469.037 503.316L455.289 511.25C453.967 512.043 452.117 512.043 451.059 511.514Z" fill="#CACAED"/>
<path d="M365.137 489.301L351.124 481.368C350.067 480.839 350.067 479.517 351.389 478.723L367.78 469.203C369.102 468.41 370.953 468.41 372.011 468.939L386.023 476.872C387.08 477.401 387.08 478.723 385.758 479.517L369.367 489.037C368.309 489.83 366.194 490.095 365.137 489.301Z" fill="#CACAED"/>
<path d="M209.415 399.389L187.206 386.431C186.149 385.903 186.149 384.58 187.471 383.787L203.863 374.267C205.184 373.473 207.035 373.474 208.093 374.002L230.301 386.96C231.358 387.489 231.358 388.811 230.036 389.605L213.645 399.125C212.587 399.918 210.472 399.918 209.415 399.389Z" fill="#CACAED"/>
<path d="M344.513 477.401L322.304 464.443C321.247 463.914 321.247 462.592 322.569 461.799L338.961 452.279C340.283 451.485 342.133 451.485 343.191 452.014L365.399 464.972C366.457 465.501 366.457 466.823 365.135 467.616L348.743 477.136C347.685 477.93 345.57 477.93 344.513 477.401Z" fill="#CACAED"/>
<path d="M240.346 417.107L218.137 404.149C217.08 403.62 217.08 402.298 218.402 401.505L234.794 391.985C236.115 391.191 237.966 391.191 239.024 391.72L261.232 404.678C262.289 405.207 262.289 406.529 260.968 407.322L244.576 416.843C243.518 417.9 241.403 417.9 240.346 417.107Z" fill="#CACAED"/>
<path d="M239.291 392.249L335.791 448.047C337.113 448.841 337.113 449.898 335.791 450.427L319.135 460.212C317.813 461.005 315.962 461.005 314.904 460.212L218.404 404.414L239.291 392.249Z" fill="#CACAED"/>
<path d="M425.15 511.779L440.749 520.77C441.542 521.299 441.542 522.092 440.485 522.886L433.875 526.852C432.817 527.381 431.231 527.646 430.438 527.117L414.839 518.125C414.046 517.597 414.046 516.803 415.104 516.01L421.713 512.043C422.771 511.25 424.357 511.25 425.15 511.779Z" fill="#CACAED"/>
<path d="M403.473 499.35L419.071 508.341C419.864 508.87 419.864 509.663 418.807 510.457L412.197 514.423C411.14 514.952 409.553 515.217 408.76 514.688L393.162 505.697C392.368 505.168 392.368 504.374 393.426 503.581L400.036 499.614C401.093 498.821 402.679 498.821 403.473 499.35Z" fill="#CACAED"/>
<path d="M382.056 486.921L397.655 495.912C398.448 496.441 398.448 497.235 397.391 498.028L390.781 501.995C389.724 502.524 388.137 502.788 387.344 502.259L371.745 493.268C370.952 492.739 370.952 491.946 372.01 491.152L378.619 487.186C379.677 486.392 381.263 486.392 382.056 486.921Z" fill="#CACAED"/>
<path d="M415.37 492.474L430.969 501.465C431.762 501.994 431.762 502.787 430.704 503.581L424.095 507.547C423.037 508.076 421.451 508.341 420.658 507.812L405.059 498.821C404.266 498.292 404.266 497.499 405.324 496.705L411.933 492.739C412.991 491.945 414.577 491.945 415.37 492.474Z" fill="#CACAED"/>
<path opacity="0.07" d="M498.055 212.838C506.529 206.657 512.412 194.374 513.76 177.279C516.529 142.174 499.137 100.196 474.932 83.8506C450.699 67.4722 429.161 82.7288 426.615 118.128C425.411 134.957 428.811 153.379 435.358 169.683C440.418 182.246 443.292 196.049 443.615 208.699C443.71 214.112 446.477 219.921 450.002 222.349L477.043 240.914C480.596 243.375 483.925 241.672 484.878 236.986C487.029 226.068 491.599 217.582 498.055 212.838Z" fill="url(#paint0_linear)"/>
<path opacity="0.07" d="M481.728 269.912L482.32 262.402C482.638 258.373 480.677 253.641 477.914 251.673L447.555 230.787C444.788 228.88 442.319 230.589 442.001 234.619L441.409 242.128C440.932 248.172 443.577 255.139 447.468 258.763L473.866 276.909C477.834 278.789 481.256 275.895 481.728 269.912Z" fill="url(#paint1_linear)"/>
<path opacity="0.4" d="M481.803 223.782C490.277 217.6 496.16 205.317 497.508 188.223C500.277 153.118 482.885 111.139 458.68 94.794C434.416 78.4131 412.91 93.6722 410.363 129.071C409.159 145.901 412.559 164.322 419.106 180.626C424.166 193.189 427.04 206.992 427.363 219.642C427.458 225.055 430.225 230.864 433.751 233.292L460.791 251.858C464.344 254.319 467.673 252.616 468.626 247.93C470.808 237.013 475.38 228.497 481.803 223.782Z" fill="url(#paint2_linear)"/>
<path opacity="0.4" d="M465.507 280.857L466.099 273.348C466.417 269.318 464.456 264.587 461.693 262.618L431.334 241.733C428.566 239.825 426.097 241.535 425.779 245.564L425.187 253.074C424.71 259.118 427.355 266.084 431.247 269.708L457.645 287.854C461.612 289.734 465.035 286.84 465.507 280.857Z" fill="url(#paint3_linear)"/>
<path opacity="0.3" d="M398.478 278.212L311.769 218.604L308.065 265.952L387.112 320.287L394.204 332.795L398.478 278.212Z" fill="url(#paint4_linear)"/>
<path d="M300.635 236.309L301.649 223.457L334.4 245.944L333.387 258.795L300.635 236.309Z" fill="#F2994A"/>
<path opacity="0.15" d="M375.28 274.417L356.282 261.369L355.955 265.521L374.952 278.568L375.28 274.417Z" fill="white"/>
<path opacity="0.15" d="M374.623 282.75L337.997 257.593L337.669 261.744L374.295 286.902L374.623 282.75Z" fill="white"/>
<path opacity="0.15" d="M373.968 291.054L329.593 260.555L329.265 264.706L373.64 295.205L373.968 291.054Z" fill="white"/>
<path d="M379.629 281.978C379.321 285.885 381.287 290.555 383.996 292.427C386.705 294.3 389.169 292.651 389.477 288.744C389.785 284.837 387.819 280.166 385.11 278.294C382.371 276.419 379.937 278.07 379.629 281.978Z" fill="#F2994A"/>
<path opacity="0.3" d="M407.807 250.29L494.486 309.896L490.782 357.245L411.735 302.909L403.53 304.904L407.807 250.29Z" fill="url(#paint5_linear)"/>
<path d="M467.423 316.147L468.437 303.296L501.158 325.78L500.144 338.632L467.423 316.147Z" fill="#F2C94C"/>
<path opacity="0.15" d="M429.185 277.163L448.183 290.211L447.855 294.362L428.858 281.315L429.185 277.163Z" fill="white"/>
<path opacity="0.15" d="M428.53 285.466L462.825 309.027L462.497 313.178L428.2 289.648L428.53 285.466Z" fill="white"/>
<path opacity="0.15" d="M427.873 293.8L472.248 324.299L471.92 328.45L427.545 297.951L427.873 293.8Z" fill="white"/>
<path d="M424.152 278.271C423.844 282.179 421.38 283.827 418.671 281.955C415.962 280.082 413.996 275.412 414.304 271.505C414.612 267.598 417.076 265.949 419.785 267.821C422.525 269.696 424.46 274.364 424.152 278.271Z" fill="#F2C94C"/>
<path opacity="0.15" d="M509.466 254.314L511.356 259.562L491.71 262.528L509.562 292.041L507.083 294.272L485.157 257.987L509.466 254.314Z" fill="white"/>
<path d="M515.398 260.495C515.088 264.433 512.621 266.112 509.91 264.271C507.201 262.398 505.237 257.697 505.55 253.729C505.861 249.791 508.328 248.112 511.039 249.954C513.748 251.826 515.709 256.558 515.398 260.495Z" fill="#F2994A"/>
<path d="M512.64 295.478C512.329 299.416 509.862 301.095 507.151 299.253C504.442 297.381 502.478 292.68 502.791 288.712C503.102 284.774 505.569 283.095 508.28 284.936C510.986 286.839 512.95 291.54 512.64 295.478Z" fill="#F2994A"/>
<path d="M493.047 263.094C492.737 267.032 490.27 268.711 487.559 266.869C484.85 264.997 482.886 260.296 483.199 256.328C483.509 252.39 485.976 250.711 488.688 252.553C491.397 254.425 493.358 259.156 493.047 263.094Z" fill="#F2C94C"/>
<path opacity="0.3" d="M357.362 147.19L406.196 180.744L398.721 275.528L349.887 241.974L357.362 147.19Z" fill="url(#paint6_linear)"/>
<path opacity="0.15" d="M357.962 203.848L397.18 230.807L396.852 234.959L357.635 207.999L357.962 203.848Z" fill="white"/>
<path opacity="0.15" d="M360.061 213.843L393.772 237.02L393.444 241.171L359.734 217.994L360.061 213.843Z" fill="white"/>
<path d="M373.652 231.962L339.679 208.61L338.844 219.203L372.817 242.554L373.652 231.962Z" fill="#F2C94C"/>
<path d="M385.834 186.94C385.473 191.519 382.646 193.477 379.529 191.327C376.414 189.146 374.173 183.686 374.536 179.077C374.897 174.498 377.724 172.54 380.841 174.69C383.956 176.871 386.195 182.362 385.834 186.94Z" fill="#F2C94C"/>
<path d="M379.207 195.018C374.17 191.518 369.576 194.074 368.29 200.638C368.076 201.789 368.811 203.382 369.831 204.077L386.253 215.508C387.274 216.203 388.167 215.782 388.148 214.46C388.013 206.832 384.245 198.518 379.207 195.018Z" fill="#F2C94C"/>
<path opacity="0.2" d="M417.326 345.738C400.731 320.532 414.78 312.978 418.78 327.3C424.509 319.705 435.987 344.753 417.326 345.738Z" fill="url(#paint7_linear)"/>
<defs>
<linearGradient id="paint0_linear" x1="507.916" y1="126.235" x2="407.784" y2="203.929" gradientUnits="userSpaceOnUse">
<stop stop-color="white"/>
<stop offset="1" stop-color="white" stop-opacity="0"/>
</linearGradient>
<linearGradient id="paint1_linear" x1="552.076" y1="183.132" x2="451.944" y2="260.826" gradientUnits="userSpaceOnUse">
<stop stop-color="white"/>
<stop offset="1" stop-color="white" stop-opacity="0"/>
</linearGradient>
<linearGradient id="paint2_linear" x1="491.689" y1="137.174" x2="391.557" y2="214.868" gradientUnits="userSpaceOnUse">
<stop stop-color="white"/>
<stop offset="1" stop-color="white" stop-opacity="0"/>
</linearGradient>
<linearGradient id="paint3_linear" x1="535.849" y1="194.07" x2="435.717" y2="271.764" gradientUnits="userSpaceOnUse">
<stop stop-color="white"/>
<stop offset="1" stop-color="white" stop-opacity="0"/>
</linearGradient>
<linearGradient id="paint4_linear" x1="380.165" y1="257.686" x2="330.366" y2="290.711" gradientUnits="userSpaceOnUse">
<stop stop-color="white"/>
<stop offset="1" stop-color="white" stop-opacity="0"/>
</linearGradient>
<linearGradient id="paint5_linear" x1="446.694" y1="254.909" x2="450.925" y2="351.086" gradientUnits="userSpaceOnUse">
<stop stop-color="white"/>
<stop offset="1" stop-color="white" stop-opacity="0"/>
</linearGradient>
<linearGradient id="paint6_linear" x1="413.336" y1="160.011" x2="361.718" y2="235.107" gradientUnits="userSpaceOnUse">
<stop stop-color="white"/>
<stop offset="1" stop-color="white" stop-opacity="0"/>
</linearGradient>
<linearGradient id="paint7_linear" x1="422.607" y1="328.524" x2="408.012" y2="339.251" gradientUnits="userSpaceOnUse">
<stop stop-color="white"/>
<stop offset="1" stop-color="white" stop-opacity="0"/>
</linearGradient>
</defs>
</svg>
