<svg width="214" height="65" viewBox="0 0 214 65" fill="none" xmlns="http://www.w3.org/2000/svg">
<path d="M18.604 14.824C24.18 14.824 28.396 16.4787 31.252 19.788C34.108 23.052 35.536 27.608 35.536 33.456C35.536 34.3627 35.5133 35.0427 35.468 35.496H7.044C7.54267 38.7147 8.88 41.276 11.056 43.18C13.2773 45.084 15.9973 46.036 19.216 46.036C21.3467 46.036 23.3187 45.6507 25.132 44.88C26.9907 44.1093 28.6 43.0213 29.96 41.616L33.428 45.22C31.66 47.124 29.5293 48.5973 27.036 49.64C24.5427 50.6827 21.7773 51.204 18.74 51.204C15.204 51.204 12.0533 50.456 9.288 48.96C6.568 47.4187 4.43733 45.2653 2.896 42.5C1.4 39.7347 0.652 36.584 0.652 33.048C0.652 29.512 1.4 26.384 2.896 23.664C4.43733 20.8987 6.568 18.7453 9.288 17.204C12.008 15.6173 15.1133 14.824 18.604 14.824ZM29.824 30.6C29.6427 27.336 28.5547 24.7747 26.56 22.916C24.5653 21.012 21.936 20.06 18.672 20.06C15.4987 20.06 12.8467 21.012 10.716 22.916C8.63067 24.82 7.384 27.3813 6.976 30.6H29.824ZM66.1286 51V45.968C63.4539 49.504 59.2606 51.272 53.5486 51.272C51.0552 51.272 48.8566 50.796 46.9526 49.844C45.0939 48.892 43.6432 47.5773 42.6006 45.9C41.6032 44.2227 41.1046 42.3413 41.1046 40.256C41.1046 37.0373 42.2832 34.4987 44.6406 32.64C47.0432 30.736 50.3752 29.7613 54.6366 29.716H66.0606V28.016C66.0606 25.4773 65.2672 23.528 63.6806 22.168C62.1392 20.7627 59.8726 20.06 56.8806 20.06C53.2539 20.06 49.5592 21.352 45.7966 23.936L43.1446 19.584C45.7286 17.9067 48.1086 16.7053 50.2846 15.98C52.5059 15.2093 55.1352 14.824 58.1726 14.824C62.6606 14.824 66.1286 15.9347 68.5766 18.156C71.0246 20.332 72.2712 23.392 72.3166 27.336L72.3846 51H66.1286ZM54.8406 46.036C57.7872 46.036 60.2806 45.3333 62.3206 43.928C64.4059 42.4773 65.6526 40.5733 66.0606 38.216V34.612H55.5206C52.6646 34.612 50.5339 35.0427 49.1286 35.904C47.7686 36.7653 47.0886 38.1253 47.0886 39.984C47.0886 41.8427 47.7912 43.316 49.1966 44.404C50.6019 45.492 52.4832 46.036 54.8406 46.036ZM103.328 22.984C101.832 22.0773 100.178 21.352 98.3643 20.808C96.5963 20.264 94.8963 19.992 93.2643 19.992C91.3603 19.992 89.8189 20.3547 88.6403 21.08C87.5069 21.76 86.9403 22.8253 86.9403 24.276C86.9403 25.7267 87.5749 26.8373 88.8443 27.608C90.1589 28.3333 92.1309 29.0813 94.7603 29.852C97.2536 30.5773 99.2936 31.3027 100.88 32.028C102.467 32.7533 103.804 33.8187 104.892 35.224C106.026 36.6293 106.592 38.488 106.592 40.8C106.592 44.2 105.3 46.784 102.716 48.552C100.178 50.32 97.0043 51.204 93.1963 51.204C90.5216 51.204 87.9149 50.7733 85.3763 49.912C82.8829 49.0507 80.7749 47.8267 79.0523 46.24L81.4323 41.616C82.9283 42.976 84.7643 44.064 86.9403 44.88C89.1616 45.696 91.3149 46.104 93.4003 46.104C95.4856 46.104 97.1629 45.7187 98.4323 44.948C99.7016 44.1773 100.336 42.9987 100.336 41.412C100.336 39.78 99.6563 38.556 98.2963 37.74C96.9816 36.924 94.9643 36.108 92.2443 35.292C89.8416 34.612 87.8696 33.932 86.3283 33.252C84.8323 32.5267 83.5403 31.484 82.4523 30.124C81.4096 28.764 80.8883 26.996 80.8883 24.82C80.8883 21.4653 82.1123 18.9493 84.5603 17.272C87.0083 15.5947 90.0683 14.756 93.7403 14.756C95.9163 14.756 98.0469 15.0733 100.132 15.708C102.263 16.2973 104.099 17.1133 105.64 18.156L103.328 22.984ZM127.268 56.1C126.135 58.8653 124.616 60.9507 122.712 62.356C120.853 63.7613 118.655 64.464 116.116 64.464C114.575 64.464 113.169 64.2373 111.9 63.784C110.631 63.3307 109.407 62.628 108.228 61.676L110.948 56.712C112.535 57.8453 114.144 58.412 115.776 58.412C118.496 58.412 120.536 56.8707 121.896 53.788L123.256 50.592L108.364 15.028H115.028L126.452 43.86L137.264 15.028H143.724L127.268 56.1ZM147.714 28.084H163.966V32.64H147.714V28.084ZM196.212 13.804C199.612 13.804 202.604 14.5973 205.188 16.184C207.772 17.7253 209.767 19.9467 211.172 22.848C212.623 25.704 213.348 29.0133 213.348 32.776C213.348 36.4933 212.645 39.7573 211.24 42.568C209.88 45.3787 207.908 47.5547 205.324 49.096C202.785 50.6373 199.839 51.408 196.484 51.408C194.172 51.408 192.064 50.9773 190.16 50.116C188.301 49.2093 186.715 47.9173 185.4 46.24V51H173.296V0.543997H185.4V18.972C188.075 15.5267 191.679 13.804 196.212 13.804ZM193.22 41.616C195.577 41.616 197.481 40.7773 198.932 39.1C200.428 37.4227 201.176 35.224 201.176 32.504C201.176 29.784 200.428 27.5853 198.932 25.908C197.481 24.1853 195.577 23.324 193.22 23.324C190.908 23.324 189.027 24.1853 187.576 25.908C186.125 27.5853 185.4 29.784 185.4 32.504C185.4 35.224 186.125 37.4227 187.576 39.1C189.027 40.7773 190.908 41.616 193.22 41.616Z" fill="url(#paint0_linear)"/>
<defs>
<linearGradient id="paint0_linear" x1="109.467" y1="102.778" x2="147.234" y2="-18.1214" gradientUnits="userSpaceOnUse">
<stop stop-color="#102397"/>
<stop offset="0.552714" stop-color="#187ADF"/>
<stop offset="1" stop-color="#00EAF8"/>
</linearGradient>
</defs>
</svg>
