<svg width="712" height="533" viewBox="0 0 712 533" fill="none" xmlns="http://www.w3.org/2000/svg">
<rect width="712" height="533" fill="#E5E5E5"/>
<rect x="-1152" y="-333" width="2732" height="1733" fill="white"/>
<g filter="url(#filter0_d)">
<rect x="156" y="191.483" width="472" height="312" rx="7" fill="#BAC5F4"/>
</g>
<g filter="url(#filter1_d)">
<rect x="226" y="162.483" width="382" height="310" rx="5.88" fill="#4C59E0"/>
</g>
<g clip-path="url(#clip0)">
<g filter="url(#filter2_d)">
<rect x="240" y="0.483276" width="471.824" height="311.529" rx="5.88" fill="#E1E6FB"/>
</g>
</g>
<g filter="url(#filter3_d)">
<rect x="23" y="71.4833" width="563" height="371" rx="7" fill="url(#paint0_linear)"/>
</g>
<path d="M328.792 270.247C340.217 275.664 352.904 281.553 361.805 285.658C371.702 261.151 358.484 237.516 343.737 221.755C340.217 236.532 335.301 252.64 328.792 270.247Z" fill="#F2C94C"/>
<path d="M259.179 221.222C244.499 236.74 231.347 260.129 241.244 284.744C250.145 280.747 262.766 275.106 274.191 269.888C267.681 252.185 262.766 236.02 259.179 221.222Z" fill="#F2994A"/>
<path opacity="0.2" d="M290.796 310.333C208.695 124.042 276.249 78.9919 301.756 61.5292C327.264 79.4233 394.751 125.508 312.584 310.488L290.796 310.333Z" fill="url(#paint1_linear)"/>
<path opacity="0.1" d="M314.975 288.281C232.874 102.036 300.362 56.9661 325.935 39.4774C351.443 57.3714 418.93 103.456 336.763 288.436L314.975 288.281Z" fill="url(#paint2_linear)"/>
<path opacity="0.15" d="M312.584 310.488C394.752 125.508 327.264 79.4231 301.756 61.5291V310.407L312.584 310.488Z" fill="url(#paint3_linear)"/>
<path opacity="0.1" d="M326.202 128.87C326.202 142.174 314.909 152.865 300.96 152.765C287.011 152.666 275.719 141.765 275.719 128.46C275.719 115.155 287.011 104.465 300.96 104.564C314.909 104.663 326.202 115.565 326.202 128.87Z" fill="white"/>
<path opacity="0.1" d="M335.766 356.071C328.178 351.337 324.049 343.942 320.413 337.454C316.195 329.988 312.653 323.617 305.254 323.666C296.785 323.706 293.564 329.872 288.998 338.443C286.332 343.483 283.174 349.445 278.29 355.423C272.268 353.434 265.98 352.123 259.44 351.673C232.03 349.674 210.53 362.875 206.952 382.266C203.192 381.626 199.444 381.123 195.633 380.824C151.663 377.637 118.543 402.326 121.62 436.07C131.928 549.118 488.748 516.673 480.84 427.915C477.262 388.67 432.705 353.781 381.362 350.027C364.387 348.802 348.881 351.052 335.766 356.071Z" fill="url(#paint4_linear)"/>
<path opacity="0.3" d="M387.578 179.791L567.39 181.22L567.457 246.153L403.52 244.85L387.644 254.668L387.578 179.791Z" fill="url(#paint5_linear)"/>
<path d="M515.114 213.142V195.51L583 196.045V213.677L515.114 213.142Z" fill="#F2C94C"/>
<path opacity="0.1" d="M433.81 195.955L473.2 196.25V201.959L433.81 201.664V195.955Z" fill="white"/>
<path opacity="0.1" d="M433.876 207.347L504.951 207.921V213.629L433.876 213.056V207.347Z" fill="white"/>
<path opacity="0.15" d="M433.876 218.764L525.875 219.51V225.219L433.876 224.473V218.764Z" fill="white"/>
<path d="M424.112 201.831C424.112 207.171 419.528 211.501 413.882 211.46C408.236 211.419 403.653 207.047 403.653 201.707C403.653 196.367 408.236 192.037 413.882 192.078C419.595 192.093 424.112 196.491 424.112 201.831Z" fill="#F2C94C"/>
<path opacity="0.3" d="M232.475 148.874L52.6626 147.491L52.729 212.423L216.666 213.68L232.541 223.751L232.475 148.874Z" fill="url(#paint6_linear)"/>
<path d="M33.4663 180.341V162.708L101.353 163.244V180.876L33.4663 180.341Z" fill="#F2994A"/>
<path opacity="0.15" d="M186.244 164.337L146.854 164.042V169.751L186.244 170.045V164.337Z" fill="white"/>
<path opacity="0.15" d="M186.244 175.754L110.32 175.149V180.858L186.244 181.463V175.754Z" fill="white"/>
<path opacity="0.15" d="M186.244 187.172L94.2454 186.426V192.135L186.244 192.88V187.172Z" fill="white"/>
<path d="M195.941 170.339C195.941 175.68 200.525 180.051 206.171 180.092C211.817 180.133 216.4 175.804 216.4 170.463C216.4 165.123 211.817 160.752 206.171 160.71C200.525 160.715 195.941 164.999 195.941 170.339Z" fill="#F2994A"/>
<path opacity="0.2" d="M208.562 227.586L101.153 226.761V265.525L208.562 266.349V227.586Z" fill="url(#paint7_linear)"/>
<path opacity="0.15" d="M128.653 236.278L165.453 236.576V241.226L128.653 240.928V236.278Z" fill="white"/>
<path opacity="0.15" d="M128.653 245.623L197.469 246.162V250.858L128.653 250.319V245.623Z" fill="white"/>
<path d="M123.007 239.874C123.007 243.05 120.283 245.638 116.896 245.631C113.508 245.625 110.784 243.01 110.784 239.788C110.784 236.611 113.508 234.024 116.896 234.03C120.217 234.108 123.007 236.697 123.007 239.874Z" fill="#F2994A"/>
<path opacity="0.2" d="M527.535 131.756L420.126 130.932V169.695L527.535 170.565V131.756Z" fill="url(#paint8_linear)"/>
<path opacity="0.15" d="M447.626 140.494L484.426 140.792V145.442L447.626 145.144V140.494Z" fill="white"/>
<path opacity="0.15" d="M447.692 149.814L516.509 150.352V155.048L447.692 154.51V149.814Z" fill="white"/>
<path d="M441.98 144.09C441.98 147.266 439.256 149.854 435.869 149.847C432.481 149.841 429.758 147.226 429.758 144.004C429.758 140.827 432.481 138.24 435.869 138.246C439.256 138.298 441.98 140.913 441.98 144.09Z" fill="#F2C94C"/>
<defs>
<filter id="filter0_d" x="131" y="178.483" width="522" height="362" filterUnits="userSpaceOnUse" color-interpolation-filters="sRGB">
<feFlood flood-opacity="0" result="BackgroundImageFix"/>
<feColorMatrix in="SourceAlpha" type="matrix" values="0 0 0 0 0 0 0 0 0 0 0 0 0 0 0 0 0 0 127 0"/>
<feOffset dy="12"/>
<feGaussianBlur stdDeviation="12.5"/>
<feColorMatrix type="matrix" values="0 0 0 0 0 0 0 0 0 0 0 0 0 0 0 0 0 0 0.489159 0"/>
<feBlend mode="normal" in2="BackgroundImageFix" result="effect1_dropShadow"/>
<feBlend mode="normal" in="SourceGraphic" in2="effect1_dropShadow" result="shape"/>
</filter>
<filter id="filter1_d" x="201" y="149.483" width="432" height="360" filterUnits="userSpaceOnUse" color-interpolation-filters="sRGB">
<feFlood flood-opacity="0" result="BackgroundImageFix"/>
<feColorMatrix in="SourceAlpha" type="matrix" values="0 0 0 0 0 0 0 0 0 0 0 0 0 0 0 0 0 0 127 0"/>
<feOffset dy="12"/>
<feGaussianBlur stdDeviation="12.5"/>
<feColorMatrix type="matrix" values="0 0 0 0 0 0 0 0 0 0 0 0 0 0 0 0 0 0 0.489159 0"/>
<feBlend mode="normal" in2="BackgroundImageFix" result="effect1_dropShadow"/>
<feBlend mode="normal" in="SourceGraphic" in2="effect1_dropShadow" result="shape"/>
</filter>
<filter id="filter2_d" x="215" y="-12.5167" width="521.824" height="361.529" filterUnits="userSpaceOnUse" color-interpolation-filters="sRGB">
<feFlood flood-opacity="0" result="BackgroundImageFix"/>
<feColorMatrix in="SourceAlpha" type="matrix" values="0 0 0 0 0 0 0 0 0 0 0 0 0 0 0 0 0 0 127 0"/>
<feOffset dy="12"/>
<feGaussianBlur stdDeviation="12.5"/>
<feColorMatrix type="matrix" values="0 0 0 0 0.211892 0 0 0 0 0.579571 0 0 0 0 0.940078 0 0 0 0.489159 0"/>
<feBlend mode="normal" in2="BackgroundImageFix" result="effect1_dropShadow"/>
<feBlend mode="normal" in="SourceGraphic" in2="effect1_dropShadow" result="shape"/>
</filter>
<filter id="filter3_d" x="-7" y="56.4833" width="623" height="431" filterUnits="userSpaceOnUse" color-interpolation-filters="sRGB">
<feFlood flood-opacity="0" result="BackgroundImageFix"/>
<feColorMatrix in="SourceAlpha" type="matrix" values="0 0 0 0 0 0 0 0 0 0 0 0 0 0 0 0 0 0 127 0"/>
<feOffset dy="15"/>
<feGaussianBlur stdDeviation="15"/>
<feColorMatrix type="matrix" values="0 0 0 0 0 0 0 0 0 0 0 0 0 0 0 0 0 0 0.489159 0"/>
<feBlend mode="normal" in2="BackgroundImageFix" result="effect1_dropShadow"/>
<feBlend mode="normal" in="SourceGraphic" in2="effect1_dropShadow" result="shape"/>
</filter>
<linearGradient id="paint0_linear" x1="758.194" y1="331.698" x2="556.494" y2="18.1973" gradientUnits="userSpaceOnUse">
<stop stop-color="#187ADF"/>
<stop offset="1" stop-color="#4C59E0"/>
</linearGradient>
<linearGradient id="paint1_linear" x1="397.471" y1="31.7339" x2="394.889" y2="362.251" gradientUnits="userSpaceOnUse">
<stop stop-color="white"/>
<stop offset="1" stop-color="white" stop-opacity="0"/>
</linearGradient>
<linearGradient id="paint2_linear" x1="421.644" y1="9.68804" x2="419.061" y2="340.205" gradientUnits="userSpaceOnUse">
<stop stop-color="white"/>
<stop offset="1" stop-color="white" stop-opacity="0"/>
</linearGradient>
<linearGradient id="paint3_linear" x1="358.966" y1="100.901" x2="361.081" y2="361.442" gradientUnits="userSpaceOnUse">
<stop stop-color="white" stop-opacity="0"/>
<stop offset="1" stop-color="white"/>
</linearGradient>
<linearGradient id="paint4_linear" x1="363.271" y1="348.72" x2="353.016" y2="489.201" gradientUnits="userSpaceOnUse">
<stop stop-color="white"/>
<stop offset="1" stop-color="white" stop-opacity="0"/>
</linearGradient>
<linearGradient id="paint5_linear" x1="464.837" y1="151.591" x2="516.437" y2="259.614" gradientUnits="userSpaceOnUse">
<stop stop-color="white"/>
<stop offset="1" stop-color="white" stop-opacity="0"/>
</linearGradient>
<linearGradient id="paint6_linear" x1="193.262" y1="138.243" x2="140.684" y2="244.9" gradientUnits="userSpaceOnUse">
<stop stop-color="white"/>
<stop offset="1" stop-color="white" stop-opacity="0"/>
</linearGradient>
<linearGradient id="paint7_linear" x1="166.96" y1="227.25" x2="166.657" y2="266.023" gradientUnits="userSpaceOnUse">
<stop stop-color="white"/>
<stop offset="1" stop-color="white" stop-opacity="0"/>
</linearGradient>
<linearGradient id="paint8_linear" x1="485.974" y1="131.44" x2="485.671" y2="170.212" gradientUnits="userSpaceOnUse">
<stop stop-color="white"/>
<stop offset="1" stop-color="white" stop-opacity="0"/>
</linearGradient>
<clipPath id="clip0">
<rect x="240" y="0.483276" width="472" height="312" rx="7" fill="white"/>
</clipPath>
</defs>
</svg>
