<svg width="98" height="98" viewBox="0 0 98 98" fill="none" xmlns="http://www.w3.org/2000/svg">
<path d="M78.0777 29.0139C78.0777 13.0156 65.062 0 49.0635 0C33.0654 0 20.0498 13.0156 20.0498 29.0139C20.0498 39.2482 25.3772 48.2608 33.4036 53.4272C32.2684 55.2718 31.4324 57.3304 30.9655 59.5298C30.959 59.5578 30.9527 59.5857 30.9475 59.6141C30.6801 60.902 30.5381 62.2377 30.5381 63.607V78.9551C30.5381 89.4564 38.8199 98 49 98C53.4073 98 57.6738 96.3721 61.0144 93.4162C64.3052 90.5043 66.5062 86.4831 67.2123 82.0934C67.3522 81.2221 66.7596 80.4023 65.8882 80.262C65.0157 80.1225 64.1971 80.7147 64.0568 81.5862C62.8251 89.2453 56.4928 94.8045 49 94.8045C40.5821 94.8045 33.734 87.6945 33.734 78.9551V66.8837C34.7284 68.3927 35.9315 69.7597 37.3145 70.9275C40.5988 73.7014 44.7491 75.2286 49.001 75.2286C53.4087 75.2286 57.6755 73.6009 61.0153 70.645C62.2599 69.5427 63.3505 68.2706 64.2664 66.8798V71.686C64.2664 72.5686 64.9817 73.2839 65.8642 73.2839C66.7468 73.2839 67.4621 72.5686 67.4621 71.686V63.6068C67.4621 62.2434 67.3212 60.9133 67.0561 59.6301C67.0498 59.5928 67.0416 59.5564 67.033 59.5201C66.5705 57.3467 65.7473 55.3112 64.6314 53.4839C72.7081 48.3274 78.0777 39.2873 78.0777 29.0139ZM58.8967 68.2526C56.1419 70.6905 52.6277 72.0331 49.0008 72.0331C41.9779 72.0331 35.7914 66.9482 34.1608 59.8956C35.6538 53.4626 40.933 48.5452 47.4056 47.8447V51.4372C45.8833 52.0275 44.7996 53.504 44.7996 55.2322V57.0599C44.7996 58.7881 45.8833 60.2645 47.4056 60.8549V64.3207C47.4056 65.2033 48.1209 65.9186 49.0034 65.9186C49.886 65.9186 50.6013 65.2033 50.6013 64.3207V60.8549C52.1236 60.2646 53.2073 58.7881 53.2073 57.0599V55.2322C53.2073 53.504 52.1236 52.0277 50.6013 51.4372V47.8454C57.0731 48.549 62.3508 53.4688 63.8411 59.9031C63.0919 63.1275 61.3468 66.0824 58.8967 68.2526ZM47.9951 57.0597V55.232C47.9951 54.7483 48.3886 54.3552 48.8719 54.3552H49.1344C49.618 54.3552 50.0112 54.7487 50.0112 55.232V57.0597C50.0112 57.5434 49.6177 57.9366 49.1344 57.9366H48.8719C48.3883 57.9366 47.9951 57.5432 47.9951 57.0597ZM62.7395 50.901C61.0163 48.92 58.8974 47.3124 56.5125 46.2118C58.0681 45.539 59.5362 44.6591 60.8641 43.5824C64.1385 40.9269 66.4455 37.2109 67.3599 33.119C67.5522 32.2577 67.01 31.4036 66.1488 31.2113C65.2875 31.0189 64.4335 31.5608 64.2411 32.4223C62.6746 39.4318 56.3345 44.5253 49.1464 44.5644C49.099 44.564 49.0519 44.5624 49.0044 44.5624C49.004 44.5624 49.0036 44.5624 49.0033 44.5624C49.0031 44.5624 49.0029 44.5624 49.0027 44.5624C49.0019 44.5624 49.001 44.5624 49.0002 44.5624C48.9816 44.5624 48.9633 44.563 48.9449 44.563C40.4246 44.4985 33.5122 37.5497 33.5122 29.0143C33.5122 20.4391 40.4887 13.4626 49.0639 13.4626C55.3285 13.4626 60.9537 17.191 63.3945 22.9613C63.7381 23.774 64.676 24.1537 65.4885 23.8102C66.301 23.4666 66.6815 22.5289 66.3374 21.7162C63.3955 14.7609 56.6151 10.2668 49.0637 10.2668C38.7265 10.2668 30.3163 18.677 30.3163 29.0143C30.3163 36.679 34.9404 43.2829 41.5449 46.1861C39.1569 47.2777 37.0337 48.8765 35.3047 50.8499C28.0646 46.2717 23.2455 38.1961 23.2455 29.0145C23.2453 14.7783 34.8271 3.1961 49.0634 3.1961C63.2996 3.1961 74.8818 14.7783 74.8818 29.0145C74.882 38.2307 70.026 46.332 62.7395 50.901Z" fill="url(#paint0_linear)"/>
<path d="M22.7364 66.979H17.8224C16.9398 66.979 16.2245 67.6943 16.2245 68.5769C16.2245 69.4594 16.9398 70.1747 17.8224 70.1747H22.7364C23.619 70.1747 24.3342 69.4593 24.3342 68.5769C24.3342 67.6941 23.6191 66.979 22.7364 66.979Z" fill="url(#paint1_linear)"/>
<path d="M25.6042 61.88L22.1291 58.4046C21.5051 57.7806 20.4933 57.7804 19.8695 58.4044C19.2453 59.0284 19.2453 60.0402 19.8693 60.664L23.3443 64.1393C23.6565 64.4515 24.0653 64.6073 24.4744 64.6073C24.8832 64.6073 25.2923 64.4513 25.6041 64.1395C26.2282 63.5155 26.2282 62.5037 25.6042 61.88Z" fill="url(#paint2_linear)"/>
<path d="M25.6038 73.0139C24.9794 72.3898 23.9677 72.39 23.3441 73.0141L19.8691 76.4895C19.2451 77.1135 19.2451 78.1252 19.8693 78.749C20.1815 79.0612 20.5903 79.2168 20.999 79.2168C21.4076 79.2168 21.817 79.0608 22.129 78.7488L25.604 75.2735C26.228 74.6495 26.228 73.6377 25.6038 73.0139Z" fill="url(#paint3_linear)"/>
<path d="M80.1776 66.979H75.2632C74.3806 66.979 73.6653 67.6943 73.6653 68.5769C73.6653 69.4594 74.3804 70.1747 75.2632 70.1747H80.1776C81.0601 70.1747 81.7754 69.4594 81.7754 68.5769C81.7754 67.6943 81.0603 66.979 80.1776 66.979Z" fill="url(#paint4_linear)"/>
<path d="M78.1311 76.4893L74.6557 73.014C74.0315 72.39 73.0197 72.3898 72.3961 73.0138C71.772 73.6378 71.772 74.6495 72.3959 75.2733L75.8711 78.7487C76.1833 79.0609 76.5921 79.2167 77.0012 79.2167C77.41 79.2167 77.8191 79.0607 78.1309 78.7489C78.755 78.1249 78.755 77.1131 78.1311 76.4893Z" fill="url(#paint5_linear)"/>
<path d="M78.1307 58.4044C77.5069 57.7806 76.4951 57.7804 75.8709 58.4046L72.3958 61.88C71.7718 62.5039 71.7718 63.5157 72.396 64.1395C72.7079 64.4513 73.117 64.6073 73.5258 64.6073C73.9347 64.6073 74.3437 64.4513 74.6559 64.1393L78.1311 60.664C78.7548 60.04 78.7548 59.0282 78.1307 58.4044Z" fill="url(#paint6_linear)"/>
<path d="M50.9895 27.4205V21.1776C52.4568 21.6656 53.4881 22.8039 53.4881 24.1273C53.4881 25.0099 54.2032 25.7252 55.0859 25.7252C55.9687 25.7252 56.6838 25.0099 56.6838 24.1273C56.6838 21.0803 54.2443 18.5258 50.9897 17.8846V17.4074C50.9897 16.5249 50.2746 15.8096 49.3918 15.8096C48.5092 15.8096 47.794 16.5249 47.794 17.4074V17.8846C44.5393 18.5258 42.0994 21.0805 42.0994 24.1273C42.0994 27.1741 44.5393 29.7286 47.794 30.3698V36.6129C46.3266 36.125 45.2951 34.9866 45.2951 33.6634C45.2951 32.7808 44.5799 32.0655 43.6973 32.0655C42.8147 32.0655 42.0994 32.7806 42.0994 33.6634C42.0994 36.7102 44.5393 39.2647 47.794 39.9059V40.629C47.794 41.5116 48.509 42.2269 49.3918 42.2269C50.2744 42.2269 50.9897 41.5116 50.9897 40.629V39.9057C54.2441 39.2645 56.6838 36.7098 56.6838 33.6632C56.6836 30.6162 54.2441 28.0617 50.9895 27.4205ZM47.7938 27.0744C46.3274 26.5861 45.295 25.4501 45.295 24.1273C45.295 22.8039 46.3264 21.6655 47.7938 21.1776V27.0744ZM50.9895 36.6129V30.7161C52.4558 31.2044 53.4881 32.3404 53.4881 33.6634C53.4879 34.9866 52.4566 36.125 50.9895 36.6129Z" fill="url(#paint7_linear)"/>
<defs>
<linearGradient id="paint0_linear" x1="49.8572" y1="158.21" x2="133.825" y2="108.335" gradientUnits="userSpaceOnUse">
<stop stop-color="#102397"/>
<stop offset="0.552714" stop-color="#187ADF"/>
<stop offset="1" stop-color="#00EAF8"/>
</linearGradient>
<linearGradient id="paint1_linear" x1="20.3903" y1="72.1381" x2="22.5126" y2="66.7356" gradientUnits="userSpaceOnUse">
<stop stop-color="#102397"/>
<stop offset="0.552714" stop-color="#187ADF"/>
<stop offset="1" stop-color="#00EAF8"/>
</linearGradient>
<linearGradient id="paint2_linear" x1="22.828" y1="68.7057" x2="29.3367" y2="62.1765" gradientUnits="userSpaceOnUse">
<stop stop-color="#102397"/>
<stop offset="0.552714" stop-color="#187ADF"/>
<stop offset="1" stop-color="#00EAF8"/>
</linearGradient>
<linearGradient id="paint3_linear" x1="22.8278" y1="83.3153" x2="29.3367" y2="76.7861" gradientUnits="userSpaceOnUse">
<stop stop-color="#102397"/>
<stop offset="0.552714" stop-color="#187ADF"/>
<stop offset="1" stop-color="#00EAF8"/>
</linearGradient>
<linearGradient id="paint4_linear" x1="77.8313" y1="72.1381" x2="79.9535" y2="66.7355" gradientUnits="userSpaceOnUse">
<stop stop-color="#102397"/>
<stop offset="0.552714" stop-color="#187ADF"/>
<stop offset="1" stop-color="#00EAF8"/>
</linearGradient>
<linearGradient id="paint5_linear" x1="75.3547" y1="83.3151" x2="81.8635" y2="76.7857" gradientUnits="userSpaceOnUse">
<stop stop-color="#102397"/>
<stop offset="0.552714" stop-color="#187ADF"/>
<stop offset="1" stop-color="#00EAF8"/>
</linearGradient>
<linearGradient id="paint6_linear" x1="75.3545" y1="68.7057" x2="81.8633" y2="62.1763" gradientUnits="userSpaceOnUse">
<stop stop-color="#102397"/>
<stop offset="0.552714" stop-color="#187ADF"/>
<stop offset="1" stop-color="#00EAF8"/>
</linearGradient>
<linearGradient id="paint7_linear" x1="49.591" y1="58.4573" x2="71.4397" y2="46.3573" gradientUnits="userSpaceOnUse">
<stop stop-color="#102397"/>
<stop offset="0.552714" stop-color="#187ADF"/>
<stop offset="1" stop-color="#00EAF8"/>
</linearGradient>
</defs>
</svg>
