<svg width="97" height="98" viewBox="0 0 97 98" fill="none" xmlns="http://www.w3.org/2000/svg">
<g clip-path="url(#clip0)">
<path d="M76.4761 40.4741H74.1004C73.2326 40.4741 72.5296 41.1896 72.5296 42.072C72.5296 42.9544 73.2328 43.6699 74.1004 43.6699H76.4761C77.3436 43.6699 78.0469 42.9544 78.0469 42.072C78.0469 41.1896 77.3439 40.4741 76.4761 40.4741Z" fill="url(#paint0_linear)"/>
<path d="M68.0381 40.4741H65.6622C64.7944 40.4741 64.0914 41.1896 64.0914 42.072C64.0914 42.9544 64.7946 43.6699 65.6622 43.6699H68.0381C68.9056 43.6699 69.6089 42.9544 69.6089 42.072C69.6089 41.1896 68.906 40.4741 68.0381 40.4741Z" fill="url(#paint1_linear)"/>
<path d="M59.3918 40.4741H57.0159C56.1481 40.4741 55.4451 41.1896 55.4451 42.072C55.4451 42.9544 56.1483 43.6699 57.0159 43.6699H59.3918C60.2593 43.6699 60.9626 42.9544 60.9626 42.072C60.9626 41.1896 60.2595 40.4741 59.3918 40.4741Z" fill="url(#paint2_linear)"/>
<path d="M95.7803 81.8965C95.2356 81.1395 94.3591 80.6875 93.4356 80.6875H89.4357V31.521C89.4357 28.9835 87.4041 26.9211 84.9075 26.9211H41.3563L48.6004 22.6705C50.3012 24.4112 52.6549 25.4907 55.2525 25.4907C60.4268 25.4907 64.6364 21.2086 64.6364 15.9451C64.6364 10.6816 60.4268 6.39941 55.2525 6.39941C50.0782 6.39941 45.8686 10.6816 45.8686 15.9451C45.8686 17.4132 46.1968 18.8047 46.7814 20.0485L37.2436 25.6446C35.6894 24.4966 33.7731 23.8165 31.7011 23.8165C28.9477 23.8165 26.4677 25.0153 24.7498 26.9211H11.4314C8.93491 26.9211 6.90331 28.9835 6.90331 31.521V80.6875H2.90335C1.97966 80.6875 1.10319 81.1395 0.55865 81.8965C0.0146716 82.6523 -0.143762 83.6369 0.135096 84.5316L0.907316 87.0034C1.76289 89.7528 4.24608 91.6002 7.08583 91.6002H57.016C57.8838 91.6002 58.5867 90.8848 58.5867 90.0024C58.5867 89.12 57.8836 88.4045 57.016 88.4045H7.08564C5.62192 88.4045 4.34242 87.4538 3.90155 86.0372L3.22887 83.8837H93.1099L92.4363 86.0389C91.9958 87.454 90.7169 88.4047 89.2529 88.4047H66.4454C65.5776 88.4047 64.8746 89.1202 64.8746 90.0026C64.8746 90.8849 65.5777 91.6004 66.4454 91.6004H89.2529C92.0929 91.6004 94.5759 89.753 95.4309 87.0053L96.2043 84.5306C96.4827 83.6369 96.3241 82.6521 95.7803 81.8965ZM55.2529 9.59534C58.6947 9.59534 61.495 12.4439 61.495 15.9451C61.495 19.4463 58.6947 22.2948 55.2529 22.2948C51.8106 22.2948 49.0108 19.4463 49.0108 15.9451C49.0108 12.4439 51.8106 9.59534 55.2529 9.59534ZM38.8101 39.4039H81.0771V44.7834H38.2083L35.9267 41.6757C37.0308 41.1134 38.0093 40.3384 38.8101 39.4039ZM47.3275 69.4803C52.5017 69.4803 56.7115 65.1981 56.7115 59.9346C56.7115 54.6711 52.5017 50.389 47.3275 50.389C45.8011 50.389 44.3599 50.7639 43.0846 51.4247L40.5547 47.9793H81.0788V71.5792H15.2598V47.9793H36.6334L40.5621 53.3299C38.9422 55.0461 37.9434 57.3732 37.9434 59.9348C37.9436 65.1981 42.1532 69.4803 47.3275 69.4803ZM41.0853 59.9346C41.0853 56.4332 43.8856 53.5849 47.3275 53.5849C50.7697 53.5849 53.5699 56.4334 53.5699 59.9346C53.5699 63.4358 50.7697 66.2844 47.3275 66.2844C43.8856 66.2844 41.0853 63.4358 41.0853 59.9346ZM31.7015 27.0124C35.1433 27.0124 37.9436 29.8123 37.9436 33.2538C37.9436 36.6953 35.1433 39.495 31.7015 39.495C28.2596 39.495 25.4594 36.6951 25.4594 33.2538C25.4594 29.8121 28.2596 27.0124 31.7015 27.0124ZM31.7015 42.6908C32.0422 42.6908 32.3783 42.6714 32.7098 42.6356L34.2872 44.7836H15.2598V39.4041H24.5931C26.3153 41.4143 28.8621 42.6908 31.7015 42.6908ZM86.2939 80.6872H10.0447V31.521C10.0447 30.7454 10.6668 30.117 11.4313 30.117H22.8527C22.5077 31.099 22.3176 32.1542 22.3176 33.2538C22.3176 34.2847 22.4851 35.2768 22.7905 36.2061H13.689C12.8261 36.2061 12.1182 36.9189 12.1182 37.8039V46.3815V73.1771C12.1182 74.0591 12.822 74.775 13.689 74.775H82.6497C83.5168 74.775 84.2205 74.0591 84.2205 73.1771V37.8039C84.2205 36.9618 83.4799 36.2061 82.6497 36.2061H40.6127C40.9181 35.2766 41.0855 34.2847 41.0855 33.2538C41.0855 32.1544 40.8959 31.0991 40.5504 30.117H84.9073C85.6718 30.117 86.2939 30.7456 86.2939 31.521V80.6872Z" fill="url(#paint3_linear)"/>
<path d="M49.0205 31.6558H47.3184C46.451 31.6558 45.7476 32.3712 45.7476 33.2536C45.7476 34.136 46.451 34.8515 47.3184 34.8515H49.0205C49.8883 34.8515 50.5913 34.136 50.5913 33.2536C50.5913 32.3712 49.8881 31.6558 49.0205 31.6558Z" fill="url(#paint4_linear)"/>
<path d="M50.4182 58.3364H48.8982V56.7903C48.8982 55.9079 48.1948 55.1924 47.3274 55.1924C46.46 55.1924 45.7566 55.9079 45.7566 56.7903V58.3364H44.2366C43.3692 58.3364 42.6658 59.0519 42.6658 59.9343C42.6658 60.8167 43.3692 61.5322 44.2366 61.5322H45.7566V63.0784C45.7566 63.9607 46.46 64.6762 47.3274 64.6762C48.1948 64.6762 48.8982 63.9607 48.8982 63.0784V61.5322H50.4182C51.286 61.5322 51.9889 60.8167 51.9889 59.9343C51.9891 59.0519 51.286 58.3364 50.4182 58.3364Z" fill="url(#paint5_linear)"/>
<path d="M58.3437 14.3472H56.8237V12.801C56.8237 11.9186 56.1205 11.2031 55.2529 11.2031C54.3851 11.2031 53.6821 11.9186 53.6821 12.801V14.3472H52.1622C51.2943 14.3472 50.5914 15.0627 50.5914 15.945C50.5914 16.8274 51.2945 17.5429 52.1622 17.5429H53.6821V19.0891C53.6821 19.9715 54.3853 20.687 55.2529 20.687C56.1207 20.687 56.8237 19.9715 56.8237 19.0891V17.5429H58.3437C59.2115 17.5429 59.9145 16.8274 59.9145 15.945C59.9145 15.0627 59.2113 14.3472 58.3437 14.3472Z" fill="url(#paint6_linear)"/>
<path d="M34.7923 31.6559H33.2723V30.1526C33.2723 29.2702 32.5689 28.5547 31.7015 28.5547C30.8341 28.5547 30.1307 29.2702 30.1307 30.1526V31.6559H28.6108C27.7433 31.6559 27.04 32.3713 27.04 33.2537C27.04 34.1361 27.7433 34.8516 28.6108 34.8516H30.1307V36.3547C30.1307 37.2371 30.8341 37.9526 31.7015 37.9526C32.5689 37.9526 33.2723 37.2371 33.2723 36.3547V34.8516H34.7923C35.6597 34.8516 36.3631 34.1361 36.3631 33.2537C36.3631 32.3713 35.6599 31.6559 34.7923 31.6559Z" fill="url(#paint7_linear)"/>
</g>
<defs>
<linearGradient id="paint0_linear" x1="75.3637" y1="45.6333" x2="78.0642" y2="40.9563" gradientUnits="userSpaceOnUse">
<stop stop-color="#102397"/>
<stop offset="0.552714" stop-color="#187ADF"/>
<stop offset="1" stop-color="#00EAF8"/>
</linearGradient>
<linearGradient id="paint1_linear" x1="66.9256" y1="45.6333" x2="69.6261" y2="40.9562" gradientUnits="userSpaceOnUse">
<stop stop-color="#102397"/>
<stop offset="0.552714" stop-color="#187ADF"/>
<stop offset="1" stop-color="#00EAF8"/>
</linearGradient>
<linearGradient id="paint2_linear" x1="58.2793" y1="45.6333" x2="60.9798" y2="40.9562" gradientUnits="userSpaceOnUse">
<stop stop-color="#102397"/>
<stop offset="0.552714" stop-color="#187ADF"/>
<stop offset="1" stop-color="#00EAF8"/>
</linearGradient>
<linearGradient id="paint3_linear" x1="49.4869" y1="143.947" x2="131.963" y2="50.3958" gradientUnits="userSpaceOnUse">
<stop stop-color="#102397"/>
<stop offset="0.552714" stop-color="#187ADF"/>
<stop offset="1" stop-color="#00EAF8"/>
</linearGradient>
<linearGradient id="paint4_linear" x1="48.2357" y1="36.8149" x2="51.0988" y2="32.4618" gradientUnits="userSpaceOnUse">
<stop stop-color="#102397"/>
<stop offset="0.552714" stop-color="#187ADF"/>
<stop offset="1" stop-color="#00EAF8"/>
</linearGradient>
<linearGradient id="paint5_linear" x1="47.4549" y1="70.5029" x2="56.7075" y2="61.3786" gradientUnits="userSpaceOnUse">
<stop stop-color="#102397"/>
<stop offset="0.552714" stop-color="#187ADF"/>
<stop offset="1" stop-color="#00EAF8"/>
</linearGradient>
<linearGradient id="paint6_linear" x1="55.3804" y1="26.5137" x2="64.633" y2="17.3894" gradientUnits="userSpaceOnUse">
<stop stop-color="#102397"/>
<stop offset="0.552714" stop-color="#187ADF"/>
<stop offset="1" stop-color="#00EAF8"/>
</linearGradient>
<linearGradient id="paint7_linear" x1="31.829" y1="43.7265" x2="40.9986" y2="34.6014" gradientUnits="userSpaceOnUse">
<stop stop-color="#102397"/>
<stop offset="0.552714" stop-color="#187ADF"/>
<stop offset="1" stop-color="#00EAF8"/>
</linearGradient>
<clipPath id="clip0">
<rect width="96.339" height="98" fill="white"/>
</clipPath>
</defs>
</svg>
